<svg width="360" height="140" viewBox="0 0 360 140" fill="none" xmlns="http://www.w3.org/2000/svg">
<rect width="360" height="140" fill="#FF8743"/>
<path d="M176 37.3071L199.46 28.8994V47.342L176 55.7497V37.3071Z" fill="#201F1F"/>
<path d="M182.238 30.4077L205.698 22V40.4426L182.238 48.8503V30.4077Z" fill="#201F1F"/>
<line x1="176.75" y1="38" x2="176.75" y2="72" stroke="#201F1F" stroke-width="1.5"/>
<path d="M259.29 98.644C259.92 96.4309 258.679 93.5557 255.29 90.1311C251.95 86.7562 246.727 83.0606 239.983 79.276C226.505 71.7128 207.103 63.8767 184.973 57.5766C162.843 51.2766 142.223 47.7186 126.783 47.0493C119.057 46.7144 112.67 47.105 108.054 48.2148C103.369 49.3409 100.8 51.1315 100.17 53.3446C99.5399 55.5578 100.781 58.433 104.17 61.8576C107.51 65.2325 112.733 68.9281 119.477 72.7127C132.954 80.2759 152.357 88.1119 174.487 94.412C196.616 100.712 217.237 104.27 232.677 104.939C240.403 105.274 246.789 104.884 251.406 103.774C256.091 102.648 258.66 100.857 259.29 98.644Z" stroke="#201F1F" stroke-width="1.5"/>
<circle cx="138" cy="46" r="16" fill="#E1FC31"/>
<path d="M148 46C148 51.5228 143.523 56 138 56C132.477 56 128 51.5228 128 46" stroke="#201F1F" stroke-width="1.5"/>
<circle cx="230" cy="72" r="16" fill="#E1FC31"/>
<path d="M240 72C240 77.5228 235.523 82 230 82C224.477 82 220 77.5228 220 72" stroke="#201F1F" stroke-width="1.5"/>
<circle cx="176" cy="98" r="16" fill="#E1FC31"/>
<path d="M186 98C186 103.523 181.523 108 176 108C170.477 108 166 103.523 166 98" stroke="#201F1F" stroke-width="1.5"/>
</svg>
