<svg width="360" height="140" viewBox="0 0 360 140" fill="none" xmlns="http://www.w3.org/2000/svg">
<rect width="360" height="140" fill="#6038D0"/>
<line x1="59.5303" y1="29.4697" x2="140.53" y2="110.47" stroke="white" stroke-width="1.5"/>
<line x1="219.53" y1="28.4697" x2="300.53" y2="109.47" stroke="white" stroke-width="1.5"/>
<line x1="158.53" y1="91.5303" x2="139.53" y2="110.53" stroke="#201F1F" stroke-width="1.5"/>
<line y1="-0.75" x2="26.8701" y2="-0.75" transform="matrix(0.707107 0.707107 0.707107 -0.707107 202 90)" stroke="#201F1F" stroke-width="1.5"/>
<line x1="219.53" y1="30.5303" x2="200.53" y2="49.5303" stroke="#201F1F" stroke-width="1.5"/>
<line y1="-0.75" x2="26.8701" y2="-0.75" transform="matrix(0.707107 0.707107 0.707107 -0.707107 141 29)" stroke="#201F1F" stroke-width="1.5"/>
<line y1="-0.75" x2="114.551" y2="-0.75" transform="matrix(-0.707107 0.707107 0.707107 0.707107 141 29)" stroke="white" stroke-width="1.5"/>
<line y1="-0.75" x2="114.551" y2="-0.75" transform="matrix(-0.707107 0.707107 0.707107 0.707107 301 29)" stroke="white" stroke-width="1.5"/>
<circle cx="60" cy="30" r="16" fill="#E1FC31"/>
<path d="M70 30C70 35.5228 65.5228 40 60 40C54.4772 40 50 35.5228 50 30" stroke="#201F1F" stroke-width="1.5"/>
<circle cx="100" cy="70" r="16" fill="#E1FC31"/>
<path d="M110 70C110 75.5228 105.523 80 100 80C94.4772 80 90 75.5228 90 70" stroke="#201F1F" stroke-width="1.5"/>
<circle cx="140" cy="110" r="16" fill="#E1FC31"/>
<path d="M150 110C150 115.523 145.523 120 140 120C134.477 120 130 115.523 130 110" stroke="#201F1F" stroke-width="1.5"/>
<circle cx="300" cy="110" r="16" fill="#E1FC31"/>
<path d="M310 110C310 115.523 305.523 120 300 120C294.477 120 290 115.523 290 110" stroke="#201F1F" stroke-width="1.5"/>
<circle cx="220" cy="30" r="16" fill="#E1FC31"/>
<path d="M230 30C230 35.5228 225.523 40 220 40C214.477 40 210 35.5228 210 30" stroke="#201F1F" stroke-width="1.5"/>
<circle cx="260" cy="70" r="16" fill="#E1FC31"/>
<path d="M270 70C270 75.5228 265.523 80 260 80C254.477 80 250 75.5228 250 70" stroke="#201F1F" stroke-width="1.5"/>
<circle cx="300" cy="30" r="16" fill="#E1FC31"/>
<path d="M310 30C310 35.5228 305.523 40 300 40C294.477 40 290 35.5228 290 30" stroke="#201F1F" stroke-width="1.5"/>
<circle cx="220" cy="110" r="16" fill="#E1FC31"/>
<path d="M230 110C230 115.523 225.523 120 220 120C214.477 120 210 115.523 210 110" stroke="#201F1F" stroke-width="1.5"/>
<circle cx="60" cy="110" r="16" fill="#E1FC31"/>
<path d="M70 110C70 115.523 65.5228 120 60 120C54.4772 120 50 115.523 50 110" stroke="#201F1F" stroke-width="1.5"/>
<circle cx="140" cy="30" r="16" fill="#E1FC31"/>
<path d="M150 30C150 35.5228 145.523 40 140 40C134.477 40 130 35.5228 130 30" stroke="#201F1F" stroke-width="1.5"/>
<path d="M165 68.3071L188.46 59.8994V78.342L165 86.7497V68.3071Z" fill="#201F1F"/>
<path d="M171.238 61.4077L194.698 53V71.4426L171.238 79.8503V61.4077Z" fill="#201F1F"/>
</svg>
