<svg width="360" height="141" viewBox="0 0 360 141" fill="none" xmlns="http://www.w3.org/2000/svg">
<rect width="360" height="140" fill="#F6E3DD"/>
<path d="M181.179 31.3071L204.639 22.8994V41.342L181.179 49.7497V31.3071Z" fill="#201F1F"/>
<path d="M187.417 24.4077L210.877 16V34.4426L187.417 42.8503V24.4077Z" fill="#201F1F"/>
<line x1="181.929" y1="31.4126" x2="181.929" y2="58.7501" stroke="#201F1F" stroke-width="1.5"/>
<path d="M181.857 56.0361C168.625 71.9826 130.625 140.179 38 140.179H323C246.321 140.179 196.786 73.3397 181.857 56.0361Z" fill="#19D992"/>
<path d="M175.75 63.1599C164.553 62.8207 149.068 66.2514 148.904 70.4832C148.74 74.715 162.997 78.7037 180.748 79.3923C198.498 80.0809 213.021 77.2086 213.186 72.9768C213.297 70.1162 201.536 64.5171 188.982 63.8385" stroke="#201F1F" stroke-width="1.5"/>
<path d="M263.004 94.2143C263.634 92.0012 262.393 89.126 259.004 85.7014C255.664 82.3265 250.441 78.6309 243.697 74.8463C230.22 67.2831 210.817 59.447 188.687 53.1469C166.558 46.8469 145.937 43.2889 130.497 42.6196C122.771 42.2847 116.385 42.6753 111.768 43.7851C107.083 44.9112 104.514 46.7018 103.884 48.915C103.254 51.1281 104.495 54.0033 107.884 57.4279C111.224 60.8028 116.447 64.4984 123.191 68.283C136.669 75.8462 156.071 83.6823 178.201 89.9823C200.331 96.2824 220.951 99.8404 236.391 100.51C244.117 100.845 250.504 100.454 255.12 99.3442C259.805 98.2181 262.374 96.4275 263.004 94.2143Z" stroke="#201F1F" stroke-width="1.5"/>
<path d="M304.916 56.4345C304.737 54.6751 303.787 52.9759 302.019 51.3494C300.247 49.7187 297.688 48.1958 294.388 46.8088C287.79 44.035 278.38 41.865 266.811 40.4055C243.685 37.4879 212.103 37.4289 177.554 40.933C143.005 44.4371 112.078 50.8361 90.0095 58.3375C78.9693 62.0902 70.1862 66.1054 64.2795 70.1475C61.3257 72.1687 59.1245 74.1744 57.7156 76.1278C56.3103 78.0761 55.7205 79.9316 55.899 81.691C56.0774 83.4504 57.0278 85.1497 58.7956 86.7761C60.568 88.4068 63.1271 89.9297 66.4266 91.3167C73.0246 94.0905 82.435 96.2605 94.0038 97.72C117.129 100.638 148.711 100.697 183.26 97.1925C217.809 93.6884 248.737 87.2894 270.805 79.788C281.845 76.0353 290.628 72.0201 296.535 67.978C299.489 65.9568 301.69 63.9511 303.099 61.9977C304.504 60.0494 305.094 58.1939 304.916 56.4345Z" stroke="#201F1F" stroke-width="1.5"/>
<circle cx="78.3936" cy="94.5719" r="4" transform="rotate(-5.95874 78.3936 94.5719)" fill="#E1FC31"/>
<circle cx="269.394" cy="40.5719" r="4" transform="rotate(-5.95874 269.394 40.5719)" fill="#E1FC31"/>
<circle cx="109.394" cy="43.5719" r="4" transform="rotate(-5.95874 109.394 43.5719)" fill="#E1FC31"/>
<circle cx="182.394" cy="78.5719" r="4" transform="rotate(-5.95874 182.394 78.5719)" fill="#E1FC31"/>
<circle cx="248.394" cy="100.572" r="4" transform="rotate(-5.95874 248.394 100.572)" fill="#E1FC31"/>
</svg>
