<svg width="360" height="140" viewBox="0 0 360 140" fill="none" xmlns="http://www.w3.org/2000/svg">
<rect width="360" height="140" fill="#19D992"/>
<path d="M178 46.3073L201.46 37.8997V56.3423L178 64.7499V46.3073Z" fill="#201F1F"/>
<path d="M184.238 39.4079L207.698 31.0002V49.4429L184.238 57.8505V39.4079Z" fill="#201F1F"/>
<line x1="178.75" y1="47.0002" x2="178.75" y2="81.0002" stroke="#201F1F" stroke-width="1.5"/>
<circle cx="58" cy="104" r="16" fill="#E1FC31"/>
<path d="M68 104C68 109.523 63.5228 114 58 114C52.4772 114 48 109.523 48 104" stroke="#201F1F" stroke-width="1.5"/>
<circle cx="73" cy="42.0002" r="16" fill="#E1FC31"/>
<path d="M83 42.0002C83 47.5231 78.5228 52.0002 73 52.0002C67.4772 52.0002 63 47.5231 63 42.0002" stroke="#201F1F" stroke-width="1.5"/>
<circle cx="302" cy="104" r="16" fill="#E1FC31"/>
<path d="M312 104C312 109.523 307.523 114 302 114C296.477 114 292 109.523 292 104" stroke="#201F1F" stroke-width="1.5"/>
<circle cx="287" cy="42.0002" r="16" fill="#E1FC31"/>
<path d="M297 42.0002C297 47.5231 292.523 52.0002 287 52.0002C281.477 52.0002 277 47.5231 277 42.0002" stroke="#201F1F" stroke-width="1.5"/>
<rect x="161.556" y="112.933" width="37.5441" height="7.23326" fill="white"/>
<rect x="161.556" y="93.6445" width="37.5441" height="7.23326" fill="white"/>
<rect x="134" y="115" width="27.5553" height="5.16662" fill="white"/>
<rect x="161.556" y="103.289" width="37.5441" height="7.23326" fill="white"/>
<rect x="134" y="107.767" width="27.5553" height="5.16662" fill="white"/>
<rect x="134" y="100.533" width="27.5553" height="5.51106" fill="white"/>
<rect x="161.556" y="84.0002" width="37.5441" height="7.23326" fill="white"/>
<rect x="134" y="93.6445" width="27.5553" height="5.16662" fill="white"/>
<rect x="199.1" y="115" width="27.5553" height="5.16662" fill="white"/>
<rect x="199.1" y="107.766" width="27.5553" height="5.16662" fill="white"/>
<rect x="199.1" y="100.533" width="27.5553" height="5.51106" fill="white"/>
<path d="M106.806 49.2762C106.406 49.3834 106.168 49.7947 106.275 50.1948L108.023 56.7148C108.13 57.1149 108.541 57.3523 108.941 57.2451C109.341 57.1379 109.579 56.7266 109.471 56.3265L107.919 50.531L113.714 48.9781C114.114 48.8709 114.352 48.4596 114.244 48.0595C114.137 47.6594 113.726 47.422 113.326 47.5292L106.806 49.2762ZM146.668 72.0372L107.375 49.3511L106.625 50.6502L145.918 73.3363L146.668 72.0372Z" fill="#201F1F"/>
<path d="M253.018 50.1948C253.125 49.7947 252.888 49.3834 252.488 49.2762L245.968 47.5292C245.568 47.422 245.156 47.6594 245.049 48.0595C244.942 48.4596 245.179 48.8709 245.579 48.9781L251.375 50.531L249.822 56.3265C249.715 56.7266 249.952 57.1379 250.352 57.2451C250.752 57.3523 251.164 57.1149 251.271 56.7148L253.018 50.1948ZM213.375 73.3363L252.669 50.6502L251.919 49.3511L212.625 72.0372L213.375 73.3363Z" fill="#201F1F"/>
<path fill-rule="evenodd" clip-rule="evenodd" d="M181.032 30.3951C175.193 30.465 170.482 35.1313 170.482 40.8774C170.482 40.8991 170.482 40.9209 170.482 40.9426L170.481 40.9426C170.482 40.9209 170.482 40.8992 170.482 40.8775C170.482 35.1538 165.807 30.5014 160 30.3962L160 30.3929C165.777 30.2882 170.433 25.6831 170.481 19.9999C170.529 25.7058 175.223 30.325 181.032 30.394L181.032 30.3951Z" fill="#6038D0"/>
<path fill-rule="evenodd" clip-rule="evenodd" d="M167.791 47.4629C163.407 47.5151 159.869 51.0188 159.869 55.3333C159.869 55.3499 159.87 55.3665 159.87 55.3831L159.869 55.3831C159.869 55.3667 159.869 55.3504 159.869 55.3341C159.869 51.0366 156.36 47.5436 152 47.4644L152 47.4617C156.341 47.3829 159.839 43.9196 159.869 39.6476C159.899 43.9367 163.426 47.4107 167.791 47.4625L167.791 47.4629Z" fill="#6038D0"/>
<path d="M270.882 108.531C271.175 108.238 271.175 107.763 270.882 107.47L266.11 102.697C265.817 102.404 265.342 102.404 265.049 102.697C264.756 102.99 264.756 103.465 265.049 103.758L269.292 108L265.049 112.243C264.756 112.536 264.756 113.011 265.049 113.304C265.342 113.596 265.817 113.596 266.11 113.304L270.882 108.531ZM246.106 108.75H270.352V107.25H246.106V108.75Z" fill="#201F1F"/>
<path d="M89.6136 108.531C89.3207 108.238 89.3207 107.763 89.6136 107.47L94.3865 102.697C94.6794 102.404 95.1543 102.404 95.4472 102.697C95.7401 102.99 95.7401 103.465 95.4472 103.758L91.2046 108L95.4472 112.243C95.7401 112.536 95.7401 113.011 95.4472 113.304C95.1543 113.596 94.6794 113.596 94.3865 113.304L89.6136 108.531ZM115.045 108.75H90.1439V107.25H115.045V108.75Z" fill="#201F1F"/>
</svg>
