<svg width="360" height="224" viewBox="0 0 360 224" fill="none" xmlns="http://www.w3.org/2000/svg">
<g clip-path="url(#clip0_6494_46912)">
<rect x="56.8034" y="94.3342" width="227.284" height="77.6599" rx="7.5" transform="rotate(-6.76016 56.8034 94.3342)" stroke="#201F1F" stroke-dasharray="4 4"/>
<path d="M98.792 107.688L264.362 88.9448" stroke="#E8E0FF" stroke-width="5"/>
<path d="M101.292 123.303L266.862 104.559" stroke="#E8E0FF" stroke-width="5"/>
<path d="M102.292 139.303L195.008 129.195" stroke="#E8E0FF" stroke-width="5"/>
<path d="M155.792 81.1885L205.292 62.6885C274.409 37.8945 328.979 29.3426 335.959 45.7906C344.2 65.2122 281.229 110.513 195.309 146.973C109.389 183.433 33.0557 197.245 24.8142 177.823C21.2921 171.724 23.4479 154.325 60.2479 133.525" stroke="#201F1F" stroke-width="1.5"/>
<path d="M288.748 144.524C302.667 156.524 304.074 164.024 302.667 171.01C298.882 189.81 231.888 192.179 153.031 176.301C74.1743 160.424 15.4628 126.324 19.248 107.524C20.8562 99.5359 29.748 87.5244 74.748 91.0246" stroke="#201F1F" stroke-width="1.5"/>
<circle cx="333.782" cy="48.5589" r="12" transform="rotate(-2.61158 333.782 48.5589)" fill="#FFF3EC"/>
<path d="M328.579 53.0009L338.466 52.5499L340.838 45.2342L330.69 45.6971C330.488 45.7063 328.579 53.0009 328.579 53.0009Z" fill="#401700"/>
<path fill-rule="evenodd" clip-rule="evenodd" d="M336.624 52.6332L335.807 55.4438C335.606 56.1339 334.768 56.3982 334.208 55.9481C333.366 55.271 332.853 54.2656 332.801 53.1859L332.783 52.8084L326.78 53.0822C326.78 53.0822 328.978 45.7745 328.891 45.7784L339.039 45.3156L336.667 52.6312L336.624 52.6332Z" fill="#FF8743"/>
<circle cx="53.7824" cy="184.559" r="12" transform="rotate(-2.61158 53.7824 184.559)" fill="#CFF9EA"/>
<path d="M59.6598 181.742L49.7732 182.193L47.4009 189.509L57.5489 189.046C57.7506 189.037 59.6598 181.742 59.6598 181.742Z" fill="#0C422A"/>
<path fill-rule="evenodd" clip-rule="evenodd" d="M51.6611 182.107L52.6116 178.836C52.8122 178.146 53.65 177.882 54.2102 178.332C55.0528 179.009 55.565 180.014 55.6174 181.094L55.6577 181.925L61.4583 181.66C61.4583 181.66 59.2603 188.968 59.3474 188.964L49.1995 189.427L51.5717 182.111L51.6611 182.107Z" fill="#19D992"/>
<circle cx="27.041" cy="98.8174" r="8.79296" fill="#E1FC31"/>
<path d="M32.5366 98.8174C32.5366 101.853 30.0761 104.313 27.041 104.313C24.0059 104.313 21.5454 101.853 21.5454 98.8174" stroke="#201F1F" stroke-width="1.5"/>
<circle cx="282.14" cy="183.917" r="6.08114" transform="rotate(68.4018 282.14 183.917)" fill="#E1FC31"/>
<path d="M283.54 187.451C281.588 188.223 279.379 187.267 278.607 185.316C277.834 183.364 278.79 181.155 280.742 180.383" stroke="#201F1F" stroke-width="1.5"/>
<circle cx="239.371" cy="51.1474" r="4" transform="rotate(-19.9138 239.371 51.1474)" fill="#19D992"/>
<circle cx="87.4152" cy="157.811" r="4" transform="rotate(-19.9138 87.4152 157.811)" fill="#FF8743"/>
<circle cx="189.371" cy="182.147" r="4" transform="rotate(-19.9138 189.371 182.147)" fill="#19D992"/>
<mask id="mask0_6494_46912" style="mask-type:alpha" maskUnits="userSpaceOnUse" x="71" y="104" width="18" height="22">
<path fill-rule="evenodd" clip-rule="evenodd" d="M87.7556 104.995L75.0461 111.235L75.3447 113.862L71.9656 115.521L73.1463 125.907L85.8558 119.666L85.5572 117.039L88.9363 115.38L87.7556 104.995Z" fill="#ADD5E5"/>
</mask>
<g mask="url(#mask0_6494_46912)">
<path fill-rule="evenodd" clip-rule="evenodd" d="M87.7556 104.995L75.0461 111.235L75.3447 113.862L71.9656 115.521L73.1463 125.907L85.8558 119.666L85.5572 117.039L88.9363 115.38L87.7556 104.995Z" fill="#201F1F"/>
</g>
</g>
<defs>
<clipPath id="clip0_6494_46912">
<rect width="360" height="224" fill="white"/>
</clipPath>
</defs>
</svg>
