<svg width="400" height="205" viewBox="0 0 400 205" fill="none" xmlns="http://www.w3.org/2000/svg">
    <ellipse rx="123.01" ry="29.3256" transform="matrix(0.999429 0.033782 0.033782 -0.999429 204.875 98.04)" stroke="#8C8C8C" stroke-width="1.5" stroke-dasharray="4 4"/>
    <ellipse rx="169" ry="38.2011" transform="matrix(0.920548 -0.390629 -0.390629 -0.920548 197.996 102.783)" stroke="#8C8C8C" stroke-width="1.5" stroke-dasharray="4 4"/>
    <path d="M228 69.9543C285.242 74.3786 328.301 87.8116 327.815 102.196C327.268 118.382 271.782 129.644 203.885 127.349C135.987 125.054 81.3884 110.071 81.9355 93.8845C82.3193 82.5306 109.733 73.6 149.5 70.0713" stroke="#201F1F" stroke-width="1.5"/>
    <path d="M221.655 52.5005C290.772 27.7065 346.589 20.3184 353.569 36.7664C361.81 56.188 298.839 101.489 212.919 137.949C126.998 174.408 50.6652 188.221 42.4237 168.799C35.3001 152.011 81.3816 115.889 149.5 82.8533" stroke="#201F1F" stroke-width="1.5"/>
    <ellipse rx="6.39122" ry="5.83233" transform="matrix(0.384338 0.916886 -0.932084 0.348504 253.153 72.1836)" fill="#E1FC31"/>
    <path d="M254.553 75.8658C252.716 76.5569 250.554 75.5019 249.724 73.5094C248.894 71.517 249.71 69.3415 251.547 68.6504" stroke="#201F1F" stroke-width="1.5"/>
    <ellipse cx="96.2273" cy="81.6855" rx="4" ry="4" transform="rotate(-19.9138 96.2273 81.6855)" fill="#FF8743"/>
    <circle cx="292.693" cy="80.7226" r="4" transform="rotate(-19.9138 292.693 80.7226)" fill="#FF8743"/>
    <ellipse cx="177.693" cy="150.723" rx="4" ry="4" transform="rotate(-19.9138 177.693 150.723)" fill="#FF8743"/>
    <circle cx="125.104" cy="166.134" r="12" transform="rotate(-2.61158 125.104 166.134)" fill="#CFF9EA"/>
    <path d="M130.981 163.317L121.094 163.767L118.722 171.083L128.87 170.62C129.072 170.611 130.981 163.317 130.981 163.317Z" fill="#0C422A"/>
    <path fill-rule="evenodd" clip-rule="evenodd" d="M122.982 163.682L123.933 160.411C124.133 159.721 124.971 159.457 125.531 159.907C126.374 160.584 126.886 161.59 126.939 162.669L126.979 163.5L132.78 163.235C132.78 163.235 130.582 170.543 130.669 170.539L120.521 171.002L122.893 163.686L122.982 163.682Z" fill="#19D992"/>
    <circle cx="326.104" cy="28.1341" r="12" transform="rotate(-2.61158 326.104 28.1341)" fill="#FFF3EC"/>
    <path d="M320.9 32.5761L330.787 32.1251L333.159 24.8094L323.011 25.2723C322.81 25.2815 320.9 32.5761 320.9 32.5761Z" fill="#401700"/>
    <path fill-rule="evenodd" clip-rule="evenodd" d="M328.945 32.2084L328.128 35.019C327.928 35.7091 327.09 35.9734 326.53 35.5233C325.687 34.8462 325.175 33.8408 325.123 32.7611L325.104 32.3836L319.102 32.6574C319.102 32.6574 321.3 25.3496 321.213 25.3536L331.361 24.8907L328.989 32.2064L328.945 32.2084Z" fill="#FF8743"/>
    <circle cx="56.7705" cy="141.93" r="8.79296" fill="#E1FC31"/>
    <path d="M62.2661 141.93C62.2661 144.965 59.8056 147.425 56.7705 147.425C53.7354 147.425 51.2749 144.965 51.2749 141.93" stroke="#201F1F" stroke-width="1.5"/>
    <g clip-path="url(#clip0)">
        <path fill-rule="evenodd" clip-rule="evenodd" d="M221.39 98.6461C227.44 90.3886 230.149 80.1515 228.977 69.9823C227.804 59.8114 222.834 50.4585 215.061 43.7947C207.288 37.1309 197.286 33.6477 187.055 34.0419C176.824 34.4361 167.12 38.6787 159.883 45.9208C152.646 53.163 148.41 62.8706 148.023 73.1016C147.636 83.3326 151.127 93.3324 157.796 101.1C164.465 108.868 173.822 113.832 183.994 114.998C194.164 116.163 204.399 113.446 212.652 107.391C212.839 107.64 213.038 107.876 213.262 108.106L237.325 132.169C238.497 133.342 240.086 134.001 241.744 134.001C243.402 134.002 244.993 133.344 246.165 132.172C247.338 131 247.997 129.41 247.998 127.752C247.998 126.094 247.34 124.504 246.168 123.331L222.106 99.2689C221.883 99.0436 221.644 98.8354 221.39 98.6461ZM224.371 89.3909C226.32 84.6875 227.322 79.6464 227.322 74.5555C227.322 64.2739 223.238 54.4135 215.968 47.1433C208.698 39.8731 198.837 35.7888 188.556 35.7888C178.274 35.7888 168.414 39.8731 161.143 47.1433C153.873 54.4135 149.789 64.2739 149.789 74.5555C149.789 79.6464 150.792 84.6875 152.74 89.3909C154.688 94.0943 157.544 98.3679 161.143 101.968C164.743 105.568 169.017 108.423 173.72 110.371C178.424 112.319 183.465 113.322 188.556 113.322C193.646 113.322 198.688 112.319 203.391 110.371C208.094 108.423 212.368 105.568 215.968 101.968C219.568 98.3679 222.423 94.0943 224.371 89.3909Z" fill="#201F1F"/>
    </g>
    <defs>
        <clipPath id="clip0">
            <rect width="100" height="100" fill="white" transform="translate(148 34)"/>
        </clipPath>
    </defs>
</svg>
