<svg width="1100" height="600" viewBox="0 0 1100 600" fill="none" xmlns="http://www.w3.org/2000/svg">
<g clip-path="url(#clip0)">
<path d="M0 7.99999C0 3.58171 3.58172 0 8 0H1092C1096.42 0 1100 3.58172 1100 8V592C1100 596.418 1096.42 600 1092 600H7.99999C3.58171 600 0 596.418 0 592V7.99999Z" fill="#FF8743"/>
<path fill-rule="evenodd" clip-rule="evenodd" d="M550.422 376.295C550.394 376.294 550.366 376.294 550.338 376.294C542.857 376.294 536.776 382.406 536.639 390L536.634 390C536.497 382.413 530.426 376.304 522.954 376.294C530.455 376.284 536.544 370.128 536.635 362.5L536.637 362.5C536.728 370.134 542.827 376.294 550.337 376.294C550.366 376.294 550.394 376.294 550.422 376.294L550.422 376.295Z" fill="#E8E0FF"/>
<path fill-rule="evenodd" clip-rule="evenodd" d="M536.637 335C536.728 342.607 542.784 348.75 550.258 348.793C542.813 348.836 536.774 354.933 536.638 362.5L536.634 362.5C536.498 354.927 530.449 348.826 522.996 348.793C530.478 348.76 536.544 342.613 536.635 335L536.637 335ZM550.422 348.793C550.42 348.793 550.418 348.793 550.416 348.793C550.418 348.793 550.42 348.793 550.422 348.793L550.422 348.793Z" fill="#E8E0FF"/>
<path fill-rule="evenodd" clip-rule="evenodd" d="M536.686 307.5C536.778 315.1 542.824 321.238 550.288 321.292C542.851 321.346 536.823 327.439 536.687 335L536.684 335C536.548 327.426 530.499 321.325 523.046 321.292C530.527 321.259 536.593 315.113 536.685 307.5L536.686 307.5Z" fill="#E8E0FF"/>
<path fill-rule="evenodd" clip-rule="evenodd" d="M522.979 293.794C522.98 293.794 522.98 293.794 522.98 293.794C530.49 293.794 536.589 287.634 536.68 280L536.682 280C536.773 287.634 542.872 293.794 550.382 293.794C550.41 293.794 550.439 293.794 550.467 293.793L550.467 293.795C550.439 293.794 550.41 293.794 550.382 293.794C542.901 293.794 536.821 299.907 536.683 307.5L536.679 307.5C536.541 299.907 530.461 293.794 522.98 293.794C522.98 293.794 522.98 293.794 522.979 293.794L522.979 293.794Z" fill="#E8E0FF"/>
<path fill-rule="evenodd" clip-rule="evenodd" d="M481.704 390C481.567 382.413 475.496 376.304 468.024 376.294C475.525 376.284 481.614 370.128 481.705 362.5L481.707 362.5C481.799 370.134 487.897 376.294 495.407 376.294C495.436 376.294 495.464 376.294 495.493 376.294L495.493 376.295C495.464 376.294 495.436 376.294 495.407 376.294C487.926 376.294 481.846 382.406 481.708 390L481.704 390Z" fill="#E8E0FF"/>
<path fill-rule="evenodd" clip-rule="evenodd" d="M495.444 294.058C495.444 294.058 495.445 294.058 495.445 294.058C502.955 294.058 509.054 287.898 509.145 280.264L509.147 280.264C509.238 287.898 515.337 294.057 522.847 294.057C522.875 294.057 522.904 294.057 522.932 294.057L522.932 294.058C522.904 294.058 522.875 294.058 522.846 294.058C515.366 294.058 509.285 300.17 509.148 307.763L509.144 307.763C509.006 300.17 502.926 294.058 495.445 294.058C495.445 294.058 495.444 294.058 495.444 294.058L495.444 294.058Z" fill="#E8E0FF"/>
<path fill-rule="evenodd" clip-rule="evenodd" d="M454.169 390C454.031 382.413 447.961 376.304 440.489 376.294C447.99 376.284 454.079 370.128 454.17 362.5L454.172 362.5C454.263 370.134 460.362 376.294 467.872 376.294C467.9 376.294 467.929 376.294 467.958 376.294L467.958 376.295C467.929 376.294 467.9 376.294 467.872 376.294C460.391 376.294 454.31 382.406 454.173 390L454.169 390Z" fill="#E8E0FF"/>
<path fill-rule="evenodd" clip-rule="evenodd" d="M426.68 390C426.543 382.413 420.472 376.304 413 376.294C420.501 376.284 426.59 370.128 426.681 362.5L426.683 362.5C426.775 370.134 432.874 376.294 440.383 376.294C440.412 376.294 440.441 376.294 440.469 376.294L440.469 376.295C440.441 376.294 440.412 376.294 440.383 376.294C432.902 376.294 426.822 382.406 426.684 390L426.68 390Z" fill="#E8E0FF"/>
<path fill-rule="evenodd" clip-rule="evenodd" d="M454.17 335C454.261 342.607 460.317 348.75 467.791 348.793C460.346 348.836 454.307 354.933 454.171 362.5L454.167 362.5C454.03 354.927 447.982 348.826 440.529 348.793C448.01 348.76 454.076 342.613 454.168 335L454.17 335ZM467.956 348.793C467.953 348.793 467.951 348.793 467.949 348.793C467.951 348.793 467.953 348.793 467.956 348.793L467.956 348.793Z" fill="#E8E0FF"/>
<path fill-rule="evenodd" clip-rule="evenodd" d="M509.194 335L509.195 335C509.287 342.617 515.358 348.765 522.844 348.793C515.387 348.821 509.333 354.923 509.197 362.5L509.192 362.5C509.056 354.924 503.004 348.822 495.547 348.793C503.032 348.764 509.102 342.616 509.194 335ZM522.981 348.793C522.969 348.793 522.958 348.793 522.946 348.793C522.958 348.793 522.969 348.793 522.981 348.793L522.981 348.793Z" fill="#E8E0FF"/>
<path fill-rule="evenodd" clip-rule="evenodd" d="M426.731 307.5C426.823 315.1 432.868 321.238 440.333 321.292C432.896 321.346 426.868 327.439 426.732 335L426.728 335C426.592 327.426 420.544 321.325 413.09 321.292C420.571 321.259 426.637 315.113 426.729 307.5L426.731 307.5Z" fill="#E8E0FF"/>
<path fill-rule="evenodd" clip-rule="evenodd" d="M413.026 293.794C420.536 293.794 426.635 287.634 426.726 280L426.728 280C426.82 287.634 432.919 293.794 440.428 293.794C440.457 293.794 440.486 293.794 440.514 293.793L440.514 293.795C440.486 293.794 440.457 293.794 440.428 293.794C432.947 293.794 426.867 299.907 426.729 307.5L426.725 307.5C426.587 299.907 420.507 293.794 413.026 293.794L413.026 293.794Z" fill="#E8E0FF"/>
<path fill-rule="evenodd" clip-rule="evenodd" d="M454.213 307.5C454.076 299.907 447.995 293.794 440.515 293.794C440.515 293.794 440.514 293.794 440.514 293.794L440.514 293.794C440.514 293.794 440.515 293.794 440.515 293.794C448.025 293.794 454.123 287.634 454.215 280L454.216 280C454.308 287.634 460.407 293.794 467.916 293.794C467.945 293.794 467.974 293.794 468.002 293.793L468.002 293.795C467.974 293.794 467.945 293.794 467.917 293.794C460.436 293.794 454.355 299.907 454.218 307.5L454.213 307.5Z" fill="#E8E0FF"/>
<path fill-rule="evenodd" clip-rule="evenodd" d="M481.707 307.5C481.798 315.094 487.835 321.23 495.292 321.292C487.863 321.355 481.844 327.445 481.708 335L481.704 335C481.568 327.426 475.52 321.325 468.066 321.292C475.547 321.259 481.613 315.113 481.705 307.5L481.707 307.5Z" fill="#E8E0FF"/>
<path fill-rule="evenodd" clip-rule="evenodd" d="M454.17 307.5C454.261 315.094 460.298 321.23 467.754 321.292C460.326 321.355 454.306 327.445 454.171 335L454.167 335C454.031 327.426 447.982 321.325 440.529 321.292C448.01 321.259 454.076 315.113 454.168 307.5L454.17 307.5Z" fill="#E8E0FF"/>
<path fill-rule="evenodd" clip-rule="evenodd" d="M509.188 335L509.192 335C509.328 327.448 515.342 321.36 522.766 321.292C515.314 321.224 509.283 315.091 509.191 307.5L509.189 307.5C509.097 315.113 503.032 321.259 495.55 321.292C503.004 321.325 509.052 327.426 509.188 335Z" fill="#E8E0FF"/>
<mask id="mask0" mask-type="alpha" maskUnits="userSpaceOnUse" x="688" y="-50" width="661" height="330">
<path fill-rule="evenodd" clip-rule="evenodd" d="M894.267 197.499C894.542 220.401 912.846 238.881 935.385 238.881C935.471 238.881 935.556 238.881 935.642 238.88L935.642 238.883C935.556 238.882 935.47 238.882 935.384 238.882C912.932 238.882 894.683 257.219 894.27 279.998L894.255 279.998C893.843 257.219 875.594 238.883 853.143 238.882C875.682 238.881 893.985 220.401 894.259 197.499L894.267 197.499Z" fill="#6038D0"/>
<path fill-rule="evenodd" clip-rule="evenodd" d="M976.623 197.499C976.898 220.401 995.202 238.881 1017.74 238.881C1017.83 238.881 1017.91 238.881 1018 238.88L1018 238.883C1017.91 238.882 1017.83 238.882 1017.74 238.882C995.288 238.882 977.039 257.218 976.627 279.998L976.611 279.998C976.199 257.219 957.951 238.883 935.499 238.882C958.038 238.881 976.341 220.401 976.615 197.499L976.623 197.499Z" fill="#6038D0"/>
<path fill-rule="evenodd" clip-rule="evenodd" d="M976.623 -49.21C976.898 -26.3077 995.202 -7.82827 1017.74 -7.82827C1017.83 -7.82827 1017.91 -7.82854 1018 -7.82907L1018 -7.82664C1017.91 -7.82718 1017.83 -7.82744 1017.74 -7.82744C995.288 -7.82744 977.039 10.5094 976.627 33.2889L976.611 33.2889C976.199 10.5099 957.951 -7.82662 935.499 -7.82746C958.038 -7.8283 976.341 -26.3078 976.615 -49.21L976.623 -49.21Z" fill="#6038D0"/>
<path fill-rule="evenodd" clip-rule="evenodd" d="M811.625 197.499C811.899 220.401 830.203 238.881 852.742 238.881C852.828 238.881 852.914 238.881 852.999 238.88L852.999 238.883C852.913 238.882 852.827 238.882 852.742 238.882C830.289 238.882 812.04 257.219 811.628 279.998L811.613 279.998C811.2 257.219 792.952 238.883 770.5 238.882C793.039 238.881 811.342 220.401 811.617 197.499L811.625 197.499Z" fill="#6038D0"/>
<path fill-rule="evenodd" clip-rule="evenodd" d="M729.124 197.499C729.399 220.401 747.703 238.881 770.242 238.881C770.328 238.881 770.414 238.881 770.499 238.88L770.499 238.883C770.413 238.882 770.327 238.882 770.241 238.882C747.789 238.882 729.54 257.219 729.128 279.998L729.112 279.998C728.7 257.219 710.452 238.883 688 238.882C710.539 238.881 728.842 220.401 729.116 197.499L729.124 197.499Z" fill="#6038D0"/>
<path fill-rule="evenodd" clip-rule="evenodd" d="M1059.26 197.499C1059.54 220.401 1077.84 238.881 1100.38 238.881C1100.47 238.881 1100.55 238.881 1100.64 238.88L1100.64 238.883C1100.55 238.882 1100.47 238.882 1100.38 238.882C1077.93 238.882 1059.68 257.219 1059.27 279.998L1059.25 279.998C1058.84 257.219 1040.59 238.883 1018.14 238.882C1040.68 238.881 1058.98 220.401 1059.26 197.499L1059.26 197.499Z" fill="#6038D0"/>
<path fill-rule="evenodd" clip-rule="evenodd" d="M894.267 115C894.542 137.828 912.728 156.262 935.167 156.38C912.813 156.498 894.68 174.792 894.27 197.499L894.255 197.499C893.846 174.777 875.688 156.473 853.313 156.38C875.773 156.287 893.984 137.844 894.259 115L894.267 115ZM935.642 156.381L935.642 156.38C935.629 156.38 935.616 156.38 935.602 156.38C935.616 156.38 935.629 156.381 935.642 156.381Z" fill="#6038D0"/>
<path fill-rule="evenodd" clip-rule="evenodd" d="M811.623 115C811.898 137.828 830.084 156.262 852.523 156.38C830.17 156.498 812.036 174.792 811.627 197.499L811.612 197.499C811.202 174.777 793.044 156.473 770.67 156.38C793.129 156.287 811.341 137.844 811.616 115L811.623 115ZM852.998 156.381L852.998 156.38C852.985 156.38 852.972 156.38 852.959 156.38C852.972 156.38 852.985 156.381 852.998 156.381Z" fill="#6038D0"/>
<path fill-rule="evenodd" clip-rule="evenodd" d="M729.124 115C729.399 137.828 747.585 156.262 770.024 156.38C747.67 156.498 729.537 174.792 729.128 197.499L729.113 197.499C728.703 174.777 710.545 156.473 688.171 156.38C710.63 156.287 728.842 137.844 729.116 115L729.124 115ZM770.499 156.381L770.499 156.38C770.486 156.38 770.473 156.38 770.46 156.38C770.473 156.38 770.486 156.381 770.499 156.381Z" fill="#6038D0"/>
<path fill-rule="evenodd" clip-rule="evenodd" d="M1059.26 115C1059.54 137.828 1077.72 156.262 1100.16 156.38C1077.81 156.498 1059.68 174.792 1059.27 197.499L1059.25 197.499C1058.84 174.777 1040.68 156.473 1018.31 156.38C1040.77 156.287 1058.98 137.844 1059.26 115L1059.26 115ZM1100.64 156.381L1100.64 156.38C1100.63 156.38 1100.61 156.38 1100.6 156.38C1100.61 156.38 1100.63 156.381 1100.64 156.381Z" fill="#6038D0"/>
<path fill-rule="evenodd" clip-rule="evenodd" d="M1018.14 156.381L1018.14 156.38C1018.12 156.38 1018.09 156.38 1018.07 156.38C1018.09 156.38 1018.12 156.38 1018.14 156.381ZM976.764 115C977.038 137.837 995.239 156.276 1017.69 156.38C995.325 156.484 977.177 174.783 976.768 197.499L976.752 197.499C976.343 174.777 958.185 156.473 935.81 156.38C958.27 156.287 976.482 137.844 976.756 115L976.764 115Z" fill="#6038D0"/>
<path fill-rule="evenodd" clip-rule="evenodd" d="M729.268 32.4998C729.544 55.3275 747.732 73.7601 770.172 73.8766C747.815 73.9922 729.679 92.2883 729.271 114.999L729.256 114.999C728.848 92.2744 710.689 73.9697 688.314 73.8764C710.773 73.7827 728.983 55.3416 729.26 32.4998L729.268 32.4998ZM770.642 73.8768L770.642 73.8763C770.627 73.8764 770.613 73.8765 770.599 73.8766C770.613 73.8766 770.627 73.8767 770.642 73.8768Z" fill="#6038D0"/>
<path fill-rule="evenodd" clip-rule="evenodd" d="M729.264 -49.9998C729.539 -27.0979 747.843 -8.61904 770.382 -8.61904C770.467 -8.61904 770.553 -8.61931 770.639 -8.61984L770.639 -8.61667C770.553 -8.61721 770.467 -8.61748 770.381 -8.61748C747.929 -8.61748 729.68 9.7195 729.267 32.4991L729.252 32.4991C728.84 9.71998 710.591 -8.61672 688.14 -8.61747L688.14 -8.61895C710.678 -8.61972 728.981 -27.0984 729.256 -49.9998L729.264 -49.9998Z" fill="#6038D0"/>
<path fill-rule="evenodd" clip-rule="evenodd" d="M853.136 -8.61667C853.05 -8.61721 852.964 -8.61748 852.878 -8.61748C830.426 -8.61748 812.177 9.7195 811.765 32.4991L811.749 32.4991C811.337 9.72027 793.089 -8.61624 770.637 -8.61747L770.637 -8.61895C793.175 -8.6202 811.478 -27.0987 811.753 -49.9998L811.76 -49.9998C812.035 -27.0979 830.339 -8.61904 852.878 -8.61904C852.964 -8.61904 853.05 -8.61931 853.136 -8.61985L853.136 -8.61667Z" fill="#6038D0"/>
<path fill-rule="evenodd" clip-rule="evenodd" d="M1059.41 32.4998C1059.68 55.3275 1077.87 73.7601 1100.31 73.8766C1077.96 73.9922 1059.82 92.2883 1059.41 114.999L1059.4 114.999C1058.99 92.2744 1040.83 73.9697 1018.45 73.8764C1040.91 73.7827 1059.12 55.3416 1059.4 32.4998L1059.41 32.4998ZM1100.78 73.8768L1100.78 73.8763C1100.77 73.8764 1100.75 73.8765 1100.74 73.8766C1100.75 73.8766 1100.77 73.8767 1100.78 73.8768Z" fill="#6038D0"/>
<path fill-rule="evenodd" clip-rule="evenodd" d="M1059.4 -49.9998C1059.68 -27.0979 1077.98 -8.61904 1100.52 -8.61904C1100.61 -8.61904 1100.69 -8.61931 1100.78 -8.61984L1100.78 -8.61667C1100.69 -8.61721 1100.61 -8.61748 1100.52 -8.61748C1078.07 -8.61748 1059.82 9.7195 1059.41 32.4991L1059.39 32.4991C1058.98 9.71998 1040.73 -8.61672 1018.28 -8.61747L1018.28 -8.61895C1040.82 -8.61972 1059.12 -27.0984 1059.4 -49.9998L1059.4 -49.9998Z" fill="#6038D0"/>
<path fill-rule="evenodd" clip-rule="evenodd" d="M894.265 32.4998C894.54 55.3195 912.716 73.7472 935.144 73.8767C912.799 74.0056 894.676 92.2967 894.268 114.999L894.253 114.999C893.845 92.2744 875.686 73.9697 853.311 73.8764C875.77 73.7827 893.98 55.3416 894.257 32.4998L894.265 32.4998ZM935.637 73.8768L935.637 73.8766C935.632 73.8766 935.626 73.8767 935.62 73.8767C935.626 73.8767 935.632 73.8768 935.637 73.8768Z" fill="#6038D0"/>
<path fill-rule="evenodd" clip-rule="evenodd" d="M811.622 32.4998C811.898 55.3195 830.074 73.7472 852.502 73.8767C830.157 74.0057 812.034 92.2967 811.626 114.999L811.611 114.999C811.203 92.2744 793.044 73.9697 770.669 73.8764C793.128 73.7827 811.338 55.3416 811.615 32.4998L811.622 32.4998ZM852.995 73.8768L852.995 73.8766C852.989 73.8766 852.984 73.8767 852.978 73.8767C852.984 73.8767 852.989 73.8768 852.995 73.8768Z" fill="#6038D0"/>
<path fill-rule="evenodd" clip-rule="evenodd" d="M1018.14 73.8768L1018.14 73.8767C1018.13 73.8767 1018.13 73.8768 1018.13 73.8768C1018.13 73.8768 1018.13 73.8768 1018.14 73.8768ZM976.758 32.4998C977.034 55.3148 995.202 73.7397 1017.62 73.8768C995.285 74.0134 977.169 92.3015 976.762 114.999L976.747 114.999C976.339 92.2744 958.18 73.9697 935.805 73.8764C958.264 73.7827 976.474 55.3416 976.751 32.4998L976.758 32.4998Z" fill="#6038D0"/>
<path fill-rule="evenodd" clip-rule="evenodd" d="M894.264 -50C894.539 -27.0982 912.843 -8.61929 935.382 -8.61929C935.467 -8.61929 935.552 -8.61955 935.637 -8.62008L935.637 -8.61693C935.552 -8.61746 935.467 -8.61772 935.382 -8.61772C912.93 -8.61772 894.68 9.71926 894.268 32.4989L894.252 32.4989C893.84 9.71926 875.591 -8.61772 853.139 -8.61772C853.138 -8.61772 853.138 -8.61772 853.138 -8.61772L853.138 -8.6192C853.138 -8.6192 853.138 -8.6192 853.139 -8.6192C875.678 -8.6192 893.981 -27.0981 894.256 -50L894.264 -50Z" fill="#6038D0"/>
</mask>
<g mask="url(#mask0)">
<path d="M611.5 -93.5L1059 -66.5L988.5 301.5L688 281L611.5 -93.5Z" fill="#19D992"/>
</g>
<mask id="mask1" mask-type="alpha" maskUnits="userSpaceOnUse" x="276" y="308" width="661" height="330">
<path fill-rule="evenodd" clip-rule="evenodd" d="M482.267 555.499C482.542 578.401 500.846 596.881 523.385 596.881C523.471 596.881 523.556 596.881 523.642 596.88L523.642 596.883C523.556 596.882 523.47 596.882 523.384 596.882C500.932 596.882 482.683 615.219 482.27 637.998L482.255 637.998C481.843 615.219 463.594 596.883 441.143 596.882C463.682 596.881 481.985 578.401 482.259 555.499L482.267 555.499Z" fill="#6038D0"/>
<path fill-rule="evenodd" clip-rule="evenodd" d="M812.407 555.499C812.681 578.401 830.985 596.881 853.525 596.881C853.61 596.881 853.696 596.881 853.781 596.88L853.781 596.883C853.696 596.882 853.61 596.882 853.524 596.882C831.072 596.882 812.822 615.219 812.41 637.998L812.395 637.998C811.983 615.219 793.734 596.883 771.282 596.882C793.821 596.881 812.125 578.401 812.399 555.499L812.407 555.499Z" fill="#6038D0"/>
<path fill-rule="evenodd" clip-rule="evenodd" d="M564.623 555.499C564.898 578.401 583.202 596.881 605.741 596.881C605.827 596.881 605.912 596.881 605.998 596.88L605.998 596.883C605.912 596.882 605.826 596.882 605.74 596.882C583.288 596.882 565.039 615.219 564.627 637.998L564.611 637.998C564.199 615.219 545.951 596.883 523.499 596.882C546.038 596.881 564.341 578.401 564.615 555.499L564.623 555.499Z" fill="#6038D0"/>
<path fill-rule="evenodd" clip-rule="evenodd" d="M894.763 555.499C895.038 578.401 913.341 596.881 935.881 596.881C935.967 596.881 936.052 596.881 936.138 596.88L936.138 596.883C936.052 596.882 935.966 596.882 935.88 596.882C913.428 596.882 895.179 615.219 894.766 637.998L894.751 637.998C894.339 615.219 876.09 596.883 853.639 596.882C876.178 596.881 894.481 578.401 894.755 555.499L894.763 555.499Z" fill="#6038D0"/>
<path fill-rule="evenodd" clip-rule="evenodd" d="M564.623 308.79C564.898 331.692 583.202 350.172 605.741 350.172C605.827 350.172 605.912 350.171 605.998 350.171L605.998 350.173C605.912 350.173 605.826 350.173 605.74 350.173C583.288 350.173 565.039 368.509 564.627 391.289L564.611 391.289C564.199 368.51 545.951 350.173 523.499 350.173C546.038 350.172 564.341 331.692 564.615 308.79L564.623 308.79Z" fill="#6038D0"/>
<path fill-rule="evenodd" clip-rule="evenodd" d="M894.763 308.79C895.038 331.692 913.342 350.172 935.881 350.172C935.967 350.172 936.052 350.171 936.138 350.171L936.138 350.173C936.052 350.173 935.966 350.173 935.88 350.173C913.428 350.173 895.179 368.509 894.766 391.289L894.751 391.289C894.339 368.51 876.09 350.173 853.639 350.173C876.178 350.172 894.481 331.692 894.755 308.79L894.763 308.79Z" fill="#6038D0"/>
<path fill-rule="evenodd" clip-rule="evenodd" d="M399.625 555.499C399.899 578.401 418.203 596.881 440.742 596.881C440.828 596.881 440.914 596.881 440.999 596.88L440.999 596.883C440.913 596.882 440.827 596.882 440.742 596.882C418.289 596.882 400.04 615.219 399.628 637.998L399.613 637.998C399.2 615.219 380.952 596.883 358.5 596.882C381.039 596.881 399.342 578.401 399.617 555.499L399.625 555.499Z" fill="#6038D0"/>
<path fill-rule="evenodd" clip-rule="evenodd" d="M729.764 555.499C730.039 578.401 748.343 596.881 770.882 596.881C770.968 596.881 771.053 596.881 771.139 596.88L771.139 596.883C771.053 596.882 770.967 596.882 770.881 596.882C748.429 596.882 730.18 615.218 729.767 637.998L729.752 637.998C729.34 615.219 711.091 596.883 688.64 596.882C711.179 596.881 729.482 578.401 729.756 555.499L729.764 555.499Z" fill="#6038D0"/>
<path fill-rule="evenodd" clip-rule="evenodd" d="M317.124 555.499C317.399 578.401 335.703 596.881 358.242 596.881C358.328 596.881 358.414 596.881 358.499 596.88L358.499 596.883C358.413 596.882 358.327 596.882 358.241 596.882C335.789 596.882 317.54 615.219 317.128 637.998L317.112 637.998C316.7 615.219 298.452 596.883 276 596.882C298.539 596.881 316.842 578.401 317.116 555.499L317.124 555.499Z" fill="#6038D0"/>
<path fill-rule="evenodd" clip-rule="evenodd" d="M647.264 555.499C647.539 578.401 665.843 596.881 688.382 596.881C688.468 596.881 688.553 596.881 688.639 596.88L688.639 596.883C688.553 596.882 688.467 596.882 688.381 596.882C665.929 596.882 647.68 615.219 647.267 637.998L647.252 637.998C646.84 615.219 628.591 596.883 606.14 596.882C628.679 596.881 646.982 578.401 647.256 555.499L647.264 555.499Z" fill="#6038D0"/>
<path fill-rule="evenodd" clip-rule="evenodd" d="M482.267 473C482.542 495.828 500.728 514.262 523.167 514.38C500.813 514.498 482.68 532.792 482.27 555.499L482.255 555.499C481.846 532.777 463.688 514.473 441.313 514.38C463.773 514.287 481.984 495.844 482.259 473L482.267 473ZM523.642 514.381L523.642 514.38C523.629 514.38 523.616 514.38 523.602 514.38C523.616 514.38 523.629 514.381 523.642 514.381Z" fill="#6038D0"/>
<path fill-rule="evenodd" clip-rule="evenodd" d="M812.407 473C812.681 495.828 830.868 514.262 853.306 514.38C830.953 514.498 812.819 532.792 812.41 555.499L812.395 555.499C811.985 532.777 793.827 514.473 771.453 514.38C793.913 514.287 812.124 495.844 812.399 473L812.407 473ZM853.781 514.381L853.781 514.38C853.768 514.38 853.755 514.38 853.742 514.38C853.755 514.38 853.768 514.381 853.781 514.381Z" fill="#6038D0"/>
<path fill-rule="evenodd" clip-rule="evenodd" d="M399.623 473C399.898 495.828 418.084 514.262 440.523 514.38C418.17 514.498 400.036 532.792 399.627 555.499L399.612 555.499C399.202 532.777 381.044 514.473 358.67 514.38C381.129 514.287 399.341 495.844 399.616 473L399.623 473ZM440.998 514.381L440.998 514.38C440.985 514.38 440.972 514.38 440.959 514.38C440.972 514.38 440.985 514.381 440.998 514.381Z" fill="#6038D0"/>
<path fill-rule="evenodd" clip-rule="evenodd" d="M729.763 473C730.037 495.828 748.224 514.262 770.663 514.38C748.309 514.498 730.176 532.792 729.766 555.499L729.751 555.499C729.342 532.777 711.184 514.473 688.809 514.38C711.269 514.287 729.48 495.844 729.755 473L729.763 473ZM771.138 514.381L771.138 514.38C771.125 514.38 771.112 514.38 771.098 514.38C771.112 514.38 771.125 514.381 771.138 514.381Z" fill="#6038D0"/>
<path fill-rule="evenodd" clip-rule="evenodd" d="M317.124 473C317.399 495.828 335.585 514.262 358.024 514.38C335.67 514.498 317.537 532.792 317.128 555.499L317.113 555.499C316.703 532.777 298.545 514.473 276.171 514.38C298.63 514.287 316.842 495.844 317.116 473L317.124 473ZM358.499 514.381L358.499 514.38C358.486 514.38 358.473 514.38 358.46 514.38C358.473 514.38 358.486 514.381 358.499 514.381Z" fill="#6038D0"/>
<path fill-rule="evenodd" clip-rule="evenodd" d="M647.264 473C647.538 495.828 665.725 514.262 688.164 514.38C665.81 514.498 647.676 532.792 647.267 555.499L647.252 555.499C646.843 532.777 628.685 514.473 606.31 514.38C628.77 514.287 646.981 495.844 647.256 473L647.264 473ZM688.639 514.381L688.639 514.38C688.626 514.38 688.612 514.38 688.599 514.38C688.612 514.38 688.626 514.381 688.639 514.381Z" fill="#6038D0"/>
<path fill-rule="evenodd" clip-rule="evenodd" d="M606.14 514.381L606.14 514.38C606.117 514.38 606.095 514.38 606.072 514.38C606.095 514.38 606.117 514.38 606.14 514.381ZM564.764 473C565.038 495.837 583.239 514.276 605.691 514.38C583.325 514.484 565.177 532.783 564.768 555.499L564.752 555.499C564.343 532.777 546.185 514.473 523.81 514.38C546.27 514.287 564.482 495.844 564.756 473L564.764 473Z" fill="#6038D0"/>
<path fill-rule="evenodd" clip-rule="evenodd" d="M936.279 514.381L936.279 514.38C936.257 514.38 936.235 514.38 936.212 514.38C936.235 514.38 936.257 514.38 936.279 514.381ZM894.903 473C895.178 495.837 913.379 514.276 935.83 514.38C913.465 514.484 895.317 532.783 894.908 555.499L894.892 555.499C894.483 532.777 876.325 514.473 853.95 514.38C876.41 514.287 894.621 495.844 894.896 473L894.903 473Z" fill="#6038D0"/>
<path fill-rule="evenodd" clip-rule="evenodd" d="M317.268 390.5C317.544 413.328 335.732 431.76 358.172 431.877C335.815 431.992 317.679 450.288 317.271 472.999L317.256 472.999C316.848 450.274 298.689 431.97 276.314 431.876C298.773 431.783 316.983 413.342 317.26 390.5L317.268 390.5ZM358.642 431.877L358.642 431.876C358.627 431.876 358.613 431.876 358.599 431.877C358.613 431.877 358.627 431.877 358.642 431.877Z" fill="#6038D0"/>
<path fill-rule="evenodd" clip-rule="evenodd" d="M317.264 308C317.539 330.902 335.843 349.381 358.382 349.381C358.467 349.381 358.553 349.381 358.639 349.38L358.639 349.383C358.553 349.383 358.467 349.383 358.381 349.383C335.929 349.383 317.68 367.719 317.267 390.499L317.252 390.499C316.84 367.72 298.591 349.383 276.14 349.383L276.14 349.381C298.678 349.38 316.981 330.902 317.256 308L317.264 308Z" fill="#6038D0"/>
<path fill-rule="evenodd" clip-rule="evenodd" d="M441.136 349.383C441.05 349.383 440.964 349.383 440.878 349.383C418.426 349.383 400.177 367.719 399.765 390.499L399.749 390.499C399.337 367.72 381.089 349.384 358.637 349.383L358.637 349.381C381.175 349.38 399.478 330.901 399.753 308L399.76 308C400.035 330.902 418.339 349.381 440.878 349.381C440.964 349.381 441.05 349.381 441.136 349.38L441.136 349.383Z" fill="#6038D0"/>
<path fill-rule="evenodd" clip-rule="evenodd" d="M647.408 390.5C647.684 413.328 665.872 431.76 688.312 431.877C665.955 431.992 647.818 450.288 647.411 472.999L647.395 472.999C646.988 450.274 628.829 431.97 606.453 431.876C628.912 431.783 647.123 413.342 647.399 390.5L647.408 390.5ZM688.781 431.877L688.781 431.876C688.767 431.876 688.753 431.876 688.739 431.877C688.753 431.877 688.767 431.877 688.781 431.877Z" fill="#6038D0"/>
<path fill-rule="evenodd" clip-rule="evenodd" d="M647.403 308C647.679 330.902 665.982 349.381 688.521 349.381C688.607 349.381 688.693 349.381 688.778 349.38L688.778 349.383C688.693 349.383 688.607 349.383 688.521 349.383C666.069 349.383 647.819 367.719 647.407 390.499L647.392 390.499C646.98 367.72 628.731 349.383 606.279 349.383L606.279 349.381C628.818 349.38 647.121 330.902 647.396 308L647.403 308Z" fill="#6038D0"/>
<path fill-rule="evenodd" clip-rule="evenodd" d="M771.276 349.383C771.19 349.383 771.104 349.383 771.018 349.383C748.566 349.383 730.316 367.719 729.904 390.499L729.889 390.499C729.477 367.72 711.228 349.384 688.777 349.383L688.777 349.381C711.315 349.38 729.617 330.901 729.893 308L729.9 308C730.175 330.902 748.479 349.381 771.018 349.381C771.104 349.381 771.19 349.381 771.276 349.38L771.276 349.383Z" fill="#6038D0"/>
<path fill-rule="evenodd" clip-rule="evenodd" d="M482.265 390.5C482.54 413.32 500.716 431.747 523.144 431.877C500.799 432.006 482.676 450.297 482.268 472.999L482.253 472.999C481.845 450.274 463.686 431.97 441.311 431.876C463.77 431.783 481.98 413.342 482.257 390.5L482.265 390.5ZM523.637 431.877L523.637 431.877C523.632 431.877 523.626 431.877 523.62 431.877C523.626 431.877 523.632 431.877 523.637 431.877Z" fill="#6038D0"/>
<path fill-rule="evenodd" clip-rule="evenodd" d="M399.622 390.5C399.898 413.32 418.074 431.747 440.502 431.877C418.157 432.006 400.034 450.297 399.626 472.999L399.611 472.999C399.203 450.274 381.044 431.97 358.669 431.876C381.128 431.783 399.338 413.342 399.615 390.5L399.622 390.5ZM440.995 431.877L440.995 431.877C440.989 431.877 440.984 431.877 440.978 431.877C440.984 431.877 440.989 431.877 440.995 431.877Z" fill="#6038D0"/>
<path fill-rule="evenodd" clip-rule="evenodd" d="M606.137 431.877L606.137 431.877C606.134 431.877 606.131 431.877 606.128 431.877C606.131 431.877 606.134 431.877 606.137 431.877ZM564.758 390.5C565.034 413.315 583.202 431.74 605.624 431.877C583.285 432.013 565.169 450.302 564.762 472.999L564.747 472.999C564.339 450.274 546.18 431.97 523.805 431.876C546.264 431.783 564.474 413.342 564.751 390.5L564.758 390.5Z" fill="#6038D0"/>
<path fill-rule="evenodd" clip-rule="evenodd" d="M482.264 308C482.539 330.902 500.843 349.381 523.382 349.381C523.467 349.381 523.552 349.38 523.637 349.38L523.637 349.383C523.552 349.383 523.467 349.382 523.382 349.382C500.93 349.382 482.68 367.719 482.268 390.499L482.252 390.499C481.84 367.719 463.591 349.382 441.139 349.382C441.138 349.382 441.138 349.382 441.138 349.382L441.138 349.381C441.138 349.381 441.138 349.381 441.139 349.381C463.678 349.381 481.981 330.902 482.256 308L482.264 308Z" fill="#6038D0"/>
<path fill-rule="evenodd" clip-rule="evenodd" d="M812.404 390.5C812.68 413.32 830.855 431.747 853.284 431.877C830.939 432.006 812.815 450.297 812.408 472.999L812.393 472.999C811.985 450.274 793.826 431.97 771.451 431.876C793.909 431.783 812.12 413.342 812.396 390.5L812.404 390.5ZM853.777 431.877L853.777 431.877C853.771 431.877 853.765 431.877 853.76 431.877C853.765 431.877 853.771 431.877 853.777 431.877Z" fill="#6038D0"/>
<path fill-rule="evenodd" clip-rule="evenodd" d="M729.762 390.5C730.038 413.32 748.213 431.747 770.642 431.877C748.297 432.006 730.173 450.297 729.766 472.999L729.75 472.999C729.343 450.274 711.184 431.97 688.808 431.876C711.267 431.783 729.478 413.342 729.754 390.5L729.762 390.5ZM771.135 431.877L771.135 431.877C771.129 431.877 771.123 431.877 771.118 431.877C771.123 431.877 771.129 431.877 771.135 431.877Z" fill="#6038D0"/>
<path fill-rule="evenodd" clip-rule="evenodd" d="M936.276 431.877L936.276 431.877C936.273 431.877 936.27 431.877 936.268 431.877C936.27 431.877 936.273 431.877 936.276 431.877ZM894.898 390.5C895.173 413.315 913.341 431.74 935.764 431.877C913.425 432.013 895.309 450.302 894.902 472.999L894.886 472.999C894.478 450.274 876.32 431.97 853.944 431.876C876.403 431.783 894.614 413.342 894.89 390.5L894.898 390.5Z" fill="#6038D0"/>
<path fill-rule="evenodd" clip-rule="evenodd" d="M812.404 308C812.679 330.902 830.983 349.381 853.522 349.381C853.607 349.381 853.691 349.38 853.776 349.38L853.776 349.383C853.691 349.383 853.606 349.382 853.521 349.382C831.069 349.382 812.82 367.719 812.408 390.499L812.392 390.499C811.98 367.719 793.73 349.382 771.278 349.382C771.278 349.382 771.278 349.382 771.278 349.382L771.278 349.381C771.278 349.381 771.278 349.381 771.278 349.381C793.817 349.381 812.121 330.902 812.396 308L812.404 308Z" fill="#6038D0"/>
</mask>
<g mask="url(#mask1)">
<path d="M605 358L936 309L853.5 556L315.5 512.5L605 358Z" fill="#E1FC31"/>
</g>
<mask id="mask2" mask-type="alpha" maskUnits="userSpaceOnUse" x="-48" y="0" width="661" height="330">
<path fill-rule="evenodd" clip-rule="evenodd" d="M158.267 247.499C158.542 270.401 176.846 288.881 199.385 288.881C199.471 288.881 199.556 288.881 199.642 288.88L199.642 288.883C199.556 288.882 199.47 288.882 199.384 288.882C176.932 288.882 158.683 307.219 158.27 329.998L158.255 329.998C157.843 307.219 139.594 288.883 117.143 288.882C139.682 288.881 157.985 270.401 158.259 247.499L158.267 247.499Z" fill="#6038D0"/>
<path fill-rule="evenodd" clip-rule="evenodd" d="M488.407 247.499C488.681 270.401 506.985 288.881 529.525 288.881C529.61 288.881 529.696 288.881 529.781 288.88L529.781 288.883C529.696 288.882 529.61 288.882 529.524 288.882C507.072 288.882 488.822 307.219 488.41 329.998L488.395 329.998C487.983 307.219 469.734 288.883 447.282 288.882C469.821 288.881 488.125 270.401 488.399 247.499L488.407 247.499Z" fill="#6038D0"/>
<path fill-rule="evenodd" clip-rule="evenodd" d="M240.623 247.499C240.898 270.401 259.202 288.881 281.741 288.881C281.827 288.881 281.912 288.881 281.998 288.88L281.998 288.883C281.912 288.882 281.826 288.882 281.74 288.882C259.288 288.882 241.039 307.219 240.627 329.998L240.611 329.998C240.199 307.219 221.951 288.883 199.499 288.882C222.038 288.881 240.341 270.401 240.615 247.499L240.623 247.499Z" fill="#6038D0"/>
<path fill-rule="evenodd" clip-rule="evenodd" d="M570.763 247.499C571.038 270.401 589.341 288.881 611.881 288.881C611.967 288.881 612.052 288.881 612.138 288.88L612.138 288.883C612.052 288.882 611.966 288.882 611.88 288.882C589.428 288.882 571.179 307.218 570.766 329.998L570.751 329.998C570.339 307.219 552.09 288.883 529.639 288.882C552.178 288.881 570.481 270.401 570.755 247.499L570.763 247.499Z" fill="#6038D0"/>
<path fill-rule="evenodd" clip-rule="evenodd" d="M240.623 0.790037C240.898 23.6923 259.202 42.1717 281.741 42.1717C281.827 42.1717 281.912 42.1715 281.998 42.1709L281.998 42.1734C281.912 42.1728 281.826 42.1726 281.74 42.1726C259.288 42.1726 241.039 60.5094 240.627 83.2889L240.611 83.2889C240.199 60.5099 221.951 42.1734 199.499 42.1725C222.038 42.1717 240.341 23.6922 240.615 0.790037L240.623 0.790037Z" fill="#6038D0"/>
<path fill-rule="evenodd" clip-rule="evenodd" d="M570.763 0.790037C571.038 23.6923 589.342 42.1717 611.881 42.1717C611.967 42.1717 612.052 42.1715 612.138 42.1709L612.138 42.1734C612.052 42.1728 611.966 42.1726 611.88 42.1726C589.428 42.1726 571.179 60.5094 570.766 83.2889L570.751 83.2889C570.339 60.5099 552.09 42.1734 529.639 42.1725C552.178 42.1717 570.481 23.6922 570.755 0.790037L570.763 0.790037Z" fill="#6038D0"/>
<path fill-rule="evenodd" clip-rule="evenodd" d="M75.6245 247.499C75.8991 270.401 94.203 288.881 116.742 288.881C116.828 288.881 116.914 288.881 116.999 288.88L116.999 288.883C116.913 288.882 116.827 288.882 116.742 288.882C94.2895 288.882 76.0401 307.218 75.6278 329.998L75.6125 329.998C75.2003 307.219 56.9516 288.883 34.5002 288.882C57.0391 288.881 75.3425 270.401 75.6165 247.499L75.6245 247.499Z" fill="#6038D0"/>
<path fill-rule="evenodd" clip-rule="evenodd" d="M405.764 247.499C406.039 270.401 424.343 288.881 446.882 288.881C446.968 288.881 447.053 288.881 447.139 288.88L447.139 288.883C447.053 288.882 446.967 288.882 446.881 288.882C424.429 288.882 406.18 307.219 405.767 329.998L405.752 329.998C405.34 307.219 387.091 288.883 364.64 288.882C387.179 288.881 405.482 270.401 405.756 247.499L405.764 247.499Z" fill="#6038D0"/>
<path fill-rule="evenodd" clip-rule="evenodd" d="M-6.87551 247.499C-6.60096 270.401 11.7029 288.881 34.2423 288.881C34.3279 288.881 34.4135 288.881 34.499 288.88L34.499 288.883C34.4132 288.882 34.3274 288.882 34.2415 288.882C11.7894 288.882 -6.46002 307.219 -6.87231 329.998L-6.88754 329.998C-7.29982 307.219 -25.5484 288.883 -47.9998 288.882C-25.4609 288.881 -7.15759 270.401 -6.88353 247.499L-6.87551 247.499Z" fill="#6038D0"/>
<path fill-rule="evenodd" clip-rule="evenodd" d="M323.264 247.499C323.539 270.401 341.843 288.881 364.382 288.881C364.468 288.881 364.553 288.881 364.639 288.88L364.639 288.883C364.553 288.882 364.467 288.882 364.381 288.882C341.929 288.882 323.68 307.219 323.267 329.998L323.252 329.998C322.84 307.219 304.591 288.883 282.14 288.882C304.679 288.881 322.982 270.401 323.256 247.499L323.264 247.499Z" fill="#6038D0"/>
<path fill-rule="evenodd" clip-rule="evenodd" d="M158.267 165C158.542 187.828 176.728 206.262 199.167 206.38C176.813 206.498 158.68 224.792 158.27 247.499L158.255 247.499C157.846 224.777 139.688 206.473 117.313 206.38C139.773 206.287 157.984 187.844 158.259 165L158.267 165ZM199.642 206.381L199.642 206.38C199.629 206.38 199.616 206.38 199.602 206.38C199.616 206.38 199.629 206.381 199.642 206.381Z" fill="#6038D0"/>
<path fill-rule="evenodd" clip-rule="evenodd" d="M488.407 165C488.681 187.828 506.868 206.262 529.306 206.38C506.953 206.498 488.819 224.792 488.41 247.499L488.395 247.499C487.985 224.777 469.827 206.473 447.453 206.38C469.913 206.287 488.124 187.844 488.399 165L488.407 165ZM529.781 206.381L529.781 206.38C529.768 206.38 529.755 206.38 529.742 206.38C529.755 206.38 529.768 206.381 529.781 206.381Z" fill="#6038D0"/>
<path fill-rule="evenodd" clip-rule="evenodd" d="M75.6234 165C75.8978 187.828 94.0843 206.262 116.523 206.38C94.1696 206.498 76.0359 224.792 75.6267 247.499L75.6116 247.499C75.2021 224.777 57.044 206.473 34.6696 206.38C57.1295 206.287 75.3408 187.844 75.6155 165L75.6234 165ZM116.998 206.381L116.998 206.38C116.985 206.38 116.972 206.38 116.959 206.38C116.972 206.38 116.985 206.381 116.998 206.381Z" fill="#6038D0"/>
<path fill-rule="evenodd" clip-rule="evenodd" d="M405.763 165C406.037 187.828 424.224 206.262 446.663 206.38C424.309 206.498 406.176 224.792 405.766 247.499L405.751 247.499C405.342 224.777 387.184 206.473 364.809 206.38C387.269 206.287 405.48 187.844 405.755 165L405.763 165ZM447.138 206.381L447.138 206.38C447.125 206.38 447.112 206.38 447.098 206.38C447.112 206.38 447.125 206.381 447.138 206.381Z" fill="#6038D0"/>
<path fill-rule="evenodd" clip-rule="evenodd" d="M-6.87561 165C-6.60126 187.828 11.5852 206.262 34.0239 206.38C11.6705 206.498 -6.46316 224.792 -6.87237 247.499L-6.88748 247.499C-7.29696 224.777 -25.4551 206.473 -47.8295 206.38C-25.3696 206.287 -7.15833 187.844 -6.88356 165L-6.87561 165ZM34.499 206.381L34.499 206.38C34.4859 206.38 34.4728 206.38 34.4597 206.38C34.4728 206.38 34.4859 206.381 34.499 206.381Z" fill="#6038D0"/>
<path fill-rule="evenodd" clip-rule="evenodd" d="M323.264 165C323.538 187.828 341.725 206.262 364.164 206.38C341.81 206.498 323.676 224.792 323.267 247.499L323.252 247.499C322.843 224.777 304.685 206.473 282.31 206.38C304.77 206.287 322.981 187.844 323.256 165L323.264 165ZM364.639 206.381L364.639 206.38C364.626 206.38 364.612 206.38 364.599 206.38C364.612 206.38 364.626 206.381 364.639 206.381Z" fill="#6038D0"/>
<path fill-rule="evenodd" clip-rule="evenodd" d="M282.14 206.381L282.14 206.38C282.117 206.38 282.095 206.38 282.072 206.38C282.095 206.38 282.117 206.38 282.14 206.381ZM240.764 165C241.038 187.837 259.239 206.276 281.691 206.38C259.325 206.484 241.177 224.783 240.768 247.499L240.752 247.499C240.343 224.777 222.185 206.473 199.81 206.38C222.27 206.287 240.482 187.844 240.756 165L240.764 165Z" fill="#6038D0"/>
<path fill-rule="evenodd" clip-rule="evenodd" d="M612.279 206.381L612.279 206.38C612.257 206.38 612.235 206.38 612.212 206.38C612.235 206.38 612.257 206.38 612.279 206.381ZM570.903 165C571.178 187.837 589.379 206.276 611.83 206.38C589.465 206.484 571.317 224.783 570.908 247.499L570.892 247.499C570.483 224.777 552.325 206.473 529.95 206.38C552.41 206.287 570.621 187.844 570.896 165L570.903 165Z" fill="#6038D0"/>
<path fill-rule="evenodd" clip-rule="evenodd" d="M-6.7319 82.4998C-6.45591 105.328 11.7323 123.76 34.1719 123.877C11.8154 123.992 -6.32123 142.288 -6.72887 164.999L-6.74424 164.999C-7.15214 142.274 -25.3109 123.97 -47.6863 123.876C-25.2274 123.783 -7.01679 105.342 -6.74043 82.4998L-6.7319 82.4998ZM34.6416 123.877L34.6416 123.876C34.6274 123.876 34.6132 123.876 34.5989 123.877C34.6132 123.877 34.6274 123.877 34.6416 123.877Z" fill="#6038D0"/>
<path fill-rule="evenodd" clip-rule="evenodd" d="M-6.73621 0.000242332C-6.46109 22.9021 11.8426 41.381 34.3816 41.381C34.4673 41.381 34.553 41.3807 34.6387 41.3802L34.6387 41.3833C34.5529 41.3828 34.4671 41.3825 34.3813 41.3825C11.929 41.3825 -6.3205 59.7195 -6.73255 82.4991L-6.74777 82.4991C-7.15981 59.72 -25.4086 41.3833 -47.8602 41.3825L-47.8602 41.381C-25.3218 41.3803 -7.01886 22.9016 -6.7438 0.000242332L-6.73621 0.000242332Z" fill="#6038D0"/>
<path fill-rule="evenodd" clip-rule="evenodd" d="M117.136 41.3833C117.05 41.3828 116.964 41.3825 116.878 41.3825C94.426 41.3825 76.1766 59.7195 75.7645 82.4991L75.7489 82.4991C75.3369 59.7203 57.0886 41.3838 34.6374 41.3825L34.6374 41.381C57.1753 41.3798 75.4778 22.9013 75.7529 0.000242332L75.7603 0.000242332C76.0354 22.9021 94.3391 41.381 116.878 41.381C116.964 41.381 117.05 41.3807 117.136 41.3801L117.136 41.3833Z" fill="#6038D0"/>
<path fill-rule="evenodd" clip-rule="evenodd" d="M323.408 82.4998C323.684 105.328 341.872 123.76 364.312 123.877C341.955 123.992 323.818 142.288 323.411 164.999L323.395 164.999C322.988 142.274 304.829 123.97 282.453 123.876C304.912 123.783 323.123 105.342 323.399 82.4998L323.408 82.4998ZM364.781 123.877L364.781 123.876C364.767 123.876 364.753 123.876 364.739 123.877C364.753 123.877 364.767 123.877 364.781 123.877Z" fill="#6038D0"/>
<path fill-rule="evenodd" clip-rule="evenodd" d="M323.403 0.000242332C323.679 22.9021 341.982 41.381 364.521 41.381C364.607 41.381 364.693 41.3807 364.778 41.3802L364.778 41.3833C364.693 41.3828 364.607 41.3825 364.521 41.3825C342.069 41.3825 323.819 59.7195 323.407 82.4991L323.392 82.4991C322.98 59.72 304.731 41.3833 282.279 41.3825L282.279 41.381C304.818 41.3803 323.121 22.9016 323.396 0.000242332L323.403 0.000242332Z" fill="#6038D0"/>
<path fill-rule="evenodd" clip-rule="evenodd" d="M447.276 41.3833C447.19 41.3828 447.104 41.3825 447.018 41.3825C424.566 41.3825 406.316 59.7195 405.904 82.4991L405.889 82.4991C405.477 59.7203 387.228 41.3838 364.777 41.3825L364.777 41.381C387.315 41.3798 405.617 22.9013 405.893 0.000242332L405.9 0.000242332C406.175 22.9021 424.479 41.381 447.018 41.381C447.104 41.381 447.19 41.3807 447.276 41.3801L447.276 41.3833Z" fill="#6038D0"/>
<path fill-rule="evenodd" clip-rule="evenodd" d="M158.265 82.4998C158.54 105.32 176.716 123.747 199.144 123.877C176.799 124.006 158.676 142.297 158.268 164.999L158.253 164.999C157.845 142.274 139.686 123.97 117.311 123.876C139.77 123.783 157.98 105.342 158.257 82.4998L158.265 82.4998ZM199.637 123.877L199.637 123.877C199.632 123.877 199.626 123.877 199.62 123.877C199.626 123.877 199.632 123.877 199.637 123.877Z" fill="#6038D0"/>
<path fill-rule="evenodd" clip-rule="evenodd" d="M75.6224 82.4998C75.8981 105.32 94.0735 123.747 116.502 123.877C94.1571 124.006 76.0337 142.297 75.6262 164.999L75.6108 164.999C75.2029 142.274 57.0442 123.97 34.6687 123.876C57.1276 123.783 75.3383 105.342 75.6146 82.4998L75.6224 82.4998ZM116.995 123.877L116.995 123.877C116.989 123.877 116.984 123.877 116.978 123.877C116.984 123.877 116.989 123.877 116.995 123.877Z" fill="#6038D0"/>
<path fill-rule="evenodd" clip-rule="evenodd" d="M282.137 123.877L282.137 123.877C282.134 123.877 282.131 123.877 282.128 123.877C282.131 123.877 282.134 123.877 282.137 123.877ZM240.758 82.4998C241.034 105.315 259.202 123.74 281.624 123.877C259.285 124.013 241.169 142.302 240.762 164.999L240.747 164.999C240.339 142.274 222.18 123.97 199.805 123.876C222.264 123.783 240.474 105.342 240.751 82.4998L240.758 82.4998Z" fill="#6038D0"/>
<path fill-rule="evenodd" clip-rule="evenodd" d="M158.264 -1.80845e-06C158.539 22.9018 176.843 41.3807 199.382 41.3807C199.467 41.3807 199.552 41.3805 199.637 41.3799L199.637 41.3831C199.552 41.3825 199.467 41.3823 199.382 41.3823C176.93 41.3823 158.68 59.7193 158.268 82.4989L158.252 82.4989C157.84 59.7193 139.591 41.3823 117.139 41.3823C117.138 41.3823 117.138 41.3823 117.138 41.3823L117.138 41.3808C117.138 41.3808 117.138 41.3808 117.139 41.3808C139.678 41.3808 157.981 22.9019 158.256 -1.80879e-06L158.264 -1.80845e-06Z" fill="#6038D0"/>
<path fill-rule="evenodd" clip-rule="evenodd" d="M488.404 82.4998C488.68 105.32 506.855 123.747 529.284 123.877C506.939 124.006 488.815 142.297 488.408 164.999L488.393 164.999C487.985 142.274 469.826 123.97 447.451 123.876C469.909 123.783 488.12 105.342 488.396 82.4998L488.404 82.4998ZM529.777 123.877L529.777 123.877C529.771 123.877 529.765 123.877 529.76 123.877C529.765 123.877 529.771 123.877 529.777 123.877Z" fill="#6038D0"/>
<path fill-rule="evenodd" clip-rule="evenodd" d="M405.762 82.4998C406.038 105.32 424.213 123.747 446.642 123.877C424.297 124.006 406.173 142.297 405.766 164.999L405.75 164.999C405.343 142.274 387.184 123.97 364.808 123.876C387.267 123.783 405.478 105.342 405.754 82.4998L405.762 82.4998ZM447.135 123.877L447.135 123.877C447.129 123.877 447.123 123.877 447.118 123.877C447.123 123.877 447.129 123.877 447.135 123.877Z" fill="#6038D0"/>
<path fill-rule="evenodd" clip-rule="evenodd" d="M612.276 123.877L612.276 123.877C612.273 123.877 612.27 123.877 612.268 123.877C612.27 123.877 612.273 123.877 612.276 123.877ZM570.898 82.4998C571.173 105.315 589.341 123.74 611.764 123.877C589.425 124.013 571.309 142.302 570.902 164.999L570.886 164.999C570.478 142.274 552.32 123.97 529.944 123.876C552.403 123.783 570.614 105.342 570.89 82.4998L570.898 82.4998Z" fill="#6038D0"/>
<path fill-rule="evenodd" clip-rule="evenodd" d="M488.404 -1.80845e-06C488.679 22.9018 506.983 41.3807 529.522 41.3807C529.607 41.3807 529.691 41.3805 529.776 41.3799L529.776 41.3831C529.691 41.3825 529.606 41.3823 529.521 41.3823C507.069 41.3823 488.82 59.7193 488.408 82.4989L488.392 82.4989C487.98 59.7193 469.73 41.3823 447.278 41.3823C447.278 41.3823 447.278 41.3823 447.278 41.3823L447.278 41.3808C447.278 41.3808 447.278 41.3808 447.278 41.3808C469.817 41.3808 488.121 22.9019 488.396 -1.80879e-06L488.404 -1.80845e-06Z" fill="#6038D0"/>
</mask>
<g mask="url(#mask2)">
<path d="M120 68L323 -16.5L665.5 331H-48L120 68Z" fill="#E8E0FF"/>
</g>
<mask id="mask3" mask-type="alpha" maskUnits="userSpaceOnUse" x="716" y="445" width="441" height="221">
<path fill-rule="evenodd" clip-rule="evenodd" d="M1073.42 555.001C1073.6 570.223 1085.73 582.514 1100.69 582.588C1085.79 582.662 1073.69 594.86 1073.42 610.001L1073.41 610.001C1073.14 594.846 1061.02 582.64 1046.1 582.588C1061.08 582.536 1073.23 570.237 1073.41 555.001L1073.42 555.001ZM1101 582.588L1101 582.588C1100.99 582.588 1100.98 582.588 1100.97 582.588C1100.98 582.588 1100.99 582.588 1101 582.588Z" fill="#6038D0"/>
<path fill-rule="evenodd" clip-rule="evenodd" d="M1018.32 555.001C1018.51 570.223 1030.63 582.514 1045.6 582.588C1030.69 582.662 1018.6 594.86 1018.32 610.001L1018.31 610.001C1018.04 594.846 1005.93 582.64 991 582.588C1005.98 582.536 1018.13 570.237 1018.32 555.001L1018.32 555.001ZM1045.91 582.588L1045.91 582.588C1045.89 582.588 1045.88 582.588 1045.87 582.588C1045.88 582.588 1045.89 582.588 1045.91 582.588Z" fill="#6038D0"/>
<path fill-rule="evenodd" clip-rule="evenodd" d="M963.323 555.001C963.506 570.223 975.635 582.514 990.598 582.588C975.692 582.662 963.598 594.86 963.325 610.001L963.315 610.001C963.042 594.846 950.926 582.64 936 582.588C950.983 582.536 963.134 570.237 963.318 555.001L963.323 555.001ZM990.906 582.588L990.906 582.588C990.895 582.588 990.883 582.588 990.872 582.588C990.883 582.588 990.895 582.588 990.906 582.588Z" fill="#6038D0"/>
<path fill-rule="evenodd" clip-rule="evenodd" d="M908.323 445.527C908.506 460.796 920.709 473.115 935.735 473.115C935.792 473.115 935.849 473.115 935.906 473.115L935.906 473.116C935.849 473.116 935.792 473.116 935.735 473.116C920.766 473.116 908.6 485.34 908.325 500.527L908.315 500.527C908.041 485.373 895.925 473.167 881.001 473.116C895.984 473.064 908.135 460.764 908.318 445.527L908.323 445.527Z" fill="#6038D0"/>
<path fill-rule="evenodd" clip-rule="evenodd" d="M853.419 555.001C853.602 570.223 865.73 582.514 880.694 582.588C865.787 582.662 853.694 594.86 853.421 610.001L853.411 610.001C853.137 594.846 841.021 582.64 826.096 582.588C841.078 582.536 853.23 570.237 853.413 555.001L853.419 555.001ZM881.002 582.588L881.002 582.588C880.99 582.588 880.979 582.588 880.967 582.588C880.979 582.588 880.99 582.588 881.002 582.588Z" fill="#6038D0"/>
<path fill-rule="evenodd" clip-rule="evenodd" d="M798.323 555.001C798.505 570.223 810.634 582.514 825.597 582.588C810.691 582.662 798.598 594.86 798.325 610.001L798.314 610.001C798.041 594.846 785.925 582.64 771 582.588C785.982 582.536 798.134 570.237 798.317 555.001L798.323 555.001ZM825.906 582.588L825.906 582.588C825.894 582.588 825.883 582.588 825.871 582.588C825.883 582.588 825.894 582.588 825.906 582.588Z" fill="#6038D0"/>
<path fill-rule="evenodd" clip-rule="evenodd" d="M743.323 555.001C743.506 570.223 755.635 582.514 770.598 582.588C755.692 582.662 743.598 594.86 743.325 610.001L743.315 610.001C743.042 594.846 730.926 582.64 716 582.588C730.983 582.536 743.134 570.237 743.318 555.001L743.323 555.001ZM770.906 582.588L770.906 582.588C770.895 582.588 770.883 582.588 770.872 582.588C770.883 582.588 770.895 582.588 770.906 582.588Z" fill="#6038D0"/>
<path fill-rule="evenodd" clip-rule="evenodd" d="M936.001 582.588L936.001 582.588C935.978 582.588 935.954 582.588 935.931 582.588C935.954 582.588 935.978 582.588 936.001 582.588ZM908.417 555.001C908.6 570.235 920.748 582.532 935.727 582.588C920.805 582.644 908.693 594.848 908.42 610.001L908.409 610.001C908.136 594.846 896.02 582.639 881.095 582.588C896.077 582.536 908.229 570.237 908.412 555.001L908.417 555.001Z" fill="#6038D0"/>
<path fill-rule="evenodd" clip-rule="evenodd" d="M963.419 500C963.603 515.224 975.736 527.515 990.703 527.585C975.792 527.654 963.693 539.855 963.421 555L963.411 555C963.138 539.843 951.022 527.636 936.096 527.585C951.078 527.533 963.229 515.235 963.413 500L963.419 500ZM991.001 527.585L991.001 527.585C990.987 527.585 990.973 527.585 990.958 527.585C990.973 527.585 990.987 527.585 991.001 527.585Z" fill="#6038D0"/>
<path fill-rule="evenodd" clip-rule="evenodd" d="M963.416 445C963.6 460.268 975.802 472.588 990.828 472.588C990.885 472.588 990.942 472.587 991 472.587L991 472.589C990.942 472.589 990.885 472.589 990.828 472.589C975.86 472.589 963.693 484.813 963.419 500L963.408 500C963.134 484.814 950.968 472.589 936 472.589L936 472.588C951.026 472.587 963.228 460.268 963.411 445L963.416 445Z" fill="#6038D0"/>
<path fill-rule="evenodd" clip-rule="evenodd" d="M1046 472.589C1045.94 472.589 1045.88 472.589 1045.83 472.589C1030.86 472.589 1018.69 484.813 1018.42 500L1018.41 500C1018.13 484.814 1005.97 472.589 990.999 472.589L990.999 472.588C1006.02 472.587 1018.23 460.268 1018.41 445L1018.41 445C1018.6 460.268 1030.8 472.588 1045.83 472.588C1045.88 472.588 1045.94 472.587 1046 472.587L1046 472.589Z" fill="#6038D0"/>
<path fill-rule="evenodd" clip-rule="evenodd" d="M743.419 500C743.603 515.224 755.736 527.515 770.703 527.585C755.792 527.654 743.693 539.855 743.421 555L743.411 555C743.138 539.843 731.022 527.636 716.096 527.585C731.078 527.533 743.229 515.235 743.413 500L743.419 500ZM771.001 527.585L771.001 527.585C770.987 527.585 770.973 527.585 770.958 527.585C770.973 527.585 770.987 527.585 771.001 527.585Z" fill="#6038D0"/>
<path fill-rule="evenodd" clip-rule="evenodd" d="M743.416 445C743.6 460.268 755.802 472.588 770.828 472.588C770.885 472.588 770.942 472.587 771 472.587L771 472.589C770.942 472.589 770.885 472.589 770.828 472.589C755.86 472.589 743.693 484.813 743.419 500L743.408 500C743.134 484.814 730.968 472.589 716 472.589L716 472.588C731.026 472.587 743.228 460.268 743.411 445L743.416 445Z" fill="#6038D0"/>
<path fill-rule="evenodd" clip-rule="evenodd" d="M825.999 472.589C825.941 472.589 825.884 472.589 825.827 472.589C810.858 472.589 798.692 484.813 798.417 500L798.407 500C798.132 484.814 785.967 472.589 770.999 472.589L770.999 472.588C786.024 472.587 798.226 460.268 798.41 445L798.414 445C798.598 460.268 810.8 472.588 825.826 472.588C825.884 472.588 825.941 472.587 825.999 472.587L825.999 472.589Z" fill="#6038D0"/>
<path fill-rule="evenodd" clip-rule="evenodd" d="M1101 527.585L1101 527.585C1100.99 527.585 1100.99 527.585 1100.98 527.585C1100.99 527.585 1100.99 527.585 1101 527.585ZM1073.42 500C1073.6 515.215 1085.72 527.502 1100.68 527.585C1085.78 527.668 1073.69 539.863 1073.42 555L1073.41 555C1073.14 539.843 1061.02 527.636 1046.1 527.585C1061.08 527.533 1073.23 515.235 1073.41 500L1073.42 500Z" fill="#6038D0"/>
<path fill-rule="evenodd" clip-rule="evenodd" d="M1045.9 527.585L1045.9 527.585C1045.9 527.585 1045.89 527.585 1045.89 527.585C1045.89 527.585 1045.9 527.585 1045.9 527.585ZM1018.32 500C1018.51 515.215 1030.63 527.502 1045.58 527.585C1030.68 527.668 1018.6 539.863 1018.32 555L1018.31 555C1018.04 539.843 1005.93 527.636 991 527.585C1005.98 527.533 1018.13 515.235 1018.32 500L1018.32 500Z" fill="#6038D0"/>
<path fill-rule="evenodd" clip-rule="evenodd" d="M1101 472.589C1100.94 472.588 1100.89 472.588 1100.83 472.588C1085.86 472.588 1073.69 484.813 1073.42 500L1073.41 500C1073.13 484.813 1060.97 472.588 1046 472.588C1046 472.588 1046 472.588 1046 472.588L1046 472.587C1046 472.587 1046 472.587 1046 472.587C1061.03 472.587 1073.23 460.268 1073.41 445L1073.42 445C1073.6 460.268 1085.8 472.587 1100.83 472.587C1100.89 472.587 1100.94 472.587 1101 472.587L1101 472.589Z" fill="#6038D0"/>
<path fill-rule="evenodd" clip-rule="evenodd" d="M881 527.585L881 527.585C880.994 527.585 880.988 527.585 880.983 527.585C880.988 527.585 880.994 527.585 881 527.585ZM853.417 500C853.601 515.215 865.721 527.502 880.676 527.585C865.777 527.668 853.692 539.863 853.42 555L853.41 555C853.138 539.843 841.021 527.636 826.095 527.585C841.077 527.533 853.228 515.235 853.412 500L853.417 500Z" fill="#6038D0"/>
<path fill-rule="evenodd" clip-rule="evenodd" d="M825.904 527.585L825.904 527.585C825.899 527.585 825.893 527.585 825.888 527.585C825.893 527.585 825.899 527.585 825.904 527.585ZM798.322 500C798.506 515.215 810.626 527.502 825.581 527.585C810.682 527.668 798.597 539.863 798.325 555L798.315 555C798.042 539.843 785.926 527.636 771 527.585C785.982 527.533 798.133 515.235 798.317 500L798.322 500Z" fill="#6038D0"/>
<path fill-rule="evenodd" clip-rule="evenodd" d="M935.999 527.585L935.999 527.585C935.997 527.585 935.995 527.585 935.993 527.585C935.995 527.585 935.997 527.585 935.999 527.585ZM908.413 500C908.597 515.21 920.709 527.494 935.657 527.585C920.765 527.676 908.688 539.868 908.416 555L908.406 555C908.133 539.843 896.017 527.636 881.091 527.585C896.073 527.533 908.224 515.235 908.408 500L908.413 500Z" fill="#6038D0"/>
<path fill-rule="evenodd" clip-rule="evenodd" d="M880.999 472.589C880.942 472.588 880.886 472.588 880.829 472.588C865.861 472.588 853.694 484.813 853.42 500L853.409 500C853.135 484.813 840.968 472.588 826 472.588C826 472.588 826 472.588 825.999 472.588L825.999 472.587C826 472.587 826 472.587 826 472.587C841.026 472.587 853.229 460.268 853.412 445L853.417 445C853.6 460.268 865.803 472.587 880.829 472.587C880.886 472.587 880.942 472.587 880.999 472.587L880.999 472.589Z" fill="#6038D0"/>
</mask>
<g mask="url(#mask3)">
<path d="M887 377.5L1156 445L1108.5 627.5L716 665L887 377.5Z" fill="#0C422A"/>
</g>
<path fill-rule="evenodd" clip-rule="evenodd" d="M620.323 224.001C620.506 239.269 632.709 251.589 647.735 251.589C647.792 251.589 647.849 251.589 647.906 251.588L647.906 251.59C647.849 251.589 647.792 251.589 647.735 251.589C632.766 251.589 620.6 263.814 620.325 279.001L620.315 279.001C620.041 263.846 607.925 251.641 593.001 251.589C607.984 251.537 620.135 239.237 620.318 224.001L620.323 224.001Z" fill="#6038D0"/>
<path fill-rule="evenodd" clip-rule="evenodd" d="M510.323 224.001C510.506 239.269 522.709 251.589 537.735 251.589C537.792 251.589 537.849 251.589 537.906 251.588L537.906 251.59C537.849 251.589 537.792 251.589 537.735 251.589C522.766 251.589 510.6 263.814 510.325 279.001L510.315 279.001C510.041 263.846 497.925 251.641 483.001 251.589C497.984 251.537 510.135 239.237 510.318 224.001L510.323 224.001Z" fill="#6038D0"/>
<path fill-rule="evenodd" clip-rule="evenodd" d="M455.323 224.001C455.506 239.269 467.709 251.589 482.735 251.589C482.792 251.589 482.849 251.589 482.906 251.588L482.906 251.59C482.849 251.589 482.792 251.589 482.735 251.589C467.766 251.589 455.6 263.814 455.325 279.001L455.315 279.001C455.041 263.846 442.925 251.641 428.001 251.589C442.984 251.537 455.135 239.237 455.318 224.001L455.323 224.001Z" fill="#6038D0"/>
<path fill-rule="evenodd" clip-rule="evenodd" d="M565.419 169.001C565.602 184.223 577.73 196.514 592.694 196.589C577.787 196.663 565.694 208.86 565.421 224.001L565.411 224.001C565.137 208.846 553.021 196.64 538.096 196.588C553.078 196.537 565.23 184.237 565.413 169.001L565.419 169.001ZM593.002 196.589L593.002 196.588C592.99 196.588 592.979 196.588 592.967 196.589C592.979 196.589 592.99 196.589 593.002 196.589Z" fill="#6038D0"/>
<path fill-rule="evenodd" clip-rule="evenodd" d="M510.323 169.001C510.506 184.223 522.635 196.514 537.598 196.589C522.692 196.663 510.598 208.86 510.325 224.001L510.315 224.001C510.042 208.846 497.926 196.64 483 196.588C497.983 196.537 510.134 184.237 510.318 169.001L510.323 169.001ZM537.906 196.589L537.906 196.588C537.895 196.588 537.883 196.588 537.872 196.589C537.883 196.589 537.895 196.589 537.906 196.589Z" fill="#6038D0"/>
<path fill-rule="evenodd" clip-rule="evenodd" d="M455.323 169.001C455.506 184.223 467.635 196.514 482.598 196.589C467.692 196.663 455.598 208.86 455.325 224.001L455.315 224.001C455.042 208.846 442.926 196.64 428 196.588C442.983 196.537 455.134 184.237 455.318 169.001L455.323 169.001ZM482.906 196.589L482.906 196.588C482.895 196.588 482.883 196.588 482.872 196.589C482.883 196.589 482.895 196.589 482.906 196.589Z" fill="#6038D0"/>
<path fill-rule="evenodd" clip-rule="evenodd" d="M648 196.588L648 196.588C647.977 196.588 647.953 196.588 647.93 196.588C647.953 196.588 647.977 196.588 648 196.588ZM620.416 169.001C620.599 184.235 632.747 196.532 647.726 196.588C632.804 196.644 620.692 208.848 620.419 224.001L620.408 224.001C620.135 208.846 608.019 196.639 593.094 196.588C608.076 196.536 620.228 184.237 620.411 169.001L620.416 169.001Z" fill="#6038D0"/>
<path fill-rule="evenodd" clip-rule="evenodd" d="M537.904 141.585L537.904 141.585C537.899 141.585 537.893 141.585 537.888 141.585C537.893 141.585 537.899 141.585 537.904 141.585ZM510.322 114C510.506 129.215 522.626 141.502 537.581 141.585C522.682 141.668 510.597 153.863 510.325 169L510.315 169C510.042 153.843 497.926 141.636 483 141.585C497.982 141.533 510.133 129.235 510.317 114L510.322 114Z" fill="#6038D0"/>
<path fill-rule="evenodd" clip-rule="evenodd" d="M743.323 32.001C743.506 47.2692 755.709 59.5889 770.735 59.5889C770.792 59.5889 770.849 59.5888 770.906 59.5884L770.906 59.5898C770.849 59.5894 770.792 59.5892 770.735 59.5892C755.766 59.5892 743.6 71.814 743.325 87.0005L743.315 87.0005C743.041 71.8462 730.925 59.6411 716.001 59.5894C730.984 59.5375 743.135 47.2373 743.318 32.001L743.323 32.001Z" fill="#E1FC31"/>
<path fill-rule="evenodd" clip-rule="evenodd" d="M633.323 32.001C633.506 47.2692 645.709 59.5889 660.735 59.5889C660.792 59.5889 660.849 59.5888 660.906 59.5884L660.906 59.5898C660.849 59.5894 660.792 59.5892 660.735 59.5892C645.766 59.5892 633.6 71.814 633.325 87.0005L633.315 87.0005C633.041 71.8462 620.925 59.6411 606.001 59.5894C620.984 59.5375 633.135 47.2373 633.318 32.001L633.323 32.001Z" fill="#E1FC31"/>
<path fill-rule="evenodd" clip-rule="evenodd" d="M578.323 32.001C578.506 47.2692 590.709 59.5889 605.735 59.5889C605.792 59.5889 605.849 59.5888 605.906 59.5884L605.906 59.5898C605.849 59.5894 605.792 59.5892 605.735 59.5892C590.766 59.5892 578.6 71.814 578.325 87.0005L578.315 87.0005C578.041 71.8462 565.925 59.6411 551.001 59.5894C565.984 59.5375 578.135 47.2373 578.318 32.001L578.323 32.001Z" fill="#E1FC31"/>
<path fill-rule="evenodd" clip-rule="evenodd" d="M688.419 -22.9985C688.602 -7.77699 700.73 4.51386 715.694 4.58851C700.787 4.66264 688.694 16.86 688.421 32.001L688.411 32.001C688.137 16.8458 676.021 4.63977 661.096 4.58833C676.078 4.5367 688.23 -7.76278 688.413 -22.9985L688.419 -22.9985ZM716.002 4.58871L716.002 4.58832C715.99 4.58839 715.979 4.58845 715.967 4.58851C715.979 4.58857 715.99 4.58863 716.002 4.58871Z" fill="#E1FC31"/>
<path fill-rule="evenodd" clip-rule="evenodd" d="M633.323 -22.9985C633.506 -7.77699 645.635 4.51386 660.598 4.58851C645.692 4.66264 633.598 16.86 633.325 32.001L633.315 32.001C633.042 16.8458 620.926 4.63977 606 4.58833C620.983 4.5367 633.134 -7.76278 633.318 -22.9985L633.323 -22.9985ZM660.906 4.58871L660.906 4.58832C660.895 4.58839 660.883 4.58845 660.872 4.58851C660.883 4.58857 660.895 4.58863 660.906 4.58871Z" fill="#E1FC31"/>
<path fill-rule="evenodd" clip-rule="evenodd" d="M578.323 -22.9985C578.506 -7.77699 590.635 4.51386 605.598 4.58851C590.692 4.66264 578.598 16.86 578.325 32.001L578.315 32.001C578.042 16.8458 565.926 4.63977 551 4.58833C565.983 4.5367 578.134 -7.76278 578.318 -22.9985L578.323 -22.9985ZM605.906 4.58871L605.906 4.58832C605.895 4.58839 605.883 4.58845 605.872 4.58851C605.883 4.58857 605.895 4.58863 605.906 4.58871Z" fill="#E1FC31"/>
<path fill-rule="evenodd" clip-rule="evenodd" d="M771 4.58837L771 4.58767C770.977 4.58781 770.953 4.58793 770.93 4.58802C770.953 4.5881 770.977 4.58822 771 4.58837ZM743.416 -22.9985C743.599 -7.76538 755.747 4.53244 770.726 4.58802C755.804 4.64354 743.692 16.8482 743.419 32.001L743.408 32.001C743.135 16.8456 731.019 4.63942 716.094 4.58799C731.076 4.53636 743.228 -7.76294 743.411 -22.9985L743.416 -22.9985Z" fill="#E1FC31"/>
<path fill-rule="evenodd" clip-rule="evenodd" d="M192.323 541.001C192.506 556.269 204.709 568.589 219.735 568.589C219.792 568.589 219.849 568.589 219.906 568.588L219.906 568.59C219.849 568.589 219.792 568.589 219.735 568.589C204.766 568.589 192.6 580.814 192.325 596.001L192.315 596.001C192.041 580.846 179.925 568.641 165.001 568.589C179.984 568.537 192.135 556.237 192.318 541.001L192.323 541.001Z" fill="#F6E3DD"/>
<path fill-rule="evenodd" clip-rule="evenodd" d="M82.323 541.001C82.506 556.269 94.7087 568.589 109.735 568.589C109.792 568.589 109.849 568.589 109.906 568.588L109.906 568.59C109.849 568.589 109.792 568.589 109.735 568.589C94.7663 568.589 82.5999 580.814 82.3252 596.001L82.3149 596.001C82.0408 580.846 69.9254 568.641 55.0008 568.589C69.9836 568.537 82.1352 556.237 82.3176 541.001L82.323 541.001Z" fill="#F6E3DD"/>
<path fill-rule="evenodd" clip-rule="evenodd" d="M27.323 541.001C27.506 556.269 39.7087 568.589 54.735 568.589C54.7921 568.589 54.8492 568.589 54.9062 568.588L54.9062 568.59C54.8491 568.589 54.7918 568.589 54.7346 568.589C39.7663 568.589 27.5999 580.814 27.3252 596.001L27.3149 596.001C27.0408 580.846 14.9254 568.641 0.000776992 568.589C14.9836 568.537 27.1352 556.237 27.3176 541.001L27.323 541.001Z" fill="#F6E3DD"/>
<path fill-rule="evenodd" clip-rule="evenodd" d="M137.419 486.001C137.602 501.223 149.73 513.514 164.694 513.589C149.787 513.663 137.694 525.86 137.421 541.001L137.411 541.001C137.137 525.846 125.021 513.64 110.096 513.588C125.078 513.537 137.23 501.237 137.413 486.001L137.419 486.001ZM165.002 513.589L165.002 513.588C164.99 513.588 164.979 513.588 164.967 513.589C164.979 513.589 164.99 513.589 165.002 513.589Z" fill="#F6E3DD"/>
<path fill-rule="evenodd" clip-rule="evenodd" d="M82.323 486.001C82.5058 501.223 94.6348 513.514 109.598 513.589C94.6918 513.663 82.5982 525.86 82.3252 541.001L82.3149 541.001C82.0416 525.846 69.9256 513.64 55.0002 513.588C69.9828 513.537 82.1344 501.237 82.3175 486.001L82.323 486.001ZM109.906 513.589L109.906 513.588C109.895 513.588 109.883 513.588 109.872 513.589C109.883 513.589 109.895 513.589 109.906 513.589Z" fill="#F6E3DD"/>
<path fill-rule="evenodd" clip-rule="evenodd" d="M27.323 486.001C27.5058 501.223 39.6348 513.514 54.5979 513.589C39.6918 513.663 27.5982 525.86 27.3252 541.001L27.3149 541.001C27.0416 525.846 14.9256 513.64 0.000235305 513.588C14.9828 513.537 27.1344 501.237 27.3175 486.001L27.323 486.001ZM54.9062 513.589L54.9062 513.588C54.8947 513.588 54.8832 513.588 54.8716 513.589C54.8832 513.589 54.8947 513.589 54.9062 513.589Z" fill="#F6E3DD"/>
<path fill-rule="evenodd" clip-rule="evenodd" d="M220 513.588L220 513.588C219.977 513.588 219.953 513.588 219.93 513.588C219.953 513.588 219.977 513.588 220 513.588ZM192.416 486.001C192.599 501.235 204.747 513.532 219.726 513.588C204.804 513.644 192.692 525.848 192.419 541.001L192.408 541.001C192.135 525.846 180.019 513.639 165.094 513.588C180.076 513.536 192.228 501.237 192.411 486.001L192.416 486.001Z" fill="#F6E3DD"/>
<path fill-rule="evenodd" clip-rule="evenodd" d="M109.904 458.585L109.904 458.585C109.899 458.585 109.893 458.585 109.888 458.585C109.893 458.585 109.899 458.585 109.904 458.585ZM82.3222 431C82.5059 446.215 94.6257 458.502 109.581 458.585C94.6817 458.668 82.5967 470.863 82.3248 486L82.3146 486C82.0424 470.843 69.9259 458.636 54.9999 458.585C69.9818 458.533 82.133 446.235 82.3172 431L82.3222 431Z" fill="#F6E3DD"/>
<path fill-rule="evenodd" clip-rule="evenodd" d="M247.419 465C247.602 480.269 259.804 492.588 274.831 492.588C274.888 492.588 274.945 492.588 275.002 492.588L275.002 492.589C274.945 492.589 274.888 492.589 274.83 492.589C259.862 492.589 247.696 504.814 247.421 520L247.411 520C247.137 504.846 235.021 492.641 220.096 492.589C235.079 492.537 247.231 480.237 247.413 465L247.419 465Z" fill="#19D992"/>
<path fill-rule="evenodd" clip-rule="evenodd" d="M192.323 465C192.506 480.269 204.709 492.588 219.735 492.588C219.792 492.588 219.849 492.588 219.906 492.588L219.906 492.589C219.849 492.589 219.792 492.589 219.735 492.589C204.766 492.589 192.6 504.814 192.325 520L192.315 520C192.041 504.846 179.925 492.641 165.001 492.589C179.984 492.537 192.135 480.237 192.318 465L192.323 465Z" fill="#19D992"/>
<path fill-rule="evenodd" clip-rule="evenodd" d="M137.323 465.001C137.506 480.269 149.709 492.589 164.735 492.589C164.792 492.589 164.849 492.589 164.906 492.588L164.906 492.59C164.849 492.589 164.792 492.589 164.735 492.589C149.766 492.589 137.6 504.814 137.325 520L137.315 520C137.041 504.846 124.925 492.641 110.001 492.589C124.984 492.537 137.135 480.237 137.318 465.001L137.323 465.001Z" fill="#19D992"/>
<path fill-rule="evenodd" clip-rule="evenodd" d="M247.419 410.001C247.602 425.223 259.73 437.513 274.694 437.588C259.787 437.662 247.694 449.86 247.421 465.001L247.411 465.001C247.137 449.845 235.021 437.639 220.096 437.588C235.078 437.536 247.23 425.237 247.413 410.001L247.419 410.001ZM275.002 437.588L275.002 437.588C274.99 437.588 274.979 437.588 274.967 437.588C274.979 437.588 274.99 437.588 275.002 437.588Z" fill="#19D992"/>
<path fill-rule="evenodd" clip-rule="evenodd" d="M192.323 410.001C192.506 425.223 204.635 437.513 219.598 437.588C204.692 437.662 192.598 449.86 192.325 465.001L192.315 465.001C192.042 449.845 179.926 437.639 165 437.588C179.983 437.536 192.134 425.237 192.318 410.001L192.323 410.001ZM219.906 437.588L219.906 437.588C219.895 437.588 219.883 437.588 219.872 437.588C219.883 437.588 219.895 437.588 219.906 437.588Z" fill="#19D992"/>
<path fill-rule="evenodd" clip-rule="evenodd" d="M137.323 410.001C137.506 425.223 149.635 437.513 164.598 437.588C149.692 437.662 137.598 449.86 137.325 465.001L137.315 465.001C137.042 449.845 124.926 437.639 110 437.588C124.983 437.536 137.134 425.237 137.318 410.001L137.323 410.001ZM164.906 437.588L164.906 437.588C164.895 437.588 164.883 437.588 164.872 437.588C164.883 437.588 164.895 437.588 164.906 437.588Z" fill="#19D992"/>
<path fill-rule="evenodd" clip-rule="evenodd" d="M137.419 355C137.603 370.223 149.737 382.515 164.703 382.585C149.792 382.654 137.694 394.854 137.421 409.999L137.411 409.999C137.139 394.843 125.022 382.636 110.096 382.585C125.078 382.533 137.23 370.235 137.414 355L137.419 355ZM165.002 382.585L165.002 382.585C164.988 382.585 164.973 382.585 164.959 382.585C164.973 382.585 164.988 382.585 165.002 382.585Z" fill="#19D992"/>
<path fill-rule="evenodd" clip-rule="evenodd" d="M219.998 327.589C219.941 327.588 219.883 327.588 219.826 327.588C204.858 327.588 192.691 339.813 192.417 355L192.406 355C192.132 339.814 179.966 327.589 164.999 327.588L164.999 327.587C180.024 327.587 192.226 315.267 192.409 300L192.414 300C192.597 315.268 204.8 327.587 219.826 327.587C219.883 327.587 219.941 327.587 219.998 327.587L219.998 327.589Z" fill="#19D992"/>
<path fill-rule="evenodd" clip-rule="evenodd" d="M275 382.585L275 382.585C274.994 382.585 274.989 382.585 274.983 382.585C274.989 382.585 274.994 382.585 275 382.585ZM247.418 355C247.602 370.215 259.721 382.501 274.676 382.585C259.777 382.668 247.692 394.863 247.421 409.999L247.41 409.999C247.138 394.843 235.022 382.636 220.096 382.585C235.077 382.533 247.229 370.235 247.413 355L247.418 355Z" fill="#19D992"/>
<path fill-rule="evenodd" clip-rule="evenodd" d="M219.904 382.585L219.904 382.585C219.899 382.585 219.893 382.585 219.888 382.585C219.893 382.585 219.899 382.585 219.904 382.585ZM192.322 355C192.506 370.215 204.626 382.501 219.581 382.585C204.682 382.668 192.597 394.863 192.325 409.999L192.315 409.999C192.042 394.843 179.926 382.636 165 382.585C179.982 382.533 192.133 370.235 192.317 355L192.322 355Z" fill="#19D992"/>
<path fill-rule="evenodd" clip-rule="evenodd" d="M330 382.585L330 382.585C329.998 382.585 329.996 382.585 329.994 382.585C329.996 382.585 329.998 382.585 330 382.585ZM302.414 355C302.598 370.21 314.71 382.494 329.658 382.585C314.766 382.676 302.689 394.868 302.417 409.999L302.407 409.999C302.134 394.843 290.018 382.636 275.092 382.585C290.074 382.533 302.225 370.235 302.409 355L302.414 355Z" fill="#19D992"/>
<path fill-rule="evenodd" clip-rule="evenodd" d="M626.419 582.001C626.602 597.223 638.73 609.513 653.694 609.588C638.787 609.662 626.694 621.86 626.421 637.001L626.411 637.001C626.137 621.845 614.021 609.639 599.096 609.588C614.078 609.536 626.23 597.237 626.413 582.001L626.419 582.001ZM654.002 609.588L654.002 609.588C653.99 609.588 653.979 609.588 653.967 609.588C653.979 609.588 653.99 609.588 654.002 609.588Z" fill="#6038D0"/>
<path fill-rule="evenodd" clip-rule="evenodd" d="M571.323 582.001C571.506 597.223 583.635 609.513 598.598 609.588C583.692 609.662 571.598 621.86 571.325 637.001L571.315 637.001C571.042 621.845 558.926 609.639 544 609.588C558.983 609.536 571.134 597.237 571.318 582.001L571.323 582.001ZM598.906 609.588L598.906 609.588C598.895 609.588 598.883 609.588 598.872 609.588C598.883 609.588 598.895 609.588 598.906 609.588Z" fill="#6038D0"/>
<path fill-rule="evenodd" clip-rule="evenodd" d="M516.323 582.001C516.506 597.223 528.635 609.513 543.598 609.588C528.692 609.662 516.598 621.86 516.325 637.001L516.315 637.001C516.042 621.845 503.926 609.639 489 609.588C503.983 609.536 516.134 597.237 516.318 582.001L516.323 582.001ZM543.906 609.588L543.906 609.588C543.895 609.588 543.883 609.588 543.872 609.588C543.883 609.588 543.895 609.588 543.906 609.588Z" fill="#6038D0"/>
<path fill-rule="evenodd" clip-rule="evenodd" d="M516.419 527C516.603 542.223 528.737 554.515 543.703 554.585C528.792 554.654 516.694 566.854 516.421 581.999L516.411 581.999C516.139 566.843 504.022 554.636 489.096 554.585C504.078 554.533 516.23 542.235 516.414 527L516.419 527ZM544.002 554.585L544.002 554.585C543.988 554.585 543.973 554.585 543.959 554.585C543.973 554.585 543.988 554.585 544.002 554.585Z" fill="#6038D0"/>
<path fill-rule="evenodd" clip-rule="evenodd" d="M598.998 499.589C598.941 499.588 598.883 499.588 598.826 499.588C583.858 499.588 571.691 511.813 571.417 527L571.406 527C571.132 511.814 558.966 499.589 543.999 499.588L543.999 499.587C559.024 499.587 571.226 487.267 571.409 472L571.414 472C571.597 487.268 583.8 499.587 598.826 499.587C598.883 499.587 598.941 499.587 598.998 499.587L598.998 499.589Z" fill="#6038D0"/>
<path fill-rule="evenodd" clip-rule="evenodd" d="M654 554.585L654 554.585C653.994 554.585 653.989 554.585 653.983 554.585C653.989 554.585 653.994 554.585 654 554.585ZM626.418 527C626.602 542.215 638.721 554.501 653.676 554.585C638.777 554.668 626.692 566.863 626.421 581.999L626.41 581.999C626.138 566.843 614.022 554.636 599.096 554.585C614.077 554.533 626.229 542.235 626.413 527L626.418 527Z" fill="#6038D0"/>
<path fill-rule="evenodd" clip-rule="evenodd" d="M598.904 554.585L598.904 554.585C598.899 554.585 598.893 554.585 598.888 554.585C598.893 554.585 598.899 554.585 598.904 554.585ZM571.322 527C571.506 542.215 583.626 554.501 598.581 554.585C583.682 554.668 571.597 566.863 571.325 581.999L571.315 581.999C571.042 566.843 558.926 554.636 544 554.585C558.982 554.533 571.133 542.235 571.317 527L571.322 527Z" fill="#6038D0"/>
<path fill-rule="evenodd" clip-rule="evenodd" d="M709 554.585L709 554.585C708.998 554.585 708.996 554.585 708.994 554.585C708.996 554.585 708.998 554.585 709 554.585ZM681.414 527C681.598 542.21 693.71 554.494 708.658 554.585C693.766 554.676 681.689 566.868 681.417 581.999L681.407 581.999C681.134 566.843 669.018 554.636 654.092 554.585C669.074 554.533 681.225 542.235 681.409 527L681.414 527Z" fill="#6038D0"/>
<path fill-rule="evenodd" clip-rule="evenodd" d="M1086.42 377.295C1086.39 377.294 1086.37 377.294 1086.34 377.294C1078.86 377.294 1072.78 383.406 1072.64 391L1072.63 391C1072.5 383.413 1066.43 377.304 1058.95 377.294C1066.46 377.284 1072.54 371.128 1072.64 363.5L1072.64 363.5C1072.73 371.134 1078.83 377.294 1086.34 377.294C1086.37 377.294 1086.39 377.294 1086.42 377.294L1086.42 377.295Z" fill="#E8E0FF"/>
<path fill-rule="evenodd" clip-rule="evenodd" d="M1072.64 336C1072.73 343.607 1078.78 349.75 1086.26 349.793C1078.81 349.836 1072.77 355.933 1072.64 363.5L1072.63 363.5C1072.5 355.927 1066.45 349.826 1059 349.793C1066.48 349.76 1072.54 343.613 1072.64 336L1072.64 336ZM1086.42 349.793C1086.42 349.793 1086.42 349.793 1086.42 349.793C1086.42 349.793 1086.42 349.793 1086.42 349.793L1086.42 349.793Z" fill="#E8E0FF"/>
<path fill-rule="evenodd" clip-rule="evenodd" d="M1072.69 308.5C1072.78 316.1 1078.82 322.238 1086.29 322.292C1078.85 322.346 1072.82 328.439 1072.69 336L1072.68 336C1072.55 328.426 1066.5 322.325 1059.05 322.292C1066.53 322.259 1072.59 316.113 1072.68 308.5L1072.69 308.5Z" fill="#E8E0FF"/>
<path fill-rule="evenodd" clip-rule="evenodd" d="M1058.98 294.794C1058.98 294.794 1058.98 294.794 1058.98 294.794C1066.49 294.794 1072.59 288.634 1072.68 281L1072.68 281C1072.77 288.634 1078.87 294.794 1086.38 294.794C1086.41 294.794 1086.44 294.794 1086.47 294.793L1086.47 294.795C1086.44 294.794 1086.41 294.794 1086.38 294.794C1078.9 294.794 1072.82 300.907 1072.68 308.5L1072.68 308.5C1072.54 300.907 1066.46 294.794 1058.98 294.794C1058.98 294.794 1058.98 294.794 1058.98 294.794L1058.98 294.794Z" fill="#E8E0FF"/>
<path fill-rule="evenodd" clip-rule="evenodd" d="M1017.7 391C1017.57 383.413 1011.5 377.304 1004.02 377.294C1011.53 377.284 1017.61 371.128 1017.71 363.5L1017.71 363.5C1017.8 371.134 1023.9 377.294 1031.41 377.294C1031.44 377.294 1031.46 377.294 1031.49 377.294L1031.49 377.295C1031.46 377.294 1031.44 377.294 1031.41 377.294C1023.93 377.294 1017.85 383.406 1017.71 391L1017.7 391Z" fill="#E8E0FF"/>
<path fill-rule="evenodd" clip-rule="evenodd" d="M1031.44 295.058C1031.44 295.058 1031.44 295.058 1031.44 295.058C1038.95 295.058 1045.05 288.898 1045.14 281.264L1045.15 281.264C1045.24 288.898 1051.34 295.057 1058.85 295.057C1058.88 295.057 1058.9 295.057 1058.93 295.057L1058.93 295.058C1058.9 295.058 1058.88 295.058 1058.85 295.058C1051.37 295.058 1045.28 301.17 1045.15 308.763L1045.14 308.763C1045.01 301.17 1038.93 295.058 1031.44 295.058C1031.44 295.058 1031.44 295.058 1031.44 295.058L1031.44 295.058Z" fill="#E8E0FF"/>
<path fill-rule="evenodd" clip-rule="evenodd" d="M990.169 391C990.031 383.413 983.961 377.304 976.489 377.294C983.99 377.284 990.079 371.128 990.17 363.5L990.172 363.5C990.263 371.134 996.362 377.294 1003.87 377.294C1003.9 377.294 1003.93 377.294 1003.96 377.294L1003.96 377.295C1003.93 377.294 1003.9 377.294 1003.87 377.294C996.391 377.294 990.31 383.406 990.173 391L990.169 391Z" fill="#E8E0FF"/>
<path fill-rule="evenodd" clip-rule="evenodd" d="M962.68 391C962.543 383.413 956.472 377.304 949 377.294C956.501 377.284 962.59 371.128 962.681 363.5L962.683 363.5C962.775 371.134 968.874 377.294 976.383 377.294C976.412 377.294 976.441 377.294 976.469 377.294L976.469 377.295C976.441 377.294 976.412 377.294 976.383 377.294C968.902 377.294 962.822 383.406 962.684 391L962.68 391Z" fill="#E8E0FF"/>
<path fill-rule="evenodd" clip-rule="evenodd" d="M990.17 336C990.261 343.607 996.317 349.75 1003.79 349.793C996.346 349.836 990.307 355.933 990.171 363.5L990.167 363.5C990.03 355.927 983.982 349.826 976.529 349.793C984.01 349.76 990.076 343.613 990.168 336L990.17 336ZM1003.96 349.793C1003.95 349.793 1003.95 349.793 1003.95 349.793C1003.95 349.793 1003.95 349.793 1003.96 349.793L1003.96 349.793Z" fill="#E8E0FF"/>
<path fill-rule="evenodd" clip-rule="evenodd" d="M1045.19 336L1045.2 336C1045.29 343.617 1051.36 349.765 1058.84 349.793C1051.39 349.821 1045.33 355.923 1045.2 363.5L1045.19 363.5C1045.06 355.924 1039 349.822 1031.55 349.793C1039.03 349.764 1045.1 343.616 1045.19 336ZM1058.98 349.793C1058.97 349.793 1058.96 349.793 1058.95 349.793C1058.96 349.793 1058.97 349.793 1058.98 349.793L1058.98 349.793Z" fill="#E8E0FF"/>
<path fill-rule="evenodd" clip-rule="evenodd" d="M962.731 308.5C962.823 316.1 968.868 322.238 976.333 322.292C968.896 322.346 962.868 328.439 962.732 336L962.728 336C962.592 328.426 956.544 322.325 949.09 322.292C956.571 322.259 962.637 316.113 962.729 308.5L962.731 308.5Z" fill="#E8E0FF"/>
<path fill-rule="evenodd" clip-rule="evenodd" d="M949.026 294.794C956.536 294.794 962.635 288.634 962.726 281L962.728 281C962.82 288.634 968.919 294.794 976.428 294.794C976.457 294.794 976.486 294.794 976.514 294.793L976.514 294.795C976.486 294.794 976.457 294.794 976.428 294.794C968.947 294.794 962.867 300.907 962.729 308.5L962.725 308.5C962.587 300.907 956.507 294.794 949.026 294.794L949.026 294.794Z" fill="#E8E0FF"/>
<path fill-rule="evenodd" clip-rule="evenodd" d="M990.213 308.5C990.076 300.907 983.995 294.794 976.515 294.794C976.515 294.794 976.514 294.794 976.514 294.794L976.514 294.794C976.514 294.794 976.515 294.794 976.515 294.794C984.025 294.794 990.123 288.634 990.215 281L990.216 281C990.308 288.634 996.407 294.794 1003.92 294.794C1003.95 294.794 1003.97 294.794 1004 294.793L1004 294.795C1003.97 294.794 1003.95 294.794 1003.92 294.794C996.436 294.794 990.355 300.907 990.218 308.5L990.213 308.5Z" fill="#E8E0FF"/>
<path fill-rule="evenodd" clip-rule="evenodd" d="M1017.71 308.5C1017.8 316.094 1023.83 322.23 1031.29 322.292C1023.86 322.355 1017.84 328.445 1017.71 336L1017.7 336C1017.57 328.426 1011.52 322.325 1004.07 322.292C1011.55 322.259 1017.61 316.113 1017.71 308.5L1017.71 308.5Z" fill="#E8E0FF"/>
<path fill-rule="evenodd" clip-rule="evenodd" d="M990.17 308.5C990.261 316.094 996.298 322.23 1003.75 322.292C996.326 322.355 990.306 328.445 990.171 336L990.167 336C990.031 328.426 983.982 322.325 976.529 322.292C984.01 322.259 990.076 316.113 990.168 308.5L990.17 308.5Z" fill="#E8E0FF"/>
<path fill-rule="evenodd" clip-rule="evenodd" d="M1045.19 336L1045.19 336C1045.33 328.448 1051.34 322.36 1058.77 322.292C1051.31 322.224 1045.28 316.091 1045.19 308.5L1045.19 308.5C1045.1 316.113 1039.03 322.259 1031.55 322.292C1039 322.325 1045.05 328.426 1045.19 336Z" fill="#E8E0FF"/>
<path fill-rule="evenodd" clip-rule="evenodd" d="M688.023 313.294C688.023 313.294 688.024 313.294 688.024 313.294C695.534 313.294 701.632 307.134 701.724 299.5L701.726 299.5C701.817 307.134 707.916 313.293 715.426 313.293C715.454 313.293 715.483 313.293 715.511 313.293L715.511 313.294C715.483 313.294 715.454 313.294 715.426 313.294C707.945 313.294 701.864 319.406 701.727 326.999L701.722 326.999C701.585 319.406 695.505 313.294 688.024 313.294C688.024 313.294 688.023 313.294 688.023 313.294L688.023 313.294Z" fill="white"/>
<path fill-rule="evenodd" clip-rule="evenodd" d="M633 313.294C633 313.294 633 313.294 633 313.294C640.51 313.294 646.609 307.134 646.7 299.5L646.702 299.5C646.793 307.134 652.892 313.293 660.402 313.293C660.431 313.293 660.459 313.293 660.488 313.293L660.488 313.294C660.459 313.294 660.43 313.294 660.402 313.294C652.921 313.294 646.84 319.406 646.703 326.999L646.699 326.999C646.561 319.406 640.481 313.294 633 313.294L633 313.294Z" fill="white"/>
<path fill-rule="evenodd" clip-rule="evenodd" d="M701.726 272C701.817 279.607 707.873 285.75 715.347 285.793C707.902 285.836 701.863 291.933 701.727 299.5L701.722 299.5C701.586 291.924 695.534 285.822 688.077 285.793C695.562 285.764 701.632 279.616 701.724 272L701.726 272ZM715.511 285.793C715.509 285.793 715.507 285.793 715.505 285.793C715.507 285.793 715.509 285.793 715.511 285.793L715.511 285.793Z" fill="white"/>
<path fill-rule="evenodd" clip-rule="evenodd" d="M674.19 272C674.282 279.607 680.338 285.75 687.811 285.793C680.366 285.836 674.328 291.933 674.191 299.5L674.187 299.5C674.051 291.924 667.999 285.822 660.542 285.793C668.027 285.764 674.097 279.616 674.188 272L674.19 272ZM687.976 285.793C687.974 285.793 687.972 285.793 687.969 285.793C687.972 285.793 687.974 285.793 687.976 285.793L687.976 285.793Z" fill="white"/>
<path fill-rule="evenodd" clip-rule="evenodd" d="M646.702 272C646.793 279.607 652.849 285.75 660.323 285.793C652.878 285.836 646.839 291.933 646.703 299.5L646.699 299.5C646.562 291.924 640.51 285.822 633.053 285.793C640.539 285.764 646.608 279.616 646.7 272L646.702 272ZM660.488 285.793C660.486 285.793 660.483 285.793 660.481 285.793C660.483 285.793 660.486 285.793 660.488 285.793L660.488 285.793Z" fill="white"/>
<mask id="mask4" mask-type="alpha" maskUnits="userSpaceOnUse" x="-241" y="-23" width="441" height="221">
<path fill-rule="evenodd" clip-rule="evenodd" d="M116.419 142.001C116.602 157.269 128.804 169.589 143.831 169.589C143.888 169.589 143.945 169.589 144.002 169.588L144.002 169.59C143.945 169.589 143.888 169.589 143.83 169.589C128.862 169.589 116.696 181.814 116.421 197.001L116.411 197.001C116.137 181.846 104.021 169.641 89.0965 169.589C104.079 169.537 116.231 157.237 116.413 142.001L116.419 142.001Z" fill="#6038D0"/>
<path fill-rule="evenodd" clip-rule="evenodd" d="M171.323 142.001C171.506 157.269 183.709 169.589 198.735 169.589C198.792 169.589 198.849 169.589 198.906 169.588L198.906 169.59C198.849 169.589 198.792 169.589 198.735 169.589C183.766 169.589 171.6 181.814 171.325 197.001L171.315 197.001C171.041 181.846 158.925 169.641 144.001 169.589C158.984 169.537 171.135 157.237 171.318 142.001L171.323 142.001Z" fill="#6038D0"/>
<path fill-rule="evenodd" clip-rule="evenodd" d="M171.323 -22.4727C171.506 -7.20439 183.709 5.11531 198.735 5.11531C198.792 5.11531 198.849 5.11513 198.906 5.11478L198.906 5.11614C198.849 5.11579 198.792 5.11561 198.735 5.11561C183.766 5.11561 171.6 17.3404 171.325 32.5269L171.315 32.5269C171.041 17.3726 158.925 5.1675 144.001 5.11577C158.984 5.06385 171.135 -7.23637 171.318 -22.4727L171.323 -22.4727Z" fill="#6038D0"/>
<path fill-rule="evenodd" clip-rule="evenodd" d="M61.323 142.001C61.506 157.269 73.7087 169.589 88.735 169.589C88.7921 169.589 88.8492 169.589 88.9062 169.588L88.9062 169.59C88.8491 169.589 88.7918 169.589 88.7346 169.589C73.7663 169.589 61.5999 181.814 61.3252 197L61.3149 197C61.0408 181.846 48.9254 169.641 34.0008 169.589C48.9836 169.537 61.1352 157.237 61.3176 142.001L61.323 142.001Z" fill="#6038D0"/>
<path fill-rule="evenodd" clip-rule="evenodd" d="M6.32299 142.001C6.50605 157.269 18.7087 169.589 33.735 169.589C33.7921 169.589 33.8492 169.589 33.9062 169.588L33.9062 169.59C33.8491 169.589 33.7918 169.589 33.7346 169.589C18.7663 169.589 6.59988 181.814 6.32521 197.001L6.3149 197.001C6.04082 181.846 -6.0746 169.641 -20.9992 169.589C-6.01643 169.537 6.13521 157.237 6.31756 142.001L6.32299 142.001Z" fill="#6038D0"/>
<path fill-rule="evenodd" clip-rule="evenodd" d="M116.419 87.0012C116.602 102.223 128.73 114.514 143.694 114.588C128.787 114.662 116.694 126.86 116.421 142.001L116.411 142.001C116.137 126.846 104.021 114.64 89.0959 114.588C104.078 114.536 116.23 102.237 116.413 87.0012L116.419 87.0012ZM144.002 114.588L144.002 114.588C143.99 114.588 143.979 114.588 143.967 114.588C143.979 114.588 143.99 114.588 144.002 114.588Z" fill="#6038D0"/>
<path fill-rule="evenodd" clip-rule="evenodd" d="M61.3225 87.0012C61.5053 102.223 73.6343 114.514 88.5974 114.588C73.6913 114.662 61.5977 126.86 61.3247 142.001L61.3144 142.001C61.0412 126.846 48.9251 114.64 33.9997 114.588C48.9823 114.536 61.1339 102.237 61.3171 87.0012L61.3225 87.0012ZM88.9058 114.588L88.9058 114.588C88.8942 114.588 88.8827 114.588 88.8711 114.588C88.8827 114.588 88.8942 114.588 88.9058 114.588Z" fill="#6038D0"/>
<path fill-rule="evenodd" clip-rule="evenodd" d="M6.32299 87.0012C6.5058 102.223 18.6348 114.514 33.5979 114.588C18.6918 114.662 6.59821 126.86 6.32519 142.001L6.31493 142.001C6.04164 126.846 -6.07438 114.64 -20.9998 114.588C-6.01724 114.536 6.13438 102.237 6.31754 87.0012L6.32299 87.0012ZM33.9062 114.588L33.9062 114.588C33.8947 114.588 33.8832 114.588 33.8716 114.588C33.8832 114.588 33.8947 114.588 33.9062 114.588Z" fill="#6038D0"/>
<path fill-rule="evenodd" clip-rule="evenodd" d="M199.001 114.588L199.001 114.588C198.978 114.588 198.954 114.588 198.931 114.588C198.954 114.588 198.978 114.588 199.001 114.588ZM171.417 87.0015C171.6 102.235 183.748 114.532 198.727 114.588C183.805 114.644 171.693 126.848 171.42 142.001L171.409 142.001C171.136 126.846 159.02 114.639 144.095 114.588C159.077 114.536 171.229 102.237 171.412 87.0015L171.417 87.0015Z" fill="#6038D0"/>
<path fill-rule="evenodd" clip-rule="evenodd" d="M6.41893 32C6.60277 47.2237 18.7362 59.5154 33.7029 59.5852C18.7919 59.6543 6.69304 71.8546 6.4209 86.9995L6.4107 86.9995C6.13836 71.8435 -5.97804 59.6365 -20.904 59.585C-5.9221 59.5334 6.22915 47.2349 6.41327 32L6.41893 32ZM34.0015 59.5854L34.0015 59.5849C33.9871 59.585 33.9727 59.5851 33.9583 59.5852C33.9727 59.5852 33.9871 59.5853 34.0015 59.5854Z" fill="#6038D0"/>
<path fill-rule="evenodd" clip-rule="evenodd" d="M6.41615 -22.9998C6.59957 -7.7318 18.8021 4.58753 33.8282 4.58753C33.8853 4.58753 33.9424 4.58735 33.9995 4.58699L33.9995 4.5892C33.9424 4.58885 33.8852 4.58867 33.828 4.58867C18.8598 4.58867 6.69341 16.8133 6.41867 31.9998L6.40835 31.9998C6.13361 16.8137 -6.03224 4.5892 -21 4.58867L-21 4.58754C-5.9744 4.587 6.22759 -7.73213 6.411 -22.9998L6.41615 -22.9998Z" fill="#6038D0"/>
<path fill-rule="evenodd" clip-rule="evenodd" d="M88.9985 4.58907C88.9413 4.58871 88.884 4.58853 88.8266 4.58853C73.8583 4.58853 61.6919 16.8133 61.4173 31.9998L61.4069 31.9998C61.1323 16.8138 48.9666 4.58931 33.999 4.58853L33.999 4.58754C49.0244 4.58676 61.2262 -7.73228 61.4096 -22.9998L61.4143 -22.9998C61.5977 -7.7318 73.8003 4.58753 88.8263 4.58753C88.8838 4.58753 88.9412 4.58735 88.9985 4.58699L88.9985 4.58907Z" fill="#6038D0"/>
<path fill-rule="evenodd" clip-rule="evenodd" d="M144 59.5853L144 59.5851C143.994 59.5851 143.988 59.5851 143.983 59.5852C143.988 59.5852 143.994 59.5852 144 59.5853ZM116.417 32C116.601 47.2151 128.721 59.5016 143.676 59.5852C128.777 59.6684 116.692 71.8633 116.42 86.9995L116.41 86.9995C116.138 71.8434 104.021 59.6363 89.0951 59.5849C104.077 59.5333 116.228 47.2348 116.412 32L116.417 32Z" fill="#6038D0"/>
<path fill-rule="evenodd" clip-rule="evenodd" d="M88.9043 59.5853L88.9043 59.5851C88.8988 59.5851 88.8933 59.5851 88.8878 59.5852C88.8933 59.5852 88.8988 59.5852 88.9043 59.5853ZM61.3222 32C61.5059 47.2151 73.6257 59.5016 88.5807 59.5852C73.6817 59.6684 61.5967 71.8633 61.3248 86.9995L61.3146 86.9995C61.0424 71.8434 48.9259 59.6363 33.9999 59.5849C48.9818 59.5333 61.133 47.2348 61.3172 32L61.3222 32Z" fill="#6038D0"/>
<path fill-rule="evenodd" clip-rule="evenodd" d="M198.999 59.5853L198.999 59.5852C198.997 59.5852 198.995 59.5852 198.993 59.5853C198.995 59.5853 198.997 59.5853 198.999 59.5853ZM171.413 32C171.597 47.2103 183.709 59.4938 198.657 59.5853C183.765 59.6764 171.688 71.8683 171.416 86.9995L171.406 86.9995C171.133 71.8434 159.017 59.6363 144.091 59.5849C159.073 59.5333 171.224 47.2348 171.408 32L171.413 32Z" fill="#6038D0"/>
<path fill-rule="evenodd" clip-rule="evenodd" d="M143.999 4.58879C143.942 4.58844 143.886 4.58827 143.829 4.58827C128.861 4.58827 116.694 16.813 116.42 31.9995L116.409 31.9995C116.135 16.813 103.968 4.58827 88.9999 4.58827C88.9998 4.58827 88.9996 4.58827 88.9995 4.58827L88.9995 4.58727C88.9996 4.58727 88.9998 4.58727 88.9999 4.58727C104.026 4.58727 116.229 -7.73205 116.412 -23L116.417 -23C116.6 -7.73205 128.803 4.58727 143.829 4.58727C143.886 4.58727 143.942 4.5871 143.999 4.58674L143.999 4.58879Z" fill="#6038D0"/>
</mask>
<g mask="url(#mask4)">
<path d="M-247.5 -109L199 -23L151.5 159.5L-55.5 207.5L-247.5 -109Z" fill="#6038D0"/>
</g>
</g>
<defs>
<clipPath id="clip0">
<path d="M0 7.99999C0 3.58171 3.58172 0 8 0H1092C1096.42 0 1100 3.58172 1100 8V592C1100 596.418 1096.42 600 1092 600H7.99999C3.58171 600 0 596.418 0 592V7.99999Z" fill="white"/>
</clipPath>
</defs>
</svg>
