<svg width="300" height="300" viewBox="0 0 300 300" fill="none" xmlns="http://www.w3.org/2000/svg">
  <path fill-rule="evenodd" clip-rule="evenodd"
        d="M300 0H0V300H300V0ZM97.8076 98.8197L240.007 48V159.475L202.2 172.987V201.181L60 252V140.525L97.8076 127.013V98.8197Z"
        fill="#201F1F"/>
  <path
    d="M275.347 266.373L271 262L266.653 266.373L267.72 267.467L270.227 264.96V270.533H271.773V264.96L274.28 267.467L275.347 266.373Z"
    fill="white"/>
  <path
    d="M266.653 281.627L271 286L275.347 281.627L274.28 280.533L271.773 283.04V277.467H270.227V283.04L267.72 280.533L266.653 281.627Z"
    fill="white"/>
  <path
    d="M263.373 269.653L259 274L263.373 278.347L264.467 277.28L261.96 274.773H267.533V273.227H261.96L264.467 270.72L263.373 269.653Z"
    fill="white"/>
  <path
    d="M278.627 278.348L283 274.001L278.627 269.654L277.533 270.721L280.04 273.228H274.467V274.774H280.04L277.533 277.281L278.627 278.348Z"
    fill="white"/>
</svg>
