<svg width="24" height="24" viewBox="0 0 24 24" fill="none" xmlns="http://www.w3.org/2000/svg">
  <path
    d="M18.7818 6.26C17.4797 5.66229 16.1045 5.23865 14.6918 5C14.4985 5.3432 14.3249 5.6971 14.1718 6.06C12.6698 5.84002 11.1438 5.84002 9.64178 6.06C9.50178 5.73 9.29178 5.31 9.12178 5C7.70153 5.23404 6.31917 5.65783 5.01178 6.26C2.70839 9.52517 1.6706 13.5164 2.09178 17.49C3.60515 18.6024 5.29561 19.451 7.09178 20C7.49955 19.4566 7.85766 18.8776 8.16178 18.27C7.57777 18.0529 7.01532 17.7817 6.48178 17.46L6.89178 17.14C8.45505 17.8789 10.1627 18.2622 11.8918 18.2622C13.6209 18.2622 15.3285 17.8789 16.8918 17.14C17.0318 17.25 17.1618 17.36 17.3118 17.46C16.7703 17.7799 16.2014 18.051 15.6118 18.27C15.9257 18.8785 16.2939 19.4575 16.7118 20C18.5079 19.451 20.1984 18.6024 21.7118 17.49C22.1291 13.5152 21.0879 9.52421 18.7818 6.26ZM8.62178 15.26C8.37344 15.246 8.13031 15.1831 7.90633 15.0749C7.68236 14.9667 7.48194 14.8153 7.31657 14.6295C7.15121 14.4437 7.02414 14.2271 6.94267 13.9921C6.86119 13.7571 6.82691 13.5083 6.84178 13.26C6.82555 13.0114 6.85889 12.7621 6.93986 12.5265C7.02083 12.2909 7.14782 12.0738 7.31343 11.8877C7.47905 11.7016 7.68 11.5503 7.90461 11.4425C8.12921 11.3348 8.37299 11.2727 8.62178 11.26C8.87102 11.2714 9.11546 11.3325 9.34071 11.4398C9.56596 11.5472 9.76745 11.6984 9.93333 11.8848C10.0992 12.0712 10.2261 12.2889 10.3066 12.5251C10.387 12.7612 10.4194 13.0111 10.4018 13.26C10.4209 13.7547 10.2452 14.2372 9.91233 14.6038C9.57947 14.9703 9.11607 15.1916 8.62178 15.22V15.26ZM15.1918 15.26C14.6912 15.2291 14.2231 15.0015 13.8897 14.6268C13.5562 14.2521 13.3844 13.7608 13.4118 13.26C13.3969 13.0117 13.4312 12.7629 13.5127 12.5279C13.5941 12.2929 13.7212 12.0763 13.8866 11.8905C14.0519 11.7047 14.2524 11.5533 14.4763 11.4451C14.7003 11.3369 14.9434 11.274 15.1918 11.26C15.441 11.2714 15.6855 11.3325 15.9107 11.4398C16.136 11.5472 16.3375 11.6984 16.5033 11.8848C16.6692 12.0712 16.7961 12.2889 16.8766 12.5251C16.957 12.7612 16.9894 13.0111 16.9718 13.26C16.9936 13.7554 16.8187 14.2394 16.4853 14.6065C16.1519 14.9736 15.687 15.1941 15.1918 15.22V15.26Z"
    fill="#6038D0"/>
</svg>
