<svg width="402" height="219" viewBox="0 0 402 219" fill="none" xmlns="http://www.w3.org/2000/svg">
<g clip-path="url(#clip0_9908_109322)">
<rect width="402" height="219" rx="2.92364" fill="#201F1F"/>
<g opacity="0.1">
<path fill-rule="evenodd" clip-rule="evenodd" d="M196.116 132.478C196.15 135.268 198.379 137.519 201.123 137.519C201.134 137.519 201.144 137.519 201.155 137.519L201.155 137.519C201.144 137.519 201.134 137.519 201.124 137.519C198.39 137.519 196.168 139.753 196.117 142.528L196.116 142.528C196.066 139.762 193.858 137.534 191.137 137.519C193.869 137.504 196.083 135.258 196.116 132.478L196.116 132.478Z" fill="#E8E0FF"/>
<path fill-rule="evenodd" clip-rule="evenodd" d="M191.109 127.468C191.109 127.468 191.109 127.468 191.109 127.468C193.854 127.468 196.083 125.217 196.116 122.427L196.117 122.427C196.15 125.217 198.379 127.468 201.124 127.468C201.134 127.468 201.144 127.468 201.155 127.468L201.155 127.468C201.144 127.468 201.134 127.468 201.124 127.468C198.39 127.468 196.167 129.702 196.117 132.477L196.116 132.477C196.066 129.702 193.844 127.468 191.109 127.468C191.109 127.468 191.109 127.468 191.109 127.468L191.109 127.468Z" fill="#E8E0FF"/>
<path fill-rule="evenodd" clip-rule="evenodd" d="M196.135 112.377C196.168 115.153 198.375 117.395 201.101 117.418C198.385 117.44 196.184 119.666 196.135 122.427L196.134 122.427C196.084 119.652 193.861 117.418 191.127 117.418C191.127 117.418 191.127 117.418 191.127 117.418L191.127 117.418C191.127 117.418 191.127 117.418 191.127 117.418C193.872 117.418 196.1 115.167 196.134 112.377L196.135 112.377Z" fill="#E8E0FF"/>
<path fill-rule="evenodd" clip-rule="evenodd" d="M191.125 107.369C191.125 107.369 191.126 107.369 191.126 107.369C193.87 107.369 196.099 105.117 196.132 102.328L196.133 102.328C196.167 105.117 198.395 107.369 201.14 107.369C201.15 107.369 201.161 107.369 201.171 107.368L201.171 107.369C201.161 107.369 201.15 107.369 201.14 107.369C198.406 107.369 196.184 109.603 196.133 112.377L196.132 112.377C196.082 109.603 193.86 107.369 191.126 107.369C191.126 107.369 191.125 107.369 191.125 107.369L191.125 107.369Z" fill="#E8E0FF"/>
<path fill-rule="evenodd" clip-rule="evenodd" d="M176.041 142.528C175.991 139.757 173.775 137.526 171.047 137.519C173.786 137.512 176.008 135.264 176.042 132.478L176.042 132.478C176.076 135.268 178.304 137.519 181.049 137.519C181.059 137.519 181.07 137.519 181.08 137.519L181.08 137.519C181.07 137.519 181.059 137.519 181.049 137.519C178.315 137.519 176.093 139.753 176.043 142.528L176.041 142.528Z" fill="#E8E0FF"/>
<path fill-rule="evenodd" clip-rule="evenodd" d="M186.069 112.473C186.019 109.703 183.804 107.471 181.076 107.464C183.814 107.458 186.036 105.209 186.07 102.424L186.071 102.424C186.104 105.213 188.333 107.464 191.077 107.464C191.088 107.464 191.098 107.464 191.108 107.464L191.108 107.464C191.098 107.464 191.088 107.464 191.077 107.464C188.343 107.464 186.121 109.698 186.071 112.473L186.069 112.473Z" fill="#E8E0FF"/>
<path fill-rule="evenodd" clip-rule="evenodd" d="M165.979 142.528C165.928 139.757 163.713 137.526 160.985 137.519C163.724 137.512 165.946 135.264 165.979 132.478L165.98 132.478C166.013 135.268 168.242 137.519 170.986 137.519C170.997 137.519 171.007 137.519 171.018 137.519L171.018 137.519C171.007 137.519 170.997 137.519 170.986 137.519C168.253 137.519 166.03 139.753 165.98 142.528L165.979 142.528Z" fill="#E8E0FF"/>
<path fill-rule="evenodd" clip-rule="evenodd" d="M155.932 142.528C155.882 139.762 153.675 137.534 150.954 137.519C153.686 137.504 155.9 135.258 155.933 132.478L155.933 132.478C155.967 135.268 158.196 137.519 160.94 137.519C160.951 137.519 160.961 137.519 160.972 137.519L160.972 137.519C160.961 137.519 160.951 137.519 160.94 137.519C158.206 137.519 155.984 139.753 155.934 142.528L155.932 142.528Z" fill="#E8E0FF"/>
<path fill-rule="evenodd" clip-rule="evenodd" d="M160.971 127.468C160.971 127.468 160.971 127.468 160.971 127.468C163.716 127.468 165.944 125.217 165.978 122.427L165.979 122.427C166.012 125.217 168.241 127.468 170.986 127.468C170.996 127.468 171.006 127.468 171.017 127.468L171.017 127.468C171.006 127.468 170.996 127.468 170.986 127.468C168.251 127.468 166.029 129.702 165.979 132.477L165.978 132.477C165.928 129.702 163.705 127.468 160.971 127.468C160.971 127.468 160.971 127.468 160.971 127.468L160.971 127.468Z" fill="#E8E0FF"/>
<path fill-rule="evenodd" clip-rule="evenodd" d="M181.08 127.468C181.08 127.468 181.081 127.468 181.081 127.468C183.825 127.468 186.054 125.217 186.088 122.427L186.088 122.427C186.122 125.217 188.35 127.468 191.095 127.468C191.105 127.468 191.116 127.468 191.126 127.468L191.126 127.468C191.116 127.468 191.105 127.468 191.095 127.468C188.361 127.468 186.139 129.702 186.089 132.477L186.087 132.477C186.037 129.702 183.815 127.468 181.081 127.468C181.081 127.468 181.08 127.468 181.08 127.468L181.08 127.468Z" fill="#E8E0FF"/>
<path fill-rule="evenodd" clip-rule="evenodd" d="M155.951 112.377C155.985 115.153 158.191 117.395 160.917 117.418C158.201 117.44 156.001 119.666 155.952 122.427L155.95 122.427C155.9 119.652 153.678 117.418 150.944 117.418C150.944 117.418 150.943 117.418 150.943 117.418L150.943 117.418C150.943 117.418 150.944 117.418 150.944 117.418C153.688 117.418 155.917 115.167 155.95 112.377L155.951 112.377Z" fill="#E8E0FF"/>
<path fill-rule="evenodd" clip-rule="evenodd" d="M150.943 107.369C153.687 107.368 155.916 105.117 155.949 102.328L155.95 102.328C155.983 105.117 158.212 107.369 160.957 107.369C160.967 107.369 160.978 107.369 160.988 107.368L160.988 107.369C160.978 107.369 160.967 107.369 160.957 107.369C158.223 107.369 156.001 109.603 155.95 112.377L155.949 112.377C155.899 109.603 153.676 107.369 150.943 107.369L150.943 107.369Z" fill="#E8E0FF"/>
<path fill-rule="evenodd" clip-rule="evenodd" d="M160.988 107.369C160.988 107.369 160.988 107.369 160.988 107.369C163.733 107.369 165.962 105.117 165.995 102.328L165.996 102.328C166.029 105.117 168.258 107.369 171.003 107.369C171.013 107.369 171.023 107.369 171.034 107.368L171.034 107.369C171.023 107.369 171.013 107.369 171.003 107.369C168.269 107.369 166.047 109.603 165.996 112.377L165.995 112.377C165.944 109.603 163.722 107.369 160.988 107.369C160.988 107.369 160.988 107.369 160.988 107.369L160.988 107.369Z" fill="#E8E0FF"/>
<path fill-rule="evenodd" clip-rule="evenodd" d="M176.042 112.377C176.076 115.153 178.283 117.395 181.008 117.418C178.293 117.44 176.092 119.666 176.043 122.427L176.041 122.427C175.992 119.652 173.769 117.418 171.035 117.418C171.035 117.418 171.035 117.418 171.035 117.418L171.035 117.418C171.035 117.418 171.035 117.418 171.035 117.418C173.779 117.418 176.008 115.167 176.042 112.377L176.042 112.377Z" fill="#E8E0FF"/>
<path fill-rule="evenodd" clip-rule="evenodd" d="M165.978 112.377C166.012 115.153 168.219 117.395 170.944 117.418C168.229 117.44 166.028 119.666 165.979 122.427L165.977 122.427C165.928 119.652 163.705 117.418 160.971 117.418C160.971 117.418 160.971 117.418 160.971 117.418L160.971 117.418C160.971 117.418 160.971 117.418 160.971 117.418C163.715 117.418 165.944 115.167 165.978 112.377L165.978 112.377Z" fill="#E8E0FF"/>
<path fill-rule="evenodd" clip-rule="evenodd" d="M186.087 112.377C186.12 115.152 188.325 117.393 191.049 117.418C188.335 117.442 186.136 119.667 186.087 122.427L186.086 122.427C186.036 119.652 183.814 117.418 181.08 117.418L181.08 117.418C183.824 117.417 186.052 115.167 186.086 112.377L186.087 112.377Z" fill="#E8E0FF"/>
<mask id="mask0_9908_109322" style="mask-type:alpha" maskUnits="userSpaceOnUse" x="261" y="162" width="162" height="82">
<path fill-rule="evenodd" clip-rule="evenodd" d="M392.286 202.828C392.353 208.389 396.781 212.879 402.247 212.91C396.802 212.941 392.386 217.397 392.287 222.928L392.283 222.928C392.183 217.392 387.759 212.932 382.308 212.91C387.78 212.887 392.217 208.394 392.284 202.828L392.286 202.828ZM402.366 212.91L402.366 212.91C402.364 212.91 402.363 212.91 402.361 212.91C402.363 212.91 402.364 212.91 402.366 212.91Z" fill="#6038D0"/>
<path fill-rule="evenodd" clip-rule="evenodd" d="M382.231 212.91L382.231 212.91C382.229 212.91 382.227 212.91 382.225 212.91C382.227 212.91 382.229 212.91 382.231 212.91ZM372.151 202.828C372.217 208.389 376.646 212.879 382.111 212.91C376.667 212.941 372.251 217.397 372.151 222.928L372.148 222.928C372.048 217.392 367.624 212.932 362.172 212.91C367.644 212.887 372.082 208.394 372.149 202.828L372.151 202.828Z" fill="#6038D0"/>
<path fill-rule="evenodd" clip-rule="evenodd" d="M362.131 212.91L362.131 212.91C362.129 212.91 362.127 212.91 362.125 212.91C362.127 212.91 362.129 212.91 362.131 212.91ZM352.05 202.828C352.117 208.389 356.546 212.879 362.011 212.91C356.567 212.941 352.151 217.397 352.051 222.928L352.047 222.928C351.948 217.392 347.524 212.932 342.072 212.91C347.544 212.887 351.981 208.394 352.048 202.828L352.05 202.828Z" fill="#6038D0"/>
<path fill-rule="evenodd" clip-rule="evenodd" d="M331.951 162.82C332.018 168.4 336.477 172.902 341.969 172.902C341.99 172.902 342.01 172.902 342.031 172.902L342.031 172.903C342.01 172.902 341.99 172.902 341.969 172.902C336.498 172.902 332.052 177.37 331.952 182.92L331.948 182.92C331.848 177.381 327.419 172.921 321.965 172.902C327.441 172.884 331.882 168.389 331.949 162.82L331.951 162.82Z" fill="#6038D0"/>
<path fill-rule="evenodd" clip-rule="evenodd" d="M321.966 212.91L321.966 212.91C321.964 212.91 321.963 212.91 321.961 212.91C321.963 212.91 321.964 212.91 321.966 212.91ZM311.886 202.828C311.953 208.389 316.381 212.879 321.847 212.91C316.402 212.941 311.987 217.397 311.887 222.928L311.883 222.928C311.783 217.392 307.359 212.932 301.908 212.91C307.38 212.887 311.817 208.394 311.884 202.828L311.886 202.828Z" fill="#6038D0"/>
<path fill-rule="evenodd" clip-rule="evenodd" d="M291.751 202.828C291.817 208.389 296.246 212.879 301.711 212.91C296.267 212.941 291.851 217.397 291.752 222.928L291.748 222.928C291.648 217.392 287.224 212.932 281.772 212.91C287.245 212.887 291.682 208.394 291.749 202.828L291.751 202.828ZM301.831 212.91L301.831 212.91C301.829 212.91 301.827 212.91 301.826 212.91C301.827 212.91 301.829 212.91 301.831 212.91Z" fill="#6038D0"/>
<path fill-rule="evenodd" clip-rule="evenodd" d="M271.651 202.828C271.717 208.389 276.146 212.879 281.611 212.91C276.167 212.941 271.751 217.397 271.651 222.928L271.648 222.928C271.548 217.392 267.124 212.932 261.672 212.91C267.145 212.887 271.582 208.394 271.649 202.828L271.651 202.828ZM281.731 212.91L281.731 212.91C281.729 212.91 281.727 212.91 281.725 212.91C281.727 212.91 281.729 212.91 281.731 212.91Z" fill="#6038D0"/>
<path fill-rule="evenodd" clip-rule="evenodd" d="M331.985 202.828C332.052 208.393 336.487 212.885 341.958 212.91C336.508 212.934 332.086 217.393 331.986 222.928L331.982 222.928C331.882 217.392 327.458 212.932 322.007 212.91C327.479 212.887 331.916 208.394 331.983 202.828L331.985 202.828ZM342.066 212.91L342.066 212.91C342.06 212.91 342.054 212.91 342.048 212.91C342.054 212.91 342.06 212.91 342.066 212.91Z" fill="#6038D0"/>
<path fill-rule="evenodd" clip-rule="evenodd" d="M352.086 182.727C352.153 188.286 356.58 192.776 362.044 192.808C356.601 192.84 352.186 197.296 352.087 202.827L352.083 202.827C351.984 197.291 347.559 192.831 342.108 192.808C347.579 192.785 352.016 188.292 352.084 182.727L352.086 182.727ZM362.166 192.808L362.166 192.808C362.165 192.808 362.164 192.808 362.163 192.808C362.164 192.808 362.165 192.808 362.166 192.808Z" fill="#6038D0"/>
<path fill-rule="evenodd" clip-rule="evenodd" d="M352.085 162.627C352.152 168.207 356.611 172.709 362.102 172.709C362.123 172.709 362.144 172.709 362.165 172.709L362.165 172.709C362.144 172.709 362.123 172.709 362.102 172.709C356.632 172.709 352.186 177.177 352.085 182.727L352.082 182.727C351.981 177.177 347.535 172.709 342.065 172.709L342.065 172.709C347.556 172.709 352.016 168.207 352.083 162.627L352.085 162.627Z" fill="#6038D0"/>
<path fill-rule="evenodd" clip-rule="evenodd" d="M372.184 162.627C372.251 168.207 376.71 172.709 382.202 172.709C382.223 172.709 382.244 172.709 382.265 172.708L382.265 172.709C382.244 172.709 382.223 172.709 382.202 172.709C376.731 172.709 372.285 177.177 372.185 182.727L372.181 182.727C372.081 177.177 367.635 172.709 362.165 172.709L362.165 172.709C367.656 172.708 372.115 168.206 372.182 162.627L372.184 162.627Z" fill="#6038D0"/>
<path fill-rule="evenodd" clip-rule="evenodd" d="M271.686 182.727C271.753 188.286 276.18 192.776 281.644 192.808C276.201 192.84 271.786 197.296 271.687 202.827L271.683 202.827C271.584 197.291 267.159 192.831 261.708 192.808C267.18 192.785 271.616 188.292 271.684 182.727L271.686 182.727ZM281.766 192.808L281.766 192.808C281.765 192.808 281.764 192.808 281.763 192.808C281.764 192.808 281.765 192.808 281.766 192.808Z" fill="#6038D0"/>
<path fill-rule="evenodd" clip-rule="evenodd" d="M271.685 162.627C271.752 168.207 276.211 172.709 281.703 172.709C281.723 172.709 281.744 172.709 281.765 172.709L281.765 172.709C281.744 172.709 281.723 172.709 281.702 172.709C276.232 172.709 271.786 177.177 271.686 182.727L271.682 182.727C271.582 177.177 267.135 172.709 261.665 172.709L261.665 172.709C267.156 172.709 271.616 168.207 271.683 162.627L271.685 162.627Z" fill="#6038D0"/>
<path fill-rule="evenodd" clip-rule="evenodd" d="M291.784 162.627C291.851 168.207 296.31 172.709 301.802 172.709C301.823 172.709 301.844 172.709 301.865 172.708L301.865 172.709C301.844 172.709 301.823 172.709 301.802 172.709C296.331 172.709 291.885 177.177 291.785 182.727L291.781 182.727C291.681 177.177 287.235 172.709 281.765 172.709L281.765 172.709C287.256 172.708 291.715 168.206 291.782 162.627L291.784 162.627Z" fill="#6038D0"/>
<path fill-rule="evenodd" clip-rule="evenodd" d="M392.287 182.727C392.354 188.286 396.782 192.776 402.245 192.808C396.802 192.84 392.387 197.296 392.288 202.827L392.284 202.827C392.185 197.29 387.76 192.831 382.309 192.808C387.781 192.785 392.217 188.292 392.285 182.727L392.287 182.727ZM402.367 192.808L402.367 192.808C402.366 192.808 402.365 192.808 402.364 192.808C402.365 192.808 402.366 192.808 402.367 192.808Z" fill="#6038D0"/>
<path fill-rule="evenodd" clip-rule="evenodd" d="M372.152 182.727C372.219 188.286 376.647 192.776 382.111 192.808C376.667 192.84 372.252 197.296 372.153 202.827L372.149 202.827C372.05 197.29 367.626 192.831 362.174 192.808C367.646 192.785 372.083 188.292 372.15 182.727L372.152 182.727ZM382.232 192.808L382.232 192.808C382.231 192.808 382.23 192.808 382.229 192.808C382.23 192.808 382.231 192.808 382.232 192.808Z" fill="#6038D0"/>
<path fill-rule="evenodd" clip-rule="evenodd" d="M392.286 162.627C392.353 168.207 396.813 172.709 402.304 172.709C402.325 172.709 402.346 172.709 402.366 172.708L402.366 172.709C402.346 172.709 402.325 172.709 402.304 172.709C396.834 172.709 392.388 177.177 392.287 182.727L392.284 182.727C392.183 177.177 387.737 172.709 382.267 172.709C382.267 172.709 382.266 172.709 382.266 172.709L382.266 172.709C382.266 172.709 382.267 172.709 382.267 172.709C387.758 172.709 392.217 168.207 392.284 162.627L392.286 162.627Z" fill="#6038D0"/>
<path fill-rule="evenodd" clip-rule="evenodd" d="M311.885 182.727C311.953 188.286 316.38 192.776 321.844 192.808C316.4 192.84 311.986 197.296 311.886 202.827L311.883 202.827C311.783 197.29 307.359 192.831 301.907 192.808C307.379 192.785 311.816 188.292 311.884 182.727L311.885 182.727ZM321.965 192.808L321.965 192.808C321.964 192.808 321.963 192.808 321.963 192.808C321.963 192.808 321.964 192.808 321.965 192.808Z" fill="#6038D0"/>
<path fill-rule="evenodd" clip-rule="evenodd" d="M291.751 182.727C291.818 188.286 296.245 192.776 301.709 192.808C296.266 192.84 291.851 197.296 291.752 202.827L291.748 202.827C291.649 197.29 287.224 192.831 281.773 192.808C287.244 192.785 291.681 188.292 291.749 182.727L291.751 182.727ZM301.831 192.808L301.831 192.808C301.83 192.808 301.829 192.808 301.828 192.808C301.829 192.808 301.83 192.808 301.831 192.808Z" fill="#6038D0"/>
<path fill-rule="evenodd" clip-rule="evenodd" d="M342.065 192.808L342.065 192.808C342.064 192.808 342.062 192.808 342.061 192.808C342.062 192.808 342.064 192.808 342.065 192.808ZM331.984 182.727C332.051 188.287 336.478 192.776 341.942 192.808C336.499 192.84 332.084 197.296 331.985 202.827L331.981 202.827C331.882 197.29 327.457 192.831 322.005 192.808C327.477 192.785 331.914 188.292 331.982 182.727L331.984 182.727Z" fill="#6038D0"/>
<path fill-rule="evenodd" clip-rule="evenodd" d="M311.885 162.627C311.952 168.207 316.411 172.709 321.903 172.709C321.923 172.709 321.944 172.709 321.965 172.709L321.965 172.709C321.944 172.709 321.923 172.709 321.903 172.709C316.432 172.709 311.986 177.177 311.886 182.727L311.882 182.727C311.782 177.177 307.335 172.709 301.865 172.709C301.865 172.709 301.865 172.709 301.865 172.709L301.865 172.709C301.865 172.709 301.865 172.709 301.865 172.709C307.356 172.709 311.816 168.207 311.883 162.627L311.885 162.627Z" fill="#6038D0"/>
</mask>
<g mask="url(#mask0_9908_109322)">
<path d="M324.158 137.959L422.466 162.627L405.106 229.323L261.666 243.027L324.158 137.959Z" fill="#0C422A"/>
</g>
<path fill-rule="evenodd" clip-rule="evenodd" d="M226.7 81.8621C226.767 87.4419 231.226 91.9442 236.718 91.9442C236.739 91.9442 236.759 91.9441 236.78 91.944L236.78 91.9447C236.759 91.9446 236.739 91.9445 236.718 91.9445C231.248 91.9445 226.801 96.412 226.701 101.962L226.697 101.962C226.597 96.4121 222.15 91.9447 216.68 91.9445L216.68 91.9444C222.172 91.9442 226.631 87.4419 226.698 81.8621L226.7 81.8621Z" fill="#6038D0"/>
<path fill-rule="evenodd" clip-rule="evenodd" d="M186.5 81.8621C186.567 87.4419 191.026 91.9442 196.517 91.9442C196.538 91.9442 196.559 91.9441 196.58 91.944L196.58 91.9447C196.559 91.9446 196.538 91.9445 196.517 91.9445C191.047 91.9445 186.601 96.412 186.501 101.962L186.497 101.962C186.396 96.4121 181.95 91.9447 176.48 91.9445L176.48 91.9444C181.972 91.9442 186.431 87.4419 186.498 81.8621L186.5 81.8621Z" fill="#6038D0"/>
<path fill-rule="evenodd" clip-rule="evenodd" d="M166.4 81.8621C166.466 87.4419 170.926 91.9442 176.417 91.9442C176.438 91.9442 176.459 91.9441 176.48 91.944L176.48 91.9447C176.459 91.9446 176.438 91.9445 176.417 91.9445C170.947 91.9445 166.501 96.412 166.401 101.962L166.397 101.962C166.296 96.4121 161.85 91.9447 156.38 91.9445L156.38 91.9444C161.871 91.9442 166.331 87.4419 166.398 81.8621L166.4 81.8621Z" fill="#6038D0"/>
<path fill-rule="evenodd" clip-rule="evenodd" d="M206.635 61.7627C206.702 67.3204 211.126 71.8091 216.588 71.8445C211.147 71.8798 206.736 76.3343 206.636 81.8625L206.632 81.8625C206.532 76.3263 202.108 71.8669 196.657 71.8443C202.129 71.8217 206.566 67.3283 206.633 61.7627L206.635 61.7627Z" fill="#6038D0"/>
<path fill-rule="evenodd" clip-rule="evenodd" d="M186.5 61.7627C186.567 67.3204 190.991 71.8091 196.453 71.8444C191.012 71.8797 186.6 76.3342 186.501 81.8625L186.497 81.8625C186.397 76.3264 181.973 71.867 176.522 71.8443C181.994 71.8215 186.431 67.3282 186.498 61.7627L186.5 61.7627Z" fill="#6038D0"/>
<path fill-rule="evenodd" clip-rule="evenodd" d="M166.4 61.7627C166.466 67.3204 170.891 71.8091 176.353 71.8445C170.912 71.8798 166.5 76.3343 166.401 81.8625L166.397 81.8625C166.297 76.3263 161.873 71.8669 156.422 71.8443C161.894 71.8217 166.331 67.3283 166.398 61.7627L166.4 61.7627Z" fill="#6038D0"/>
<path fill-rule="evenodd" clip-rule="evenodd" d="M226.734 61.7627C226.8 67.3261 231.234 71.8181 236.703 71.8444C231.255 71.8704 226.834 76.3285 226.734 81.8625L226.731 81.8625C226.631 76.3263 222.207 71.8669 216.755 71.8443C222.228 71.8217 226.665 67.3283 226.732 61.7627L226.734 61.7627ZM236.814 71.8444L236.814 71.8443C236.809 71.8443 236.804 71.8443 236.8 71.8444C236.804 71.8444 236.809 71.8444 236.814 71.8444Z" fill="#6038D0"/>
<path fill-rule="evenodd" clip-rule="evenodd" d="M186.5 41.6621C186.567 47.2213 190.994 51.7107 196.458 51.7429C191.015 51.7751 186.6 56.2313 186.501 61.7619L186.497 61.7619C186.398 56.2253 181.973 51.7654 176.522 51.7428C181.993 51.7202 186.43 47.2273 186.498 41.6621L186.5 41.6621ZM196.58 51.7429L196.58 51.7429C196.579 51.7429 196.578 51.7429 196.577 51.7429C196.578 51.7429 196.579 51.7429 196.58 51.7429Z" fill="#6038D0"/>
<path fill-rule="evenodd" clip-rule="evenodd" d="M271.652 11.6951C271.719 17.2751 276.179 21.7775 281.67 21.7775C281.691 21.7775 281.712 21.7774 281.733 21.7773L281.733 21.7778C281.712 21.7776 281.691 21.7776 281.67 21.7776C276.2 21.7776 271.754 26.245 271.653 31.7949L271.65 31.7949C271.549 26.2563 267.121 21.7958 261.666 21.7776C267.142 21.7593 271.584 17.2638 271.65 11.6951L271.652 11.6951Z" fill="#E1FC31"/>
<path fill-rule="evenodd" clip-rule="evenodd" d="M231.452 11.6951C231.519 17.2751 235.979 21.7775 241.47 21.7775C241.491 21.7775 241.512 21.7774 241.533 21.7773L241.533 21.7778C241.512 21.7776 241.491 21.7776 241.47 21.7776C236 21.7776 231.554 26.245 231.453 31.7949L231.449 31.7949C231.349 26.2563 226.921 21.7958 221.466 21.7776C226.942 21.7593 231.384 17.2638 231.45 11.6951L231.452 11.6951Z" fill="#E1FC31"/>
<path fill-rule="evenodd" clip-rule="evenodd" d="M211.352 11.6951C211.419 17.2751 215.879 21.7775 221.37 21.7775C221.391 21.7775 221.412 21.7774 221.433 21.7773L221.433 21.7778C221.412 21.7776 221.391 21.7776 221.37 21.7776C215.9 21.7776 211.454 26.245 211.353 31.7949L211.349 31.7949C211.249 26.2563 206.821 21.7958 201.366 21.7776C206.842 21.7593 211.284 17.2638 211.35 11.6951L211.352 11.6951Z" fill="#E1FC31"/>
<path fill-rule="evenodd" clip-rule="evenodd" d="M251.588 -8.40503C251.654 -2.84595 256.081 1.64357 261.544 1.67689C256.102 1.71009 251.688 6.16531 251.589 11.6948L251.585 11.6948C251.485 6.15865 247.061 1.69938 241.609 1.6768C247.082 1.65413 251.519 -2.83938 251.586 -8.40503L251.588 -8.40503ZM261.668 1.6769L261.668 1.67689C261.668 1.67689 261.667 1.67689 261.667 1.67689C261.667 1.6769 261.668 1.6769 261.668 1.6769Z" fill="#E1FC31"/>
<path fill-rule="evenodd" clip-rule="evenodd" d="M231.452 -8.40503C231.519 -2.84595 235.946 1.64357 241.409 1.67689C235.967 1.71009 231.553 6.16531 231.453 11.6948L231.449 11.6948C231.349 6.15865 226.925 1.69938 221.474 1.6768C226.946 1.65413 231.383 -2.83938 231.45 -8.40503L231.452 -8.40503ZM241.533 1.6769L241.533 1.67689C241.532 1.67689 241.532 1.67689 241.531 1.67689C241.532 1.6769 241.532 1.6769 241.533 1.6769Z" fill="#E1FC31"/>
<path fill-rule="evenodd" clip-rule="evenodd" d="M211.352 -8.40503C211.419 -2.84595 215.845 1.64357 221.309 1.67689C215.866 1.71009 211.453 6.16531 211.353 11.6948L211.349 11.6948C211.249 6.15865 206.825 1.69938 201.374 1.6768C206.846 1.65413 211.283 -2.83938 211.35 -8.40503L211.352 -8.40503ZM221.433 1.6769L221.433 1.67689C221.432 1.67689 221.432 1.67689 221.431 1.67689C221.432 1.6769 221.432 1.6769 221.433 1.6769Z" fill="#E1FC31"/>
<path fill-rule="evenodd" clip-rule="evenodd" d="M271.686 -8.40503C271.753 -2.83935 276.19 1.65418 281.662 1.67685C276.211 1.69943 271.787 6.15868 271.687 11.6948L271.683 11.6948C271.584 6.15868 267.159 1.69943 261.708 1.67685C267.18 1.65418 271.618 -2.83935 271.684 -8.40503L271.686 -8.40503ZM281.767 1.67696L281.767 1.67674C281.76 1.67678 281.753 1.67682 281.746 1.67685C281.753 1.67688 281.76 1.67692 281.767 1.67696Z" fill="#E1FC31"/>
<path fill-rule="evenodd" clip-rule="evenodd" d="M70.2853 197.711C70.3522 203.291 74.8117 207.793 80.3031 207.793C80.324 207.793 80.3449 207.793 80.3657 207.793L80.3657 207.794C80.3449 207.793 80.324 207.793 80.3031 207.793C74.8329 207.793 70.3866 212.261 70.2863 217.811L70.2824 217.811C70.1823 212.272 65.7538 207.811 60.2988 207.793C65.775 207.775 70.2166 203.28 70.2833 197.711L70.2853 197.711Z" fill="#F6E3DD"/>
<path fill-rule="evenodd" clip-rule="evenodd" d="M30.0851 197.711C30.152 203.291 34.6115 207.793 40.1029 207.793C40.1238 207.793 40.1447 207.793 40.1655 207.793L40.1655 207.794C40.1447 207.793 40.1238 207.793 40.1029 207.793C34.6327 207.793 30.1864 212.261 30.0861 217.811L30.0822 217.811C29.9821 212.275 25.5582 207.816 20.1072 207.793C25.5795 207.771 30.0166 203.277 30.0832 197.711L30.0851 197.711Z" fill="#F6E3DD"/>
<path fill-rule="evenodd" clip-rule="evenodd" d="M9.985 197.711C10.0519 203.291 14.5114 207.793 20.0028 207.793C20.0237 207.793 20.0446 207.793 20.0654 207.793L20.0654 207.794C20.0446 207.793 20.0237 207.793 20.0028 207.793C14.5326 207.793 10.0863 212.261 9.98597 217.811L9.98212 217.811C9.88199 212.272 5.45349 207.811 -0.00154539 207.793C5.47466 207.775 9.91633 203.28 9.98302 197.711L9.985 197.711Z" fill="#F6E3DD"/>
<path fill-rule="evenodd" clip-rule="evenodd" d="M50.2204 177.612C50.2872 183.174 54.7187 187.665 60.1861 187.694C54.7396 187.722 50.3211 192.179 50.2213 197.712L50.2174 197.712C50.1176 192.175 45.6935 187.716 40.2421 187.693C45.7143 187.671 50.1514 183.177 50.2184 177.612L50.2204 177.612ZM60.3008 187.694L60.3008 187.694C60.2973 187.694 60.2938 187.694 60.2903 187.694C60.2938 187.694 60.2973 187.694 60.3008 187.694Z" fill="#F6E3DD"/>
<path fill-rule="evenodd" clip-rule="evenodd" d="M40.1655 187.694L40.1655 187.693C40.162 187.693 40.1585 187.694 40.1551 187.694C40.1585 187.694 40.162 187.694 40.1655 187.694ZM30.0851 177.612C30.1519 183.174 34.5834 187.665 40.0508 187.694C34.6043 187.722 30.1858 192.179 30.0861 197.712L30.0822 197.712C29.9825 192.176 25.5584 187.716 20.1072 187.693C25.5793 187.671 30.0163 183.177 30.0832 177.612L30.0851 177.612Z" fill="#F6E3DD"/>
<path fill-rule="evenodd" clip-rule="evenodd" d="M9.985 177.612C10.0518 183.174 14.4833 187.665 19.9507 187.694C14.5042 187.722 10.0857 192.179 9.98595 197.712L9.98206 197.712C9.88228 192.175 5.45814 187.716 0.00676492 187.693C5.47897 187.671 9.91607 183.177 9.98301 177.612L9.985 177.612ZM20.0654 187.694L20.0654 187.694C20.0619 187.694 20.0585 187.694 20.055 187.694C20.0585 187.694 20.0619 187.694 20.0654 187.694Z" fill="#F6E3DD"/>
<path fill-rule="evenodd" clip-rule="evenodd" d="M70.319 177.612C70.3859 183.174 74.818 187.666 80.286 187.693C74.8388 187.721 70.4196 192.179 70.3199 197.712L70.3162 197.712C70.2164 192.175 65.7923 187.716 60.3409 187.693C65.8131 187.671 70.2502 183.177 70.3171 177.612L70.319 177.612ZM80.3999 187.694L80.3999 187.693C80.3958 187.693 80.3918 187.693 80.3877 187.693C80.3918 187.694 80.3958 187.694 80.3999 187.694Z" fill="#F6E3DD"/>
<path fill-rule="evenodd" clip-rule="evenodd" d="M30.0851 157.511C30.1522 163.071 34.5796 167.56 40.0435 167.592C34.6002 167.625 30.1855 172.081 30.0861 177.611L30.0823 177.611C29.9828 172.075 25.5586 167.615 20.107 167.592C25.5791 167.57 30.0161 163.077 30.0833 157.511L30.0851 157.511ZM40.165 167.592L40.165 167.592C40.1642 167.592 40.1633 167.592 40.1624 167.592C40.1633 167.592 40.1642 167.592 40.165 167.592Z" fill="#F6E3DD"/>
<path fill-rule="evenodd" clip-rule="evenodd" d="M228.928 212.695C228.995 218.255 233.422 222.744 238.886 222.777C233.443 222.809 229.028 227.265 228.929 232.795L228.925 232.795C228.825 227.259 224.401 222.799 218.95 222.777C224.422 222.754 228.859 218.261 228.926 212.695L228.928 212.695ZM239.008 222.777L239.008 222.777C239.007 222.777 239.006 222.777 239.005 222.777C239.006 222.777 239.007 222.777 239.008 222.777Z" fill="#6038D0"/>
<path fill-rule="evenodd" clip-rule="evenodd" d="M208.793 212.695C208.859 218.255 213.287 222.744 218.751 222.777C213.308 222.809 208.893 227.265 208.794 232.795L208.79 232.795C208.69 227.259 204.266 222.799 198.814 222.777C204.287 222.754 208.724 218.261 208.791 212.695L208.793 212.695ZM218.873 222.777L218.873 222.777C218.872 222.777 218.871 222.777 218.87 222.777C218.871 222.777 218.872 222.777 218.873 222.777Z" fill="#6038D0"/>
<path fill-rule="evenodd" clip-rule="evenodd" d="M188.693 212.695C188.76 218.255 193.187 222.744 198.651 222.777C193.208 222.809 188.794 227.265 188.694 232.795L188.69 232.795C188.59 227.259 184.166 222.799 178.715 222.777C184.187 222.754 188.624 218.261 188.691 212.695L188.693 212.695ZM198.773 222.777L198.773 222.777C198.772 222.777 198.771 222.777 198.77 222.777C198.771 222.777 198.772 222.777 198.773 222.777Z" fill="#6038D0"/>
<path fill-rule="evenodd" clip-rule="evenodd" d="M188.728 192.594C188.795 198.154 193.223 202.643 198.687 202.675C193.243 202.708 188.828 207.164 188.729 212.694L188.725 212.694C188.626 207.158 184.202 202.698 178.75 202.675C184.222 202.653 188.659 198.16 188.726 192.594L188.728 192.594ZM198.808 202.675L198.808 202.675C198.807 202.675 198.806 202.675 198.805 202.675C198.806 202.675 198.807 202.675 198.808 202.675Z" fill="#6038D0"/>
<path fill-rule="evenodd" clip-rule="evenodd" d="M208.826 172.495C208.893 178.074 213.352 182.576 218.844 182.576C218.865 182.576 218.886 182.576 218.907 182.576L218.907 182.577C218.886 182.577 218.865 182.577 218.844 182.577C213.373 182.577 208.927 187.044 208.827 192.594L208.823 192.594C208.723 187.045 204.277 182.577 198.807 182.577L198.807 182.576C204.298 182.576 208.757 178.074 208.824 172.495L208.826 172.495Z" fill="#6038D0"/>
<path fill-rule="evenodd" clip-rule="evenodd" d="M228.927 192.594C228.995 198.154 233.422 202.643 238.886 202.675C233.442 202.708 229.028 207.164 228.928 212.694L228.925 212.694C228.825 207.158 224.401 202.698 218.949 202.675C224.421 202.653 228.858 198.16 228.926 192.594L228.927 192.594ZM239.007 202.675L239.007 202.675C239.006 202.675 239.006 202.675 239.005 202.675C239.006 202.675 239.006 202.675 239.007 202.675Z" fill="#6038D0"/>
<path fill-rule="evenodd" clip-rule="evenodd" d="M208.793 192.594C208.86 198.154 213.287 202.643 218.751 202.676C213.308 202.708 208.893 207.164 208.794 212.694L208.79 212.694C208.69 207.158 204.266 202.698 198.815 202.676C204.287 202.653 208.724 198.16 208.791 192.594L208.793 192.594ZM218.873 202.676L218.873 202.676C218.872 202.676 218.871 202.676 218.87 202.676C218.871 202.676 218.872 202.676 218.873 202.676Z" fill="#6038D0"/>
<path fill-rule="evenodd" clip-rule="evenodd" d="M259.107 202.676L259.107 202.676C259.106 202.676 259.105 202.676 259.103 202.676C259.105 202.676 259.106 202.676 259.107 202.676ZM249.026 192.594C249.093 198.154 253.521 202.643 258.984 202.676C253.541 202.708 249.126 207.164 249.027 212.694L249.023 212.694C248.924 207.158 244.5 202.698 239.048 202.676C244.52 202.653 248.957 198.16 249.024 192.594L249.026 192.594Z" fill="#6038D0"/>
<path fill-rule="evenodd" clip-rule="evenodd" d="M392 132.843C392.034 135.632 394.262 137.883 397.007 137.883C397.017 137.883 397.028 137.883 397.038 137.883L397.038 137.884C397.028 137.884 397.017 137.884 397.007 137.884C394.273 137.884 392.051 140.117 392.001 142.892L391.999 142.892C391.949 140.127 389.742 137.899 387.021 137.884C389.752 137.869 391.966 135.623 392 132.843L392 132.843Z" fill="#E8E0FF"/>
<path fill-rule="evenodd" clip-rule="evenodd" d="M392 122.792C392.034 125.578 394.256 127.826 396.994 127.833C394.266 127.84 392.05 130.071 392.001 132.842L391.999 132.842C391.949 130.071 389.733 127.84 387.005 127.833C389.744 127.826 391.966 125.578 392 122.792L392 122.792ZM397.038 127.833C397.032 127.833 397.026 127.833 397.019 127.833C397.026 127.833 397.032 127.833 397.038 127.833L397.038 127.833Z" fill="#E8E0FF"/>
<path fill-rule="evenodd" clip-rule="evenodd" d="M392.018 122.793L392.02 122.793C392.069 120.031 394.27 117.805 396.985 117.783C394.26 117.761 392.053 115.519 392.019 112.743L392.019 112.743C391.985 115.523 389.771 117.768 387.039 117.783C389.761 117.798 391.968 120.026 392.018 122.793Z" fill="#E8E0FF"/>
<path fill-rule="evenodd" clip-rule="evenodd" d="M387.009 107.733C387.009 107.733 387.009 107.733 387.009 107.733C389.753 107.733 391.982 105.482 392.016 102.692L392.016 102.692C392.05 105.482 394.279 107.733 397.023 107.733C397.033 107.733 397.044 107.733 397.054 107.733L397.054 107.734C397.044 107.733 397.033 107.733 397.023 107.733C394.289 107.733 392.067 109.967 392.017 112.742L392.015 112.742C391.965 109.967 389.743 107.733 387.009 107.733C387.009 107.733 387.009 107.733 387.009 107.733L387.009 107.733Z" fill="#E8E0FF"/>
<path fill-rule="evenodd" clip-rule="evenodd" d="M371.925 142.892C371.875 140.127 369.667 137.899 366.946 137.884C369.678 137.869 371.892 135.623 371.925 132.843L371.926 132.843C371.959 135.632 374.188 137.883 376.933 137.883C376.943 137.883 376.954 137.883 376.964 137.883L376.964 137.884C376.953 137.884 376.943 137.884 376.933 137.884C374.199 137.884 371.977 140.117 371.926 142.892L371.925 142.892Z" fill="#E8E0FF"/>
<path fill-rule="evenodd" clip-rule="evenodd" d="M381.953 112.839C381.903 110.068 379.687 107.837 376.959 107.83C379.698 107.823 381.92 105.575 381.953 102.789L381.954 102.789C381.987 105.579 384.216 107.83 386.961 107.83C386.971 107.83 386.981 107.83 386.992 107.83L386.992 107.83C386.981 107.83 386.971 107.83 386.961 107.83C384.227 107.83 382.004 110.064 381.954 112.839L381.953 112.839Z" fill="#E8E0FF"/>
<path fill-rule="evenodd" clip-rule="evenodd" d="M361.862 142.892C361.812 140.127 359.604 137.899 356.883 137.884C359.615 137.869 361.829 135.623 361.862 132.843L361.863 132.843C361.897 135.632 364.125 137.883 366.87 137.883C366.88 137.883 366.891 137.883 366.901 137.883L366.901 137.884C366.89 137.884 366.88 137.884 366.87 137.884C364.136 137.884 361.914 140.117 361.863 142.892L361.862 142.892Z" fill="#E8E0FF"/>
<path fill-rule="evenodd" clip-rule="evenodd" d="M351.816 142.892C351.766 140.127 349.559 137.899 346.837 137.884C349.569 137.869 351.783 135.623 351.817 132.843L351.817 132.843C351.851 135.632 354.079 137.883 356.824 137.883C356.834 137.883 356.845 137.883 356.855 137.883L356.855 137.884C356.845 137.884 356.834 137.884 356.824 137.884C354.09 137.884 351.868 140.117 351.818 142.892L351.816 142.892Z" fill="#E8E0FF"/>
<path fill-rule="evenodd" clip-rule="evenodd" d="M361.862 122.792C361.896 125.578 364.118 127.826 366.856 127.833C364.128 127.84 361.912 130.071 361.862 132.842L361.861 132.842C361.811 130.071 359.595 127.84 356.867 127.833C359.606 127.826 361.828 125.578 361.861 122.792L361.862 122.792ZM366.9 127.833C366.894 127.833 366.887 127.833 366.881 127.833C366.887 127.833 366.894 127.833 366.9 127.833L366.9 127.833Z" fill="#E8E0FF"/>
<path fill-rule="evenodd" clip-rule="evenodd" d="M381.97 132.842C381.92 130.071 379.705 127.84 376.976 127.833C379.715 127.826 381.937 125.578 381.971 122.792L381.971 122.792C382.005 125.582 384.234 127.833 386.978 127.833C386.989 127.833 386.999 127.833 387.009 127.833L387.009 127.833C386.999 127.833 386.989 127.833 386.978 127.833C384.244 127.833 382.022 130.067 381.972 132.842L381.97 132.842Z" fill="#E8E0FF"/>
<path fill-rule="evenodd" clip-rule="evenodd" d="M351.834 122.793L351.836 122.793C351.886 120.031 354.086 117.805 356.802 117.783C354.076 117.761 351.869 115.519 351.836 112.743L351.835 112.743C351.801 115.523 349.587 117.768 346.856 117.783C349.577 117.798 351.785 120.027 351.834 122.793Z" fill="#E8E0FF"/>
<path fill-rule="evenodd" clip-rule="evenodd" d="M346.826 107.733C349.57 107.733 351.799 105.482 351.833 102.692L351.833 102.692C351.867 105.482 354.096 107.733 356.84 107.733C356.851 107.733 356.861 107.733 356.872 107.733L356.872 107.733C356.861 107.733 356.851 107.733 356.84 107.733C354.106 107.733 351.884 109.967 351.834 112.742L351.832 112.742C351.782 109.967 349.56 107.733 346.826 107.733L346.826 107.733Z" fill="#E8E0FF"/>
<path fill-rule="evenodd" clip-rule="evenodd" d="M356.872 107.733C356.872 107.733 356.872 107.733 356.872 107.733C359.617 107.733 361.845 105.482 361.879 102.692L361.88 102.692C361.913 105.482 364.142 107.733 366.886 107.733C366.897 107.733 366.907 107.733 366.917 107.733L366.917 107.733C366.907 107.733 366.897 107.733 366.886 107.733C364.152 107.733 361.93 109.967 361.88 112.742L361.878 112.742C361.828 109.967 359.606 107.733 356.872 107.733C356.872 107.733 356.872 107.733 356.872 107.733L356.872 107.733Z" fill="#E8E0FF"/>
<path fill-rule="evenodd" clip-rule="evenodd" d="M371.926 122.793L371.927 122.793C371.977 120.031 374.177 117.805 376.893 117.783C374.167 117.761 371.96 115.519 371.927 112.743L371.926 112.743C371.893 115.523 369.679 117.768 366.947 117.783C369.668 117.798 371.876 120.026 371.926 122.793Z" fill="#E8E0FF"/>
<path fill-rule="evenodd" clip-rule="evenodd" d="M361.863 112.743C361.897 115.519 364.104 117.761 366.83 117.783C364.114 117.805 361.913 120.031 361.864 122.793L361.862 122.793C361.813 120.026 359.605 117.798 356.883 117.783C359.615 117.768 361.829 115.523 361.863 112.743L361.863 112.743Z" fill="#E8E0FF"/>
<path fill-rule="evenodd" clip-rule="evenodd" d="M381.97 112.743C382.003 115.517 384.208 117.759 386.932 117.783C384.218 117.807 382.02 120.032 381.97 122.793L381.969 122.793C381.919 120.026 379.712 117.798 376.99 117.783C379.722 117.768 381.936 115.523 381.969 112.743L381.97 112.743Z" fill="#E8E0FF"/>
<path fill-rule="evenodd" clip-rule="evenodd" d="M256.448 119.503C256.398 116.732 254.183 114.501 251.454 114.494C254.193 114.487 256.415 112.239 256.449 109.453L256.449 109.453C256.483 112.243 258.712 114.494 261.456 114.494C261.467 114.494 261.477 114.494 261.487 114.494L261.487 114.494C261.477 114.494 261.467 114.494 261.456 114.494C258.722 114.494 256.5 116.728 256.45 119.503L256.448 119.503Z" fill="white"/>
<path fill-rule="evenodd" clip-rule="evenodd" d="M236.339 119.503C236.289 116.737 234.082 114.509 231.36 114.494C234.092 114.479 236.306 112.234 236.339 109.453L236.34 109.453C236.374 112.243 238.602 114.494 241.347 114.494C241.357 114.494 241.368 114.494 241.378 114.494L241.378 114.494C241.368 114.494 241.357 114.494 241.347 114.494C238.613 114.494 236.391 116.728 236.341 119.503L236.339 119.503Z" fill="white"/>
<path fill-rule="evenodd" clip-rule="evenodd" d="M256.451 99.4033C256.484 102.181 258.694 104.425 261.423 104.444C258.705 104.463 256.501 106.69 256.451 109.453L256.45 109.453C256.4 106.678 254.177 104.444 251.443 104.444C251.443 104.444 251.443 104.444 251.443 104.444L251.443 104.444C251.443 104.444 251.443 104.444 251.443 104.444C254.188 104.444 256.417 102.193 256.45 99.4033L256.451 99.4033Z" fill="white"/>
<path fill-rule="evenodd" clip-rule="evenodd" d="M246.388 99.4033C246.421 102.181 248.631 104.425 251.36 104.444C248.642 104.463 246.438 106.69 246.388 109.453L246.387 109.453C246.337 106.678 244.114 104.444 241.38 104.444C241.38 104.444 241.38 104.444 241.38 104.444L241.38 104.444C241.38 104.444 241.38 104.444 241.38 104.444C244.125 104.444 246.354 102.193 246.387 99.4033L246.388 99.4033Z" fill="white"/>
<path fill-rule="evenodd" clip-rule="evenodd" d="M236.341 99.4033C236.375 102.181 238.585 104.425 241.313 104.444C238.595 104.463 236.392 106.69 236.342 109.453L236.34 109.453C236.29 106.678 234.068 104.444 231.334 104.444L231.334 104.444C234.079 104.444 236.307 102.193 236.341 99.4033L236.341 99.4033Z" fill="white"/>
<path d="M372.968 144.737C374.149 136.269 370.248 127.466 362.106 118.787C353.965 110.11 341.609 101.585 325.953 93.6853C294.643 77.887 250.182 64.6125 199.992 57.6149C149.803 50.6173 103.406 51.224 68.9693 57.8556C51.7496 61.1717 37.533 65.9917 27.3291 72.1111C17.1231 78.2319 10.9632 85.6319 9.78254 94.1002C8.60185 102.569 12.5026 111.371 20.6453 120.05C28.7861 128.727 41.1422 137.252 56.7981 145.152C88.108 160.95 132.569 174.225 182.759 181.222C232.948 188.22 279.345 187.613 313.782 180.982C331.001 177.666 345.218 172.846 355.422 166.726C365.628 160.605 371.788 153.205 372.968 144.737Z" stroke="white" stroke-width="0.452752"/>
<path opacity="0.5" d="M382.789 60.2398C380.568 51.9505 373.34 45.385 362.087 40.6324C350.837 35.8812 335.603 32.9596 317.452 31.9375C281.15 29.8935 233.231 35.449 182.302 49.0953C131.374 62.7416 87.0964 81.89 56.6806 101.811C41.4716 111.772 29.7396 121.919 22.3726 131.659C15.0035 141.401 12.0264 150.701 14.2476 158.99C16.4687 167.28 23.6969 173.845 34.95 178.598C46.1996 183.349 61.4335 186.271 79.5854 187.293C115.887 189.337 163.806 183.781 214.735 170.135C265.663 156.489 309.94 137.34 340.356 117.419C355.565 107.458 367.297 97.3111 374.664 87.5716C382.033 77.8292 385.01 68.5292 382.789 60.2398Z" stroke="white" stroke-width="0.452752"/>
<path opacity="0.3" d="M428.452 95.4672C427.229 64.8461 398.712 38.1439 353.42 19.7658C308.149 1.39636 246.204 -8.61602 178.321 -5.90554C110.437 -3.19506 49.4881 11.7242 5.82558 33.6446C-37.8573 55.5753 -64.1548 84.4662 -62.9321 115.087C-61.7095 145.708 -33.1923 172.411 12.1001 190.789C57.3713 209.158 119.315 219.171 187.199 216.46C255.083 213.75 316.032 198.83 359.694 176.91C403.377 154.979 429.675 126.088 428.452 95.4672Z" stroke="white" stroke-width="0.452752"/>
<circle cx="77.0202" cy="153.728" r="3.62201" transform="rotate(-18.2805 77.0202 153.728)" fill="#FF8743"/>
<circle cx="-0.233638" cy="185.431" r="4.82935" fill="#6038D0"/>
<circle cx="278.931" cy="149.486" r="2.41467" transform="rotate(-18.2805 278.931 149.486)" fill="#19D992"/>
<circle cx="195.625" cy="57.125" r="2.41467" transform="rotate(-18.2805 195.625 57.125)" fill="#19D992"/>
<circle cx="140.389" cy="184.499" r="2.41467" transform="rotate(-18.2805 140.389 184.499)" fill="#19D992"/>
<circle cx="377.361" cy="82.511" r="4.82935" transform="rotate(-18.2805 377.361 82.511)" fill="#6038D0"/>
<circle cx="58.0204" cy="97.6028" r="4.82935" transform="rotate(-18.2805 58.0204 97.6028)" fill="#6038D0"/>
<circle cx="110.524" cy="52.9154" r="3.62201" transform="rotate(-18.2805 110.524 52.9154)" fill="#FF8743"/>
<circle cx="315.771" cy="180.893" r="3.62201" transform="rotate(-18.2805 315.771 180.893)" fill="#FF8743"/>
<path fill-rule="evenodd" clip-rule="evenodd" d="M315.315 57.093C315.343 59.3834 317.162 61.2341 319.41 61.2561C317.17 61.2779 315.357 63.1148 315.316 65.3933L315.314 65.3933C315.273 63.1044 313.443 61.2612 311.189 61.256C313.451 61.2507 315.287 59.3937 315.314 57.093L315.315 57.093Z" fill="white"/>
<path fill-rule="evenodd" clip-rule="evenodd" d="M348.819 131.948C348.847 134.239 350.666 136.089 352.914 136.111C350.674 136.133 348.861 137.97 348.82 140.249L348.818 140.249C348.777 137.96 346.947 136.116 344.693 136.111C346.955 136.106 348.791 134.249 348.818 131.948L348.819 131.948Z" fill="white"/>
<path fill-rule="evenodd" clip-rule="evenodd" d="M72.3388 32.0408C72.3664 34.3312 74.1855 36.1819 76.4336 36.2038C74.1939 36.2257 72.3801 38.0626 72.3392 40.3411L72.3375 40.3411C72.2965 38.0521 70.466 36.2088 68.2121 36.2037C70.4744 36.1986 72.3101 34.3416 72.3379 32.0408L72.3388 32.0408Z" fill="white"/>
<mask id="mask1_9908_109322" style="mask-type:alpha" maskUnits="userSpaceOnUse" x="-89" y="-9" width="162" height="81">
<path fill-rule="evenodd" clip-rule="evenodd" d="M42.546 51.8943C42.613 57.4741 47.0725 61.9764 52.5639 61.9764C52.5848 61.9764 52.6056 61.9763 52.6265 61.9762L52.6265 61.9769C52.6056 61.9768 52.5848 61.9767 52.5639 61.9767C47.0937 61.9767 42.6475 66.4442 42.547 71.9941L42.5431 71.9941C42.4426 66.4443 37.9966 61.9769 32.5266 61.9766C38.0179 61.9764 42.4772 57.4741 42.544 51.8943L42.546 51.8943Z" fill="#6038D0"/>
<path fill-rule="evenodd" clip-rule="evenodd" d="M62.611 51.8943C62.6779 57.4741 67.1374 61.9764 72.6288 61.9764C72.6497 61.9764 72.6706 61.9763 72.6914 61.9762L72.6914 61.9769C72.6706 61.9768 72.6497 61.9767 72.6288 61.9767C67.1587 61.9767 62.7124 66.4442 62.612 71.9941L62.608 71.9941C62.5076 66.4443 58.0616 61.9769 52.5916 61.9766C58.0829 61.9764 62.5422 57.4741 62.609 51.8943L62.611 51.8943Z" fill="#6038D0"/>
<path fill-rule="evenodd" clip-rule="evenodd" d="M62.611 -8.21314C62.678 -2.63337 67.1375 1.8688 72.6288 1.8688C72.6497 1.8688 72.6706 1.86874 72.6914 1.86861L72.6914 1.86906C72.6706 1.86893 72.6497 1.86887 72.6288 1.86887C67.1585 1.86887 62.7122 6.3366 62.6119 11.8867L62.6081 11.8867C62.5081 6.34792 58.0797 1.8871 52.6247 1.86893C58.1007 1.85064 62.5422 -2.64466 62.609 -8.21314L62.611 -8.21314Z" fill="#6038D0"/>
<path fill-rule="evenodd" clip-rule="evenodd" d="M22.4108 51.8943C22.4777 57.4741 26.9372 61.9764 32.4286 61.9764C32.4495 61.9764 32.4704 61.9763 32.4912 61.9762L32.4912 61.9769C32.4704 61.9768 32.4495 61.9767 32.4286 61.9767C26.9585 61.9767 22.5122 66.4442 22.4118 71.9941L22.4078 71.9941C22.3074 66.4443 17.8614 61.9768 12.3914 61.9766C17.8827 61.9764 22.342 57.4741 22.4088 51.8943L22.4108 51.8943Z" fill="#6038D0"/>
<path fill-rule="evenodd" clip-rule="evenodd" d="M2.31069 51.8943C2.3776 57.4741 6.83711 61.9764 12.3285 61.9764C12.3494 61.9764 12.3703 61.9763 12.3911 61.9762L12.3911 61.9769C12.3703 61.9768 12.3494 61.9767 12.3285 61.9767C6.85836 61.9767 2.41212 66.4442 2.31166 71.9941L2.30772 71.9941C2.2073 66.4443 -2.23872 61.9769 -7.70872 61.9766C-2.21743 61.9764 2.24189 57.4741 2.30869 51.8943L2.31069 51.8943Z" fill="#6038D0"/>
<path fill-rule="evenodd" clip-rule="evenodd" d="M42.5462 31.7947C42.6129 37.3524 47.0375 41.8411 52.499 41.8765C47.0584 41.9117 42.6468 46.3662 42.5472 51.8945L42.5433 51.8945C42.4435 46.3583 38.0194 41.8989 32.568 41.8763C38.0402 41.8536 42.4773 37.3602 42.5442 31.7947L42.5462 31.7947Z" fill="#6038D0"/>
<path fill-rule="evenodd" clip-rule="evenodd" d="M22.411 31.7947C22.4777 37.3524 26.9023 41.8411 32.3638 41.8765C26.9232 41.9117 22.5116 46.3662 22.4119 51.8945L22.408 51.8945C22.3083 46.3583 17.8841 41.8989 12.4327 41.8763C17.9049 41.8536 22.342 37.3602 22.409 31.7947L22.411 31.7947Z" fill="#6038D0"/>
<path fill-rule="evenodd" clip-rule="evenodd" d="M2.31087 31.7947C2.37758 37.3524 6.80216 41.8411 12.2637 41.8765C6.82306 41.9117 2.41146 46.3662 2.31183 51.8945L2.30795 51.8945C2.2082 46.3583 -2.21595 41.8989 -7.66734 41.8763C-2.19515 41.8536 2.24195 37.3602 2.3089 31.7947L2.31087 31.7947Z" fill="#6038D0"/>
<path fill-rule="evenodd" clip-rule="evenodd" d="M62.6452 31.7947C62.7121 37.3585 67.1464 41.8508 72.6162 41.8763C67.1672 41.9017 62.7458 46.36 62.6461 51.8945L62.6424 51.8945C62.5426 46.3583 58.1185 41.8989 52.6671 41.8763C58.1393 41.8536 62.5764 37.3602 62.6433 31.7947L62.6452 31.7947ZM72.7261 41.8764L72.7261 41.8762C72.7207 41.8763 72.7152 41.8763 72.7098 41.8763C72.7152 41.8764 72.7207 41.8764 72.7261 41.8764Z" fill="#6038D0"/>
<path fill-rule="evenodd" clip-rule="evenodd" d="M2.34589 11.6941C2.41318 17.2532 6.84054 21.7425 12.3043 21.7748C6.86076 21.8071 2.44595 26.2633 2.34681 31.7939L2.34302 31.7939C2.24377 26.2573 -2.18045 21.7975 -7.63205 21.7747C-2.16029 21.752 2.27649 17.2591 2.34395 11.6941L2.34589 11.6941ZM12.4263 21.7749L12.4263 21.7748C12.4252 21.7748 12.4242 21.7748 12.4232 21.7748C12.4242 21.7748 12.4252 21.7748 12.4263 21.7749Z" fill="#6038D0"/>
<path fill-rule="evenodd" clip-rule="evenodd" d="M2.3449 -8.40625C2.41202 -2.82659 6.87145 1.67547 12.3627 1.67547C12.3836 1.67547 12.4045 1.67541 12.4253 1.67528L12.4253 1.67602C12.4044 1.67589 12.3836 1.67583 12.3627 1.67583C6.89241 1.67583 2.4461 6.14352 2.34582 11.6936L2.34205 11.6936C2.24177 6.14362 -2.20438 1.67599 -7.67454 1.67583L-7.67454 1.67547C-2.18338 1.67531 2.27589 -2.82669 2.34301 -8.40625L2.3449 -8.40625Z" fill="#6038D0"/>
<path fill-rule="evenodd" clip-rule="evenodd" d="M22.444 -8.40625C22.5111 -2.82659 26.9706 1.67547 32.4619 1.67547C32.4829 1.67547 32.5039 1.6754 32.5249 1.67527L32.5249 1.67603C32.5039 1.67589 32.4829 1.67583 32.4619 1.67583C26.9916 1.67583 22.5453 6.14352 22.445 11.6936L22.4412 11.6936C22.3409 6.14377 17.895 1.67623 12.4251 1.67583L12.4251 1.67547C17.916 1.67507 22.3751 -2.82684 22.4422 -8.40625L22.444 -8.40625Z" fill="#6038D0"/>
<path fill-rule="evenodd" clip-rule="evenodd" d="M42.5455 11.6941C42.6127 17.2533 47.0401 21.7426 52.5039 21.7749C47.0604 21.8072 42.6456 26.2633 42.5464 31.7939L42.5427 31.7939C42.4434 26.2574 38.0192 21.7975 32.5676 21.7748C38.0394 21.752 42.4762 17.2592 42.5436 11.6941L42.5455 11.6941ZM52.6255 21.7749L52.6255 21.7749C52.6246 21.7749 52.6237 21.7749 52.6228 21.7749C52.6237 21.7749 52.6246 21.7749 52.6255 21.7749Z" fill="#6038D0"/>
<path fill-rule="evenodd" clip-rule="evenodd" d="M22.4107 11.6941C22.478 17.2533 26.9054 21.7426 32.3691 21.7749C26.9256 21.8072 22.5109 26.2633 22.4117 31.7939L22.408 31.7939C22.3087 26.2574 17.8845 21.7975 12.4329 21.7748C17.9047 21.752 22.3415 17.2592 22.4089 11.6941L22.4107 11.6941ZM32.4907 21.7749L32.4907 21.7749C32.4898 21.7749 32.4889 21.7749 32.488 21.7749C32.4889 21.7749 32.4898 21.7749 32.4907 21.7749Z" fill="#6038D0"/>
<path fill-rule="evenodd" clip-rule="evenodd" d="M72.7256 21.7749L72.7256 21.7749C72.7242 21.7749 72.7228 21.7749 72.7215 21.7749C72.7228 21.7749 72.7242 21.7749 72.7256 21.7749ZM62.6442 11.6941C62.7114 17.2533 67.1388 21.7426 72.6026 21.7749C67.1591 21.8072 62.7443 26.2633 62.6451 31.7939L62.6414 31.7939C62.5421 26.2574 58.1179 21.7975 52.6663 21.7748C58.1381 21.752 62.5749 17.2592 62.6423 11.6941L62.6442 11.6941Z" fill="#6038D0"/>
<path fill-rule="evenodd" clip-rule="evenodd" d="M42.5455 -8.40625C42.6126 -2.82658 47.072 1.67548 52.5633 1.67548C52.5841 1.67548 52.6048 1.67542 52.6255 1.67529L52.6255 1.67603C52.6048 1.67591 52.5841 1.67584 52.5633 1.67584C47.093 1.67584 42.6467 6.14352 42.5465 11.6936L42.5427 11.6936C42.4424 6.14353 37.9961 1.67584 32.5258 1.67584C32.5258 1.67584 32.5257 1.67584 32.5257 1.67584L32.5257 1.67548C32.5257 1.67548 32.5258 1.67548 32.5258 1.67548C38.0171 1.67548 42.4765 -2.82658 42.5436 -8.40625L42.5455 -8.40625Z" fill="#6038D0"/>
</mask>
<g mask="url(#mask1_9908_109322)">
<path d="M-111 -46L52.1755 -14.5709L34.8164 52.1245L-40.8327 69.6664L-111 -46Z" fill="#6038D0"/>
</g>
</g>
</g>
<defs>
<clipPath id="clip0_9908_109322">
<rect width="402" height="219" rx="2.92364" fill="white"/>
</clipPath>
</defs>
</svg>
