<svg width="402" height="219" viewBox="0 0 402 219" fill="none" xmlns="http://www.w3.org/2000/svg">
<g clip-path="url(#clip0_9908_107572)">
<rect width="402" height="219" rx="2.92364" fill="#201F1F"/>
<g opacity="0.1">
<path fill-rule="evenodd" clip-rule="evenodd" d="M196.116 132.478C196.15 135.268 198.379 137.519 201.123 137.519C201.134 137.519 201.144 137.519 201.155 137.519L201.155 137.519C201.144 137.519 201.134 137.519 201.124 137.519C198.39 137.519 196.168 139.753 196.117 142.528L196.116 142.528C196.066 139.762 193.858 137.534 191.137 137.519C193.869 137.504 196.083 135.258 196.116 132.478L196.116 132.478Z" fill="#E8E0FF"/>
<path fill-rule="evenodd" clip-rule="evenodd" d="M191.109 127.468C191.109 127.468 191.109 127.468 191.109 127.468C193.854 127.468 196.083 125.217 196.116 122.427L196.117 122.427C196.15 125.217 198.379 127.468 201.124 127.468C201.134 127.468 201.144 127.468 201.155 127.468L201.155 127.468C201.144 127.468 201.134 127.468 201.124 127.468C198.39 127.468 196.167 129.702 196.117 132.477L196.116 132.477C196.066 129.702 193.844 127.468 191.109 127.468C191.109 127.468 191.109 127.468 191.109 127.468L191.109 127.468Z" fill="#E8E0FF"/>
<path fill-rule="evenodd" clip-rule="evenodd" d="M196.135 112.377C196.168 115.153 198.375 117.395 201.101 117.418C198.385 117.44 196.184 119.666 196.135 122.427L196.134 122.427C196.084 119.652 193.861 117.418 191.127 117.418C191.127 117.418 191.127 117.418 191.127 117.418L191.127 117.418C191.127 117.418 191.127 117.418 191.127 117.418C193.872 117.418 196.1 115.167 196.134 112.377L196.135 112.377Z" fill="#E8E0FF"/>
<path fill-rule="evenodd" clip-rule="evenodd" d="M191.125 107.369C191.125 107.369 191.126 107.369 191.126 107.369C193.87 107.369 196.099 105.117 196.132 102.328L196.133 102.328C196.167 105.117 198.395 107.369 201.14 107.369C201.15 107.369 201.161 107.369 201.171 107.368L201.171 107.369C201.161 107.369 201.15 107.369 201.14 107.369C198.406 107.369 196.184 109.603 196.133 112.377L196.132 112.377C196.082 109.603 193.86 107.369 191.126 107.369C191.126 107.369 191.125 107.369 191.125 107.369L191.125 107.369Z" fill="#E8E0FF"/>
<path fill-rule="evenodd" clip-rule="evenodd" d="M176.041 142.528C175.991 139.757 173.775 137.526 171.047 137.519C173.786 137.512 176.008 135.264 176.042 132.478L176.042 132.478C176.076 135.268 178.304 137.519 181.049 137.519C181.059 137.519 181.07 137.519 181.08 137.519L181.08 137.519C181.07 137.519 181.059 137.519 181.049 137.519C178.315 137.519 176.093 139.753 176.043 142.528L176.041 142.528Z" fill="#E8E0FF"/>
<path fill-rule="evenodd" clip-rule="evenodd" d="M186.069 112.473C186.019 109.703 183.804 107.471 181.076 107.464C183.814 107.458 186.036 105.209 186.07 102.424L186.071 102.424C186.104 105.213 188.333 107.464 191.077 107.464C191.088 107.464 191.098 107.464 191.108 107.464L191.108 107.464C191.098 107.464 191.088 107.464 191.077 107.464C188.343 107.464 186.121 109.698 186.071 112.473L186.069 112.473Z" fill="#E8E0FF"/>
<path fill-rule="evenodd" clip-rule="evenodd" d="M165.979 142.528C165.928 139.757 163.713 137.526 160.985 137.519C163.724 137.512 165.946 135.264 165.979 132.478L165.98 132.478C166.013 135.268 168.242 137.519 170.986 137.519C170.997 137.519 171.007 137.519 171.018 137.519L171.018 137.519C171.007 137.519 170.997 137.519 170.986 137.519C168.253 137.519 166.03 139.753 165.98 142.528L165.979 142.528Z" fill="#E8E0FF"/>
<path fill-rule="evenodd" clip-rule="evenodd" d="M155.932 142.528C155.882 139.762 153.675 137.534 150.954 137.519C153.686 137.504 155.9 135.258 155.933 132.478L155.933 132.478C155.967 135.268 158.196 137.519 160.94 137.519C160.951 137.519 160.961 137.519 160.972 137.519L160.972 137.519C160.961 137.519 160.951 137.519 160.94 137.519C158.206 137.519 155.984 139.753 155.934 142.528L155.932 142.528Z" fill="#E8E0FF"/>
<path fill-rule="evenodd" clip-rule="evenodd" d="M160.971 127.468C160.971 127.468 160.971 127.468 160.971 127.468C163.716 127.468 165.944 125.217 165.978 122.427L165.979 122.427C166.012 125.217 168.241 127.468 170.986 127.468C170.996 127.468 171.006 127.468 171.017 127.468L171.017 127.468C171.006 127.468 170.996 127.468 170.986 127.468C168.251 127.468 166.029 129.702 165.979 132.477L165.978 132.477C165.928 129.702 163.705 127.468 160.971 127.468C160.971 127.468 160.971 127.468 160.971 127.468L160.971 127.468Z" fill="#E8E0FF"/>
<path fill-rule="evenodd" clip-rule="evenodd" d="M181.08 127.468C181.08 127.468 181.081 127.468 181.081 127.468C183.825 127.468 186.054 125.217 186.088 122.427L186.088 122.427C186.122 125.217 188.35 127.468 191.095 127.468C191.105 127.468 191.116 127.468 191.126 127.468L191.126 127.468C191.116 127.468 191.105 127.468 191.095 127.468C188.361 127.468 186.139 129.702 186.089 132.477L186.087 132.477C186.037 129.702 183.815 127.468 181.081 127.468C181.081 127.468 181.08 127.468 181.08 127.468L181.08 127.468Z" fill="#E8E0FF"/>
<path fill-rule="evenodd" clip-rule="evenodd" d="M155.951 112.377C155.985 115.153 158.191 117.395 160.917 117.418C158.201 117.44 156.001 119.666 155.952 122.427L155.95 122.427C155.9 119.652 153.678 117.418 150.944 117.418C150.944 117.418 150.943 117.418 150.943 117.418L150.943 117.418C150.943 117.418 150.944 117.418 150.944 117.418C153.688 117.418 155.917 115.167 155.95 112.377L155.951 112.377Z" fill="#E8E0FF"/>
<path fill-rule="evenodd" clip-rule="evenodd" d="M150.943 107.369C153.687 107.368 155.916 105.117 155.949 102.328L155.95 102.328C155.983 105.117 158.212 107.369 160.957 107.369C160.967 107.369 160.978 107.369 160.988 107.368L160.988 107.369C160.978 107.369 160.967 107.369 160.957 107.369C158.223 107.369 156.001 109.603 155.95 112.377L155.949 112.377C155.899 109.603 153.676 107.369 150.943 107.369L150.943 107.369Z" fill="#E8E0FF"/>
<path fill-rule="evenodd" clip-rule="evenodd" d="M160.988 107.369C160.988 107.369 160.988 107.369 160.988 107.369C163.733 107.369 165.962 105.117 165.995 102.328L165.996 102.328C166.029 105.117 168.258 107.369 171.003 107.369C171.013 107.369 171.023 107.369 171.034 107.368L171.034 107.369C171.023 107.369 171.013 107.369 171.003 107.369C168.269 107.369 166.047 109.603 165.996 112.377L165.995 112.377C165.944 109.603 163.722 107.369 160.988 107.369C160.988 107.369 160.988 107.369 160.988 107.369L160.988 107.369Z" fill="#E8E0FF"/>
<path fill-rule="evenodd" clip-rule="evenodd" d="M176.042 112.377C176.076 115.153 178.283 117.395 181.008 117.418C178.293 117.44 176.092 119.666 176.043 122.427L176.041 122.427C175.992 119.652 173.769 117.418 171.035 117.418C171.035 117.418 171.035 117.418 171.035 117.418L171.035 117.418C171.035 117.418 171.035 117.418 171.035 117.418C173.779 117.418 176.008 115.167 176.042 112.377L176.042 112.377Z" fill="#E8E0FF"/>
<path fill-rule="evenodd" clip-rule="evenodd" d="M165.978 112.377C166.012 115.153 168.219 117.395 170.944 117.418C168.229 117.44 166.028 119.666 165.979 122.427L165.977 122.427C165.928 119.652 163.705 117.418 160.971 117.418C160.971 117.418 160.971 117.418 160.971 117.418L160.971 117.418C160.971 117.418 160.971 117.418 160.971 117.418C163.715 117.418 165.944 115.167 165.978 112.377L165.978 112.377Z" fill="#E8E0FF"/>
<path fill-rule="evenodd" clip-rule="evenodd" d="M186.087 112.377C186.12 115.152 188.325 117.393 191.049 117.418C188.335 117.442 186.136 119.667 186.087 122.427L186.086 122.427C186.036 119.652 183.814 117.418 181.08 117.418L181.08 117.418C183.824 117.417 186.052 115.167 186.086 112.377L186.087 112.377Z" fill="#E8E0FF"/>
<mask id="mask0_9908_107572" style="mask-type:alpha" maskUnits="userSpaceOnUse" x="86" y="102" width="242" height="121">
<path fill-rule="evenodd" clip-rule="evenodd" d="M161.381 192.45C161.481 200.819 168.171 207.573 176.408 207.573C176.439 207.573 176.47 207.573 176.501 207.573L176.501 207.573C176.47 207.573 176.439 207.573 176.407 207.573C168.202 207.573 161.533 214.274 161.382 222.599L161.377 222.599C161.226 214.275 154.557 207.573 146.352 207.573L146.352 207.573C154.589 207.573 161.278 200.819 161.378 192.45L161.381 192.45Z" fill="#6038D0"/>
<path fill-rule="evenodd" clip-rule="evenodd" d="M282.032 192.45C282.132 200.819 288.821 207.573 297.059 207.573C297.09 207.573 297.121 207.573 297.152 207.573L297.152 207.573C297.121 207.573 297.09 207.573 297.058 207.573C288.853 207.573 282.183 214.274 282.033 222.599L282.028 222.599C281.877 214.275 275.208 207.573 267.003 207.573L267.003 207.573C275.24 207.573 281.929 200.819 282.029 192.45L282.032 192.45Z" fill="#6038D0"/>
<path fill-rule="evenodd" clip-rule="evenodd" d="M191.479 192.45C191.579 200.819 198.268 207.573 206.505 207.573C206.537 207.573 206.568 207.573 206.599 207.572L206.599 207.573C206.568 207.573 206.536 207.573 206.505 207.573C198.3 207.573 191.63 214.274 191.48 222.599L191.474 222.599C191.324 214.274 184.655 207.573 176.45 207.573L176.45 207.573C184.687 207.573 191.376 200.819 191.476 192.45L191.479 192.45Z" fill="#6038D0"/>
<path fill-rule="evenodd" clip-rule="evenodd" d="M312.13 192.45C312.23 200.819 318.919 207.573 327.156 207.573C327.188 207.573 327.219 207.573 327.25 207.572L327.25 207.573C327.219 207.573 327.187 207.573 327.156 207.573C318.95 207.573 312.281 214.274 312.131 222.599L312.125 222.599C311.975 214.274 305.306 207.573 297.1 207.573L297.1 207.573C305.337 207.573 312.027 200.819 312.127 192.45L312.13 192.45Z" fill="#6038D0"/>
<path fill-rule="evenodd" clip-rule="evenodd" d="M191.479 102.289C191.579 110.658 198.268 117.412 206.505 117.412C206.537 117.412 206.568 117.412 206.599 117.412L206.599 117.412C206.568 117.412 206.536 117.412 206.505 117.412C198.3 117.412 191.63 124.113 191.48 132.438L191.474 132.438C191.324 124.113 184.655 117.412 176.45 117.412L176.45 117.412C184.687 117.412 191.376 110.658 191.476 102.289L191.479 102.289Z" fill="#6038D0"/>
<path fill-rule="evenodd" clip-rule="evenodd" d="M312.13 102.289C312.23 110.658 318.919 117.412 327.156 117.412C327.188 117.412 327.219 117.412 327.25 117.412L327.25 117.412C327.219 117.412 327.187 117.412 327.156 117.412C318.951 117.412 312.281 124.113 312.131 132.438L312.125 132.438C311.975 124.113 305.305 117.412 297.1 117.412L297.1 117.412C305.337 117.412 312.027 110.658 312.127 102.289L312.13 102.289Z" fill="#6038D0"/>
<path fill-rule="evenodd" clip-rule="evenodd" d="M131.179 192.45C131.279 200.819 137.968 207.573 146.206 207.573C146.237 207.573 146.268 207.573 146.299 207.573L146.299 207.573C146.268 207.573 146.236 207.573 146.205 207.573C138 207.573 131.33 214.274 131.18 222.599L131.175 222.599C131.024 214.275 124.355 207.573 116.15 207.573L116.15 207.573C124.387 207.573 131.076 200.819 131.176 192.45L131.179 192.45Z" fill="#6038D0"/>
<path fill-rule="evenodd" clip-rule="evenodd" d="M251.83 192.45C251.931 200.819 258.62 207.573 266.857 207.573C266.888 207.573 266.919 207.573 266.951 207.573L266.951 207.573C266.919 207.573 266.888 207.573 266.856 207.573C258.651 207.573 251.982 214.274 251.831 222.599L251.826 222.599C251.675 214.275 245.006 207.573 236.801 207.573L236.801 207.573C245.038 207.573 251.727 200.819 251.827 192.45L251.83 192.45Z" fill="#6038D0"/>
<path fill-rule="evenodd" clip-rule="evenodd" d="M101.029 192.45C101.129 200.819 107.819 207.573 116.056 207.573C116.087 207.573 116.118 207.573 116.149 207.573L116.149 207.573C116.118 207.573 116.087 207.573 116.055 207.573C107.85 207.573 101.18 214.274 101.03 222.599L101.025 222.599C100.874 214.275 94.2049 207.573 85.9998 207.573L85.9998 207.573C94.2368 207.573 100.926 200.819 101.026 192.45L101.029 192.45Z" fill="#6038D0"/>
<path fill-rule="evenodd" clip-rule="evenodd" d="M221.68 192.45C221.78 200.819 228.469 207.573 236.706 207.573C236.738 207.573 236.769 207.573 236.8 207.573L236.8 207.573C236.769 207.573 236.737 207.573 236.706 207.573C228.501 207.573 221.831 214.274 221.681 222.599L221.676 222.599C221.525 214.275 214.856 207.573 206.651 207.573L206.651 207.573C214.888 207.573 221.577 200.819 221.677 192.45L221.68 192.45Z" fill="#6038D0"/>
<path fill-rule="evenodd" clip-rule="evenodd" d="M161.381 162.3C161.481 170.644 168.129 177.381 176.33 177.423C168.16 177.464 161.531 184.15 161.382 192.45L161.377 192.45C161.227 184.144 154.588 177.454 146.409 177.423C154.619 177.391 161.278 170.65 161.378 162.3L161.381 162.3ZM176.501 177.423L176.501 177.423C176.496 177.423 176.49 177.423 176.485 177.423C176.49 177.423 176.496 177.423 176.501 177.423Z" fill="#6038D0"/>
<path fill-rule="evenodd" clip-rule="evenodd" d="M282.032 162.3C282.132 170.644 288.78 177.381 296.981 177.423C288.811 177.464 282.182 184.15 282.033 192.45L282.028 192.45C281.878 184.144 275.239 177.454 267.06 177.423C275.27 177.391 281.929 170.65 282.029 162.3L282.032 162.3ZM297.152 177.423L297.152 177.423C297.147 177.423 297.141 177.423 297.136 177.423C297.141 177.423 297.147 177.423 297.152 177.423Z" fill="#6038D0"/>
<path fill-rule="evenodd" clip-rule="evenodd" d="M131.179 162.3C131.279 170.644 137.927 177.381 146.128 177.423C137.958 177.465 131.33 184.151 131.18 192.45L131.175 192.45C131.025 184.146 124.39 177.457 116.213 177.423C124.421 177.388 131.076 170.648 131.176 162.3L131.179 162.3ZM146.299 177.423L146.299 177.423C146.294 177.423 146.288 177.423 146.283 177.423C146.288 177.423 146.294 177.423 146.299 177.423Z" fill="#6038D0"/>
<path fill-rule="evenodd" clip-rule="evenodd" d="M251.83 162.3C251.93 170.644 258.578 177.381 266.779 177.423C258.609 177.465 251.981 184.151 251.831 192.45L251.825 192.45C251.676 184.146 245.04 177.457 236.864 177.423C245.072 177.388 251.726 170.648 251.827 162.3L251.83 162.3ZM266.95 177.423L266.95 177.423C266.945 177.423 266.939 177.423 266.934 177.423C266.939 177.423 266.945 177.423 266.95 177.423Z" fill="#6038D0"/>
<path fill-rule="evenodd" clip-rule="evenodd" d="M101.029 162.3C101.129 170.644 107.777 177.381 115.978 177.423C107.808 177.465 101.18 184.151 101.03 192.45L101.025 192.45C100.875 184.144 94.2362 177.454 86.0569 177.423C94.2674 177.391 100.926 170.65 101.026 162.3L101.029 162.3ZM116.149 177.423L116.149 177.423C116.144 177.423 116.138 177.423 116.133 177.423C116.138 177.423 116.144 177.423 116.149 177.423Z" fill="#6038D0"/>
<path fill-rule="evenodd" clip-rule="evenodd" d="M221.68 162.3C221.78 170.644 228.428 177.381 236.629 177.423C228.459 177.464 221.83 184.15 221.681 192.45L221.676 192.45C221.526 184.144 214.887 177.454 206.708 177.423C214.918 177.391 221.577 170.65 221.677 162.3L221.68 162.3ZM236.8 177.423L236.8 177.423C236.795 177.423 236.789 177.423 236.783 177.423C236.789 177.423 236.795 177.423 236.8 177.423Z" fill="#6038D0"/>
<path fill-rule="evenodd" clip-rule="evenodd" d="M191.53 162.3C191.63 170.648 198.285 177.388 206.492 177.423C198.316 177.457 191.681 184.146 191.531 192.45L191.526 192.45C191.376 184.146 184.741 177.457 176.565 177.423C184.772 177.388 191.427 170.648 191.527 162.3L191.53 162.3ZM206.651 177.423L206.651 177.422C206.641 177.423 206.631 177.423 206.621 177.423C206.631 177.423 206.641 177.423 206.651 177.423Z" fill="#6038D0"/>
<path fill-rule="evenodd" clip-rule="evenodd" d="M312.181 162.3C312.281 170.648 318.936 177.388 327.143 177.423C318.967 177.457 312.332 184.146 312.182 192.45L312.177 192.45C312.027 184.146 305.392 177.457 297.216 177.423C305.423 177.388 312.078 170.648 312.178 162.3L312.181 162.3ZM327.302 177.423L327.302 177.422C327.292 177.423 327.282 177.423 327.272 177.423C327.282 177.423 327.292 177.423 327.302 177.423Z" fill="#6038D0"/>
<path fill-rule="evenodd" clip-rule="evenodd" d="M101.082 132.15C101.183 140.492 107.83 147.229 116.031 147.271C107.86 147.313 101.232 153.999 101.083 162.299L101.077 162.299C100.928 153.993 94.2888 147.302 86.1091 147.271C94.3193 147.24 100.977 140.499 101.078 132.15L101.082 132.15ZM116.202 147.271L116.202 147.271C116.196 147.271 116.191 147.271 116.185 147.271C116.191 147.271 116.196 147.271 116.202 147.271Z" fill="#6038D0"/>
<path fill-rule="evenodd" clip-rule="evenodd" d="M101.08 102C101.18 110.37 107.869 117.123 116.106 117.123C116.138 117.123 116.169 117.123 116.2 117.123L116.2 117.124C116.169 117.124 116.138 117.124 116.106 117.124C107.901 117.124 101.232 123.825 101.081 132.15L101.076 132.15C100.925 123.825 94.2557 117.124 86.0506 117.124L86.0506 117.123C94.2875 117.123 100.977 110.37 101.077 102L101.08 102Z" fill="#6038D0"/>
<path fill-rule="evenodd" clip-rule="evenodd" d="M146.35 117.124C146.318 117.124 146.287 117.123 146.255 117.123C138.05 117.123 131.381 123.825 131.23 132.15L131.224 132.15C131.074 123.825 124.405 117.124 116.2 117.123L116.2 117.123C124.437 117.122 131.125 110.369 131.226 102L131.229 102C131.329 110.37 138.018 117.123 146.255 117.123C146.287 117.123 146.318 117.123 146.35 117.123L146.35 117.124Z" fill="#6038D0"/>
<path fill-rule="evenodd" clip-rule="evenodd" d="M221.733 132.15C221.834 140.492 228.481 147.229 236.682 147.271C228.511 147.313 221.882 153.999 221.734 162.299L221.728 162.299C221.579 153.993 214.94 147.302 206.76 147.271C214.97 147.24 221.628 140.499 221.729 132.15L221.733 132.15ZM236.853 147.271L236.853 147.271C236.847 147.271 236.842 147.271 236.836 147.271C236.842 147.271 236.847 147.271 236.853 147.271Z" fill="#6038D0"/>
<path fill-rule="evenodd" clip-rule="evenodd" d="M221.731 102C221.831 110.37 228.52 117.123 236.757 117.123C236.789 117.123 236.82 117.123 236.851 117.123L236.851 117.124C236.82 117.124 236.789 117.124 236.757 117.124C228.552 117.124 221.883 123.825 221.732 132.15L221.726 132.15C221.576 123.825 214.907 117.124 206.701 117.124L206.701 117.123C214.938 117.123 221.627 110.37 221.728 102L221.731 102Z" fill="#6038D0"/>
<path fill-rule="evenodd" clip-rule="evenodd" d="M267 117.124C266.969 117.124 266.938 117.123 266.906 117.123C258.701 117.123 252.032 123.825 251.881 132.15L251.875 132.15C251.725 123.825 245.056 117.124 236.851 117.123L236.851 117.123C245.088 117.122 251.776 110.369 251.877 102L251.879 102C251.98 110.37 258.669 117.123 266.906 117.123C266.938 117.123 266.969 117.123 267 117.123L267 117.124Z" fill="#6038D0"/>
<path fill-rule="evenodd" clip-rule="evenodd" d="M161.382 132.15C161.482 140.491 168.127 147.226 176.326 147.271C168.158 147.316 161.532 154.001 161.383 162.299L161.377 162.299C161.228 153.995 154.593 147.306 146.416 147.271C154.623 147.236 161.278 140.497 161.379 132.15L161.382 132.15ZM176.501 147.271L176.501 147.271C176.498 147.271 176.494 147.271 176.491 147.271C176.494 147.271 176.498 147.271 176.501 147.271Z" fill="#6038D0"/>
<path fill-rule="evenodd" clip-rule="evenodd" d="M131.18 132.15C131.281 140.491 137.925 147.226 146.124 147.271C137.956 147.316 131.33 154.001 131.181 162.299L131.176 162.299C131.027 153.995 124.391 147.306 116.214 147.271C124.422 147.236 131.076 140.497 131.177 132.15L131.18 132.15ZM146.3 147.271L146.3 147.271C146.296 147.271 146.293 147.271 146.289 147.271C146.293 147.271 146.296 147.271 146.3 147.271Z" fill="#6038D0"/>
<path fill-rule="evenodd" clip-rule="evenodd" d="M191.529 132.15C191.63 140.489 198.271 147.223 206.467 147.271C198.302 147.319 191.679 154.003 191.53 162.299L191.525 162.299C191.376 153.995 184.74 147.306 176.564 147.271C184.771 147.236 191.425 140.497 191.526 132.15L191.529 132.15ZM206.651 147.271L206.651 147.271C206.649 147.271 206.646 147.271 206.644 147.271C206.646 147.271 206.649 147.271 206.651 147.271Z" fill="#6038D0"/>
<path fill-rule="evenodd" clip-rule="evenodd" d="M161.382 102C161.482 110.37 168.171 117.123 176.408 117.123C176.439 117.123 176.47 117.123 176.501 117.123L176.501 117.124C176.47 117.124 176.439 117.124 176.408 117.124C168.203 117.124 161.534 123.825 161.383 132.15L161.377 132.15C161.227 123.825 154.557 117.124 146.352 117.124C146.352 117.124 146.352 117.124 146.352 117.124L146.352 117.123C146.352 117.123 146.352 117.123 146.352 117.123C154.589 117.123 161.278 110.37 161.379 102L161.382 102Z" fill="#6038D0"/>
<path fill-rule="evenodd" clip-rule="evenodd" d="M282.031 132.15C282.132 140.491 288.776 147.226 296.975 147.271C288.807 147.316 282.181 154.001 282.032 162.299L282.027 162.299C281.878 153.995 275.242 147.306 267.065 147.271C275.273 147.236 281.927 140.497 282.028 132.15L282.031 132.15ZM297.151 147.271L297.151 147.271C297.147 147.271 297.144 147.271 297.14 147.271C297.144 147.271 297.147 147.271 297.151 147.271Z" fill="#6038D0"/>
<path fill-rule="evenodd" clip-rule="evenodd" d="M251.829 132.15C251.93 140.491 258.575 147.226 266.774 147.271C258.605 147.316 251.98 154.001 251.831 162.299L251.825 162.299C251.676 153.995 245.041 147.306 236.864 147.271C245.071 147.236 251.725 140.497 251.827 132.15L251.829 132.15ZM266.949 147.271L266.949 147.271C266.946 147.271 266.942 147.271 266.938 147.271C266.942 147.271 266.946 147.271 266.949 147.271Z" fill="#6038D0"/>
<path fill-rule="evenodd" clip-rule="evenodd" d="M312.178 132.15C312.279 140.489 318.921 147.223 327.117 147.271C318.951 147.319 312.329 154.003 312.18 162.299L312.174 162.299C312.025 153.995 305.39 147.306 297.213 147.271C305.42 147.236 312.075 140.497 312.176 132.15L312.178 132.15ZM327.301 147.271L327.301 147.271C327.298 147.271 327.296 147.271 327.293 147.271C327.296 147.271 327.298 147.271 327.301 147.271Z" fill="#6038D0"/>
<path fill-rule="evenodd" clip-rule="evenodd" d="M282.031 102C282.131 110.37 288.821 117.123 297.058 117.123C297.089 117.123 297.12 117.123 297.151 117.123L297.151 117.124C297.12 117.124 297.089 117.124 297.058 117.124C288.852 117.124 282.183 123.825 282.032 132.15L282.027 132.15C281.876 123.825 275.207 117.124 267.001 117.124C267.001 117.124 267.001 117.124 267.001 117.124L267.001 117.123C267.001 117.123 267.001 117.123 267.001 117.123C275.238 117.123 281.928 110.37 282.028 102L282.031 102Z" fill="#6038D0"/>
</mask>
<g mask="url(#mask0_9908_107572)">
<path d="M58.0425 86.1025L221.583 95.9698L195.819 230.457L85.9998 222.965L58.0425 86.1025Z" fill="#19D992"/>
</g>
<mask id="mask1_9908_107572" style="mask-type:alpha" maskUnits="userSpaceOnUse" x="-51" y="-17" width="242" height="121">
<path fill-rule="evenodd" clip-rule="evenodd" d="M24.381 73.4495C24.4813 81.8193 31.1705 88.5728 39.4077 88.5728C39.439 88.5728 39.4702 88.5727 39.5015 88.5725L39.5015 88.5733C39.4701 88.5731 39.4386 88.573 39.4072 88.573C31.202 88.573 24.5327 95.2742 24.382 103.599L24.3768 103.599C24.2261 95.2744 17.5569 88.5732 9.35188 88.573L9.35188 88.573C17.589 88.5728 24.2781 81.8193 24.3782 73.4495L24.381 73.4495Z" fill="#6038D0"/>
<path fill-rule="evenodd" clip-rule="evenodd" d="M145.032 73.4495C145.132 81.8193 151.821 88.5728 160.059 88.5728C160.09 88.5728 160.121 88.5727 160.152 88.5725L160.152 88.5733C160.121 88.5731 160.09 88.573 160.058 88.573C151.853 88.573 145.184 95.2742 145.033 103.599L145.028 103.599C144.877 95.2744 138.208 88.5732 130.003 88.573L130.003 88.573C138.24 88.5728 144.929 81.8193 145.029 73.4495L145.032 73.4495Z" fill="#6038D0"/>
<path fill-rule="evenodd" clip-rule="evenodd" d="M54.4787 73.4495C54.579 81.8193 61.2682 88.5727 69.5054 88.5727C69.5366 88.5727 69.5679 88.5726 69.5991 88.5724L69.5991 88.5733C69.5677 88.5731 69.5363 88.573 69.5049 88.573C61.2997 88.573 54.6303 95.2742 54.4797 103.599L54.4744 103.599C54.3238 95.2743 47.6546 88.5732 39.4495 88.573L39.4495 88.573C47.6866 88.5728 54.3758 81.8193 54.4759 73.4495L54.4787 73.4495Z" fill="#6038D0"/>
<path fill-rule="evenodd" clip-rule="evenodd" d="M175.13 73.4495C175.23 81.8193 181.919 88.5727 190.156 88.5727C190.188 88.5727 190.219 88.5726 190.25 88.5724L190.25 88.5733C190.219 88.5731 190.187 88.573 190.156 88.573C181.951 88.573 175.281 95.2742 175.131 103.599L175.125 103.599C174.975 95.2743 168.305 88.5732 160.1 88.573L160.1 88.573C168.337 88.5728 175.027 81.8193 175.127 73.4495L175.13 73.4495Z" fill="#6038D0"/>
<path fill-rule="evenodd" clip-rule="evenodd" d="M54.4787 -16.7114C54.579 -8.34162 61.2682 -1.58816 69.5054 -1.58816C69.5366 -1.58816 69.5679 -1.58826 69.5991 -1.58845L69.5991 -1.5876C69.5679 -1.58779 69.5366 -1.58789 69.5054 -1.58789C61.3002 -1.58789 54.6308 5.11334 54.4801 13.4382L54.4743 13.4382C54.3239 5.12609 47.6748 -1.56738 39.4869 -1.58793C47.7068 -1.60856 54.3758 -8.3543 54.4758 -16.7114L54.4787 -16.7114Z" fill="#6038D0"/>
<path fill-rule="evenodd" clip-rule="evenodd" d="M175.13 -16.7114C175.23 -8.34162 181.919 -1.58816 190.156 -1.58816C190.188 -1.58816 190.219 -1.58826 190.25 -1.58845L190.25 -1.5876C190.219 -1.58779 190.187 -1.58789 190.156 -1.58789C181.951 -1.58789 175.281 5.11334 175.131 13.4382L175.125 13.4382C174.975 5.11345 168.305 -1.58772 160.1 -1.58789L160.1 -1.58792C168.337 -1.58809 175.027 -8.34162 175.127 -16.7114L175.13 -16.7114Z" fill="#6038D0"/>
<path fill-rule="evenodd" clip-rule="evenodd" d="M-5.82117 73.4495C-5.7209 81.8193 0.968371 88.5728 9.20552 88.5728C9.23681 88.5728 9.26807 88.5727 9.29932 88.5725L9.29932 88.5733C9.26791 88.5731 9.23648 88.573 9.20503 88.573C0.999821 88.573 -5.66949 95.2742 -5.82019 103.599L-5.82541 103.599C-5.97611 95.2744 -12.6452 88.5732 -20.8503 88.573L-20.8503 88.573C-12.6132 88.5728 -5.92408 81.8193 -5.82394 73.4495L-5.82117 73.4495Z" fill="#6038D0"/>
<path fill-rule="evenodd" clip-rule="evenodd" d="M114.83 73.4495C114.93 81.8193 121.62 88.5728 129.857 88.5728C129.888 88.5728 129.919 88.5727 129.951 88.5725L129.951 88.5733C129.919 88.5731 129.888 88.573 129.856 88.573C121.651 88.573 114.982 95.2742 114.831 103.599L114.826 103.599C114.675 95.2744 108.006 88.5732 99.8011 88.573L99.8011 88.573C108.038 88.5728 114.727 81.8193 114.827 73.4495L114.83 73.4495Z" fill="#6038D0"/>
<path fill-rule="evenodd" clip-rule="evenodd" d="M84.6798 73.4495C84.78 81.8193 91.4693 88.5728 99.7065 88.5728C99.7378 88.5728 99.769 88.5727 99.8003 88.5725L99.8003 88.5733C99.7689 88.5731 99.7374 88.573 99.706 88.573C91.5008 88.573 84.8315 95.2742 84.6807 103.599L84.6755 103.599C84.5248 95.2744 77.8557 88.5732 69.6507 88.573L69.6507 88.573C77.8878 88.5728 84.5769 81.8193 84.677 73.4495L84.6798 73.4495Z" fill="#6038D0"/>
<path fill-rule="evenodd" clip-rule="evenodd" d="M24.381 43.2998C24.4811 51.641 31.1252 58.3769 39.3237 58.4226C31.1565 58.4679 24.5317 65.1524 24.382 73.4494L24.3768 73.4494C24.227 65.1434 17.588 58.4535 9.40861 58.4225C17.6194 58.3913 24.2778 51.65 24.3781 43.2998L24.381 43.2998ZM39.5015 58.4227L39.5015 58.4225C39.498 58.4226 39.4946 58.4226 39.4912 58.4226C39.4946 58.4226 39.498 58.4226 39.5015 58.4227Z" fill="#6038D0"/>
<path fill-rule="evenodd" clip-rule="evenodd" d="M145.032 43.2998C145.132 51.641 151.776 58.3769 159.975 58.4226C151.807 58.4679 145.183 65.1524 145.033 73.4494L145.028 73.4494C144.878 65.1435 138.239 58.4536 130.06 58.4225C138.27 58.3912 144.929 51.6499 145.029 43.2998L145.032 43.2998ZM160.152 58.4227L160.152 58.4225C160.149 58.4226 160.145 58.4226 160.142 58.4226C160.145 58.4226 160.149 58.4226 160.152 58.4227Z" fill="#6038D0"/>
<path fill-rule="evenodd" clip-rule="evenodd" d="M-5.82161 43.2998C-5.72153 51.6411 0.922762 58.377 9.12139 58.4226C0.954238 58.468 -5.67049 65.1524 -5.82016 73.4494L-5.8259 73.4494C-5.97566 65.1458 -12.6108 58.4573 -20.7869 58.4224C-12.5794 58.3875 -5.92474 51.6476 -5.82446 43.2998L-5.82161 43.2998ZM9.29883 58.4227L9.29883 58.4225C9.29547 58.4226 9.29212 58.4226 9.28876 58.4226C9.29212 58.4226 9.29547 58.4226 9.29883 58.4227Z" fill="#6038D0"/>
<path fill-rule="evenodd" clip-rule="evenodd" d="M114.83 43.2998C114.93 51.6411 121.574 58.377 129.773 58.4226C121.606 58.468 114.981 65.1524 114.831 73.4494L114.825 73.4494C114.676 65.1458 108.041 58.4573 99.8644 58.4224C108.072 58.3875 114.727 51.6476 114.827 43.2998L114.83 43.2998ZM129.95 58.4227L129.95 58.4225C129.947 58.4226 129.943 58.4226 129.94 58.4226C129.943 58.4226 129.947 58.4226 129.95 58.4227Z" fill="#6038D0"/>
<path fill-rule="evenodd" clip-rule="evenodd" d="M84.6799 43.2998C84.7799 51.6411 91.4242 58.377 99.6229 58.4226C91.4557 58.468 84.831 65.1524 84.6813 73.4494L84.6756 73.4494C84.5258 65.1435 77.887 58.4536 69.7077 58.4225C77.9184 58.3912 84.5768 51.6499 84.6771 43.2998L84.6799 43.2998ZM99.8003 58.4227L99.8003 58.4225C99.7969 58.4226 99.7936 58.4226 99.7902 58.4226C99.7936 58.4226 99.7969 58.4226 99.8003 58.4227Z" fill="#6038D0"/>
<path fill-rule="evenodd" clip-rule="evenodd" d="M54.53 43.2998C54.6302 51.6477 61.285 58.3876 69.4927 58.4224C61.3164 58.4572 54.6812 65.1457 54.5314 73.4494L54.5257 73.4494C54.376 65.1458 47.7408 58.4573 39.5647 58.4224C47.7722 58.3875 54.4269 51.6476 54.5272 43.2998L54.53 43.2998ZM69.6509 58.4226L69.6509 58.4223C69.6408 58.4223 69.6307 58.4224 69.6206 58.4224C69.6307 58.4225 69.6408 58.4225 69.6509 58.4226Z" fill="#6038D0"/>
<path fill-rule="evenodd" clip-rule="evenodd" d="M175.181 43.2998C175.281 51.6477 181.936 58.3876 190.144 58.4224C181.967 58.4572 175.332 65.1457 175.182 73.4494L175.177 73.4494C175.027 65.1458 168.392 58.4573 160.216 58.4224C168.423 58.3875 175.078 51.6476 175.178 43.2998L175.181 43.2998ZM190.302 58.4226L190.302 58.4223C190.292 58.4223 190.282 58.4224 190.272 58.4224C190.282 58.4225 190.292 58.4225 190.302 58.4226Z" fill="#6038D0"/>
<path fill-rule="evenodd" clip-rule="evenodd" d="M9.34961 -1.8764C9.31822 -1.8766 9.28682 -1.8767 9.25539 -1.8767C1.05009 -1.8767 -5.61928 4.82466 -5.76984 13.1496L-5.77554 13.1496C-5.9261 4.82493 -12.595 -1.87626 -20.8 -1.8767L-20.8 -1.87732C-12.5634 -1.87775 -5.87468 -8.63074 -5.77409 -17L-5.7714 -17C-5.67081 -8.63047 1.01833 -1.87732 9.25528 -1.87732C9.28674 -1.87732 9.31819 -1.87742 9.34961 -1.87761L9.34961 -1.8764Z" fill="#6038D0"/>
<path fill-rule="evenodd" clip-rule="evenodd" d="M84.7326 13.1497C84.8333 21.4911 91.4785 28.2268 99.6777 28.2712C91.509 28.3152 84.8826 35.0009 84.7336 43.2992L84.7279 43.2992C84.5787 34.9928 77.9397 28.3022 69.76 28.2711C77.9703 28.2398 84.6284 21.4992 84.7293 13.1497L84.7326 13.1497ZM99.8525 28.2713L99.8525 28.2711C99.8485 28.2712 99.8445 28.2712 99.8404 28.2712C99.8445 28.2712 99.8485 28.2713 99.8525 28.2713Z" fill="#6038D0"/>
<path fill-rule="evenodd" clip-rule="evenodd" d="M84.7306 -17C84.8311 -8.63038 91.5203 -1.87713 99.7573 -1.87713C99.7886 -1.87713 99.8198 -1.87723 99.8511 -1.87742L99.8511 -1.87633C99.8198 -1.87652 99.7886 -1.87662 99.7573 -1.87662C91.5521 -1.87662 84.8827 4.82469 84.7321 13.1496L84.7264 13.1496C84.5758 4.8248 77.9066 -1.87644 69.7015 -1.87661L69.7015 -1.87722C77.9383 -1.87739 84.6273 -8.63053 84.7279 -17L84.7306 -17Z" fill="#6038D0"/>
<path fill-rule="evenodd" clip-rule="evenodd" d="M114.88 -17C114.98 -8.63043 121.669 -1.87722 129.906 -1.87722C129.938 -1.87722 129.969 -1.87732 130 -1.87752L130 -1.8764C129.969 -1.8766 129.938 -1.8767 129.906 -1.8767C121.701 -1.8767 115.032 4.82466 114.881 13.1496L114.875 13.1496C114.725 4.82494 108.056 -1.87624 99.8509 -1.8767L99.8509 -1.87732C108.087 -1.87778 114.776 -8.63075 114.877 -17L114.88 -17Z" fill="#6038D0"/>
<path fill-rule="evenodd" clip-rule="evenodd" d="M24.3801 13.1497C24.4808 21.4908 31.1255 28.2263 39.3243 28.2712C31.1561 28.3159 24.5305 35.0013 24.3814 43.2992L24.3758 43.2992C24.2267 34.9951 17.5913 28.3059 9.41475 28.2711C17.6219 28.2361 24.2763 21.4969 24.3772 13.1497L24.3801 13.1497ZM39.5 28.2712L39.5 28.2711C39.4964 28.2711 39.4928 28.2711 39.4892 28.2712C39.4928 28.2712 39.4964 28.2712 39.5 28.2712Z" fill="#6038D0"/>
<path fill-rule="evenodd" clip-rule="evenodd" d="M9.29785 28.2712L9.29785 28.271C9.29427 28.2711 9.29068 28.2711 9.2871 28.2711C9.29068 28.2711 9.29427 28.2711 9.29785 28.2712ZM-5.82202 13.1497C-5.72124 21.4908 0.923448 28.2262 9.12221 28.2711C0.95404 28.3158 -5.67163 35.0013 -5.82062 43.2992L-5.82624 43.2992C-5.97534 34.9951 -12.6108 28.3059 -20.7873 28.271C-12.5802 28.236 -5.92579 21.4969 -5.82484 13.1497L-5.82202 13.1497Z" fill="#6038D0"/>
<path fill-rule="evenodd" clip-rule="evenodd" d="M54.5277 13.1497C54.6283 21.4858 61.265 28.2183 69.457 28.2713C61.2958 28.324 54.6781 35.0063 54.5292 43.2992L54.5235 43.2992C54.3744 34.9951 47.739 28.3059 39.5625 28.2711C47.7696 28.2361 54.424 21.4969 54.5249 13.1497L54.5277 13.1497Z" fill="#6038D0"/>
<path fill-rule="evenodd" clip-rule="evenodd" d="M24.3796 -17C24.4801 -8.63038 31.1692 -1.87713 39.4062 -1.87713C39.4374 -1.87713 39.4684 -1.87723 39.4995 -1.87742L39.4995 -1.87632C39.4684 -1.87651 39.4373 -1.87661 39.4062 -1.87661C31.201 -1.87661 24.5316 4.8247 24.381 13.1496L24.3753 13.1496C24.2247 4.8247 17.5553 -1.87661 9.35007 -1.87661C9.35002 -1.87661 9.34998 -1.87661 9.34993 -1.87661L9.34993 -1.87722C9.34997 -1.87722 9.35002 -1.87722 9.35007 -1.87722C17.587 -1.87722 24.2762 -8.63043 24.3768 -17L24.3796 -17Z" fill="#6038D0"/>
<path fill-rule="evenodd" clip-rule="evenodd" d="M145.031 13.1499C145.132 21.491 151.776 28.2265 159.975 28.2714C151.807 28.3161 145.181 35.0015 145.032 43.2995L145.027 43.2995C144.878 34.9953 138.242 28.3062 130.066 28.2713C138.273 28.2363 144.927 21.4972 145.028 13.1499L145.031 13.1499ZM160.151 28.2715L160.151 28.2713C160.147 28.2714 160.144 28.2714 160.14 28.2714C160.144 28.2714 160.147 28.2715 160.151 28.2715Z" fill="#6038D0"/>
<path fill-rule="evenodd" clip-rule="evenodd" d="M114.829 13.1499C114.93 21.491 121.574 28.2265 129.773 28.2713C121.605 28.3161 114.979 35.0015 114.83 43.2995L114.825 43.2995C114.676 34.9953 108.04 28.3061 99.8636 28.2713C108.071 28.2363 114.725 21.4971 114.826 13.1499L114.829 13.1499ZM129.949 28.2714L129.949 28.2713C129.945 28.2713 129.942 28.2713 129.938 28.2713C129.942 28.2714 129.945 28.2714 129.949 28.2714Z" fill="#6038D0"/>
<path fill-rule="evenodd" clip-rule="evenodd" d="M175.179 13.1499C175.279 21.4861 181.916 28.2186 190.108 28.2715C181.947 28.3243 175.329 35.0066 175.18 43.2995L175.174 43.2995C175.025 34.9953 168.39 28.3062 160.213 28.2713C168.42 28.2363 175.075 21.4972 175.176 13.1499L175.179 13.1499Z" fill="#6038D0"/>
<path fill-rule="evenodd" clip-rule="evenodd" d="M145.03 -16.9998C145.131 -8.63014 151.82 -1.87689 160.057 -1.87689C160.088 -1.87689 160.119 -1.87698 160.15 -1.87718L160.15 -1.87607C160.119 -1.87627 160.088 -1.87636 160.057 -1.87636C151.852 -1.87636 145.182 4.82494 145.032 13.1498L145.026 13.1498C144.876 4.82494 138.206 -1.87636 130.001 -1.87636C130.001 -1.87636 130.001 -1.87636 130.001 -1.87636L130.001 -1.87698C130.001 -1.87698 130.001 -1.87698 130.001 -1.87698C138.238 -1.87698 144.927 -8.63018 145.028 -16.9998L145.03 -16.9998Z" fill="#6038D0"/>
</mask>
<g mask="url(#mask1_9908_107572)">
<path d="M69.2342 1.27275L190.2 -16.6345L160.05 89.4402H-62.3657L69.2342 1.27275Z" fill="#E1FC31"/>
</g>
<mask id="mask2_9908_107572" style="mask-type:alpha" maskUnits="userSpaceOnUse" x="206" y="78" width="242" height="121">
<path fill-rule="evenodd" clip-rule="evenodd" d="M281.381 168.45C281.482 176.819 288.171 183.573 296.408 183.573C296.439 183.573 296.47 183.572 296.501 183.572L296.501 183.573C296.47 183.573 296.439 183.573 296.407 183.573C288.202 183.573 281.532 190.274 281.382 198.599L281.377 198.599C281.226 190.274 274.557 183.573 266.352 183.573L266.352 183.573C274.589 183.573 281.278 176.819 281.378 168.45L281.381 168.45Z" fill="#6038D0"/>
<path fill-rule="evenodd" clip-rule="evenodd" d="M402.032 168.45C402.133 176.819 408.822 183.573 417.059 183.573C417.09 183.573 417.122 183.572 417.153 183.572L417.153 183.573C417.121 183.573 417.09 183.573 417.059 183.573C408.853 183.573 402.184 190.274 402.033 198.599L402.028 198.599C401.878 190.274 395.208 183.573 387.003 183.573L387.003 183.573C395.24 183.573 401.929 176.819 402.03 168.45L402.032 168.45Z" fill="#6038D0"/>
<path fill-rule="evenodd" clip-rule="evenodd" d="M311.479 168.45C311.579 176.819 318.268 183.572 326.505 183.572C326.537 183.572 326.568 183.572 326.599 183.572L326.599 183.573C326.568 183.573 326.536 183.573 326.505 183.573C318.3 183.573 311.63 190.274 311.48 198.599L311.474 198.599C311.324 190.274 304.655 183.573 296.45 183.573L296.45 183.573C304.686 183.573 311.375 176.819 311.476 168.45L311.479 168.45Z" fill="#6038D0"/>
<path fill-rule="evenodd" clip-rule="evenodd" d="M311.479 78.2888C311.579 86.6585 318.268 93.4118 326.505 93.4118C326.537 93.4118 326.568 93.4117 326.599 93.4115L326.599 93.4124C326.568 93.4122 326.536 93.4121 326.505 93.4121C318.3 93.4121 311.63 100.113 311.48 108.438L311.474 108.438C311.324 100.114 304.655 93.4123 296.45 93.4121L296.45 93.4121C304.687 93.4119 311.376 86.6585 311.476 78.2888L311.479 78.2888Z" fill="#6038D0"/>
<path fill-rule="evenodd" clip-rule="evenodd" d="M251.179 168.45C251.279 176.819 257.969 183.573 266.206 183.573C266.237 183.573 266.268 183.572 266.299 183.572L266.299 183.573C266.268 183.573 266.236 183.573 266.205 183.573C258 183.573 251.33 190.274 251.18 198.599L251.175 198.599C251.024 190.274 244.355 183.573 236.15 183.573L236.15 183.573C244.387 183.573 251.076 176.819 251.176 168.45L251.179 168.45Z" fill="#6038D0"/>
<path fill-rule="evenodd" clip-rule="evenodd" d="M371.83 168.45C371.931 176.819 378.62 183.573 386.857 183.573C386.888 183.573 386.919 183.572 386.951 183.572L386.951 183.573C386.919 183.573 386.888 183.573 386.856 183.573C378.651 183.573 371.982 190.274 371.831 198.599L371.826 198.599C371.676 190.274 365.006 183.573 356.801 183.573L356.801 183.573C365.038 183.573 371.727 176.819 371.827 168.45L371.83 168.45Z" fill="#6038D0"/>
<path fill-rule="evenodd" clip-rule="evenodd" d="M221.029 168.45C221.129 176.819 227.819 183.573 236.056 183.573C236.087 183.573 236.118 183.572 236.149 183.572L236.149 183.573C236.118 183.573 236.087 183.573 236.055 183.573C227.85 183.573 221.18 190.274 221.03 198.599L221.025 198.599C220.874 190.274 214.205 183.573 206 183.573L206 183.573C214.237 183.573 220.926 176.819 221.026 168.45L221.029 168.45Z" fill="#6038D0"/>
<path fill-rule="evenodd" clip-rule="evenodd" d="M341.68 168.45C341.78 176.819 348.47 183.573 356.707 183.573C356.738 183.573 356.769 183.572 356.8 183.572L356.8 183.573C356.769 183.573 356.737 183.573 356.706 183.573C348.501 183.573 341.831 190.274 341.681 198.599L341.676 198.599C341.525 190.274 334.856 183.573 326.651 183.573L326.651 183.573C334.888 183.573 341.577 176.819 341.677 168.45L341.68 168.45Z" fill="#6038D0"/>
<path fill-rule="evenodd" clip-rule="evenodd" d="M281.381 138.3C281.481 146.643 288.128 153.38 296.329 153.423C288.159 153.465 281.532 160.151 281.382 168.45L281.377 168.45C281.227 160.144 274.588 153.454 266.409 153.423C274.62 153.391 281.278 146.65 281.378 138.3L281.381 138.3ZM296.501 153.423L296.501 153.423C296.496 153.423 296.491 153.423 296.486 153.423C296.491 153.423 296.496 153.423 296.501 153.423Z" fill="#6038D0"/>
<path fill-rule="evenodd" clip-rule="evenodd" d="M402.032 138.3C402.132 146.643 408.78 153.38 416.98 153.423C408.811 153.465 402.183 160.151 402.033 168.45L402.028 168.45C401.878 160.144 395.239 153.454 387.06 153.423C395.271 153.391 401.929 146.65 402.03 138.3L402.032 138.3ZM417.153 153.423L417.153 153.423C417.148 153.423 417.142 153.423 417.137 153.423C417.142 153.423 417.148 153.423 417.153 153.423Z" fill="#6038D0"/>
<path fill-rule="evenodd" clip-rule="evenodd" d="M251.179 138.3C251.279 146.643 257.926 153.38 266.127 153.423C257.958 153.465 251.33 160.151 251.18 168.45L251.175 168.45C251.025 160.144 244.386 153.454 236.207 153.423C244.417 153.391 251.076 146.65 251.176 138.3L251.179 138.3ZM266.299 153.423L266.299 153.423C266.294 153.423 266.289 153.423 266.284 153.423C266.289 153.423 266.294 153.423 266.299 153.423Z" fill="#6038D0"/>
<path fill-rule="evenodd" clip-rule="evenodd" d="M371.83 138.3C371.93 146.643 378.577 153.38 386.778 153.423C378.608 153.465 371.981 160.151 371.831 168.45L371.825 168.45C371.676 160.144 365.037 153.454 356.858 153.423C365.068 153.391 371.727 146.65 371.827 138.3L371.83 138.3ZM386.95 153.423L386.95 153.423C386.945 153.423 386.94 153.423 386.935 153.423C386.94 153.423 386.945 153.423 386.95 153.423Z" fill="#6038D0"/>
<path fill-rule="evenodd" clip-rule="evenodd" d="M221.029 138.3C221.129 146.643 227.776 153.38 235.977 153.423C227.807 153.465 221.18 160.151 221.03 168.45L221.025 168.45C220.875 160.144 214.236 153.454 206.057 153.423C214.268 153.391 220.926 146.65 221.026 138.3L221.029 138.3ZM236.149 153.423L236.149 153.423C236.144 153.423 236.139 153.423 236.134 153.423C236.139 153.423 236.144 153.423 236.149 153.423Z" fill="#6038D0"/>
<path fill-rule="evenodd" clip-rule="evenodd" d="M341.68 138.3C341.78 146.643 348.427 153.38 356.628 153.423C348.458 153.465 341.831 160.151 341.681 168.45L341.676 168.45C341.526 160.144 334.887 153.454 326.708 153.423C334.918 153.391 341.577 146.65 341.677 138.3L341.68 138.3ZM356.8 153.423L356.8 153.423C356.795 153.423 356.79 153.423 356.785 153.423C356.79 153.423 356.795 153.423 356.8 153.423Z" fill="#6038D0"/>
<path fill-rule="evenodd" clip-rule="evenodd" d="M311.53 138.3C311.63 146.648 318.285 153.388 326.493 153.423C318.316 153.457 311.681 160.146 311.531 168.45L311.526 168.45C311.376 160.146 304.741 153.457 296.564 153.423C304.772 153.388 311.427 146.648 311.527 138.3L311.53 138.3ZM326.651 153.423L326.651 153.422C326.641 153.423 326.631 153.423 326.621 153.423C326.631 153.423 326.641 153.423 326.651 153.423Z" fill="#6038D0"/>
<path fill-rule="evenodd" clip-rule="evenodd" d="M221.082 108.15C221.183 116.49 227.825 123.224 236.022 123.271C227.855 123.318 221.232 130.003 221.083 138.299L221.077 138.299C220.928 129.993 214.289 123.302 206.109 123.271C214.319 123.24 220.977 116.499 221.078 108.15L221.082 108.15ZM236.202 123.271L236.202 123.271C236.199 123.271 236.197 123.271 236.195 123.271C236.197 123.271 236.199 123.271 236.202 123.271Z" fill="#6038D0"/>
<path fill-rule="evenodd" clip-rule="evenodd" d="M221.08 78C221.18 86.3696 227.869 93.1228 236.106 93.1228C236.138 93.1228 236.169 93.1227 236.2 93.1225L236.2 93.1236C236.169 93.1234 236.138 93.1233 236.106 93.1233C227.901 93.1233 221.232 99.8247 221.081 108.15L221.076 108.15C220.925 99.8248 214.256 93.1236 206.051 93.1234L206.051 93.1228C214.287 93.1226 220.976 86.3695 221.077 78L221.08 78Z" fill="#6038D0"/>
<path fill-rule="evenodd" clip-rule="evenodd" d="M251.229 78C251.329 86.3696 258.018 93.1228 266.255 93.1228C266.287 93.1228 266.318 93.1227 266.35 93.1225L266.35 93.1237C266.318 93.1235 266.287 93.1234 266.255 93.1234C258.05 93.1234 251.381 99.8247 251.23 108.15L251.224 108.15C251.074 99.825 244.405 93.1238 236.2 93.1234L236.2 93.1227C244.437 93.1223 251.125 86.3693 251.226 78L251.229 78Z" fill="#6038D0"/>
<path fill-rule="evenodd" clip-rule="evenodd" d="M341.733 108.15C341.833 116.49 348.476 123.224 356.673 123.271C348.506 123.318 341.882 130.003 341.734 138.299L341.728 138.299C341.579 129.993 334.94 123.302 326.76 123.271C334.97 123.24 341.628 116.499 341.729 108.15L341.733 108.15ZM356.853 123.271L356.853 123.271C356.85 123.271 356.848 123.271 356.845 123.271C356.848 123.271 356.85 123.271 356.853 123.271Z" fill="#6038D0"/>
<path fill-rule="evenodd" clip-rule="evenodd" d="M341.731 78C341.831 86.3696 348.52 93.1228 356.757 93.1228C356.789 93.1228 356.82 93.1227 356.851 93.1225L356.851 93.1236C356.82 93.1234 356.789 93.1233 356.757 93.1233C348.552 93.1233 341.883 99.8247 341.732 108.15L341.726 108.15C341.576 99.8248 334.907 93.1236 326.701 93.1234L326.701 93.1228C334.938 93.1226 341.627 86.3695 341.728 78L341.731 78Z" fill="#6038D0"/>
<path fill-rule="evenodd" clip-rule="evenodd" d="M387 93.1237C386.969 93.1235 386.938 93.1234 386.906 93.1234C378.701 93.1234 372.032 99.8247 371.881 108.15L371.875 108.15C371.725 99.825 365.056 93.1238 356.851 93.1234L356.851 93.1227C365.087 93.1223 371.776 86.3693 371.877 78L371.879 78C371.98 86.3696 378.669 93.1227 386.906 93.1227C386.938 93.1227 386.969 93.1226 387 93.1224L387 93.1237Z" fill="#6038D0"/>
<path fill-rule="evenodd" clip-rule="evenodd" d="M281.38 108.15C281.481 116.491 288.126 123.226 296.324 123.271C288.156 123.316 281.53 130.001 281.381 138.299L281.376 138.299C281.227 129.995 274.591 123.306 266.415 123.271C274.622 123.236 281.276 116.497 281.377 108.15L281.38 108.15ZM296.5 123.271L296.5 123.271C296.496 123.271 296.493 123.271 296.489 123.271C296.493 123.271 296.496 123.271 296.5 123.271Z" fill="#6038D0"/>
<path fill-rule="evenodd" clip-rule="evenodd" d="M266.298 123.271L266.298 123.271C266.295 123.271 266.291 123.271 266.288 123.271C266.291 123.271 266.295 123.271 266.298 123.271ZM251.178 108.15C251.279 116.491 257.924 123.226 266.123 123.271C257.954 123.316 251.329 130.001 251.18 138.299L251.174 138.299C251.025 129.995 244.39 123.306 236.213 123.271C244.42 123.236 251.075 116.497 251.176 108.15L251.178 108.15Z" fill="#6038D0"/>
<path fill-rule="evenodd" clip-rule="evenodd" d="M311.528 108.15C311.629 116.486 318.265 123.218 326.457 123.271C318.296 123.324 311.678 130.007 311.529 138.299L311.524 138.299C311.375 129.995 304.739 123.306 296.562 123.271C304.77 123.236 311.424 116.497 311.525 108.15L311.528 108.15Z" fill="#6038D0"/>
<path fill-rule="evenodd" clip-rule="evenodd" d="M281.38 78.0002C281.481 86.3698 288.17 93.1231 296.407 93.1231C296.438 93.1231 296.469 93.123 296.5 93.1228L296.5 93.1239C296.469 93.1237 296.438 93.1236 296.407 93.1236C288.201 93.1236 281.532 99.8249 281.381 108.15L281.376 108.15C281.225 99.8249 274.556 93.1236 266.351 93.1236C266.35 93.1236 266.35 93.1236 266.35 93.1236L266.35 93.123C266.35 93.123 266.35 93.123 266.351 93.123C274.587 93.123 281.277 86.3698 281.377 78.0002L281.38 78.0002Z" fill="#6038D0"/>
<path fill-rule="evenodd" clip-rule="evenodd" d="M402.031 108.15C402.132 116.491 408.776 123.226 416.975 123.271C408.807 123.316 402.181 130.001 402.032 138.299L402.027 138.299C401.878 129.995 395.242 123.306 387.065 123.271C395.273 123.236 401.927 116.497 402.028 108.15L402.031 108.15ZM417.151 123.271L417.151 123.271C417.147 123.271 417.144 123.271 417.14 123.271C417.144 123.271 417.147 123.271 417.151 123.271Z" fill="#6038D0"/>
<path fill-rule="evenodd" clip-rule="evenodd" d="M386.949 123.271L386.949 123.271C386.946 123.271 386.942 123.271 386.938 123.271C386.942 123.271 386.946 123.271 386.949 123.271ZM371.829 108.15C371.93 116.491 378.575 123.226 386.774 123.271C378.605 123.316 371.98 130.001 371.831 138.299L371.825 138.299C371.676 129.995 365.04 123.306 356.864 123.271C365.071 123.236 371.726 116.497 371.827 108.15L371.829 108.15Z" fill="#6038D0"/>
<path fill-rule="evenodd" clip-rule="evenodd" d="M402.031 78.0002C402.131 86.3698 408.821 93.1231 417.058 93.1231C417.089 93.1231 417.12 93.123 417.151 93.1228L417.151 93.1239C417.12 93.1237 417.089 93.1236 417.058 93.1236C408.852 93.1236 402.183 99.8249 402.032 108.15L402.027 108.15C401.876 99.8249 395.207 93.1236 387.001 93.1236C387.001 93.1236 387.001 93.1236 387.001 93.1236L387.001 93.123C387.001 93.123 387.001 93.123 387.001 93.123C395.238 93.123 401.928 86.3698 402.028 78.0002L402.031 78.0002Z" fill="#6038D0"/>
</mask>
<g mask="url(#mask2_9908_107572)">
<path d="M267.396 102.851L341.584 71.97L457.541 306.5H196.79L267.396 102.851Z" fill="#E8E0FF"/>
</g>
<mask id="mask3_9908_107572" style="mask-type:alpha" maskUnits="userSpaceOnUse" x="261" y="162" width="162" height="82">
<path fill-rule="evenodd" clip-rule="evenodd" d="M392.286 202.828C392.353 208.389 396.781 212.879 402.247 212.91C396.802 212.941 392.386 217.397 392.287 222.928L392.283 222.928C392.183 217.392 387.759 212.932 382.308 212.91C387.78 212.887 392.217 208.394 392.284 202.828L392.286 202.828ZM402.366 212.91L402.366 212.91C402.364 212.91 402.363 212.91 402.361 212.91C402.363 212.91 402.364 212.91 402.366 212.91Z" fill="#6038D0"/>
<path fill-rule="evenodd" clip-rule="evenodd" d="M382.231 212.91L382.231 212.91C382.229 212.91 382.227 212.91 382.225 212.91C382.227 212.91 382.229 212.91 382.231 212.91ZM372.151 202.828C372.217 208.389 376.646 212.879 382.111 212.91C376.667 212.941 372.251 217.397 372.151 222.928L372.148 222.928C372.048 217.392 367.624 212.932 362.172 212.91C367.644 212.887 372.082 208.394 372.149 202.828L372.151 202.828Z" fill="#6038D0"/>
<path fill-rule="evenodd" clip-rule="evenodd" d="M362.131 212.91L362.131 212.91C362.129 212.91 362.127 212.91 362.125 212.91C362.127 212.91 362.129 212.91 362.131 212.91ZM352.05 202.828C352.117 208.389 356.546 212.879 362.011 212.91C356.567 212.941 352.151 217.397 352.051 222.928L352.047 222.928C351.948 217.392 347.524 212.932 342.072 212.91C347.544 212.887 351.981 208.394 352.048 202.828L352.05 202.828Z" fill="#6038D0"/>
<path fill-rule="evenodd" clip-rule="evenodd" d="M331.951 162.82C332.018 168.4 336.477 172.902 341.969 172.902C341.99 172.902 342.01 172.902 342.031 172.902L342.031 172.903C342.01 172.902 341.99 172.902 341.969 172.902C336.498 172.902 332.052 177.37 331.952 182.92L331.948 182.92C331.848 177.381 327.419 172.921 321.965 172.902C327.441 172.884 331.882 168.389 331.949 162.82L331.951 162.82Z" fill="#6038D0"/>
<path fill-rule="evenodd" clip-rule="evenodd" d="M321.966 212.91L321.966 212.91C321.964 212.91 321.963 212.91 321.961 212.91C321.963 212.91 321.964 212.91 321.966 212.91ZM311.886 202.828C311.953 208.389 316.381 212.879 321.847 212.91C316.402 212.941 311.987 217.397 311.887 222.928L311.883 222.928C311.783 217.392 307.359 212.932 301.908 212.91C307.38 212.887 311.817 208.394 311.884 202.828L311.886 202.828Z" fill="#6038D0"/>
<path fill-rule="evenodd" clip-rule="evenodd" d="M291.751 202.828C291.817 208.389 296.246 212.879 301.711 212.91C296.267 212.941 291.851 217.397 291.752 222.928L291.748 222.928C291.648 217.392 287.224 212.932 281.772 212.91C287.245 212.887 291.682 208.394 291.749 202.828L291.751 202.828ZM301.831 212.91L301.831 212.91C301.829 212.91 301.827 212.91 301.826 212.91C301.827 212.91 301.829 212.91 301.831 212.91Z" fill="#6038D0"/>
<path fill-rule="evenodd" clip-rule="evenodd" d="M271.651 202.828C271.717 208.389 276.146 212.879 281.611 212.91C276.167 212.941 271.751 217.397 271.651 222.928L271.648 222.928C271.548 217.392 267.124 212.932 261.672 212.91C267.145 212.887 271.582 208.394 271.649 202.828L271.651 202.828ZM281.731 212.91L281.731 212.91C281.729 212.91 281.727 212.91 281.725 212.91C281.727 212.91 281.729 212.91 281.731 212.91Z" fill="#6038D0"/>
<path fill-rule="evenodd" clip-rule="evenodd" d="M331.985 202.828C332.052 208.393 336.487 212.885 341.958 212.91C336.508 212.934 332.086 217.393 331.986 222.928L331.982 222.928C331.882 217.392 327.458 212.932 322.007 212.91C327.479 212.887 331.916 208.394 331.983 202.828L331.985 202.828ZM342.066 212.91L342.066 212.91C342.06 212.91 342.054 212.91 342.048 212.91C342.054 212.91 342.06 212.91 342.066 212.91Z" fill="#6038D0"/>
<path fill-rule="evenodd" clip-rule="evenodd" d="M352.086 182.727C352.153 188.286 356.58 192.776 362.044 192.808C356.601 192.84 352.186 197.296 352.087 202.827L352.083 202.827C351.984 197.291 347.559 192.831 342.108 192.808C347.579 192.785 352.016 188.292 352.084 182.727L352.086 182.727ZM362.166 192.808L362.166 192.808C362.165 192.808 362.164 192.808 362.163 192.808C362.164 192.808 362.165 192.808 362.166 192.808Z" fill="#6038D0"/>
<path fill-rule="evenodd" clip-rule="evenodd" d="M352.085 162.627C352.152 168.207 356.611 172.709 362.102 172.709C362.123 172.709 362.144 172.709 362.165 172.709L362.165 172.709C362.144 172.709 362.123 172.709 362.102 172.709C356.632 172.709 352.186 177.177 352.085 182.727L352.082 182.727C351.981 177.177 347.535 172.709 342.065 172.709L342.065 172.709C347.556 172.709 352.016 168.207 352.083 162.627L352.085 162.627Z" fill="#6038D0"/>
<path fill-rule="evenodd" clip-rule="evenodd" d="M372.184 162.627C372.251 168.207 376.71 172.709 382.202 172.709C382.223 172.709 382.244 172.709 382.265 172.708L382.265 172.709C382.244 172.709 382.223 172.709 382.202 172.709C376.731 172.709 372.285 177.177 372.185 182.727L372.181 182.727C372.081 177.177 367.635 172.709 362.165 172.709L362.165 172.709C367.656 172.708 372.115 168.206 372.182 162.627L372.184 162.627Z" fill="#6038D0"/>
<path fill-rule="evenodd" clip-rule="evenodd" d="M271.686 182.727C271.753 188.286 276.18 192.776 281.644 192.808C276.201 192.84 271.786 197.296 271.687 202.827L271.683 202.827C271.584 197.291 267.159 192.831 261.708 192.808C267.18 192.785 271.616 188.292 271.684 182.727L271.686 182.727ZM281.766 192.808L281.766 192.808C281.765 192.808 281.764 192.808 281.763 192.808C281.764 192.808 281.765 192.808 281.766 192.808Z" fill="#6038D0"/>
<path fill-rule="evenodd" clip-rule="evenodd" d="M271.685 162.627C271.752 168.207 276.211 172.709 281.703 172.709C281.723 172.709 281.744 172.709 281.765 172.709L281.765 172.709C281.744 172.709 281.723 172.709 281.702 172.709C276.232 172.709 271.786 177.177 271.686 182.727L271.682 182.727C271.582 177.177 267.135 172.709 261.665 172.709L261.665 172.709C267.156 172.709 271.616 168.207 271.683 162.627L271.685 162.627Z" fill="#6038D0"/>
<path fill-rule="evenodd" clip-rule="evenodd" d="M291.784 162.627C291.851 168.207 296.31 172.709 301.802 172.709C301.823 172.709 301.844 172.709 301.865 172.708L301.865 172.709C301.844 172.709 301.823 172.709 301.802 172.709C296.331 172.709 291.885 177.177 291.785 182.727L291.781 182.727C291.681 177.177 287.235 172.709 281.765 172.709L281.765 172.709C287.256 172.708 291.715 168.206 291.782 162.627L291.784 162.627Z" fill="#6038D0"/>
<path fill-rule="evenodd" clip-rule="evenodd" d="M392.287 182.727C392.354 188.286 396.782 192.776 402.245 192.808C396.802 192.84 392.387 197.296 392.288 202.827L392.284 202.827C392.185 197.29 387.76 192.831 382.309 192.808C387.781 192.785 392.217 188.292 392.285 182.727L392.287 182.727ZM402.367 192.808L402.367 192.808C402.366 192.808 402.365 192.808 402.364 192.808C402.365 192.808 402.366 192.808 402.367 192.808Z" fill="#6038D0"/>
<path fill-rule="evenodd" clip-rule="evenodd" d="M372.152 182.727C372.219 188.286 376.647 192.776 382.111 192.808C376.667 192.84 372.252 197.296 372.153 202.827L372.149 202.827C372.05 197.29 367.626 192.831 362.174 192.808C367.646 192.785 372.083 188.292 372.15 182.727L372.152 182.727ZM382.232 192.808L382.232 192.808C382.231 192.808 382.23 192.808 382.229 192.808C382.23 192.808 382.231 192.808 382.232 192.808Z" fill="#6038D0"/>
<path fill-rule="evenodd" clip-rule="evenodd" d="M392.286 162.627C392.353 168.207 396.813 172.709 402.304 172.709C402.325 172.709 402.346 172.709 402.366 172.708L402.366 172.709C402.346 172.709 402.325 172.709 402.304 172.709C396.834 172.709 392.388 177.177 392.287 182.727L392.284 182.727C392.183 177.177 387.737 172.709 382.267 172.709C382.267 172.709 382.266 172.709 382.266 172.709L382.266 172.709C382.266 172.709 382.267 172.709 382.267 172.709C387.758 172.709 392.217 168.207 392.284 162.627L392.286 162.627Z" fill="#6038D0"/>
<path fill-rule="evenodd" clip-rule="evenodd" d="M311.885 182.727C311.953 188.286 316.38 192.776 321.844 192.808C316.4 192.84 311.986 197.296 311.886 202.827L311.883 202.827C311.783 197.29 307.359 192.831 301.907 192.808C307.379 192.785 311.816 188.292 311.884 182.727L311.885 182.727ZM321.965 192.808L321.965 192.808C321.964 192.808 321.963 192.808 321.963 192.808C321.963 192.808 321.964 192.808 321.965 192.808Z" fill="#6038D0"/>
<path fill-rule="evenodd" clip-rule="evenodd" d="M291.751 182.727C291.818 188.286 296.245 192.776 301.709 192.808C296.266 192.84 291.851 197.296 291.752 202.827L291.748 202.827C291.649 197.29 287.224 192.831 281.773 192.808C287.244 192.785 291.681 188.292 291.749 182.727L291.751 182.727ZM301.831 192.808L301.831 192.808C301.83 192.808 301.829 192.808 301.828 192.808C301.829 192.808 301.83 192.808 301.831 192.808Z" fill="#6038D0"/>
<path fill-rule="evenodd" clip-rule="evenodd" d="M342.065 192.808L342.065 192.808C342.064 192.808 342.062 192.808 342.061 192.808C342.062 192.808 342.064 192.808 342.065 192.808ZM331.984 182.727C332.051 188.287 336.478 192.776 341.942 192.808C336.499 192.84 332.084 197.296 331.985 202.827L331.981 202.827C331.882 197.29 327.457 192.831 322.005 192.808C327.477 192.785 331.914 188.292 331.982 182.727L331.984 182.727Z" fill="#6038D0"/>
<path fill-rule="evenodd" clip-rule="evenodd" d="M311.885 162.627C311.952 168.207 316.411 172.709 321.903 172.709C321.923 172.709 321.944 172.709 321.965 172.709L321.965 172.709C321.944 172.709 321.923 172.709 321.903 172.709C316.432 172.709 311.986 177.177 311.886 182.727L311.882 182.727C311.782 177.177 307.335 172.709 301.865 172.709C301.865 172.709 301.865 172.709 301.865 172.709L301.865 172.709C301.865 172.709 301.865 172.709 301.865 172.709C307.356 172.709 311.816 168.207 311.883 162.627L311.885 162.627Z" fill="#6038D0"/>
</mask>
<g mask="url(#mask3_9908_107572)">
<path d="M324.158 137.959L422.466 162.627L405.106 229.323L261.666 243.027L324.158 137.959Z" fill="#0C422A"/>
</g>
<path fill-rule="evenodd" clip-rule="evenodd" d="M377.319 38.2C377.386 43.7798 381.846 48.2821 387.337 48.2821C387.358 48.2821 387.379 48.282 387.4 48.2819L387.4 48.2826C387.379 48.2824 387.358 48.2824 387.337 48.2824C381.867 48.2824 377.421 52.7499 377.32 58.2998L377.317 58.2998C377.216 52.75 372.77 48.2826 367.3 48.2824L367.3 48.2823C372.791 48.2821 377.251 43.7798 377.318 38.2L377.319 38.2Z" fill="#6038D0"/>
<path fill-rule="evenodd" clip-rule="evenodd" d="M337.119 38.2C337.186 43.7798 341.646 48.2821 347.137 48.2821C347.158 48.2821 347.179 48.282 347.2 48.2819L347.2 48.2826C347.179 48.2824 347.158 48.2824 347.137 48.2824C341.667 48.2824 337.221 52.7499 337.12 58.2998L337.116 58.2998C337.016 52.75 332.57 48.2826 327.1 48.2824L327.1 48.2823C332.591 48.2821 337.051 43.7798 337.117 38.2L337.119 38.2Z" fill="#6038D0"/>
<path fill-rule="evenodd" clip-rule="evenodd" d="M317.019 38.2C317.086 43.7798 321.546 48.2821 327.037 48.2821C327.058 48.2821 327.079 48.282 327.1 48.2819L327.1 48.2826C327.079 48.2824 327.058 48.2824 327.037 48.2824C321.567 48.2824 317.121 52.7499 317.02 58.2998L317.016 58.2998C316.916 52.75 312.47 48.2826 307 48.2824L307 48.2823C312.491 48.282 316.95 43.7797 317.017 38.2L317.019 38.2Z" fill="#6038D0"/>
<path fill-rule="evenodd" clip-rule="evenodd" d="M357.255 18.1006C357.321 23.6583 361.746 28.147 367.208 28.1824C361.767 28.2176 357.355 32.6721 357.256 38.2004L357.252 38.2004C357.152 32.6642 352.728 28.2048 347.276 28.1822C352.749 28.1596 357.186 23.6662 357.253 18.1006L357.255 18.1006Z" fill="#6038D0"/>
<path fill-rule="evenodd" clip-rule="evenodd" d="M337.119 18.1006C337.186 23.6583 341.611 28.147 347.072 28.1823C341.632 28.2176 337.22 32.6721 337.12 38.2004L337.117 38.2004C337.017 32.6643 332.593 28.2049 327.142 28.1822C332.614 28.1594 337.051 23.6661 337.118 18.1006L337.119 18.1006Z" fill="#6038D0"/>
<path fill-rule="evenodd" clip-rule="evenodd" d="M317.019 18.1006C317.086 23.6583 321.511 28.147 326.972 28.1824C321.532 28.2176 317.12 32.6721 317.02 38.2004L317.016 38.2004C316.917 32.6642 312.493 28.2048 307.041 28.1822C312.513 28.1596 316.95 23.6662 317.017 18.1006L317.019 18.1006Z" fill="#6038D0"/>
<path fill-rule="evenodd" clip-rule="evenodd" d="M377.353 18.1006C377.42 23.664 381.854 28.156 387.323 28.1822C381.875 28.2083 377.454 32.6664 377.354 38.2004L377.35 38.2004C377.251 32.6642 372.826 28.2048 367.375 28.1822C372.847 28.1596 377.284 23.6662 377.351 18.1006L377.353 18.1006ZM387.434 28.1823L387.434 28.1822C387.429 28.1822 387.424 28.1822 387.419 28.1822C387.424 28.1823 387.429 28.1823 387.434 28.1823Z" fill="#6038D0"/>
<path fill-rule="evenodd" clip-rule="evenodd" d="M337.119 -2C337.186 3.55923 341.614 8.04856 347.078 8.08082C341.634 8.11296 337.219 12.5692 337.12 18.0998L337.116 18.0998C337.017 12.5632 332.593 8.10331 327.141 8.08073C332.613 8.05806 337.05 3.56515 337.117 -2L337.119 -2ZM347.199 8.08084L347.199 8.0808C347.198 8.08081 347.197 8.08081 347.196 8.08082C347.197 8.08082 347.198 8.08083 347.199 8.08084Z" fill="#6038D0"/>
<path fill-rule="evenodd" clip-rule="evenodd" d="M271.652 11.6951C271.719 17.2751 276.179 21.7775 281.67 21.7775C281.691 21.7775 281.712 21.7774 281.733 21.7773L281.733 21.7778C281.712 21.7776 281.691 21.7776 281.67 21.7776C276.2 21.7776 271.754 26.245 271.653 31.7949L271.65 31.7949C271.549 26.2563 267.121 21.7958 261.666 21.7776C267.142 21.7593 271.584 17.2638 271.65 11.6951L271.652 11.6951Z" fill="#E1FC31"/>
<path fill-rule="evenodd" clip-rule="evenodd" d="M231.452 11.6951C231.519 17.2751 235.979 21.7775 241.47 21.7775C241.491 21.7775 241.512 21.7774 241.533 21.7773L241.533 21.7778C241.512 21.7776 241.491 21.7776 241.47 21.7776C236 21.7776 231.554 26.245 231.453 31.7949L231.449 31.7949C231.349 26.2563 226.921 21.7958 221.466 21.7776C226.942 21.7593 231.384 17.2638 231.45 11.6951L231.452 11.6951Z" fill="#E1FC31"/>
<path fill-rule="evenodd" clip-rule="evenodd" d="M211.352 11.6951C211.419 17.2751 215.879 21.7775 221.37 21.7775C221.391 21.7775 221.412 21.7774 221.433 21.7773L221.433 21.7778C221.412 21.7776 221.391 21.7776 221.37 21.7776C215.9 21.7776 211.454 26.245 211.353 31.7949L211.349 31.7949C211.249 26.2563 206.821 21.7958 201.366 21.7776C206.842 21.7593 211.284 17.2638 211.35 11.6951L211.352 11.6951Z" fill="#E1FC31"/>
<path fill-rule="evenodd" clip-rule="evenodd" d="M251.588 -8.40503C251.654 -2.84595 256.081 1.64357 261.544 1.67689C256.102 1.71009 251.688 6.16531 251.589 11.6948L251.585 11.6948C251.485 6.15865 247.061 1.69938 241.609 1.6768C247.082 1.65413 251.519 -2.83938 251.586 -8.40503L251.588 -8.40503ZM261.668 1.6769L261.668 1.67689C261.668 1.67689 261.667 1.67689 261.667 1.67689C261.667 1.6769 261.668 1.6769 261.668 1.6769Z" fill="#E1FC31"/>
<path fill-rule="evenodd" clip-rule="evenodd" d="M231.452 -8.40503C231.519 -2.84595 235.946 1.64357 241.409 1.67689C235.967 1.71009 231.553 6.16531 231.453 11.6948L231.449 11.6948C231.349 6.15865 226.925 1.69938 221.474 1.6768C226.946 1.65413 231.383 -2.83938 231.45 -8.40503L231.452 -8.40503ZM241.533 1.6769L241.533 1.67689C241.532 1.67689 241.532 1.67689 241.531 1.67689C241.532 1.6769 241.532 1.6769 241.533 1.6769Z" fill="#E1FC31"/>
<path fill-rule="evenodd" clip-rule="evenodd" d="M211.352 -8.40503C211.419 -2.84595 215.845 1.64357 221.309 1.67689C215.866 1.71009 211.453 6.16531 211.353 11.6948L211.349 11.6948C211.249 6.15865 206.825 1.69938 201.374 1.6768C206.846 1.65413 211.283 -2.83938 211.35 -8.40503L211.352 -8.40503ZM221.433 1.6769L221.433 1.67689C221.432 1.67689 221.432 1.67689 221.431 1.67689C221.432 1.6769 221.432 1.6769 221.433 1.6769Z" fill="#E1FC31"/>
<path fill-rule="evenodd" clip-rule="evenodd" d="M271.686 -8.40503C271.753 -2.83935 276.19 1.65418 281.662 1.67685C276.211 1.69943 271.787 6.15868 271.687 11.6948L271.683 11.6948C271.584 6.15868 267.159 1.69943 261.708 1.67685C267.18 1.65418 271.618 -2.83935 271.684 -8.40503L271.686 -8.40503ZM281.767 1.67696L281.767 1.67674C281.76 1.67678 281.753 1.67682 281.746 1.67685C281.753 1.67688 281.76 1.67692 281.767 1.67696Z" fill="#E1FC31"/>
<path fill-rule="evenodd" clip-rule="evenodd" d="M70.2853 197.711C70.3522 203.291 74.8117 207.793 80.3031 207.793C80.324 207.793 80.3449 207.793 80.3657 207.793L80.3657 207.794C80.3449 207.793 80.324 207.793 80.3031 207.793C74.8329 207.793 70.3866 212.261 70.2863 217.811L70.2824 217.811C70.1823 212.272 65.7538 207.811 60.2988 207.793C65.775 207.775 70.2166 203.28 70.2833 197.711L70.2853 197.711Z" fill="#F6E3DD"/>
<path fill-rule="evenodd" clip-rule="evenodd" d="M30.0851 197.711C30.152 203.291 34.6115 207.793 40.1029 207.793C40.1238 207.793 40.1447 207.793 40.1655 207.793L40.1655 207.794C40.1447 207.793 40.1238 207.793 40.1029 207.793C34.6327 207.793 30.1864 212.261 30.0861 217.811L30.0822 217.811C29.9821 212.275 25.5582 207.816 20.1072 207.793C25.5795 207.771 30.0166 203.277 30.0832 197.711L30.0851 197.711Z" fill="#F6E3DD"/>
<path fill-rule="evenodd" clip-rule="evenodd" d="M9.985 197.711C10.0519 203.291 14.5114 207.793 20.0028 207.793C20.0237 207.793 20.0446 207.793 20.0654 207.793L20.0654 207.794C20.0446 207.793 20.0237 207.793 20.0028 207.793C14.5326 207.793 10.0863 212.261 9.98597 217.811L9.98212 217.811C9.88199 212.272 5.45349 207.811 -0.00154539 207.793C5.47466 207.775 9.91633 203.28 9.98302 197.711L9.985 197.711Z" fill="#F6E3DD"/>
<path fill-rule="evenodd" clip-rule="evenodd" d="M50.2204 177.612C50.2872 183.174 54.7187 187.665 60.1861 187.694C54.7396 187.722 50.3211 192.179 50.2213 197.712L50.2174 197.712C50.1176 192.175 45.6935 187.716 40.2421 187.693C45.7143 187.671 50.1514 183.177 50.2184 177.612L50.2204 177.612ZM60.3008 187.694L60.3008 187.694C60.2973 187.694 60.2938 187.694 60.2903 187.694C60.2938 187.694 60.2973 187.694 60.3008 187.694Z" fill="#F6E3DD"/>
<path fill-rule="evenodd" clip-rule="evenodd" d="M40.1655 187.694L40.1655 187.693C40.162 187.693 40.1585 187.694 40.1551 187.694C40.1585 187.694 40.162 187.694 40.1655 187.694ZM30.0851 177.612C30.1519 183.174 34.5834 187.665 40.0508 187.694C34.6043 187.722 30.1858 192.179 30.0861 197.712L30.0822 197.712C29.9825 192.176 25.5584 187.716 20.1072 187.693C25.5793 187.671 30.0163 183.177 30.0832 177.612L30.0851 177.612Z" fill="#F6E3DD"/>
<path fill-rule="evenodd" clip-rule="evenodd" d="M9.985 177.612C10.0518 183.174 14.4833 187.665 19.9507 187.694C14.5042 187.722 10.0857 192.179 9.98595 197.712L9.98206 197.712C9.88228 192.175 5.45814 187.716 0.00676492 187.693C5.47897 187.671 9.91607 183.177 9.98301 177.612L9.985 177.612ZM20.0654 187.694L20.0654 187.694C20.0619 187.694 20.0585 187.694 20.055 187.694C20.0585 187.694 20.0619 187.694 20.0654 187.694Z" fill="#F6E3DD"/>
<path fill-rule="evenodd" clip-rule="evenodd" d="M70.319 177.612C70.3859 183.174 74.818 187.666 80.286 187.693C74.8388 187.721 70.4196 192.179 70.3199 197.712L70.3162 197.712C70.2164 192.175 65.7923 187.716 60.3409 187.693C65.8131 187.671 70.2502 183.177 70.3171 177.612L70.319 177.612ZM80.3999 187.694L80.3999 187.693C80.3958 187.693 80.3918 187.693 80.3877 187.693C80.3918 187.694 80.3958 187.694 80.3999 187.694Z" fill="#F6E3DD"/>
<path fill-rule="evenodd" clip-rule="evenodd" d="M30.0851 157.511C30.1522 163.071 34.5796 167.56 40.0435 167.592C34.6002 167.625 30.1855 172.081 30.0861 177.611L30.0823 177.611C29.9828 172.075 25.5586 167.615 20.107 167.592C25.5791 167.57 30.0161 163.077 30.0833 157.511L30.0851 157.511ZM40.165 167.592L40.165 167.592C40.1642 167.592 40.1633 167.592 40.1624 167.592C40.1633 167.592 40.1642 167.592 40.165 167.592Z" fill="#F6E3DD"/>
<path fill-rule="evenodd" clip-rule="evenodd" d="M286.222 83.3C286.289 88.8799 290.748 93.3823 296.24 93.3823C296.261 93.3823 296.281 93.3822 296.302 93.3821L296.302 93.3825C296.281 93.3824 296.261 93.3823 296.24 93.3823C290.769 93.3823 286.323 97.8499 286.223 103.4L286.219 103.4C286.119 97.8612 281.69 93.4006 276.236 93.3824C281.712 93.3641 286.153 88.8687 286.22 83.3L286.222 83.3Z" fill="#19D992"/>
<path fill-rule="evenodd" clip-rule="evenodd" d="M266.087 83.3C266.153 88.8799 270.613 93.3823 276.104 93.3823C276.125 93.3823 276.146 93.3822 276.167 93.3821L276.167 93.3825C276.146 93.3824 276.125 93.3823 276.104 93.3823C270.634 93.3823 266.188 97.8499 266.088 103.4L266.084 103.4C265.984 97.8612 261.555 93.4006 256.1 93.3824C261.576 93.3641 266.018 88.8687 266.085 83.3L266.087 83.3Z" fill="#19D992"/>
<path fill-rule="evenodd" clip-rule="evenodd" d="M245.986 83.3C246.053 88.8799 250.513 93.3823 256.004 93.3823C256.025 93.3823 256.046 93.3822 256.067 93.3821L256.067 93.3825C256.046 93.3824 256.025 93.3823 256.004 93.3823C250.534 93.3823 246.088 97.8499 245.987 103.4L245.984 103.4C245.883 97.8612 241.455 93.4006 236 93.3824C241.476 93.3641 245.918 88.8687 245.985 83.3L245.986 83.3Z" fill="#19D992"/>
<path fill-rule="evenodd" clip-rule="evenodd" d="M286.22 63.2C286.287 68.7576 290.711 73.2462 296.173 73.2816C290.732 73.3169 286.321 77.7714 286.221 83.2998L286.217 83.2998C286.117 77.7635 281.693 73.3042 276.242 73.2816C281.714 73.2589 286.151 68.7655 286.218 63.2L286.22 63.2Z" fill="#19D992"/>
<path fill-rule="evenodd" clip-rule="evenodd" d="M266.085 63.2C266.152 68.7576 270.577 73.2462 276.038 73.2816C270.597 73.3169 266.186 77.7714 266.086 83.2998L266.082 83.2998C265.983 77.7635 261.558 73.3042 256.107 73.2816C261.579 73.2589 266.016 68.7655 266.083 63.2L266.085 63.2Z" fill="#19D992"/>
<path fill-rule="evenodd" clip-rule="evenodd" d="M245.985 63.2C246.052 68.7576 250.477 73.2462 255.938 73.2816C250.497 73.3169 246.086 77.7714 245.986 83.2998L245.982 83.2998C245.882 77.7635 241.458 73.3042 236.007 73.2816C241.479 73.2589 245.916 68.7655 245.983 63.2L245.985 63.2Z" fill="#19D992"/>
<path fill-rule="evenodd" clip-rule="evenodd" d="M246.022 43.0999C246.089 48.6566 250.513 53.1445 255.973 53.1809C250.533 53.2171 246.122 57.6717 246.023 63.1997L246.019 63.1997C245.92 57.6632 241.496 53.2035 236.044 53.1808C241.516 53.158 245.953 48.665 246.02 43.0999L246.022 43.0999Z" fill="#19D992"/>
<path fill-rule="evenodd" clip-rule="evenodd" d="M266.12 23C266.187 28.5798 270.646 33.082 276.138 33.082C276.159 33.082 276.18 33.0819 276.201 33.0818L276.201 33.0825C276.18 33.0824 276.159 33.0823 276.138 33.0823C270.667 33.0823 266.221 37.5499 266.121 43.0998L266.117 43.0998C266.017 37.5501 261.571 33.0827 256.101 33.0823L256.101 33.082C261.592 33.0816 266.051 28.5795 266.118 23L266.12 23Z" fill="#19D992"/>
<path fill-rule="evenodd" clip-rule="evenodd" d="M296.301 53.1809L296.301 53.1808C296.3 53.1808 296.3 53.1808 296.299 53.1808C296.3 53.1808 296.3 53.1809 296.301 53.1809ZM286.221 43.0999C286.289 48.6591 290.716 53.1485 296.18 53.1808C290.736 53.2131 286.322 57.6692 286.222 63.1997L286.219 63.1997C286.119 57.6668 281.701 53.2092 276.254 53.1807C281.721 53.1522 286.152 48.6614 286.22 43.0999L286.221 43.0999Z" fill="#19D992"/>
<path fill-rule="evenodd" clip-rule="evenodd" d="M276.167 53.1807L276.167 53.1806C276.166 53.1806 276.165 53.1806 276.164 53.1807C276.165 53.1807 276.166 53.1807 276.167 53.1807ZM266.087 43.0996C266.154 48.6589 270.581 53.1484 276.045 53.1807C270.602 53.2128 266.187 57.6689 266.087 63.1994L266.084 63.1994C265.984 57.6629 261.56 53.2031 256.108 53.1806C261.58 53.1579 266.017 48.6649 266.085 43.0996L266.087 43.0996Z" fill="#19D992"/>
<path fill-rule="evenodd" clip-rule="evenodd" d="M316.401 53.1807L316.401 53.1806C316.4 53.1806 316.399 53.1806 316.397 53.1807C316.399 53.1807 316.4 53.1807 316.401 53.1807ZM306.32 43.0996C306.387 48.659 310.815 53.1484 316.279 53.1807C310.835 53.2128 306.42 57.6689 306.321 63.1994L306.317 63.1994C306.218 57.6629 301.794 53.2032 296.342 53.1806C301.814 53.1579 306.251 48.6649 306.318 43.0996L306.32 43.0996Z" fill="#19D992"/>
<path fill-rule="evenodd" clip-rule="evenodd" d="M228.928 212.695C228.995 218.255 233.422 222.744 238.886 222.777C233.443 222.809 229.028 227.265 228.929 232.795L228.925 232.795C228.825 227.259 224.401 222.799 218.95 222.777C224.422 222.754 228.859 218.261 228.926 212.695L228.928 212.695ZM239.008 222.777L239.008 222.777C239.007 222.777 239.006 222.777 239.005 222.777C239.006 222.777 239.007 222.777 239.008 222.777Z" fill="#6038D0"/>
<path fill-rule="evenodd" clip-rule="evenodd" d="M208.793 212.695C208.859 218.255 213.287 222.744 218.751 222.777C213.308 222.809 208.893 227.265 208.794 232.795L208.79 232.795C208.69 227.259 204.266 222.799 198.814 222.777C204.287 222.754 208.724 218.261 208.791 212.695L208.793 212.695ZM218.873 222.777L218.873 222.777C218.872 222.777 218.871 222.777 218.87 222.777C218.871 222.777 218.872 222.777 218.873 222.777Z" fill="#6038D0"/>
<path fill-rule="evenodd" clip-rule="evenodd" d="M188.693 212.695C188.76 218.255 193.187 222.744 198.651 222.777C193.208 222.809 188.794 227.265 188.694 232.795L188.69 232.795C188.59 227.259 184.166 222.799 178.715 222.777C184.187 222.754 188.624 218.261 188.691 212.695L188.693 212.695ZM198.773 222.777L198.773 222.777C198.772 222.777 198.771 222.777 198.77 222.777C198.771 222.777 198.772 222.777 198.773 222.777Z" fill="#6038D0"/>
<path fill-rule="evenodd" clip-rule="evenodd" d="M188.728 192.594C188.795 198.154 193.223 202.643 198.687 202.675C193.243 202.708 188.828 207.164 188.729 212.694L188.725 212.694C188.626 207.158 184.202 202.698 178.75 202.675C184.222 202.653 188.659 198.16 188.726 192.594L188.728 192.594ZM198.808 202.675L198.808 202.675C198.807 202.675 198.806 202.675 198.805 202.675C198.806 202.675 198.807 202.675 198.808 202.675Z" fill="#6038D0"/>
<path fill-rule="evenodd" clip-rule="evenodd" d="M208.826 172.495C208.893 178.074 213.352 182.576 218.844 182.576C218.865 182.576 218.886 182.576 218.907 182.576L218.907 182.577C218.886 182.577 218.865 182.577 218.844 182.577C213.373 182.577 208.927 187.044 208.827 192.594L208.823 192.594C208.723 187.045 204.277 182.577 198.807 182.577L198.807 182.576C204.298 182.576 208.757 178.074 208.824 172.495L208.826 172.495Z" fill="#6038D0"/>
<path fill-rule="evenodd" clip-rule="evenodd" d="M228.927 192.594C228.995 198.154 233.422 202.643 238.886 202.675C233.442 202.708 229.028 207.164 228.928 212.694L228.925 212.694C228.825 207.158 224.401 202.698 218.949 202.675C224.421 202.653 228.858 198.16 228.926 192.594L228.927 192.594ZM239.007 202.675L239.007 202.675C239.006 202.675 239.006 202.675 239.005 202.675C239.006 202.675 239.006 202.675 239.007 202.675Z" fill="#6038D0"/>
<path fill-rule="evenodd" clip-rule="evenodd" d="M208.793 192.594C208.86 198.154 213.287 202.643 218.751 202.676C213.308 202.708 208.893 207.164 208.794 212.694L208.79 212.694C208.69 207.158 204.266 202.698 198.815 202.676C204.287 202.653 208.724 198.16 208.791 192.594L208.793 192.594ZM218.873 202.676L218.873 202.676C218.872 202.676 218.871 202.676 218.87 202.676C218.871 202.676 218.872 202.676 218.873 202.676Z" fill="#6038D0"/>
<path fill-rule="evenodd" clip-rule="evenodd" d="M259.107 202.676L259.107 202.676C259.106 202.676 259.105 202.676 259.103 202.676C259.105 202.676 259.106 202.676 259.107 202.676ZM249.026 192.594C249.093 198.154 253.521 202.643 258.984 202.676C253.541 202.708 249.126 207.164 249.027 212.694L249.023 212.694C248.924 207.158 244.5 202.698 239.048 202.676C244.52 202.653 248.957 198.16 249.024 192.594L249.026 192.594Z" fill="#6038D0"/>
<path fill-rule="evenodd" clip-rule="evenodd" d="M392 132.843C392.034 135.632 394.262 137.883 397.007 137.883C397.017 137.883 397.028 137.883 397.038 137.883L397.038 137.884C397.028 137.884 397.017 137.884 397.007 137.884C394.273 137.884 392.051 140.117 392.001 142.892L391.999 142.892C391.949 140.127 389.742 137.899 387.021 137.884C389.752 137.869 391.966 135.623 392 132.843L392 132.843Z" fill="#E8E0FF"/>
<path fill-rule="evenodd" clip-rule="evenodd" d="M392 122.792C392.034 125.578 394.256 127.826 396.994 127.833C394.266 127.84 392.05 130.071 392.001 132.842L391.999 132.842C391.949 130.071 389.733 127.84 387.005 127.833C389.744 127.826 391.966 125.578 392 122.792L392 122.792ZM397.038 127.833C397.032 127.833 397.026 127.833 397.019 127.833C397.026 127.833 397.032 127.833 397.038 127.833L397.038 127.833Z" fill="#E8E0FF"/>
<path fill-rule="evenodd" clip-rule="evenodd" d="M392.018 122.793L392.02 122.793C392.069 120.031 394.27 117.805 396.985 117.783C394.26 117.761 392.053 115.519 392.019 112.743L392.019 112.743C391.985 115.523 389.771 117.768 387.039 117.783C389.761 117.798 391.968 120.026 392.018 122.793Z" fill="#E8E0FF"/>
<path fill-rule="evenodd" clip-rule="evenodd" d="M387.009 107.733C387.009 107.733 387.009 107.733 387.009 107.733C389.753 107.733 391.982 105.482 392.016 102.692L392.016 102.692C392.05 105.482 394.279 107.733 397.023 107.733C397.033 107.733 397.044 107.733 397.054 107.733L397.054 107.734C397.044 107.733 397.033 107.733 397.023 107.733C394.289 107.733 392.067 109.967 392.017 112.742L392.015 112.742C391.965 109.967 389.743 107.733 387.009 107.733C387.009 107.733 387.009 107.733 387.009 107.733L387.009 107.733Z" fill="#E8E0FF"/>
<path fill-rule="evenodd" clip-rule="evenodd" d="M371.925 142.892C371.875 140.127 369.667 137.899 366.946 137.884C369.678 137.869 371.892 135.623 371.925 132.843L371.926 132.843C371.959 135.632 374.188 137.883 376.933 137.883C376.943 137.883 376.954 137.883 376.964 137.883L376.964 137.884C376.953 137.884 376.943 137.884 376.933 137.884C374.199 137.884 371.977 140.117 371.926 142.892L371.925 142.892Z" fill="#E8E0FF"/>
<path fill-rule="evenodd" clip-rule="evenodd" d="M381.953 112.839C381.903 110.068 379.687 107.837 376.959 107.83C379.698 107.823 381.92 105.575 381.953 102.789L381.954 102.789C381.987 105.579 384.216 107.83 386.961 107.83C386.971 107.83 386.981 107.83 386.992 107.83L386.992 107.83C386.981 107.83 386.971 107.83 386.961 107.83C384.227 107.83 382.004 110.064 381.954 112.839L381.953 112.839Z" fill="#E8E0FF"/>
<path fill-rule="evenodd" clip-rule="evenodd" d="M361.862 142.892C361.812 140.127 359.604 137.899 356.883 137.884C359.615 137.869 361.829 135.623 361.862 132.843L361.863 132.843C361.897 135.632 364.125 137.883 366.87 137.883C366.88 137.883 366.891 137.883 366.901 137.883L366.901 137.884C366.89 137.884 366.88 137.884 366.87 137.884C364.136 137.884 361.914 140.117 361.863 142.892L361.862 142.892Z" fill="#E8E0FF"/>
<path fill-rule="evenodd" clip-rule="evenodd" d="M351.816 142.892C351.766 140.127 349.559 137.899 346.837 137.884C349.569 137.869 351.783 135.623 351.817 132.843L351.817 132.843C351.851 135.632 354.079 137.883 356.824 137.883C356.834 137.883 356.845 137.883 356.855 137.883L356.855 137.884C356.845 137.884 356.834 137.884 356.824 137.884C354.09 137.884 351.868 140.117 351.818 142.892L351.816 142.892Z" fill="#E8E0FF"/>
<path fill-rule="evenodd" clip-rule="evenodd" d="M361.862 122.792C361.896 125.578 364.118 127.826 366.856 127.833C364.128 127.84 361.912 130.071 361.862 132.842L361.861 132.842C361.811 130.071 359.595 127.84 356.867 127.833C359.606 127.826 361.828 125.578 361.861 122.792L361.862 122.792ZM366.9 127.833C366.894 127.833 366.887 127.833 366.881 127.833C366.887 127.833 366.894 127.833 366.9 127.833L366.9 127.833Z" fill="#E8E0FF"/>
<path fill-rule="evenodd" clip-rule="evenodd" d="M381.97 132.842C381.92 130.071 379.705 127.84 376.976 127.833C379.715 127.826 381.937 125.578 381.971 122.792L381.971 122.792C382.005 125.582 384.234 127.833 386.978 127.833C386.989 127.833 386.999 127.833 387.009 127.833L387.009 127.833C386.999 127.833 386.989 127.833 386.978 127.833C384.244 127.833 382.022 130.067 381.972 132.842L381.97 132.842Z" fill="#E8E0FF"/>
<path fill-rule="evenodd" clip-rule="evenodd" d="M351.834 122.793L351.836 122.793C351.886 120.031 354.086 117.805 356.802 117.783C354.076 117.761 351.869 115.519 351.836 112.743L351.835 112.743C351.801 115.523 349.587 117.768 346.856 117.783C349.577 117.798 351.785 120.027 351.834 122.793Z" fill="#E8E0FF"/>
<path fill-rule="evenodd" clip-rule="evenodd" d="M346.826 107.733C349.57 107.733 351.799 105.482 351.833 102.692L351.833 102.692C351.867 105.482 354.096 107.733 356.84 107.733C356.851 107.733 356.861 107.733 356.872 107.733L356.872 107.733C356.861 107.733 356.851 107.733 356.84 107.733C354.106 107.733 351.884 109.967 351.834 112.742L351.832 112.742C351.782 109.967 349.56 107.733 346.826 107.733L346.826 107.733Z" fill="#E8E0FF"/>
<path fill-rule="evenodd" clip-rule="evenodd" d="M356.872 107.733C356.872 107.733 356.872 107.733 356.872 107.733C359.617 107.733 361.845 105.482 361.879 102.692L361.88 102.692C361.913 105.482 364.142 107.733 366.886 107.733C366.897 107.733 366.907 107.733 366.917 107.733L366.917 107.733C366.907 107.733 366.897 107.733 366.886 107.733C364.152 107.733 361.93 109.967 361.88 112.742L361.878 112.742C361.828 109.967 359.606 107.733 356.872 107.733C356.872 107.733 356.872 107.733 356.872 107.733L356.872 107.733Z" fill="#E8E0FF"/>
<path fill-rule="evenodd" clip-rule="evenodd" d="M371.926 122.793L371.927 122.793C371.977 120.031 374.177 117.805 376.893 117.783C374.167 117.761 371.96 115.519 371.927 112.743L371.926 112.743C371.893 115.523 369.679 117.768 366.947 117.783C369.668 117.798 371.876 120.026 371.926 122.793Z" fill="#E8E0FF"/>
<path fill-rule="evenodd" clip-rule="evenodd" d="M361.863 112.743C361.897 115.519 364.104 117.761 366.83 117.783C364.114 117.805 361.913 120.031 361.864 122.793L361.862 122.793C361.813 120.026 359.605 117.798 356.883 117.783C359.615 117.768 361.829 115.523 361.863 112.743L361.863 112.743Z" fill="#E8E0FF"/>
<path fill-rule="evenodd" clip-rule="evenodd" d="M381.97 112.743C382.003 115.517 384.208 117.759 386.932 117.783C384.218 117.807 382.02 120.032 381.97 122.793L381.969 122.793C381.919 120.026 379.712 117.798 376.99 117.783C379.722 117.768 381.936 115.523 381.969 112.743L381.97 112.743Z" fill="#E8E0FF"/>
<path fill-rule="evenodd" clip-rule="evenodd" d="M256.448 119.503C256.398 116.732 254.183 114.501 251.454 114.494C254.193 114.487 256.415 112.239 256.449 109.453L256.449 109.453C256.483 112.243 258.712 114.494 261.456 114.494C261.467 114.494 261.477 114.494 261.487 114.494L261.487 114.494C261.477 114.494 261.467 114.494 261.456 114.494C258.722 114.494 256.5 116.728 256.45 119.503L256.448 119.503Z" fill="white"/>
<path fill-rule="evenodd" clip-rule="evenodd" d="M236.339 119.503C236.289 116.737 234.082 114.509 231.36 114.494C234.092 114.479 236.306 112.234 236.339 109.453L236.34 109.453C236.374 112.243 238.602 114.494 241.347 114.494C241.357 114.494 241.368 114.494 241.378 114.494L241.378 114.494C241.368 114.494 241.357 114.494 241.347 114.494C238.613 114.494 236.391 116.728 236.341 119.503L236.339 119.503Z" fill="white"/>
<path fill-rule="evenodd" clip-rule="evenodd" d="M256.451 99.4033C256.484 102.181 258.694 104.425 261.423 104.444C258.705 104.463 256.501 106.69 256.451 109.453L256.45 109.453C256.4 106.678 254.177 104.444 251.443 104.444C251.443 104.444 251.443 104.444 251.443 104.444L251.443 104.444C251.443 104.444 251.443 104.444 251.443 104.444C254.188 104.444 256.417 102.193 256.45 99.4033L256.451 99.4033Z" fill="white"/>
<path fill-rule="evenodd" clip-rule="evenodd" d="M246.388 99.4033C246.421 102.181 248.631 104.425 251.36 104.444C248.642 104.463 246.438 106.69 246.388 109.453L246.387 109.453C246.337 106.678 244.114 104.444 241.38 104.444C241.38 104.444 241.38 104.444 241.38 104.444L241.38 104.444C241.38 104.444 241.38 104.444 241.38 104.444C244.125 104.444 246.354 102.193 246.387 99.4033L246.388 99.4033Z" fill="white"/>
<path fill-rule="evenodd" clip-rule="evenodd" d="M236.341 99.4033C236.375 102.181 238.585 104.425 241.313 104.444C238.595 104.463 236.392 106.69 236.342 109.453L236.34 109.453C236.29 106.678 234.068 104.444 231.334 104.444L231.334 104.444C234.079 104.444 236.307 102.193 236.341 99.4033L236.341 99.4033Z" fill="white"/>
<mask id="mask4_9908_107572" style="mask-type:alpha" maskUnits="userSpaceOnUse" x="-89" y="-9" width="162" height="81">
<path fill-rule="evenodd" clip-rule="evenodd" d="M42.546 51.8943C42.613 57.4741 47.0725 61.9764 52.5639 61.9764C52.5848 61.9764 52.6056 61.9763 52.6265 61.9762L52.6265 61.9769C52.6056 61.9768 52.5848 61.9767 52.5639 61.9767C47.0937 61.9767 42.6475 66.4442 42.547 71.9941L42.5431 71.9941C42.4426 66.4443 37.9966 61.9769 32.5266 61.9766C38.0179 61.9764 42.4772 57.4741 42.544 51.8943L42.546 51.8943Z" fill="#6038D0"/>
<path fill-rule="evenodd" clip-rule="evenodd" d="M62.611 51.8943C62.6779 57.4741 67.1374 61.9764 72.6288 61.9764C72.6497 61.9764 72.6706 61.9763 72.6914 61.9762L72.6914 61.9769C72.6706 61.9768 72.6497 61.9767 72.6288 61.9767C67.1587 61.9767 62.7124 66.4442 62.612 71.9941L62.608 71.9941C62.5076 66.4443 58.0616 61.9769 52.5916 61.9766C58.0829 61.9764 62.5422 57.4741 62.609 51.8943L62.611 51.8943Z" fill="#6038D0"/>
<path fill-rule="evenodd" clip-rule="evenodd" d="M62.611 -8.21314C62.678 -2.63337 67.1375 1.8688 72.6288 1.8688C72.6497 1.8688 72.6706 1.86874 72.6914 1.86861L72.6914 1.86906C72.6706 1.86893 72.6497 1.86887 72.6288 1.86887C67.1585 1.86887 62.7122 6.3366 62.6119 11.8867L62.6081 11.8867C62.5081 6.34792 58.0797 1.8871 52.6247 1.86893C58.1007 1.85064 62.5422 -2.64466 62.609 -8.21314L62.611 -8.21314Z" fill="#6038D0"/>
<path fill-rule="evenodd" clip-rule="evenodd" d="M22.4108 51.8943C22.4777 57.4741 26.9372 61.9764 32.4286 61.9764C32.4495 61.9764 32.4704 61.9763 32.4912 61.9762L32.4912 61.9769C32.4704 61.9768 32.4495 61.9767 32.4286 61.9767C26.9585 61.9767 22.5122 66.4442 22.4118 71.9941L22.4078 71.9941C22.3074 66.4443 17.8614 61.9768 12.3914 61.9766C17.8827 61.9764 22.342 57.4741 22.4088 51.8943L22.4108 51.8943Z" fill="#6038D0"/>
<path fill-rule="evenodd" clip-rule="evenodd" d="M2.31069 51.8943C2.3776 57.4741 6.83711 61.9764 12.3285 61.9764C12.3494 61.9764 12.3703 61.9763 12.3911 61.9762L12.3911 61.9769C12.3703 61.9768 12.3494 61.9767 12.3285 61.9767C6.85836 61.9767 2.41212 66.4442 2.31166 71.9941L2.30772 71.9941C2.2073 66.4443 -2.23872 61.9769 -7.70872 61.9766C-2.21743 61.9764 2.24189 57.4741 2.30869 51.8943L2.31069 51.8943Z" fill="#6038D0"/>
<path fill-rule="evenodd" clip-rule="evenodd" d="M42.5462 31.7947C42.6129 37.3524 47.0375 41.8411 52.499 41.8765C47.0584 41.9117 42.6468 46.3662 42.5472 51.8945L42.5433 51.8945C42.4435 46.3583 38.0194 41.8989 32.568 41.8763C38.0402 41.8536 42.4773 37.3602 42.5442 31.7947L42.5462 31.7947Z" fill="#6038D0"/>
<path fill-rule="evenodd" clip-rule="evenodd" d="M22.411 31.7947C22.4777 37.3524 26.9023 41.8411 32.3638 41.8765C26.9232 41.9117 22.5116 46.3662 22.4119 51.8945L22.408 51.8945C22.3083 46.3583 17.8841 41.8989 12.4327 41.8763C17.9049 41.8536 22.342 37.3602 22.409 31.7947L22.411 31.7947Z" fill="#6038D0"/>
<path fill-rule="evenodd" clip-rule="evenodd" d="M2.31087 31.7947C2.37758 37.3524 6.80216 41.8411 12.2637 41.8765C6.82306 41.9117 2.41146 46.3662 2.31183 51.8945L2.30795 51.8945C2.2082 46.3583 -2.21595 41.8989 -7.66734 41.8763C-2.19515 41.8536 2.24195 37.3602 2.3089 31.7947L2.31087 31.7947Z" fill="#6038D0"/>
<path fill-rule="evenodd" clip-rule="evenodd" d="M62.6452 31.7947C62.7121 37.3585 67.1464 41.8508 72.6162 41.8763C67.1672 41.9017 62.7458 46.36 62.6461 51.8945L62.6424 51.8945C62.5426 46.3583 58.1185 41.8989 52.6671 41.8763C58.1393 41.8536 62.5764 37.3602 62.6433 31.7947L62.6452 31.7947ZM72.7261 41.8764L72.7261 41.8762C72.7207 41.8763 72.7152 41.8763 72.7098 41.8763C72.7152 41.8764 72.7207 41.8764 72.7261 41.8764Z" fill="#6038D0"/>
<path fill-rule="evenodd" clip-rule="evenodd" d="M2.34589 11.6941C2.41318 17.2532 6.84054 21.7425 12.3043 21.7748C6.86076 21.8071 2.44595 26.2633 2.34681 31.7939L2.34302 31.7939C2.24377 26.2573 -2.18045 21.7975 -7.63205 21.7747C-2.16029 21.752 2.27649 17.2591 2.34395 11.6941L2.34589 11.6941ZM12.4263 21.7749L12.4263 21.7748C12.4252 21.7748 12.4242 21.7748 12.4232 21.7748C12.4242 21.7748 12.4252 21.7748 12.4263 21.7749Z" fill="#6038D0"/>
<path fill-rule="evenodd" clip-rule="evenodd" d="M2.3449 -8.40625C2.41202 -2.82659 6.87145 1.67547 12.3627 1.67547C12.3836 1.67547 12.4045 1.67541 12.4253 1.67528L12.4253 1.67602C12.4044 1.67589 12.3836 1.67583 12.3627 1.67583C6.89241 1.67583 2.4461 6.14352 2.34582 11.6936L2.34205 11.6936C2.24177 6.14362 -2.20438 1.67599 -7.67454 1.67583L-7.67454 1.67547C-2.18338 1.67531 2.27589 -2.82669 2.34301 -8.40625L2.3449 -8.40625Z" fill="#6038D0"/>
<path fill-rule="evenodd" clip-rule="evenodd" d="M22.444 -8.40625C22.5111 -2.82659 26.9706 1.67547 32.4619 1.67547C32.4829 1.67547 32.5039 1.6754 32.5249 1.67527L32.5249 1.67603C32.5039 1.67589 32.4829 1.67583 32.4619 1.67583C26.9916 1.67583 22.5453 6.14352 22.445 11.6936L22.4412 11.6936C22.3409 6.14377 17.895 1.67623 12.4251 1.67583L12.4251 1.67547C17.916 1.67507 22.3751 -2.82684 22.4422 -8.40625L22.444 -8.40625Z" fill="#6038D0"/>
<path fill-rule="evenodd" clip-rule="evenodd" d="M42.5455 11.6941C42.6127 17.2533 47.0401 21.7426 52.5039 21.7749C47.0604 21.8072 42.6456 26.2633 42.5464 31.7939L42.5427 31.7939C42.4434 26.2574 38.0192 21.7975 32.5676 21.7748C38.0394 21.752 42.4762 17.2592 42.5436 11.6941L42.5455 11.6941ZM52.6255 21.7749L52.6255 21.7749C52.6246 21.7749 52.6237 21.7749 52.6228 21.7749C52.6237 21.7749 52.6246 21.7749 52.6255 21.7749Z" fill="#6038D0"/>
<path fill-rule="evenodd" clip-rule="evenodd" d="M22.4107 11.6941C22.478 17.2533 26.9054 21.7426 32.3691 21.7749C26.9256 21.8072 22.5109 26.2633 22.4117 31.7939L22.408 31.7939C22.3087 26.2574 17.8845 21.7975 12.4329 21.7748C17.9047 21.752 22.3415 17.2592 22.4089 11.6941L22.4107 11.6941ZM32.4907 21.7749L32.4907 21.7749C32.4898 21.7749 32.4889 21.7749 32.488 21.7749C32.4889 21.7749 32.4898 21.7749 32.4907 21.7749Z" fill="#6038D0"/>
<path fill-rule="evenodd" clip-rule="evenodd" d="M72.7256 21.7749L72.7256 21.7749C72.7242 21.7749 72.7228 21.7749 72.7215 21.7749C72.7228 21.7749 72.7242 21.7749 72.7256 21.7749ZM62.6442 11.6941C62.7114 17.2533 67.1388 21.7426 72.6026 21.7749C67.1591 21.8072 62.7443 26.2633 62.6451 31.7939L62.6414 31.7939C62.5421 26.2574 58.1179 21.7975 52.6663 21.7748C58.1381 21.752 62.5749 17.2592 62.6423 11.6941L62.6442 11.6941Z" fill="#6038D0"/>
<path fill-rule="evenodd" clip-rule="evenodd" d="M42.5455 -8.40625C42.6126 -2.82658 47.072 1.67548 52.5633 1.67548C52.5841 1.67548 52.6048 1.67542 52.6255 1.67529L52.6255 1.67603C52.6048 1.67591 52.5841 1.67584 52.5633 1.67584C47.093 1.67584 42.6467 6.14352 42.5465 11.6936L42.5427 11.6936C42.4424 6.14353 37.9961 1.67584 32.5258 1.67584C32.5258 1.67584 32.5257 1.67584 32.5257 1.67584L32.5257 1.67548C32.5257 1.67548 32.5258 1.67548 32.5258 1.67548C38.0171 1.67548 42.4765 -2.82658 42.5436 -8.40625L42.5455 -8.40625Z" fill="#6038D0"/>
</mask>
<g mask="url(#mask4_9908_107572)">
<path d="M-111 -46L52.1755 -14.5709L34.8164 52.1245L-40.8327 69.6664L-111 -46Z" fill="#6038D0"/>
</g>
</g>
</g>
<defs>
<clipPath id="clip0_9908_107572">
<rect width="402" height="219" rx="2.92364" fill="white"/>
</clipPath>
</defs>
</svg>
