<svg width="20" height="20" viewBox="0 0 20 20" fill="none" stroke-width="1" xmlns="http://www.w3.org/2000/svg">
<g clip-path="url(#clip0_6333:45916)">
<path d="M4.1801 4.37431L9.49991 2.68354L9.50014 5.65718L9.50017 6.04006L8.16831 6.46336L7.81976 6.57414V6.93987V7.68873L2.5 9.37948V6.02287L3.83155 5.59967L4.1801 5.48889V5.12316V4.37431ZM10.4999 6.4059V6.02296L11.8317 5.59967L12.1802 5.48889V5.12316V4.37431L17.5 2.68356V6.04016L16.1685 6.46336L15.8199 6.57414V6.93987V7.68873L10.4999 9.37957V6.4059ZM12.1802 13.0601V12.3113L17.5 10.6205V13.9771L16.1685 14.4003L15.8199 14.5111V14.8768V15.6257L10.5001 17.3165L10.4999 14.3428L10.4998 13.9599L11.8317 13.5366L12.1802 13.4259V13.0601ZM9.50014 13.5941V13.977L8.16831 14.4003L7.81976 14.5111V14.8768V15.6257L2.5 17.3164V13.9598L3.83155 13.5366L4.1801 13.4259V13.0601V12.3113L9.50014 10.6204V13.5941Z" stroke="#6038D0"/>
<rect x="-1292" y="-824" width="13972" height="25758" stroke="#13A36E" stroke-width="40"/>
</g>
<defs>
<clipPath id="clip0_6333:45916">
<rect width="20" height="20" fill="white"/>
</clipPath>
</defs>
</svg>
