<svg width="20" height="20" viewBox="0 0 20 20" fill="none" xmlns="http://www.w3.org/2000/svg">
<rect x="2" y="2" width="16" height="16" rx="2" fill="#C1B0F1"/>
<path fill-rule="evenodd" clip-rule="evenodd" d="M2 3.23077C2 3.00601 2.04883 2.79537 2.13379 2.61403C2.20898 2.45508 2.31152 2.31866 2.43457 2.21499C2.5957 2.07933 2.79004 2 3 2H17C17.5527 2 18 2.55108 18 3.23077V16.7692C18 17.4489 17.5527 18 17 18H3C2.44727 18 2 17.4489 2 16.7692V3.23077ZM3 4.46154C3 3.78185 3.44727 3.23077 4 3.23077H16C16.5527 3.23077 17 3.78185 17 4.46154V10.6154C17 11.2951 16.5527 11.8462 16 11.8462H4C3.44727 11.8462 3 11.2951 3 10.6154V4.46154ZM7.5 15.5385C7.22363 15.5385 7 15.814 7 16.1538C7 16.4937 7.22363 16.7692 7.5 16.7692H16.5C16.7764 16.7692 17 16.4937 17 16.1538C17 15.814 16.7764 15.5385 16.5 15.5385H7.5ZM7 13.6923C7 13.3525 7.22363 13.0769 7.5 13.0769H16.5C16.7764 13.0769 17 13.3525 17 13.6923C17 14.0322 16.7764 14.3077 16.5 14.3077H7.5C7.22363 14.3077 7 14.0322 7 13.6923ZM6 14.9231C6 15.9426 5.32812 16.7692 4.5 16.7692C3.67188 16.7692 3 15.9426 3 14.9231C3 13.9035 3.67188 13.0769 4.5 13.0769C5.32812 13.0769 6 13.9035 6 14.9231Z" fill="#4B28AB"/>
</svg>
