<svg width="20" height="20" viewBox="0 0 20 20" fill="none" xmlns="http://www.w3.org/2000/svg" stroke-width="2">
<path fill-rule="evenodd" clip-rule="evenodd" d="M2.22266 3.45343C2.22266 3.22867 2.27148 3.01803 2.35645 2.83669C2.43164 2.67773 2.53418 2.54132 2.65723 2.43765C2.81836 2.30198 3.0127 2.22266 3.22266 2.22266H17.2227C17.7754 2.22266 18.2227 2.77374 18.2227 3.45343V16.9919C18.2227 17.6716 17.7754 18.2227 17.2227 18.2227H3.22266C2.66992 18.2227 2.22266 17.6716 2.22266 16.9919V3.45343ZM3.22266 4.68419C3.22266 4.00451 3.66992 3.45343 4.22266 3.45343H16.2227C16.7754 3.45343 17.2227 4.00451 17.2227 4.68419V10.838C17.2227 11.5177 16.7754 12.0688 16.2227 12.0688H4.22266C3.66992 12.0688 3.22266 11.5177 3.22266 10.838V4.68419ZM7.72266 15.7611C7.44629 15.7611 7.22266 16.0367 7.22266 16.3765C7.22266 16.7163 7.44629 16.9919 7.72266 16.9919H16.7227C16.999 16.9919 17.2227 16.7163 17.2227 16.3765C17.2227 16.0367 16.999 15.7611 16.7227 15.7611H7.72266ZM7.22266 13.915C7.22266 13.5751 7.44629 13.2996 7.72266 13.2996H16.7227C16.999 13.2996 17.2227 13.5751 17.2227 13.915C17.2227 14.2548 16.999 14.5303 16.7227 14.5303H7.72266C7.44629 14.5303 7.22266 14.2548 7.22266 13.915ZM6.22266 15.1457C6.22266 16.1653 5.55078 16.9919 4.72266 16.9919C3.89453 16.9919 3.22266 16.1653 3.22266 15.1457C3.22266 14.1262 3.89453 13.2996 4.72266 13.2996C5.55078 13.2996 6.22266 14.1262 6.22266 15.1457Z" fill="#4B28AB"/>
</svg>
