<svg width="38" height="38" viewBox="0 0 38 38" fill="none" xmlns="http://www.w3.org/2000/svg">
  <circle cx="19" cy="19" r="18.5" fill="white" stroke="#201F1F"/>
  <path d="M19 11C20.0609 11 21.0783 11.4214 21.8284 12.1716C22.5786 12.9217 23 13.9391 23 15C23 16.0609 22.5786 17.0783 21.8284 17.8284C21.0783 18.5786 20.0609 19 19 19C17.9391 19 16.9217 18.5786 16.1716 17.8284C15.4214 17.0783 15 16.0609 15 15C15 13.9391 15.4214 12.9217 16.1716 12.1716C16.9217 11.4214 17.9391 11 19 11V11ZM19 21C23.42 21 27 22.79 27 25V27H11V25C11 22.79 14.58 21 19 21Z" fill="#434343"/>
</svg>
