<svg width="20" height="20" viewBox="0 0 20 20" fill="none" xmlns="http://www.w3.org/2000/svg">
<rect width="20" height="20" fill="white"/>
<mask id="path-1-inside-1_6165:46282" fill="white">
<path fill-rule="evenodd" clip-rule="evenodd" d="M5.2481 6.20835L16.6243 2.22266V9.48573C16.3615 9.45351 16.0938 9.43691 15.822 9.43691C12.2913 9.43691 9.4283 12.2397 9.42189 15.6995L2.22266 18.2218V9.47897L5.2481 8.419V6.20835Z"/>
</mask>
<path d="M16.6243 2.22266H17.6243V0.812707L16.2937 1.2789L16.6243 2.22266ZM5.2481 6.20835L4.91746 5.26459L4.2481 5.4991V6.20835H5.2481ZM16.6243 9.48573L16.5026 10.4783L17.6243 10.6158V9.48573H16.6243ZM9.42189 15.6995L9.75253 16.6433L10.4206 16.4092L10.4219 15.7014L9.42189 15.6995ZM2.22266 18.2218H1.22266V19.6317L2.5533 19.1655L2.22266 18.2218ZM2.22266 9.47897L1.89201 8.53521L1.22266 8.76972V9.47897H2.22266ZM5.2481 8.419L5.57875 9.36275L6.2481 9.12824V8.419H5.2481ZM16.2937 1.2789L4.91746 5.26459L5.57875 7.1521L16.955 3.16641L16.2937 1.2789ZM17.6243 9.48573V2.22266H15.6243V9.48573H17.6243ZM15.822 10.4369C16.053 10.4369 16.2801 10.451 16.5026 10.4783L16.746 8.49316C16.4429 8.456 16.1345 8.43691 15.822 8.43691V10.4369ZM10.4219 15.7014C10.4272 12.8116 12.8242 10.4369 15.822 10.4369V8.43691C11.7584 8.43691 8.42936 11.6678 8.42189 15.6977L10.4219 15.7014ZM2.5533 19.1655L9.75253 16.6433L9.09124 14.7558L1.89201 17.278L2.5533 19.1655ZM1.22266 9.47897V18.2218H3.22266V9.47897H1.22266ZM4.91746 7.47524L1.89201 8.53521L2.5533 10.4227L5.57875 9.36275L4.91746 7.47524ZM4.2481 6.20835V8.419H6.2481V6.20835H4.2481Z" fill="#4B28AB" mask="url(#path-1-inside-1_6165:46282)"/>
<path d="M15.8223 13.3594V18.0651" stroke="#4B28AB" stroke-linecap="square" stroke-linejoin="round"/>
<path d="M18.222 15.7129H13.4219" stroke="#4B28AB" stroke-linecap="square" stroke-linejoin="round"/>
</svg>
