<svg width="18" height="18" viewBox="0 0 18 18" fill="none" xmlns="http://www.w3.org/2000/svg">
    <mask id="path-1-inside-1_8306_51754" fill="white">
        <path fill-rule="evenodd" clip-rule="evenodd" d="M4.64648 5.48739L14.6007 2V8.35506C14.3711 8.32697 14.1373 8.3125 13.8999 8.3125C10.8105 8.3125 8.3053 10.765 8.29981 13.7924L6.97711 14.2558L2 15.9994V8.34969L4.64648 7.42252V5.48739Z"/>
    </mask>
    <path d="M14.6007 2H15.6007V0.590063L14.2701 1.05624L14.6007 2ZM4.64648 5.48739L4.31585 4.54363L3.64648 4.77814V5.48739H4.64648ZM14.6007 8.35506L14.4792 9.34766L15.6007 9.4849V8.35506H14.6007ZM8.29981 13.7924L8.63045 14.7361L9.29853 14.5021L9.29981 13.7942L8.29981 13.7924ZM6.97711 14.2558L6.64647 13.312H6.64647L6.97711 14.2558ZM2 15.9994H1V17.4094L2.33064 16.9432L2 15.9994ZM2 8.34969L1.66936 7.40593L1 7.64044V8.34969H2ZM4.64648 7.42252L4.97712 8.36627L5.64648 8.13177V7.42252H4.64648ZM14.2701 1.05624L4.31585 4.54363L4.97712 6.43115L14.9313 2.94376L14.2701 1.05624ZM15.6007 8.35506V2H13.6007V8.35506H15.6007ZM13.8999 9.3125C14.0966 9.3125 14.2899 9.32449 14.4792 9.34766L14.7222 7.36247C14.4524 7.32946 14.178 7.3125 13.8999 7.3125V9.3125ZM9.29981 13.7942C9.30427 11.3369 11.3433 9.3125 13.8999 9.3125V7.3125C10.2776 7.3125 7.30634 10.1931 7.29982 13.7905L9.29981 13.7942ZM7.30774 15.1995L8.63045 14.7361L7.96918 12.8486L6.64647 13.312L7.30774 15.1995ZM2.33064 16.9432L7.30775 15.1995L6.64647 13.312L1.66936 15.0557L2.33064 16.9432ZM1 8.34969V15.9994H3V8.34969H1ZM4.31585 6.47876L1.66936 7.40593L2.33064 9.29345L4.97712 8.36627L4.31585 6.47876ZM3.64648 5.48739V7.42252H5.64648V5.48739H3.64648Z" fill="#4B28AB" mask="url(#path-1-inside-1_8306_51754)"/>
    <path d="M14.8462 12.9615C14.8462 12.4427 14.6618 11.9989 14.293 11.6301C13.9242 11.2613 13.4804 11.0769 12.9615 11.0769C12.4427 11.0769 11.9989 11.2613 11.6301 11.6301C11.2613 11.9989 11.0769 12.4427 11.0769 12.9615C11.0769 13.4804 11.2613 13.9242 11.6301 14.293C11.9989 14.6618 12.4427 14.8462 12.9615 14.8462C13.4804 14.8462 13.9242 14.6618 14.293 14.293C14.6618 13.9242 14.8462 13.4804 14.8462 12.9615ZM17 16.4615C17 16.6074 16.9467 16.7336 16.8401 16.8401C16.7336 16.9467 16.6074 17 16.4615 17C16.3101 17 16.1839 16.9467 16.0829 16.8401L14.64 15.4014C14.138 15.7492 13.5785 15.9231 12.9615 15.9231C12.5605 15.9231 12.177 15.8453 11.811 15.6896C11.445 15.534 11.1295 15.3236 10.8645 15.0586C10.5995 14.7936 10.3891 14.4781 10.2335 14.1121C10.0778 13.7461 10 13.3626 10 12.9615C10 12.5605 10.0778 12.177 10.2335 11.811C10.3891 11.445 10.5995 11.1295 10.8645 10.8645C11.1295 10.5995 11.445 10.3891 11.811 10.2335C12.177 10.0778 12.5605 10 12.9615 10C13.3626 10 13.7461 10.0778 14.1121 10.2335C14.4781 10.3891 14.7936 10.5995 15.0586 10.8645C15.3236 11.1295 15.534 11.445 15.6896 11.811C15.8453 12.177 15.9231 12.5605 15.9231 12.9615C15.9231 13.5785 15.7492 14.138 15.4014 14.64L16.8444 16.0829C16.9481 16.1867 17 16.3129 17 16.4615Z" fill="#4B28AB"/>
</svg>
