<svg width="24" height="24" viewBox="0 0 24 24" fill="none" xmlns="http://www.w3.org/2000/svg">
    <path d="M12.4999 11.3796V9.08946C12.4999 8.41279 11.8418 7.93147 11.197 8.13643L10.5169 8.35258C10.1017 8.48452 9.81976 8.87001 9.81976 9.30561V9.68873L4.5 11.3795L4.5 8.02287L5.48299 7.71045C5.89813 7.57851 6.1801 7.19302 6.1801 6.75743V6.37431L11.4999 4.68354L11.5001 6.97367C11.5001 7.65031 12.1581 8.13157 12.803 7.92662L13.4831 7.71045C13.8983 7.57851 14.1802 7.19302 14.1802 6.75743V6.3743L19.5 4.68356L19.5 8.04016L18.517 8.35258C18.1019 8.48452 17.8199 8.87001 17.8199 9.30561V9.68873L12.4999 11.3796ZM11.5001 12.6204V15.5941V15.977L10.5169 16.2895C10.1017 16.4215 9.81976 16.807 9.81976 17.2426V17.6257L4.5 19.3164L4.5 15.9598L4.34855 15.4833L4.5 15.9598L5.48299 15.6474C5.89813 15.5155 6.1801 15.13 6.1801 14.6944L6.1801 14.3113L11.5001 12.6204ZM12.4999 16.3428L12.4998 15.9599L13.4831 15.6474C13.8983 15.5155 14.1802 15.13 14.1802 14.6944L14.1802 14.3113L19.5 12.6205V15.9771L18.517 16.2895C18.1019 16.4215 17.8199 16.807 17.8199 17.2426V17.6257L12.5001 19.3165L12.4999 16.3428Z" fill="#19D992" stroke="#19D992"/>
</svg>
