<svg width="24" height="24" viewBox="0 0 24 24" fill="none" xmlns="http://www.w3.org/2000/svg">
<path fill-rule="evenodd" clip-rule="evenodd" d="M4 6C4 5.81738 4.04883 5.64624 4.13379 5.4989C4.20898 5.36975 4.31152 5.25891 4.43457 5.17468C4.5957 5.06445 4.79004 5 5 5H19C19.5527 5 20 5.44775 20 6V17C20 17.5522 19.5527 18 19 18H5C4.44727 18 4 17.5522 4 17V6ZM5 7C5 6.44775 5.44727 6 6 6H18C18.5527 6 19 6.44775 19 7V12C19 12.5522 18.5527 13 18 13H6C5.44727 13 5 12.5522 5 12V7ZM9.5 16C9.22363 16 9 16.2239 9 16.5C9 16.7761 9.22363 17 9.5 17H18.5C18.7764 17 19 16.7761 19 16.5C19 16.2239 18.7764 16 18.5 16H9.5ZM9 14.5C9 14.2239 9.22363 14 9.5 14H18.5C18.7764 14 19 14.2239 19 14.5C19 14.7761 18.7764 15 18.5 15H9.5C9.22363 15 9 14.7761 9 14.5ZM8 15.5C8 16.3284 7.32812 17 6.5 17C5.67188 17 5 16.3284 5 15.5C5 14.6716 5.67188 14 6.5 14C7.32812 14 8 14.6716 8 15.5Z" fill="#6038D0"/>
</svg>
