<svg width="20" height="20" viewBox="0 0 20 20" fill="none" xmlns="http://www.w3.org/2000/svg">
<path d="M14.803 2L4.69029 5.83462V7.96239L2 8.98251V17.3939L12.1127 13.5593V11.4315L14.803 10.4114V2Z" fill="#4B28AB"/>
<path d="M17.9985 17.7537V16.0435C17.9985 15.1363 17.6894 14.2663 17.1392 13.6249C16.589 12.9834 15.8428 12.623 15.0648 12.623H9.19737C8.41931 12.623 7.67311 12.9834 7.12293 13.6249C6.57276 14.2663 6.26367 15.1363 6.26367 16.0435V17.7537" fill="white"/>
<path d="M12.2865 13.7342C14.3487 13.7342 16.0203 12.0636 16.0203 10.0029C16.0203 7.94208 14.3487 6.27148 12.2865 6.27148C10.2244 6.27148 8.55273 7.94208 8.55273 10.0029C8.55273 12.0636 10.2244 13.7342 12.2865 13.7342Z" fill="white"/>
<path d="M17.2641 18.0012V16.5353C17.2641 15.7577 16.9936 15.012 16.5122 14.4622C16.0308 13.9124 15.3779 13.6035 14.6971 13.6035H9.56308C8.88228 13.6035 8.22935 13.9124 7.74795 14.4622C7.26654 15.012 6.99609 15.7577 6.99609 16.5353V18.0012" fill="#4B28AB"/>
<path d="M12.2861 12.6704C13.7591 12.6704 14.9531 11.4771 14.9531 10.0051C14.9531 8.53312 13.7591 7.33984 12.2861 7.33984C10.8132 7.33984 9.61914 8.53312 9.61914 10.0051C9.61914 11.4771 10.8132 12.6704 12.2861 12.6704Z" fill="#4B28AB"/>
</svg>
