<svg width="20" height="20" stroke-width="1" viewBox="0 0 20 20" fill="none" xmlns="http://www.w3.org/2000/svg">
<mask id="path-1-inside-1_6165:46292" fill="white">
<path fill-rule="evenodd" stroke-width="1" clip-rule="evenodd" d="M15.0223 2.22266L4.9107 6.0572V8.1835L2.22266 9.20287V17.6141L12.3343 13.7796V11.6533L15.0223 10.6339V2.22266Z"/>
</mask>
<path stroke-width="1" d="M4.9107 6.0572L4.55612 5.12218L3.9107 5.36693V6.0572H4.9107ZM15.0223 2.22266H16.0223V0.773945L14.6678 1.28763L15.0223 2.22266ZM4.9107 8.1835L5.26528 9.11853L5.9107 8.87377V8.1835H4.9107ZM2.22266 9.20287L1.86807 8.26784L1.22266 8.5126V9.20287H2.22266ZM2.22266 17.6141H1.22266V19.0628L2.57724 18.5491L2.22266 17.6141ZM12.3343 13.7796L12.6889 14.7146L13.3343 14.4698V13.7796H12.3343ZM12.3343 11.6533L11.9797 10.7183L11.3343 10.963V11.6533H12.3343ZM15.0223 10.6339L15.3769 11.5689L16.0223 11.3242V10.6339H15.0223ZM5.26528 6.99223L15.3769 3.15768L14.6678 1.28763L4.55612 5.12218L5.26528 6.99223ZM5.9107 8.1835V6.0572H3.9107V8.1835H5.9107ZM2.57724 10.1379L5.26528 9.11853L4.55612 7.24848L1.86807 8.26784L2.57724 10.1379ZM3.22266 17.6141V9.20287H1.22266V17.6141H3.22266ZM11.9797 12.8446L1.86807 16.6791L2.57724 18.5491L12.6889 14.7146L11.9797 12.8446ZM11.3343 11.6533V13.7796H13.3343V11.6533H11.3343ZM14.6678 9.69889L11.9797 10.7183L12.6889 12.5883L15.3769 11.5689L14.6678 9.69889ZM14.0223 2.22266V10.6339H16.0223V2.22266H14.0223Z" fill="#4B28AB" mask="url(#path-1-inside-1_6165:46292)"/>
<path stroke-width="1" d="M18.2238 17.9801V16.27C18.2238 15.3628 17.9148 14.4929 17.3646 13.8514C16.8145 13.21 16.0684 12.8496 15.2904 12.8496H9.42363C8.64564 12.8496 7.89952 13.21 7.34941 13.8514C6.79929 14.4929 6.49023 15.3628 6.49023 16.27V17.9801" fill="white"/>
<path stroke-width="1" d="M12.5108 13.9587C14.5727 13.9587 16.2442 12.2881 16.2442 10.2274C16.2442 8.16665 14.5727 6.49609 12.5108 6.49609C10.4488 6.49609 8.77734 8.16665 8.77734 10.2274C8.77734 12.2881 10.4488 13.9587 12.5108 13.9587Z" fill="white"/>
<path stroke-width="1" d="M17.4895 18.2218V16.756C17.4895 15.9784 17.2191 15.2327 16.7378 14.6829C16.2564 14.1331 15.6036 13.8242 14.9228 13.8242H9.78938C9.10864 13.8242 8.45578 14.1331 7.97443 14.6829C7.49308 15.2327 7.22266 15.9784 7.22266 16.756V18.2218" fill="#4B28AB"/>
<path stroke-width="1" d="M12.5124 12.8929C13.9852 12.8929 15.1791 11.6997 15.1791 10.2277C15.1791 8.75576 13.9852 7.5625 12.5124 7.5625C11.0396 7.5625 9.8457 8.75576 9.8457 10.2277C9.8457 11.6997 11.0396 12.8929 12.5124 12.8929Z" fill="#4B28AB"/>
</svg>
