<svg width="20" height="20" viewBox="0 0 20 20" fill="none" xmlns="http://www.w3.org/2000/svg">
<rect x="2" y="2" width="15.3542" height="14.8571" rx="2" fill="#C1B0F1"/>
<path fill-rule="evenodd" clip-rule="evenodd" d="M2 3.23076C2 3.006 2.04847 2.79537 2.1328 2.61403C2.20743 2.45508 2.30921 2.31866 2.43134 2.21499C2.59128 2.07933 2.78417 2 2.99258 2H16.8887C17.4373 2 17.8812 2.55108 17.8812 3.23076V16.7692C17.8812 17.4488 17.4373 17.9999 16.8887 17.9999H2.99258C2.44395 17.9999 2 17.4488 2 16.7692V3.23076ZM2.99258 4.46153C2.99258 3.78184 3.43652 3.23076 3.98515 3.23076H15.8961C16.4447 3.23076 16.8887 3.78184 16.8887 4.46153V10.6153C16.8887 11.295 16.4447 11.8461 15.8961 11.8461H3.98515C3.43652 11.8461 2.99258 11.295 2.99258 10.6153V4.46153ZM7.45918 15.5384C7.18486 15.5384 6.96289 15.8139 6.96289 16.1538C6.96289 16.4936 7.18486 16.7692 7.45918 16.7692H16.3924C16.6667 16.7692 16.8887 16.4936 16.8887 16.1538C16.8887 15.8139 16.6667 15.5384 16.3924 15.5384H7.45918ZM6.96289 13.6923C6.96289 13.3524 7.18486 13.0769 7.45918 13.0769H16.3924C16.6667 13.0769 16.8887 13.3524 16.8887 13.6923C16.8887 14.0321 16.6667 14.3076 16.3924 14.3076H7.45918C7.18486 14.3076 6.96289 14.0321 6.96289 13.6923ZM5.97031 14.923C5.97031 15.9425 5.30342 16.7692 4.48144 16.7692C3.65947 16.7692 2.99258 15.9425 2.99258 14.923C2.99258 13.9035 3.65947 13.0769 4.48144 13.0769C5.30342 13.0769 5.97031 13.9035 5.97031 14.923Z" fill="#4B28AB"/>
<path d="M20 17.9969V16.2955C20 15.393 19.6848 14.5274 19.1238 13.8893C18.5627 13.2511 17.8017 12.8926 17.0083 12.8926H11.0249C10.2315 12.8926 9.4705 13.2511 8.90945 13.8893C8.3484 14.5274 8.0332 15.393 8.0332 16.2955V17.9969" fill="white"/>
<path d="M14.1729 13.9948C16.2757 13.9948 17.9805 12.3328 17.9805 10.2826C17.9805 8.23235 16.2757 6.57031 14.1729 6.57031C12.07 6.57031 10.3652 8.23235 10.3652 10.2826C10.3652 12.3328 12.07 13.9948 14.1729 13.9948Z" fill="white"/>
<path d="M19.2522 17.9988V16.5702C19.2522 15.8124 18.9764 15.0856 18.4855 14.5498C17.9946 14.0139 17.3287 13.7129 16.6345 13.7129H11.399C10.7047 13.7129 10.0389 14.0139 9.54797 14.5498C9.05705 15.0856 8.78125 15.8124 8.78125 16.5702V17.9988" fill="#4B28AB"/>
<path d="M14.1768 12.8064C15.6788 12.8064 16.8965 11.6435 16.8965 10.2089C16.8965 8.77429 15.6788 7.61133 14.1768 7.61133C12.6747 7.61133 11.457 8.77429 11.457 10.2089C11.457 11.6435 12.6747 12.8064 14.1768 12.8064Z" fill="#4B28AB"/>
</svg>
