<svg width="20" height="20" viewBox="0 0 20 20" fill="none" xmlns="http://www.w3.org/2000/svg">
<path fill-rule="evenodd" clip-rule="evenodd" d="M2.22266 3.45331C2.22266 3.22857 2.27112 3.01795 2.35546 2.83663C2.4301 2.67769 2.53188 2.54129 2.65402 2.43763C2.81396 2.30198 3.00686 2.22266 3.21527 2.22266H17.1119C17.6606 2.22266 18.1045 2.77369 18.1045 3.45331V16.9905C18.1045 17.6701 17.6606 18.2211 17.1119 18.2211H3.21527C2.66662 18.2211 2.22266 17.6701 2.22266 16.9905V3.45331ZM3.21527 4.68396C3.21527 4.00434 3.65924 3.45331 4.20789 3.45331H16.1193C16.668 3.45331 17.1119 4.00434 17.1119 4.68396V10.8372C17.1119 11.5168 16.668 12.0679 16.1193 12.0679H4.20789C3.65924 12.0679 3.21527 11.5168 3.21527 10.8372V4.68396ZM7.68206 15.7598C7.40773 15.7598 7.18575 16.0353 7.18575 16.3752C7.18575 16.715 7.40773 16.9905 7.68206 16.9905H16.6156C16.8899 16.9905 17.1119 16.715 17.1119 16.3752C17.1119 16.0353 16.8899 15.7598 16.6156 15.7598H7.68206ZM7.18575 13.9139C7.18575 13.574 7.40773 13.2985 7.68206 13.2985H16.6156C16.8899 13.2985 17.1119 13.574 17.1119 13.9139C17.1119 14.2537 16.8899 14.5292 16.6156 14.5292H7.68206C7.40773 14.5292 7.18575 14.2537 7.18575 13.9139ZM6.19313 15.1445C6.19313 16.1639 5.52621 16.9905 4.7042 16.9905C3.88219 16.9905 3.21527 16.1639 3.21527 15.1445C3.21527 14.1251 3.88219 13.2985 4.7042 13.2985C5.52621 13.2985 6.19313 14.1251 6.19313 15.1445Z" fill="#4B28AB"/>
<path d="M19.2236 18.2211V16.5198C19.2236 15.6174 18.9347 14.7519 18.4205 14.1138C17.9063 13.4757 17.2089 13.1172 16.4817 13.1172H10.9978C10.2706 13.1172 9.57317 13.4757 9.05895 14.1138C8.54474 14.7519 8.25586 15.6174 8.25586 16.5198V18.2211" fill="white"/>
<path d="M13.8823 14.2188C15.8096 14.2188 17.3721 12.5569 17.3721 10.5068C17.3721 8.45681 15.8096 6.79492 13.8823 6.79492C11.955 6.79492 10.3926 8.45681 10.3926 10.5068C10.3926 12.5569 11.955 14.2188 13.8823 14.2188Z" fill="white"/>
<path d="M18.5362 18.2231V16.7945C18.5362 16.0368 18.2835 15.3101 17.8335 14.7743C17.3836 14.2385 16.7733 13.9375 16.137 13.9375H11.3386C10.7023 13.9375 10.0921 14.2385 9.64216 14.7743C9.19222 15.3101 8.93945 16.0368 8.93945 16.7945V18.2231" fill="#4B28AB"/>
<path d="M13.8852 13.0306C15.2619 13.0306 16.3779 11.8677 16.3779 10.4332C16.3779 8.99879 15.2619 7.83594 13.8852 7.83594C12.5086 7.83594 11.3926 8.99879 11.3926 10.4332C11.3926 11.8677 12.5086 13.0306 13.8852 13.0306Z" fill="#4B28AB"/>
</svg>
