<svg width="92" height="36" viewBox="0 0 92 36" fill="none" xmlns="http://www.w3.org/2000/svg">
<path d="M65.9029 19.8438C68.0706 18.8842 69.3068 17.0719 69.3068 14.3544C69.3068 11.7279 67.9061 9.85433 65.7383 9.1119C64.6404 8.72844 62.9367 8.56384 61.1279 8.56384H54.9889C54.9425 8.56384 54.898 8.58229 54.8651 8.61513C54.8323 8.64797 54.8138 8.6925 54.8138 8.73894V14.027C54.8138 14.027 54.8138 17.1542 57.9411 17.1542C57.9411 17.1542 54.8138 17.1542 54.8138 20.2815V27.2995C54.8138 27.346 54.8323 27.3905 54.8651 27.4233C54.898 27.4562 54.9425 27.4746 54.9889 27.4746H58.9217C58.9681 27.4746 59.0127 27.4562 59.0455 27.4233C59.0783 27.3905 59.0968 27.346 59.0968 27.2995V20.6685H61.8091L65.684 27.3871C65.6993 27.4135 65.7213 27.4355 65.7477 27.4509C65.7741 27.4663 65.8041 27.4744 65.8346 27.4746H70.1491C70.1797 27.4744 70.2098 27.4662 70.2363 27.4508C70.2627 27.4353 70.2847 27.4132 70.2999 27.3866C70.3152 27.36 70.3232 27.3299 70.3231 27.2992C70.3231 27.2686 70.315 27.2385 70.2997 27.212L65.9029 19.8438ZM63.7614 16.7935C63.1591 17.0684 62.2258 17.1437 60.9598 17.1437H59.0968V12.2409H60.8811C61.8966 12.2409 62.8842 12.3512 63.5426 12.5719C64.4758 12.9011 64.9696 13.5875 64.9696 14.6293C64.9696 15.7272 64.6107 16.3855 63.7614 16.7935Z" fill="currentColor"/>
<path d="M36.3041 8.73894V12.2059C36.3041 12.2524 36.3225 12.2969 36.3554 12.3297C36.3882 12.3626 36.4327 12.381 36.4792 12.381H44.8665C41.7392 12.381 41.7392 15.5083 41.7392 15.5083V27.2995C41.7392 27.346 41.7576 27.3905 41.7905 27.4233C41.8233 27.4562 41.8678 27.4746 41.9143 27.4746H45.8207C45.8672 27.4746 45.9117 27.4562 45.9446 27.4233C45.9774 27.3905 45.9958 27.346 45.9958 27.2995V12.3793H51.4239C51.4704 12.3793 51.5149 12.3608 51.5477 12.328C51.5806 12.2951 51.599 12.2506 51.599 12.2042V8.73894C51.599 8.6925 51.5806 8.64797 51.5477 8.61513C51.5149 8.58229 51.4704 8.56384 51.4239 8.56384H36.4792C36.4327 8.56384 36.3882 8.58229 36.3554 8.61513C36.3225 8.64797 36.3041 8.6925 36.3041 8.73894Z" fill="currentColor"/>
<path d="M29.1722 16.2157L26.656 15.4417C24.8017 14.8884 24.4428 14.3614 24.4428 13.5594C24.4428 12.5631 24.9961 11.7611 27.2444 11.7611C29.1547 11.7611 31.755 12.5088 33.2205 13.8623H33.3308V9.63018C33.3311 9.60459 33.3258 9.57926 33.3152 9.55597C33.3046 9.53267 33.289 9.51198 33.2696 9.49535C32.2032 8.61985 29.5592 8 27.6874 8C22.6253 8 20.0811 10.5442 20.0811 13.8361C20.0811 16.6026 21.5186 18.5112 24.8087 19.4515L27.1884 20.1432C29.0969 20.6685 29.9549 21.1395 29.9549 22.1901C29.9549 23.6294 28.8483 24.0164 26.966 24.0164C25.1589 24.0164 22.5972 23.4158 20.6711 21.9782C20.6407 21.9564 20.604 21.9449 20.5665 21.9455C20.5291 21.9461 20.4928 21.9587 20.463 21.9814C20.4332 22.0041 20.4115 22.0358 20.401 22.0718C20.3906 22.1078 20.392 22.1462 20.405 22.1813L22.3013 27.0561C22.3106 27.0803 22.3252 27.1021 22.344 27.12C22.3628 27.1378 22.3853 27.1513 22.4099 27.1594C23.8088 27.6212 25.2722 27.8576 26.7453 27.8598C32.2785 27.8598 34.3254 24.9269 34.3254 21.8574C34.3184 19.1206 33.1015 17.4326 29.1722 16.2157Z" fill="currentColor"/>
<path d="M18.682 27.2383L11.4626 8.6777C11.4496 8.64512 11.4272 8.61718 11.3981 8.59751C11.3691 8.57785 11.3348 8.56735 11.2998 8.56738H7.39328C7.35821 8.56735 7.32394 8.57785 7.29491 8.59751C7.26587 8.61718 7.24341 8.64512 7.23044 8.6777L0.0110765 27.2383C0.00121435 27.2647 -0.00213274 27.293 0.00131902 27.321C0.00477078 27.349 0.0149198 27.3757 0.030904 27.3989C0.0468882 27.4221 0.0682351 27.4411 0.0931331 27.4543C0.118031 27.4675 0.145744 27.4745 0.173919 27.4746H4.30277C4.33774 27.4742 4.37178 27.4633 4.40049 27.4433C4.4292 27.4233 4.45127 27.3952 4.46386 27.3626L6.01349 23.302V23.2915L9.24934 14.0252L11.3348 19.6529C7.36702 19.6529 6.09404 23.0674 6.01349 23.2915V23.302H12.5465L14.0961 27.3626C14.1087 27.3952 14.1308 27.4233 14.1595 27.4433C14.1882 27.4633 14.2222 27.4742 14.2572 27.4746H18.5226C18.5505 27.4739 18.5778 27.4665 18.6022 27.4531C18.6267 27.4397 18.6476 27.4206 18.6631 27.3975C18.6787 27.3744 18.6886 27.3478 18.6918 27.3202C18.6951 27.2925 18.6917 27.2644 18.682 27.2383Z" fill="currentColor"/>
<path d="M81.4201 8.03857C79.4461 8.03857 77.5165 8.62393 75.8752 9.72062C74.2339 10.8173 72.9546 12.3761 72.1992 14.1998C71.4438 16.0235 71.2461 18.0303 71.6312 19.9664C72.0163 21.9025 72.9669 23.6808 74.3627 25.0767C75.7585 26.4725 77.5369 27.4231 79.473 27.8082C81.4091 28.1933 83.4158 27.9956 85.2396 27.2402C87.0633 26.4848 88.6221 25.2055 89.7188 23.5642C90.8155 21.9229 91.4008 19.9932 91.4008 18.0193C91.4008 15.3722 90.3493 12.8336 88.4776 10.9618C86.6058 9.09011 84.0672 8.03857 81.4201 8.03857ZM81.4201 26.3347C81.4201 24.1293 80.544 22.0143 78.9846 20.4548C77.4251 18.8953 75.3101 18.0193 73.1047 18.0193C75.3101 18.0193 77.4251 17.1432 78.9846 15.5837C80.544 14.0243 81.4201 11.9092 81.4201 9.70377C81.4201 11.9092 82.2962 14.0243 83.8557 15.5837C85.4151 17.1432 87.5302 18.0193 89.7356 18.0193C87.5302 18.0193 85.4151 18.8953 83.8557 20.4548C82.2962 22.0143 81.4201 24.1293 81.4201 26.3347Z" fill="currentColor"/>
</svg>
