<svg width="151" height="33" viewBox="0 0 151 33" fill="none" xmlns="http://www.w3.org/2000/svg">
<path d="M108.74 19.5416C112.317 17.9583 114.357 14.968 114.357 10.4841C114.357 6.15037 112.046 3.05899 108.469 1.83399C106.657 1.20127 103.846 0.929688 100.862 0.929688H90.7323C90.6556 0.929688 90.5822 0.960126 90.528 1.01431C90.4738 1.06849 90.4434 1.14198 90.4434 1.2186V9.94382C90.4434 9.94382 90.4434 15.1038 95.6034 15.1038C95.6034 15.1038 90.4434 15.1038 90.4434 20.2638V31.8435C90.4434 31.9202 90.4738 31.9937 90.528 32.0478C90.5822 32.102 90.6556 32.1325 90.7323 32.1325H97.2213C97.2979 32.1325 97.3714 32.102 97.4256 32.0478C97.4798 31.9937 97.5102 31.9202 97.5102 31.8435V20.9024H101.985L108.379 31.988C108.404 32.0317 108.441 32.068 108.484 32.0933C108.528 32.1187 108.577 32.1322 108.628 32.1325H115.746C115.797 32.1322 115.847 32.1186 115.89 32.0931C115.934 32.0676 115.97 32.0311 115.995 31.9872C116.021 31.9434 116.034 31.8937 116.034 31.8431C116.034 31.7925 116.02 31.7429 115.995 31.6991L108.74 19.5416ZM105.207 14.5087C104.213 14.9623 102.673 15.0865 100.584 15.0865H97.5102V6.99689H100.454C102.13 6.99689 103.759 7.17891 104.846 7.54294C106.386 8.0861 107.2 9.21865 107.2 10.9377C107.2 12.7492 106.608 13.8355 105.207 14.5087Z" fill="#201F1F"/>
<path d="M59.9023 1.2186V6.93911C59.9023 7.01574 59.9328 7.08922 59.987 7.1434C60.0412 7.19759 60.1146 7.22802 60.1913 7.22802H74.0303C68.8702 7.22802 68.8703 12.388 68.8703 12.388V31.8435C68.8703 31.9202 68.9007 31.9937 68.9549 32.0478C69.0091 32.102 69.0825 32.1325 69.1592 32.1325H75.6049C75.6815 32.1325 75.755 32.102 75.8091 32.0478C75.8633 31.9937 75.8938 31.9202 75.8938 31.8435V7.22514H84.8501C84.9267 7.22514 85.0002 7.1947 85.0544 7.14051C85.1086 7.08633 85.139 7.01285 85.139 6.93622V1.2186C85.139 1.14198 85.1086 1.06849 85.0544 1.01431C85.0002 0.960126 84.9267 0.929688 84.8501 0.929688H60.1913C60.1146 0.929688 60.0412 0.960126 59.987 1.01431C59.9328 1.06849 59.9023 1.14198 59.9023 1.2186Z" fill="#201F1F"/>
<path d="M48.1332 13.5559L43.9816 12.2789C40.9219 11.3659 40.3297 10.4963 40.3297 9.17304C40.3297 7.52911 41.2426 6.20588 44.9523 6.20588C48.1044 6.20588 52.3947 7.43955 54.813 9.67286H54.995V2.68979C54.9954 2.64758 54.9866 2.60578 54.9691 2.56735C54.9516 2.52891 54.9259 2.49477 54.8939 2.46733C53.1344 1.02276 48.7718 0 45.6833 0C37.3307 0 33.1328 4.19793 33.1328 9.62952C33.1328 14.1944 35.5048 17.3435 40.9335 18.895L44.8599 20.0362C48.009 20.903 49.4247 21.6801 49.4247 23.4136C49.4247 25.7885 47.5988 26.427 44.4929 26.427C41.5113 26.427 37.2845 25.436 34.1065 23.064C34.0562 23.0281 33.9957 23.0091 33.9339 23.0101C33.872 23.011 33.8122 23.0318 33.763 23.0693C33.7139 23.1068 33.678 23.1591 33.6608 23.2185C33.6436 23.2779 33.6459 23.3412 33.6673 23.3992L36.7962 31.4426C36.8116 31.4825 36.8357 31.5185 36.8667 31.5479C36.8976 31.5774 36.9348 31.5996 36.9754 31.613C39.2836 32.375 41.6982 32.7651 44.1289 32.7687C53.2586 32.7687 56.636 27.9294 56.636 22.8647C56.6245 18.349 54.6165 15.5638 48.1332 13.5559Z" fill="#201F1F"/>
<path d="M30.8252 31.7425L18.9133 1.11756C18.8919 1.06381 18.8548 1.01772 18.8069 0.985264C18.759 0.952811 18.7025 0.935491 18.6446 0.935547H12.1989C12.141 0.935491 12.0845 0.952811 12.0366 0.985264C11.9887 1.01772 11.9516 1.06381 11.9302 1.11756L0.0182762 31.7425C0.00200368 31.786 -0.00351903 31.8329 0.00217638 31.879C0.00787179 31.9252 0.0246176 31.9692 0.0509915 32.0075C0.0773655 32.0458 0.112588 32.0772 0.15367 32.0989C0.194751 32.1207 0.240478 32.1322 0.286967 32.1325H7.09957C7.15728 32.1318 7.21343 32.1138 7.26081 32.0808C7.30818 32.0479 7.3446 32.0015 7.36537 31.9476L9.92227 25.2477V25.2304L15.2614 9.94101L18.7024 19.2267C12.1556 19.2267 10.0552 24.8606 9.92227 25.2304V25.2477H20.7017L23.2586 31.9476C23.2793 32.0015 23.3157 32.0479 23.3631 32.0808C23.4105 32.1138 23.4667 32.1318 23.5244 32.1325H30.5623C30.6083 32.1313 30.6534 32.1191 30.6937 32.097C30.734 32.0748 30.7685 32.0434 30.7942 32.0052C30.8199 31.9671 30.8362 31.9233 30.8415 31.8776C30.8469 31.8319 30.8413 31.7856 30.8252 31.7425Z" fill="#201F1F"/>
<path d="M134.343 0.0644531C131.086 0.0644531 127.902 1.03029 125.194 2.83983C122.486 4.64937 120.375 7.22134 119.129 10.2305C117.882 13.2397 117.556 16.5508 118.191 19.7453C118.827 22.9399 120.395 25.8742 122.698 28.1773C125.002 30.4804 127.936 32.0488 131.13 32.6843C134.325 33.3197 137.636 32.9936 140.645 31.7471C143.654 30.5007 146.226 28.3899 148.036 25.6818C149.845 22.9736 150.811 19.7897 150.811 16.5326C150.811 12.165 149.076 7.97623 145.988 4.88786C142.899 1.79948 138.711 0.0644531 134.343 0.0644531ZM134.343 30.2531C134.343 26.6142 132.898 23.1243 130.324 20.5512C127.751 17.9781 124.262 16.5326 120.623 16.5326C124.262 16.5326 127.751 15.087 130.324 12.5139C132.898 9.94082 134.343 6.45095 134.343 2.81203C134.343 6.45095 135.789 9.94082 138.362 12.5139C140.935 15.087 144.425 16.5326 148.064 16.5326C144.425 16.5326 140.935 17.9781 138.362 20.5512C135.789 23.1243 134.343 26.6142 134.343 30.2531Z" fill="#201F1F"/>
</svg>
