<svg width="22" height="22" viewBox="0 0 22 22" fill="none" xmlns="http://www.w3.org/2000/svg">
    <path d="M11.0803 0.0427246C8.92062 0.0427246 6.80942 0.683153 5.01368 1.88302C3.21795 3.08289 1.81834 4.78831 0.99186 6.78362C0.165375 8.77893 -0.0508699 10.9745 0.370468 13.0927C0.791807 15.2109 1.8318 17.1566 3.35894 18.6838C4.88609 20.2109 6.83179 21.2509 8.95 21.6723C11.0682 22.0936 13.2638 21.8774 15.2591 21.0509C17.2544 20.2244 18.9598 18.8248 20.1597 17.0291C21.3596 15.2333 22 13.1221 22 10.9624C22 8.06633 20.8496 5.28886 18.8017 3.24103C16.7539 1.19319 13.9764 0.0427246 11.0803 0.0427246ZM11.0803 20.0602C11.0803 17.6473 10.1218 15.3333 8.41564 13.6271C6.70947 11.9209 4.3954 10.9624 1.98251 10.9624C4.3954 10.9624 6.70947 10.0039 8.41564 8.29772C10.1218 6.59154 11.0803 4.27748 11.0803 1.86459C11.0803 4.27748 12.0388 6.59154 13.745 8.29772C15.4512 10.0039 17.7653 10.9624 20.1781 10.9624C17.7653 10.9624 15.4512 11.9209 13.745 13.6271C12.0388 15.3333 11.0803 17.6473 11.0803 20.0602Z" fill="#FFF"/>
</svg>
