<svg width="20" height="20" viewBox="0 0 20 20" fill="none" xmlns="http://www.w3.org/2000/svg">
    <rect width="18" height="18" transform="translate(1 1)" fill="white"/>
    <rect x="0.806716" y="10" width="13.0007" height="13.0007" rx="1.5" transform="rotate(-45 0.806716 10)" stroke="#6038D0"/>
    <g clip-path="url(#clip0_10052_108126)">
        <path d="M14.1663 9.46669V9.85002C14.1658 10.7485 13.8749 11.6228 13.3369 12.3424C12.7989 13.0621 12.0427 13.5886 11.1811 13.8433C10.3194 14.0981 9.39853 14.0675 8.5557 13.7561C7.71288 13.4447 6.99328 12.8692 6.50424 12.1155C6.0152 11.3617 5.78292 10.47 5.84204 9.57349C5.90116 8.67692 6.24851 7.82349 6.83229 7.14047C7.41607 6.45745 8.205 5.98143 9.08142 5.78341C9.95784 5.5854 10.8748 5.67599 11.6955 6.04169" stroke="#6038D0" stroke-width="1.25996" stroke-linejoin="round"/>
        <path d="M14.1667 6.51672L10 10.6876L8.75 9.43756" stroke="#6038D0" stroke-width="1.25996" stroke-linejoin="round"/>
    </g>
    <defs>
        <clipPath id="clip0_10052_108126">
            <rect width="10" height="10" fill="white" transform="translate(5 4.84998)"/>
        </clipPath>
    </defs>
</svg>
