<svg width="18" height="18" viewBox="0 0 18 18" fill="none" xmlns="http://www.w3.org/2000/svg">
    <circle cx="9" cy="9" r="9" fill="#E43AE3"/>
    <path d="M12.667 9.04169C12.667 8.08735 12.3361 7.16254 11.7307 6.42482C11.1252 5.68711 10.2827 5.18214 9.34674 4.99595C8.41074 4.80977 7.43914 4.9539 6.59748 5.40377C5.75583 5.85364 5.0962 6.58143 4.73099 7.46312C4.36578 8.34482 4.31758 9.32587 4.59461 10.2391C4.87164 11.1524 5.45676 11.9413 6.25027 12.4715C7.04377 13.0017 7.99657 13.2404 8.94631 13.1468C9.89606 13.0533 10.784 12.6333 11.4588 11.9585M12.667 9.04169L13.5837 6.75002M12.667 9.04169L10.8337 7.66669" stroke="white"/>
    <path d="M6.91699 10.25L8.7271 9.3241V6.08337" stroke="white"/>
</svg>
