<svg width="24" height="24" viewBox="0 0 24 24" fill="none" xmlns="http://www.w3.org/2000/svg">
    <rect x="-1" y="12.2" width="18.6676" height="18.6676" rx="3.52" transform="rotate(-45 -1 12.2)" fill="#434343"/>
    <path d="M10.5951 9.175C9.57513 10.32 8.87513 11.965 8.81013 12.12L7.68013 11.635C7.35513 11.495 7.27513 11.07 7.52513 10.82L9.03013 9.315C9.26513 9.08 9.60513 8.975 9.93513 9.04L10.5951 9.175ZM11.3401 14.255C11.4901 14.405 11.7101 14.445 11.9001 14.355C12.4801 14.085 13.7251 13.45 14.5301 12.645C16.8251 10.35 16.8451 8.48 16.7101 7.68C16.6924 7.58173 16.6451 7.49123 16.5745 7.42063C16.5039 7.35002 16.4134 7.3027 16.3151 7.285C15.5151 7.15 13.6451 7.17 11.3501 9.465C10.5451 10.27 9.91513 11.515 9.64013 12.095C9.55013 12.285 9.59513 12.51 9.74013 12.655L11.3401 14.255ZM14.8251 13.405C13.6801 14.425 12.0351 15.125 11.8801 15.19L12.3651 16.32C12.5051 16.645 12.9301 16.725 13.1801 16.475L14.6851 14.97C14.9201 14.735 15.0251 14.395 14.9601 14.065L14.8251 13.405ZM10.4701 14.705C10.5186 14.9472 10.5066 15.1975 10.435 15.4339C10.3635 15.6703 10.2347 15.8854 10.0601 16.06C9.67513 16.445 8.48013 16.73 7.70513 16.88C7.36013 16.945 7.05513 16.64 7.12013 16.295C7.27013 15.52 7.55013 14.325 7.94013 13.94C8.11478 13.7654 8.32984 13.6366 8.56622 13.5651C8.8026 13.4936 9.05298 13.4815 9.29513 13.53C9.88013 13.64 10.3601 14.12 10.4701 14.705ZM12.5001 10.5C12.5001 9.95 12.9501 9.5 13.5001 9.5C14.0501 9.5 14.5001 9.95 14.5001 10.5C14.5001 11.05 14.0501 11.5 13.5001 11.5C12.9501 11.5 12.5001 11.05 12.5001 10.5Z" fill="white"/>
</svg>
