<svg width="16" height="16" viewBox="0 0 16 16" fill="none" xmlns="http://www.w3.org/2000/svg">
    <circle cx="8" cy="8" r="8" fill="#434343"/>
    <g clip-path="url(#clip0_9720_16217)">
        <path d="M11.7033 7.65924V7.99998C11.7029 8.79866 11.4442 9.57579 10.966 10.2155C10.4878 10.8552 9.81563 11.3231 9.04973 11.5496C8.28384 11.776 7.46525 11.7488 6.71607 11.4721C5.96689 11.1953 5.32725 10.6837 4.89255 10.0137C4.45785 9.3437 4.25138 8.55112 4.30393 7.75417C4.35648 6.95723 4.66523 6.19862 5.18415 5.59149C5.70307 4.98436 6.40434 4.56124 7.18338 4.38522C7.96241 4.20921 8.77748 4.28974 9.50701 4.6148" stroke="white" stroke-width="0.888889" stroke-linejoin="round"/>
        <path d="M11.7035 5.03711L7.99978 8.74452L6.88867 7.63341" stroke="white" stroke-width="0.888889" stroke-linejoin="round"/>
    </g>
    <defs>
        <clipPath id="clip0_9720_16217">
            <rect width="8.88889" height="8.88889" fill="white" transform="translate(3.55566 3.55554)"/>
        </clipPath>
    </defs>
</svg>
