<svg width="16" height="16" viewBox="0 0 16 16" fill="none" xmlns="http://www.w3.org/2000/svg">
    <rect x="-0.799805" y="8" width="12.4451" height="12.4451" rx="2.34667" transform="rotate(-45 -0.799805 8)" fill="#434343"/>
    <g clip-path="url(#clip0_9720_16194)">
        <path d="M11.3337 7.59324V7.89991C11.3333 8.61872 11.1005 9.31813 10.6701 9.89385C10.2397 10.4696 9.63475 10.8907 8.94545 11.0945C8.25614 11.2983 7.51941 11.2739 6.84515 11.0248C6.17089 10.7757 5.59521 10.3153 5.20398 9.71226C4.81275 9.10925 4.62692 8.39593 4.67422 7.67868C4.72151 6.96143 4.99939 6.27868 5.46642 5.73227C5.93344 5.18585 6.56459 4.80504 7.26572 4.64662C7.96686 4.48821 8.70042 4.56069 9.35699 4.85324" stroke="#19D992" stroke-width="0.839974" stroke-linejoin="round"/>
        <path d="M11.3333 5.23337L8 8.57004L7 7.57004" stroke="#19D992" stroke-width="0.839974" stroke-linejoin="round"/>
    </g>
    <defs>
        <clipPath id="clip0_9720_16194">
            <rect width="8" height="8" fill="white" transform="translate(4 3.89999)"/>
        </clipPath>
    </defs>
</svg>
