<svg width="24" height="24" viewBox="0 0 24 24" fill="none" xmlns="http://www.w3.org/2000/svg">
    <rect x="-1.2002" y="12" width="18.6676" height="18.6676" rx="3.52" transform="rotate(-45 -1.2002 12)" fill="#434343"/>
    <path d="M15.3047 7.11865H13.4687C13.4687 6.30854 12.8101 5.6499 12 5.6499C11.1899 5.6499 10.5312 6.30854 10.5312 7.11865H8.69531C8.08716 7.11865 7.59375 7.61206 7.59375 8.22021V16.2983C7.59375 16.9065 8.08716 17.3999 8.69531 17.3999H15.3047C15.9128 17.3999 16.4062 16.9065 16.4062 16.2983V8.22021C16.4062 7.61206 15.9128 7.11865 15.3047 7.11865ZM9.79687 15.3803C9.49165 15.3803 9.24609 15.1348 9.24609 14.8296C9.24609 14.5243 9.49165 14.2788 9.79687 14.2788C10.1021 14.2788 10.3476 14.5243 10.3476 14.8296C10.3476 15.1348 10.1021 15.3803 9.79687 15.3803ZM9.79687 13.1772C9.49165 13.1772 9.24609 12.9317 9.24609 12.6264C9.24609 12.3212 9.49165 12.0757 9.79687 12.0757C10.1021 12.0757 10.3476 12.3212 10.3476 12.6264C10.3476 12.9317 10.1021 13.1772 9.79687 13.1772ZM9.79687 10.9741C9.49165 10.9741 9.24609 10.7286 9.24609 10.4233C9.24609 10.1181 9.49165 9.87255 9.79687 9.87255C10.1021 9.87255 10.3476 10.1181 10.3476 10.4233C10.3476 10.7286 10.1021 10.9741 9.79687 10.9741ZM12 6.56787C12.3052 6.56787 12.5508 6.81342 12.5508 7.11865C12.5508 7.42387 12.3052 7.66943 12 7.66943C11.6948 7.66943 11.4492 7.42387 11.4492 7.11865C11.4492 6.81342 11.6948 6.56787 12 6.56787ZM14.9375 15.0132C14.9375 15.1141 14.8549 15.1968 14.7539 15.1968H11.4492C11.3482 15.1968 11.2656 15.1141 11.2656 15.0132V14.646C11.2656 14.545 11.3482 14.4624 11.4492 14.4624H14.7539C14.8549 14.4624 14.9375 14.545 14.9375 14.646V15.0132ZM14.9375 12.81C14.9375 12.911 14.8549 12.9936 14.7539 12.9936H11.4492C11.3482 12.9936 11.2656 12.911 11.2656 12.81V12.4429C11.2656 12.3419 11.3482 12.2593 11.4492 12.2593H14.7539C14.8549 12.2593 14.9375 12.3419 14.9375 12.4429V12.81ZM14.9375 10.6069C14.9375 10.7079 14.8549 10.7905 14.7539 10.7905H11.4492C11.3482 10.7905 11.2656 10.7079 11.2656 10.6069V10.2397C11.2656 10.1388 11.3482 10.0561 11.4492 10.0561H14.7539C14.8549 10.0561 14.9375 10.1388 14.9375 10.2397V10.6069Z" fill="#19D992"/>
</svg>
