<?xml version="1.0" encoding="UTF-8"?>
<svg width="700pt" height="700pt" version="1.1" viewBox="0 0 700 700" xmlns="http://www.w3.org/2000/svg" xmlns:xlink="http://www.w3.org/1999/xlink">
 <g>
  <path d="m437.5 113.75v-8.75c-0.011719-11.598-4.625-22.719-12.828-30.922s-19.324-12.816-30.922-12.828h-87.5c-11.598 0.011719-22.719 4.625-30.922 12.828s-12.816 19.324-12.828 30.922v8.75h17.5v-8.75c0.007812-6.9609 2.7773-13.633 7.6992-18.551 4.918-4.9219 11.59-7.6914 18.551-7.6992h87.5c6.9609 0.007812 13.633 2.7773 18.551 7.6992 4.9219 4.918 7.6914 11.59 7.6992 18.551v8.75z"/>
  <path d="m358.75 297.5h26.25v35h-26.25z"/>
  <path d="m201.25 323.75c-2.8438 0-5.5078-1.3828-7.1484-3.7031l-54.102-76.645v220.35h420v-220.35l-54.102 76.645c-1.6406 2.3203-4.3047 3.7031-7.1484 3.7031h-96.25v17.5c0 2.3203-0.92188 4.5469-2.5625 6.1875s-3.8672 2.5625-6.1875 2.5625h-87.5c-4.832 0-8.75-3.918-8.75-8.75v-17.5z"/>
  <path d="m315 297.5h26.25v35h-26.25z"/>
  <path d="m595 131.25h-490v32.223l100.79 142.78h91.715v-17.5c0-4.832 3.918-8.75 8.75-8.75h87.5c2.3203 0 4.5469 0.92188 6.1875 2.5625s2.5625 3.8672 2.5625 6.1875v17.5h91.715l100.79-142.78z"/>
  <path d="m595 193.82-17.5 24.793v253.89c0 2.3203-0.92188 4.5469-2.5625 6.1875s-3.8672 2.5625-6.1875 2.5625h-437.5c-4.832 0-8.75-3.918-8.75-8.75v-253.89l-17.5-24.793v278.68c0.007812 6.9609 2.7773 13.633 7.6992 18.551 4.918 4.9219 11.59 7.6914 18.551 7.6992h437.5c6.9609-0.007812 13.633-2.7773 18.551-7.6992 4.9219-4.918 7.6914-11.59 7.6992-18.551z"/>
 </g>
</svg>
