<svg width="24" height="24" viewBox="0 0 24 24" fill="none" xmlns="http://www.w3.org/2000/svg">
<path d="M8.00001 10.76H7.42001C6.62851 10.7314 5.83958 10.8657 5.10218 11.1547C4.36478 11.4437 3.69463 11.8812 3.13334 12.44L2.97334 12.6266V18.1466H5.69334V15.0133L6.06001 14.6L6.22668 14.4066C7.09463 13.515 8.1752 12.8588 9.36668 12.5C8.77014 12.0461 8.29967 11.4471 8.00001 10.76Z" fill="black"/>
<path d="M20.8934 12.42C20.3322 11.8613 19.662 11.4238 18.9246 11.1348C18.1872 10.8458 17.3983 10.7114 16.6068 10.7401C16.364 10.7407 16.1215 10.7541 15.8801 10.78C15.5748 11.4247 15.1172 11.9852 14.5468 12.4134C15.8188 12.7653 16.971 13.4566 17.8801 14.4134L18.0468 14.6L18.4068 15.0134V17C18.4999 15 20.8934 15.0134 21.0334 17V12.6067L20.8934 12.42Z" fill="black"/>
<path d="M7.40001 9.45997H7.60668C7.51066 8.63546 7.65533 7.80079 8.02323 7.0567C8.39114 6.3126 8.96655 5.6909 9.68002 5.26664C9.42139 4.87154 9.06459 4.55037 8.64455 4.3346C8.22451 4.11883 7.75564 4.01584 7.28384 4.03572C6.81204 4.0556 6.35349 4.19767 5.95309 4.44802C5.5527 4.69837 5.22418 5.04841 4.99972 5.46387C4.77525 5.87933 4.66253 6.34596 4.67259 6.81807C4.68266 7.29018 4.81516 7.75159 5.05712 8.1571C5.29908 8.56262 5.64221 8.89835 6.05291 9.13141C6.46361 9.36447 6.9278 9.48687 7.40001 9.48663V9.45997Z" fill="black"/>
<path d="M16.2866 8.95999C16.2947 9.11321 16.2947 9.26676 16.2866 9.41999C16.4145 9.44027 16.5438 9.45141 16.6733 9.45332H16.7999C17.2701 9.42825 17.7257 9.28188 18.1225 9.02844C18.5193 8.77501 18.8437 8.42315 19.0641 8.00713C19.2845 7.59111 19.3935 7.1251 19.3804 6.65448C19.3672 6.18385 19.2325 5.72464 18.9892 5.32156C18.7459 4.91848 18.4024 4.58526 17.9921 4.35434C17.5818 4.12342 17.1187 4.00268 16.6479 4.00387C16.1771 4.00505 15.7146 4.12812 15.3055 4.3611C14.8964 4.59408 14.5545 4.92902 14.3133 5.33332C14.9167 5.72728 15.4128 6.26486 15.7572 6.89783C16.1017 7.53081 16.2836 8.23938 16.2866 8.95999Z" fill="black"/>
<path d="M11.9132 11.9467C13.559 11.9467 14.8932 10.6125 14.8932 8.96667C14.8932 7.32086 13.559 5.98667 11.9132 5.98667C10.2674 5.98667 8.9332 7.32086 8.9332 8.96667C8.9332 10.6125 10.2674 11.9467 11.9132 11.9467Z" fill="black"/>
<path d="M9.51929 13.9488C10.3339 13.6395 11.2026 13.4981 12.0733 13.5333C12.9422 13.4957 13.8096 13.6359 14.6224 13.9455C15.4352 14.255 16.1762 14.7272 16.7999 15.3333L16.9599 15.5333L17.0001 18.5C15.5001 18.5 15.0001 20 16.4149 20.7666C16.2869 20.8168 16.0307 20.7693 15.8933 20.7666H8.23327C8.09581 20.7693 7.95918 20.7448 7.83118 20.6947C7.70317 20.6445 7.58631 20.5696 7.48725 20.4743C7.3882 20.3789 7.3089 20.265 7.25388 20.139C7.19886 20.013 7.1692 19.8774 7.1666 19.74V15.52L7.33327 15.3333C7.96112 14.7291 8.70471 14.2582 9.51929 13.9488Z" fill="black"/>
<path d="M19.668 17V22.2941" stroke="#201F1F" stroke-width="1.5" stroke-linecap="round" stroke-linejoin="round"/>
<path d="M17 19.6474H22.3333" stroke="#201F1F" stroke-width="1.5" stroke-linecap="round" stroke-linejoin="round"/>
</svg>
