<svg width="19" height="15" viewBox="0 0 19 15" fill="none" xmlns="http://www.w3.org/2000/svg">
  <path
    d="M2 6L1.29289 6.70711L0.585786 6L1.29289 5.29289L2 6ZM19 14C19 14.5523 18.5523 15 18 15C17.4477 15 17 14.5523 17 14L19 14ZM6.29289 11.7071L1.29289 6.70711L2.70711 5.29289L7.70711 10.2929L6.29289 11.7071ZM1.29289 5.29289L6.29289 0.292893L7.70711 1.70711L2.70711 6.70711L1.29289 5.29289ZM2 5L12 5L12 7L2 7L2 5ZM19 12L19 14L17 14L17 12L19 12ZM12 5C15.866 5 19 8.13401 19 12L17 12C17 9.23858 14.7614 7 12 7L12 5Z"
    fill="#6038D0"/>
</svg>
