<svg width="24" height="24" viewBox="0 0 24 24" fill="none" xmlns="http://www.w3.org/2000/svg">
  <path
    d="M16.6168 3.75204L15.9097 3.04493L16.6168 3.75204ZM18.4324 3V2V3ZM21 5.56761H22H21ZM20.248 7.38319L20.9551 8.09029L20.248 7.38319ZM7.99283 19.6383L8.25595 20.6031C8.42384 20.5573 8.57688 20.4685 8.69994 20.3454L7.99283 19.6383ZM3 21L2.03524 20.7369C1.94081 21.0831 2.03914 21.4534 2.29289 21.7071C2.54664 21.9609 2.91691 22.0592 3.26312 21.9648L3 21ZM4.36168 16.0072L3.65457 15.3001C3.53152 15.4231 3.44271 15.5762 3.39692 15.7441L4.36168 16.0072ZM17.3239 4.45914C17.4695 4.31358 17.6423 4.19811 17.8325 4.11933L17.0671 2.27157C16.6343 2.45086 16.241 2.71365 15.9097 3.04493L17.3239 4.45914ZM17.8325 4.11933C18.0227 4.04055 18.2265 4 18.4324 4V2C17.9639 2 17.5 2.09228 17.0671 2.27157L17.8325 4.11933ZM18.4324 4C18.6383 4 18.8421 4.04055 19.0323 4.11933L19.7977 2.27157C19.3648 2.09228 18.9009 2 18.4324 2V4ZM19.0323 4.11933C19.2225 4.19811 19.3953 4.31358 19.5409 4.45914L20.9551 3.04493C20.6238 2.71365 20.2305 2.45086 19.7977 2.27157L19.0323 4.11933ZM19.5409 4.45914C19.6864 4.60471 19.8019 4.77752 19.8807 4.96771L21.7284 4.20235C21.5491 3.7695 21.2864 3.37621 20.9551 3.04493L19.5409 4.45914ZM19.8807 4.96771C19.9595 5.1579 20 5.36175 20 5.56761H22C22 5.09911 21.9077 4.63519 21.7284 4.20235L19.8807 4.96771ZM20 5.56761C20 5.77348 19.9595 5.97732 19.8807 6.16751L21.7284 6.93288C21.9077 6.50003 22 6.03611 22 5.56761H20ZM19.8807 6.16751C19.8019 6.3577 19.6864 6.53051 19.5409 6.67608L20.9551 8.09029C21.2864 7.75901 21.5491 7.36572 21.7284 6.93288L19.8807 6.16751ZM19.5409 6.67608L7.28573 18.9312L8.69994 20.3454L20.9551 8.09029L19.5409 6.67608ZM7.72971 18.6736L2.73688 20.0352L3.26312 21.9648L8.25595 20.6031L7.72971 18.6736ZM3.96476 21.2631L5.32645 16.2703L3.39692 15.7441L2.03524 20.7369L3.96476 21.2631ZM5.06879 16.7143L17.3239 4.45914L15.9097 3.04493L3.65457 15.3001L5.06879 16.7143Z"
    fill="#6038D0"/>
</svg>
