<svg width="34" height="34" viewBox="0 0 34 34" fill="none" xmlns="http://www.w3.org/2000/svg">
    <path fill-rule="evenodd" clip-rule="evenodd" d="M17 19C18.1046 19 19 18.1046 19 17C19 15.8954 18.1046 15 17 15C15.8954 15 15 15.8954 15 17C15 18.1046 15.8954 19 17 19Z" fill="#6038D0"/>
    <path fill-rule="evenodd" clip-rule="evenodd" d="M17 11C18.1046 11 19 10.1046 19 9C19 7.89543 18.1046 7 17 7C15.8954 7 15 7.89543 15 9C15 10.1046 15.8954 11 17 11Z" fill="#6038D0"/>
    <path fill-rule="evenodd" clip-rule="evenodd" d="M17 27C18.1046 27 19 26.1046 19 25C19 23.8954 18.1046 23 17 23C15.8954 23 15 23.8954 15 25C15 26.1046 15.8954 27 17 27Z" fill="#6038D0"/>
</svg>
