<svg width="24" height="24" viewBox="0 0 24 24" fill="none" xmlns="http://www.w3.org/2000/svg">
    <path fill-rule="evenodd" clip-rule="evenodd" d="M4.5 16.9844C4.57166 16.9766 4.64446 16.9726 4.71819 16.9726H12.2709C12.2358 16.8706 12.2168 16.7612 12.2168 16.6474C12.2168 16.0951 12.6645 15.6474 13.2168 15.6474H14.8848V14C14.8848 13.6234 15.093 13.2954 15.4006 13.1248C14.2601 11.8224 12.585 11 10.7178 11C7.36097 11 4.62502 13.6582 4.5 16.9844Z" fill="#201F1F"/>
    <path d="M4.5 16.9844L4.00035 16.9656C3.9949 17.1108 4.05285 17.2511 4.15913 17.3502C4.26541 17.4492 4.40951 17.4971 4.55393 17.4814L4.5 16.9844ZM12.2709 16.9726V17.4726C12.4324 17.4726 12.584 17.3945 12.6779 17.2631C12.7717 17.1316 12.7962 16.9628 12.7437 16.8101L12.2709 16.9726ZM14.8848 15.6474V16.1474C15.1609 16.1474 15.3848 15.9235 15.3848 15.6474H14.8848ZM15.4006 13.1248L15.643 13.5621C15.7752 13.4888 15.8672 13.3597 15.8931 13.2107C15.9191 13.0618 15.8763 12.9092 15.7767 12.7954L15.4006 13.1248ZM4.71819 16.4726C4.62641 16.4726 4.5356 16.4776 4.44607 16.4873L4.55393 17.4814C4.60772 17.4756 4.66252 17.4726 4.71819 17.4726V16.4726ZM12.2709 16.4726H4.71819V17.4726H12.2709V16.4726ZM12.7437 16.8101C12.7264 16.7597 12.7168 16.7052 12.7168 16.6474H11.7168C11.7168 16.8173 11.7452 16.9816 11.798 17.1351L12.7437 16.8101ZM12.7168 16.6474C12.7168 16.3712 12.9407 16.1474 13.2168 16.1474V15.1474C12.3884 15.1474 11.7168 15.8189 11.7168 16.6474H12.7168ZM13.2168 16.1474H14.8848V15.1474H13.2168V16.1474ZM14.3848 14V15.6474H15.3848V14H14.3848ZM15.1581 12.6876C14.698 12.9427 14.3848 13.4344 14.3848 14H15.3848C15.3848 13.8124 15.4879 13.6481 15.643 13.5621L15.1581 12.6876ZM10.7178 11.5C12.4348 11.5 13.9748 12.2557 15.0244 13.4542L15.7767 12.7954C14.5453 11.3892 12.7351 10.5 10.7178 10.5V11.5ZM4.99965 17.0031C5.11461 13.9446 7.63082 11.5 10.7178 11.5V10.5C7.09111 10.5 4.13543 13.3717 4.00035 16.9656L4.99965 17.0031Z" fill="#201F1F"/>
    <path d="M16.8848 15V20.2941" stroke="#201F1F" stroke-width="1.5" stroke-linecap="round" stroke-linejoin="round"/>
    <path d="M14.2168 17.6473H19.5501" stroke="#201F1F" stroke-width="1.5" stroke-linecap="round" stroke-linejoin="round"/>
    <circle cx="10.7168" cy="6.5" r="3.5" fill="#201F1F"/>
</svg>
