<svg width="18" height="18" viewBox="0 0 18 18" fill="none" xmlns="http://www.w3.org/2000/svg">
  <g clip-path="url(#clip0_7425_40821)">
    <path d="M14.946 0C14.5455 0.000969674 14.1492 0.0812203 13.7799 0.236122C13.4107 0.391024 13.0757 0.617511 12.7944 0.902517L1.08687 12.6093L1.04097 12.8411L0.230997 16.9131L0 18L1.08761 17.769L5.15967 16.959L5.39067 16.9124L17.0982 5.20558C17.384 4.92477 17.6109 4.58986 17.7659 4.2204C17.9208 3.85093 18.0006 3.45431 18.0006 3.05368C18.0006 2.65304 17.9208 2.25642 17.7659 1.88696C17.6109 1.51749 17.384 1.18258 17.0982 0.901777C16.8168 0.616816 16.4817 0.390414 16.1123 0.235638C15.7429 0.0808617 15.3465 0.000775151 14.946 0ZM14.946 1.41115C15.3191 1.41115 15.6952 1.58144 16.0565 1.94348C16.7769 2.66313 16.7769 3.44423 16.0565 4.16461L15.5249 4.67325L13.326 2.47507L13.8354 1.94348C14.1974 1.58144 14.5728 1.41115 14.946 1.41115ZM12.2858 3.51678L14.4832 5.71496L5.52986 14.6676C5.04651 13.7219 4.27698 12.9529 3.33095 12.4701L12.2858 3.51678ZM2.38327 13.674C2.82145 13.8503 3.21948 14.1133 3.55346 14.4473C3.88744 14.7813 4.15047 15.1793 4.32675 15.6175L1.89684 16.1032L2.38327 13.674Z" fill="#201F1F"/>
  </g>
  <defs>
    <clipPath id="clip0_7425_40821">
      <rect width="18" height="18" fill="white"/>
    </clipPath>
  </defs>
</svg>
