<svg width="24" height="24" viewBox="0 0 24 24" fill="none" xmlns="http://www.w3.org/2000/svg">
    <path d="M13.5443 10.456C12.7252 9.63723 11.6144 9.17728 10.4563 9.17728C9.29815 9.17728 8.18741 9.63723 7.3683 10.456L4.2793 13.544C3.46018 14.3631 3 15.4741 3 16.6325C3 17.7909 3.46018 18.9019 4.2793 19.721C5.09842 20.5401 6.20939 21.0003 7.3678 21.0003C8.52621 21.0003 9.63718 20.5401 10.4563 19.721L12.0003 18.177" stroke="#201F1F" stroke-width="2" stroke-linecap="round" stroke-linejoin="round"/>
    <path d="M10.457 13.544C11.2761 14.3628 12.3869 14.8227 13.545 14.8227C14.7032 14.8227 15.8139 14.3628 16.633 13.544L19.722 10.456C20.5412 9.63687 21.0013 8.52591 21.0013 7.36749C21.0013 6.20908 20.5412 5.09811 19.722 4.27899C18.9029 3.45987 17.7919 2.99969 16.6335 2.99969C15.4751 2.99969 14.3642 3.45987 13.545 4.27899L12.001 5.82299" stroke="#201F1F" stroke-width="2" stroke-linecap="round" stroke-linejoin="round"/>
</svg>
