<svg width="24" height="24" viewBox="0 0 24 24" fill="none" xmlns="http://www.w3.org/2000/svg">
    <path fill-rule="evenodd" clip-rule="evenodd" d="M4 11.4121C4 10.3075 4.89543 9.41211 6 9.41211H18C19.1046 9.41211 20 10.3075 20 11.4121V18.0002C20 19.1048 19.1046 20.0002 18 20.0002H6C4.89543 20.0002 4 19.1048 4 18.0002V11.4121ZM12.5039 12.0588C12.5039 11.7827 12.28 11.5588 12.0039 11.5588C11.7278 11.5588 11.5039 11.7827 11.5039 12.0588V14.2062H9.33594C9.05979 14.2062 8.83594 14.43 8.83594 14.7062C8.83594 14.9823 9.05979 15.2062 9.33594 15.2062H11.5039V17.3529C11.5039 17.629 11.7278 17.8529 12.0039 17.8529C12.28 17.8529 12.5039 17.629 12.5039 17.3529V15.2062H14.6693C14.9454 15.2062 15.1693 14.9823 15.1693 14.7062C15.1693 14.43 14.9454 14.2062 14.6693 14.2062H12.5039V12.0588Z" fill="#201F1F"/>
    <path fill-rule="evenodd" clip-rule="evenodd" d="M7.7793 5C6.67473 5 5.7793 5.89543 5.7793 7V7.65961C5.8524 7.65151 5.92669 7.64735 6.00195 7.64735H18.002C18.0769 7.64735 18.1509 7.65148 18.2237 7.65951V7C18.2237 5.89543 17.3283 5 16.2237 5H7.7793Z" fill="#201F1F"/>
    <path d="M5.7793 7.65961H5.2793C5.2793 7.8018 5.33984 7.93727 5.44577 8.03211C5.55171 8.12696 5.69301 8.17222 5.83434 8.15657L5.7793 7.65961ZM18.2237 7.65951L18.1689 8.1565C18.3102 8.17209 18.4515 8.12679 18.5573 8.03195C18.6632 7.9371 18.7237 7.80167 18.7237 7.65951H18.2237ZM6.2793 7C6.2793 6.17157 6.95087 5.5 7.7793 5.5V4.5C6.39859 4.5 5.2793 5.61928 5.2793 7H6.2793ZM6.2793 7.65961V7H5.2793V7.65961H6.2793ZM5.83434 8.15657C5.8892 8.15049 5.94512 8.14735 6.00195 8.14735V7.14735C5.90826 7.14735 5.8156 7.15253 5.72425 7.16265L5.83434 8.15657ZM6.00195 8.14735H18.002V7.14735H6.00195V8.14735ZM18.002 8.14735C18.0586 8.14735 18.1143 8.15047 18.1689 8.1565L18.2786 7.16253C18.1876 7.15249 18.0953 7.14735 18.002 7.14735V8.14735ZM17.7237 7V7.65951H18.7237V7H17.7237ZM16.2237 5.5C17.0522 5.5 17.7237 6.17157 17.7237 7H18.7237C18.7237 5.61929 17.6045 4.5 16.2237 4.5V5.5ZM7.7793 5.5H16.2237V4.5H7.7793V5.5Z" fill="#201F1F"/>
</svg>
