<svg width="61" height="68" viewBox="0 0 61 68" fill="none" xmlns="http://www.w3.org/2000/svg">
    <g>
        <path d="M12.6025 16.9188L12.2664 15.977L11.6025 16.214V16.9188H12.6025ZM60.0024 0H61.0024V-1.41873L59.6662 -0.941803L60.0024 0ZM12.6025 26.3046L12.9387 27.2464L13.6025 27.0094V26.3046H12.6025ZM0 30.8029L-0.336165 29.8611L-1 30.098V30.8029H0ZM0 67.9151H-1V69.3339L0.336165 68.8569L0 67.9151ZM47.3999 50.9963L47.736 51.9381L48.3999 51.7012V50.9963H47.3999ZM47.3999 41.6106L47.0637 40.6688L46.3999 40.9057V41.6106H47.3999ZM60.0024 37.1122L60.3385 38.054L61.0024 37.8171V37.1122H60.0024ZM12.9387 17.8606L60.3385 0.941803L59.6662 -0.941803L12.2664 15.977L12.9387 17.8606ZM13.6025 26.3046V16.9188H11.6025V26.3046H13.6025ZM0.336165 31.7447L12.9387 27.2464L12.2664 25.3628L-0.336165 29.8611L0.336165 31.7447ZM1 67.9151V30.8029H-1V67.9151H1ZM47.0637 50.0545L-0.336165 66.9733L0.336165 68.8569L47.736 51.9381L47.0637 50.0545ZM46.3999 41.6106V50.9963H48.3999V41.6106H46.3999ZM59.6662 36.1704L47.0637 40.6688L47.736 42.5524L60.3385 38.054L59.6662 36.1704ZM59.0024 0V37.1122H61.0024V0H59.0024Z" fill="white" />
    </g>
</svg>
