<svg width="61" height="68" viewBox="0 0 61 68" fill="none" xmlns="http://www.w3.org/2000/svg">
<mask id="mask0_9908_115609" style="mask-type:alpha" maskUnits="userSpaceOnUse" x="0" y="0" width="61" height="68">
<path fill-rule="evenodd" clip-rule="evenodd" d="M60.0024 0L12.6025 16.9188V26.3047L0 30.8031V67.9153L47.3999 50.9965V41.6106L60.0024 37.1122V0Z" fill="#ADD5E5"/>
</mask>
<g mask="url(#mask0_9908_115609)">
<path fill-rule="evenodd" clip-rule="evenodd" d="M60.0024 0L12.6025 16.9188V26.3047L0 30.8031V67.9153L47.3999 50.9965V41.6106L60.0024 37.1122V0Z" fill="#6038D0"/>
<path fill-rule="evenodd" clip-rule="evenodd" d="M29.1562 44.4692C29.2973 46.6356 31.0148 48.3742 33.1777 48.5584L33.1428 48.9845C30.9013 49.1933 29.1469 51.0722 29.1469 53.3593C29.1469 54.797 29.8402 56.0735 30.912 56.8751L26.2084 58.5551C25.6418 58.2913 25.0096 58.144 24.3428 58.144C22.5874 58.144 21.0714 59.1652 20.361 60.6436L19.2729 61.0322C18.6558 59.3471 17.0325 58.144 15.127 58.144C12.6905 58.144 10.7152 60.1113 10.7152 62.538C10.7152 63.0504 10.8033 63.5423 10.9652 63.9996L9.92135 64.3724C10.1792 63.8141 10.323 63.1928 10.323 62.538C10.323 60.1113 8.34778 58.144 5.91122 58.144C3.47465 58.144 1.49943 60.1113 1.49943 62.538C1.49943 64.2772 2.51387 65.7803 3.98555 66.4925L-0.000523668 67.9162L0.00407696 65.4447C0.690597 64.67 1.10717 63.6525 1.10717 62.538C1.10717 61.4295 0.694965 60.4167 0.0148766 59.6437L0.0212015 56.2465C0.697528 55.4743 1.10718 54.4645 1.10718 53.3593C1.10718 52.26 0.701854 51.255 0.0319249 50.4844L0.0383223 47.0481C0.704426 46.2785 1.10717 45.2764 1.10717 44.1806C1.10717 44.0579 1.10213 43.9365 1.09224 43.8164L1.51357 43.8262C1.5042 43.9431 1.49943 44.0613 1.49943 44.1806C1.49943 46.6073 3.47465 48.5746 5.91122 48.5746C8.34778 48.5746 10.323 46.6073 10.323 44.1806C10.323 44.1305 10.3222 44.0807 10.3205 44.0311L10.7174 44.0403C10.716 44.0869 10.7152 44.1336 10.7152 44.1806C10.7152 46.6073 12.6905 48.5746 15.127 48.5746C17.5418 48.5746 19.5035 46.6423 19.5383 44.2455L19.9317 44.2546C19.9714 46.6472 21.9311 48.5746 24.3428 48.5746C26.6853 48.5746 28.6013 46.7564 28.7459 44.4597L29.1562 44.4692ZM24.3429 57.7533C21.9063 57.7533 19.9311 55.786 19.9311 53.3593C19.9311 50.9325 21.9063 48.9653 24.3429 48.9653C26.7794 48.9653 28.7546 50.9325 28.7546 53.3593C28.7546 55.786 26.7794 57.7533 24.3429 57.7533ZM1.49943 53.3593C1.49943 55.786 3.47465 57.7533 5.91122 57.7533C8.34778 57.7533 10.323 55.786 10.323 53.3593C10.323 50.9325 8.34778 48.9653 5.91122 48.9653C3.47465 48.9653 1.49943 50.9325 1.49943 53.3593ZM15.127 57.7533C12.6905 57.7533 10.7152 55.786 10.7152 53.3593C10.7152 50.9325 12.6905 48.9653 15.127 48.9653C17.5636 48.9653 19.5388 50.9325 19.5388 53.3593C19.5388 55.786 17.5636 57.7533 15.127 57.7533Z" fill="#FF8743"/>
<path fill-rule="evenodd" clip-rule="evenodd" d="M17.5295 19.9588C17.9145 19.8485 18.3211 19.7895 18.7415 19.7895C21.1382 19.7895 23.0873 21.7089 23.1399 24.0967L23.5326 24.0967C23.5852 21.7089 25.5343 19.7895 27.931 19.7895C30.3277 19.7895 32.2768 21.7089 32.3294 24.0967L32.7226 24.0967C32.7751 21.7089 34.7242 19.7895 37.121 19.7895C39.5177 19.7895 41.4668 21.7089 41.5193 24.0967L41.913 24.0967C41.9656 21.7089 43.9146 19.7895 46.3114 19.7895C48.7081 19.7895 50.6572 21.7089 50.7098 24.0967L51.1029 24.0967C51.1555 21.7089 53.1046 19.7895 55.5013 19.7895C57.898 19.7895 59.8471 21.7089 59.8997 24.0967L59.9586 24.0967L59.9585 0.0133018L56.0367 1.41305C58.2139 1.67759 59.9008 3.53502 59.9008 5.78706C59.9008 8.22059 57.9311 10.1934 55.5013 10.1934C53.0716 10.1934 51.1018 8.22059 51.1018 5.78706C51.1018 4.60363 51.5677 3.52917 52.3257 2.73756L50.0932 3.53434C50.4855 4.19351 50.7108 4.9639 50.7108 5.78701C50.7108 8.22054 48.7411 10.1933 46.3114 10.1933C44.1022 10.1933 42.2734 8.56254 41.9595 6.4374L41.442 6.62209C41.0524 8.6563 39.2661 10.1933 37.1214 10.1933C36.0489 10.1933 35.066 9.80894 34.3026 9.17023L29.5146 10.8792C31.1619 11.5159 32.3305 13.117 32.3305 14.9914C32.3305 17.4249 30.3608 19.3977 27.931 19.3977C25.5012 19.3977 23.5315 17.4249 23.5315 14.9914C23.5315 14.1972 23.7413 13.4522 24.1084 12.8087L22.7957 13.2772C23.018 13.8041 23.141 14.3834 23.141 14.9915C23.141 17.425 21.1713 19.3978 18.7415 19.3978C18.2992 19.3978 17.8721 19.3324 17.4694 19.2108L17.5295 19.9588ZM51.1018 14.9914C51.1018 12.5579 53.0716 10.5851 55.5013 10.5851C57.9311 10.5851 59.9008 12.5579 59.9008 14.9914C59.9008 17.4249 57.9311 19.3977 55.5013 19.3977C53.0716 19.3977 51.1018 17.4249 51.1018 14.9914ZM41.9119 14.9915C41.9119 12.5579 43.8816 10.5852 46.3114 10.5852C48.7411 10.5852 50.7108 12.5579 50.7108 14.9915C50.7108 17.425 48.7411 19.3978 46.3114 19.3978C43.8816 19.3978 41.9119 17.425 41.9119 14.9915ZM32.7219 14.9915C32.7219 12.5579 34.6916 10.5852 37.1214 10.5852C39.5512 10.5852 41.5209 12.5579 41.5209 14.9915C41.5209 17.425 39.5512 19.3978 37.1214 19.3978C34.6916 19.3978 32.7219 17.425 32.7219 14.9915Z" fill="#E8E0FF"/>
</g>
</svg>
