<svg width="24" height="24" viewBox="0 0 24 24" fill="none" xmlns="http://www.w3.org/2000/svg">
    <path d="M4.03303 19.1602C4.00296 19.1597 3.98855 19.1521 3.97982 19.1462C3.96803 19.1383 3.95442 19.124 3.94449 19.103C3.93457 19.082 3.93217 19.0624 3.93349 19.0483C3.93447 19.0378 3.93779 19.0219 3.95644 18.9983L3.25031 18.4402L3.95644 18.9983L5.08528 17.5698C5.57067 16.9556 5.60574 16.1463 5.2976 15.5017C4.72526 14.3045 4.40101 12.9501 4.40101 11.5112C4.40101 9.06771 5.33173 7.19173 6.80049 5.91534C8.28342 4.62663 10.3744 3.9 12.7505 3.9C15.1266 3.9 17.2176 4.62663 18.7005 5.91534C20.1693 7.19173 21.1 9.06771 21.1 11.5112C21.1 13.9509 20.1783 15.7631 18.716 17.0092C17.2324 18.2735 15.1271 19.0076 12.7075 19.1234C11.2394 19.1937 10.6365 19.2227 10.0333 19.2346C9.60837 19.2429 9.18328 19.2429 8.4555 19.2429L4.03303 19.1602Z" stroke="#6038D0" stroke-width="1.8"/>
</svg>
