<svg width="36" height="36" viewBox="0 0 36 36" fill="none" xmlns="http://www.w3.org/2000/svg">
    <path d="M25.951 15.7492H34.798C34.9048 15.7492 35.0095 15.7797 35.0997 15.8371C35.1899 15.8945 35.2618 15.9764 35.3072 16.0731C35.3525 16.1699 35.3693 16.2776 35.3556 16.3837C35.342 16.4897 35.2984 16.5896 35.23 16.6717L30.8065 21.9817C30.7537 22.045 30.6876 22.0959 30.613 22.1309C30.5383 22.1658 30.4569 22.1839 30.3745 22.1839C30.292 22.1839 30.2106 22.1658 30.136 22.1309C30.0613 22.0959 29.9953 22.045 29.9425 21.9817L25.519 16.6717C25.4506 16.5896 25.407 16.4897 25.3933 16.3837C25.3796 16.2776 25.3964 16.1699 25.4418 16.0731C25.4871 15.9764 25.5591 15.8945 25.6492 15.8371C25.7394 15.7797 25.8441 15.7492 25.951 15.7492ZM1.20096 20.2492H10.048C10.1548 20.2492 10.2595 20.2187 10.3497 20.1613C10.4399 20.1039 10.5118 20.022 10.5572 19.9253C10.6025 19.8285 10.6193 19.7208 10.6056 19.6147C10.592 19.5087 10.5484 19.4088 10.48 19.3267L6.05646 14.0167C6.00367 13.9534 5.93761 13.9025 5.86296 13.8675C5.78831 13.8326 5.70689 13.8145 5.62446 13.8145C5.54203 13.8145 5.46061 13.8326 5.38596 13.8675C5.31131 13.9025 5.24525 13.9534 5.19246 14.0167L0.768961 19.3267C0.700556 19.4088 0.656965 19.5087 0.643293 19.6147C0.629621 19.7208 0.646434 19.8285 0.691762 19.9253C0.73709 20.022 0.809059 20.1039 0.899239 20.1613C0.989419 20.2187 1.09408 20.2492 1.20096 20.2492Z" fill="#6038D0"/>
    <path fill-rule="evenodd" clip-rule="evenodd" d="M17.9988 6.74967C14.5068 6.74967 11.3838 8.34042 9.32055 10.8402C9.22842 10.9596 9.11321 11.0593 8.98179 11.1333C8.85037 11.2073 8.7054 11.2541 8.55552 11.2709C8.40564 11.2878 8.25391 11.2743 8.10933 11.2313C7.96476 11.1884 7.8303 11.1168 7.71395 11.0208C7.5976 10.9248 7.50174 10.8064 7.43207 10.6727C7.36239 10.5389 7.32033 10.3925 7.30837 10.2421C7.29642 10.0918 7.31481 9.94057 7.36247 9.79747C7.41013 9.65438 7.48608 9.52233 7.5858 9.40917C9.23322 7.41461 11.4189 5.93519 13.8828 5.14689C16.3467 4.35859 18.9852 4.29458 21.4844 4.96247C23.9837 5.63036 26.2385 7.00204 27.9807 8.91436C29.7229 10.8267 30.8792 13.1992 31.312 15.7497H29.0238C28.5043 13.209 27.1234 10.9257 25.1145 9.28574C23.1056 7.64584 20.592 6.74999 17.9988 6.74967ZM6.9738 20.2497C7.39974 22.3301 8.40559 24.2475 9.87512 25.7805C11.3447 27.3134 13.2179 28.3994 15.2785 28.9128C17.339 29.4262 19.5028 29.3462 21.5198 28.682C23.5368 28.0178 25.3247 26.7965 26.677 25.1592C26.7692 25.0398 26.8844 24.9401 27.0158 24.8661C27.1472 24.7921 27.2922 24.7453 27.4421 24.7284C27.5919 24.7116 27.7437 24.725 27.8883 24.768C28.0328 24.811 28.1673 24.8826 28.2836 24.9785C28.4 25.0745 28.4958 25.1929 28.5655 25.3267C28.6352 25.4604 28.6773 25.6068 28.6892 25.7572C28.7012 25.9075 28.6828 26.0588 28.6351 26.2019C28.5875 26.345 28.5115 26.477 28.4118 26.5902C26.7644 28.5847 24.5787 30.0641 22.1148 30.8524C19.6509 31.6407 17.0124 31.7048 14.5132 31.0369C12.0139 30.369 9.75908 28.9973 8.01687 27.085C6.27466 25.1726 5.11838 22.8002 4.68555 20.2497H6.9738Z" fill="#6038D0"/>
</svg>
