<svg width="24" height="24" viewBox="0 0 24 24" fill="none" xmlns="http://www.w3.org/2000/svg">
  <g clip-path="url(#clip0_15895_140470)">
    <path d="M-5.22351e-07 12L0.0299995 12.66L3.84 8.85001L2.5 7.50001C4.07 4.25001 7.24 1.91001 11 1.55001L11 0.0500102C4.84 0.560011 -7.97296e-07 5.71001 -5.22351e-07 12ZM13 23.95C19.16 23.44 24 18.29 24 12L23.97 11.34L20.16 15.15L21.5 16.5C19.94 19.75 16.76 22.09 13 22.45L13 23.95Z" fill="#6038D0"/>
    <path d="M17.8075 8.69519C18.0675 8.43517 18.0675 8.00181 17.8075 7.75512L16.2474 6.19501C16.0007 5.935 15.5673 5.935 15.3073 6.19501L14.0806 7.4151L16.5807 9.91527M6 15.5023V18.0025H8.50017L15.874 10.622L13.3738 8.12182L6 15.5023Z" fill="#6038D0"/>
  </g>
  <defs>
    <clipPath id="clip0_15895_140470">
      <rect width="24" height="24" fill="white"/>
    </clipPath>
  </defs>
</svg>
