<svg width="16" height="16" viewBox="0 0 16 16" fill="none" xmlns="http://www.w3.org/2000/svg">
    <path d="M9.33325 5.33325H2.66659C1.93125 5.33325 1.33325 5.93125 1.33325 6.66659V13.3333C1.33325 14.0686 1.93125 14.6666 2.66659 14.6666H9.33325C10.0686 14.6666 10.6666 14.0686 10.6666 13.3333V6.66659C10.6666 5.93125 10.0686 5.33325 9.33325 5.33325Z" fill="#595959"/>
    <path d="M13.3333 1.33325H6.66659C6.31296 1.33325 5.97382 1.47373 5.72378 1.72378C5.47373 1.97382 5.33325 2.31296 5.33325 2.66659V3.99992H10.6666C11.0202 3.99992 11.3593 4.14039 11.6094 4.39044C11.8594 4.64049 11.9999 4.97963 11.9999 5.33325V10.6666H13.3333C13.6869 10.6666 14.026 10.5261 14.2761 10.2761C14.5261 10.026 14.6666 9.68687 14.6666 9.33325V2.66659C14.6666 2.31296 14.5261 1.97382 14.2761 1.72378C14.026 1.47373 13.6869 1.33325 13.3333 1.33325Z" fill="#595959"/>
</svg>
