<svg width="150" height="97" viewBox="0 0 150 97" fill="none" xmlns="http://www.w3.org/2000/svg">
<rect x="58.4414" y="81.3818" width="34.9715" height="6.73762" fill="#6038D0"/>
<rect x="58.4414" y="63.415" width="34.9715" height="6.73762" fill="#6038D0"/>
<rect x="32.7734" y="83.3076" width="25.6671" height="4.81259" fill="#6038D0"/>
<rect x="58.4414" y="72.3984" width="34.9715" height="6.73762" fill="#6038D0"/>
<rect x="32.7734" y="76.5703" width="25.6671" height="4.81259" fill="#6038D0"/>
<rect x="32.7734" y="69.8321" width="25.6671" height="5.13343" fill="#6038D0"/>
<rect x="58.4414" y="54.4316" width="34.9715" height="6.73762" fill="#6038D0"/>
<rect x="32.7734" y="63.415" width="25.6671" height="4.81259" fill="#6038D0"/>
<rect x="93.4121" y="83.3067" width="25.6671" height="4.81259" fill="#6038D0"/>
<rect x="93.4121" y="76.5704" width="25.6671" height="4.81259" fill="#6038D0"/>
<rect x="93.4121" y="69.8321" width="25.6671" height="5.13343" fill="#6038D0"/>
<ellipse cx="75.4968" cy="40.0173" rx="7.06626" ry="8.2115" transform="rotate(-25.0397 75.4968 40.0173)" fill="#FF8743"/>
<ellipse cx="77.1804" cy="39.1745" rx="7.06626" ry="8.2115" transform="rotate(-25.0397 77.1804 39.1745)" fill="#E1FC31"/>
<path fill-rule="evenodd" clip-rule="evenodd" d="M77.0283 15.6339C73.2768 15.6793 70.2498 18.6777 70.2498 22.3699C70.2498 22.384 70.2498 22.3981 70.2499 22.4121L70.2489 22.4121C70.249 22.3981 70.249 22.384 70.249 22.3699C70.249 18.6917 67.245 15.702 63.5132 15.6345L63.5132 15.6316C67.2448 15.5642 70.2487 12.5748 70.249 8.89694L70.2498 8.89694C70.2502 12.5888 73.277 15.5869 77.0283 15.6323L77.0283 15.6339Z" fill="#E8E0FF"/>
<path fill-rule="evenodd" clip-rule="evenodd" d="M65.6592 26.6022C62.8461 26.6355 60.5753 28.8803 60.5683 31.6471C60.5614 28.8915 58.309 26.6537 55.5116 26.6027L55.5116 26.6007C58.289 26.5501 60.5293 24.3437 60.5679 21.6151C60.6065 24.3552 62.8656 26.5686 65.6592 26.6012L65.6592 26.6022ZM60.5683 31.6914L60.5684 31.6914C60.5684 31.6851 60.5684 31.6788 60.5683 31.6725C60.5683 31.6788 60.5683 31.6851 60.5683 31.6914Z" fill="#E8E0FF"/>
</svg>
