<svg width="32" height="32" viewBox="0 0 32 32" fill="none" xmlns="http://www.w3.org/2000/svg">
    <path d="M24.0008 18.2858C24.9101 18.2858 25.7822 18.647 26.4252 19.29C27.0682 19.933 27.4294 20.805 27.4294 21.7143V22.5315C27.4294 26.6195 22.618 29.7143 16.0008 29.7143C9.38369 29.7143 4.57227 26.7806 4.57227 22.5315V21.7143C4.57227 20.805 4.93349 19.933 5.57647 19.29C6.21945 18.647 7.09152 18.2858 8.00084 18.2858H24.0008ZM24.0008 20.0001H8.00084C7.57486 20 7.16415 20.1586 6.84871 20.4449C6.53328 20.7312 6.33573 21.1246 6.29455 21.5486L6.28655 21.7143V22.5315C6.28655 25.5875 10.1597 28.0001 16.0008 28.0001C21.6306 28.0001 25.5494 25.5943 25.7094 22.7155L25.7151 22.5315V21.7143C25.7151 21.2884 25.5565 20.8776 25.2703 20.5622C24.984 20.2468 24.5905 20.0492 24.1666 20.0081L24.0008 20.0001ZM16.0008 2.28577C16.9013 2.28577 17.793 2.46313 18.625 2.80774C19.4569 3.15234 20.2128 3.65743 20.8496 4.29418C21.4863 4.93092 21.9914 5.68685 22.336 6.51879C22.6806 7.35074 22.858 8.24242 22.858 9.14291C22.858 10.0434 22.6806 10.9351 22.336 11.767C21.9914 12.599 21.4863 13.3549 20.8496 13.9916C20.2128 14.6284 19.4569 15.1335 18.625 15.4781C17.793 15.8227 16.9013 16.0001 16.0008 16.0001C14.1822 16.0001 12.4381 15.2776 11.1521 13.9916C9.86614 12.7057 9.14369 10.9615 9.14369 9.14291C9.14369 7.32428 9.86614 5.58014 11.1521 4.29418C12.4381 3.00821 14.1822 2.28577 16.0008 2.28577ZM16.0008 4.00005C14.6369 4.00005 13.3288 4.54189 12.3643 5.50636C11.3998 6.47083 10.858 7.77894 10.858 9.14291C10.858 10.5069 11.3998 11.815 12.3643 12.7795C13.3288 13.7439 14.6369 14.2858 16.0008 14.2858C17.3648 14.2858 18.6729 13.7439 19.6374 12.7795C20.6019 11.815 21.1437 10.5069 21.1437 9.14291C21.1437 7.77894 20.6019 6.47083 19.6374 5.50636C18.6729 4.54189 17.3648 4.00005 16.0008 4.00005Z" fill="#8C8C8C"/>
</svg>
