<svg width="50" height="50" viewBox="0 0 50 50" fill="none" xmlns="http://www.w3.org/2000/svg">
<path d="M25 0C20.0555 0 15.222 1.46622 11.1108 4.21326C6.99953 6.96029 3.79521 10.8648 1.90302 15.4329C0.0108303 20.0011 -0.484251 25.0277 0.48038 29.8773C1.44501 34.7268 3.82601 39.1813 7.32233 42.6777C10.8186 46.174 15.2732 48.555 20.1227 49.5196C24.9723 50.4842 29.9989 49.9892 34.5671 48.097C39.1352 46.2048 43.0397 43.0005 45.7867 38.8892C48.5338 34.778 50 29.9445 50 25C50 18.3696 47.3661 12.0107 42.6777 7.32233C37.9893 2.63392 31.6304 0 25 0ZM25 45.8289C25 40.3048 22.8055 35.0068 18.8994 31.1007C14.9932 27.1945 9.69524 25 4.17107 25C9.69524 25 14.9932 22.8055 18.8994 18.8993C22.8055 14.9932 25 9.69523 25 4.17105C25 9.69523 27.1945 14.9932 31.1007 18.8993C35.0068 22.8055 40.3048 25 45.8289 25C40.3048 25 35.0068 27.1945 31.1007 31.1007C27.1945 35.0068 25 40.3048 25 45.8289Z" fill="#BFBFBF"/>
</svg>
