<svg width="18" height="18" viewBox="0 0 18 18" fill="none" xmlns="http://www.w3.org/2000/svg">
    <path d="M9.81818 5.625C9.81818 5.21079 9.4824 4.875 9.06818 4.875C8.65397 4.875 8.31818 5.21079 8.31818 5.625H9.81818ZM2.25 8.49V7.74C1.83579 7.74 1.5 8.07579 1.5 8.49H2.25ZM1.5 11.16C1.5 11.5742 1.83579 11.91 2.25 11.91C2.66421 11.91 3 11.5742 3 11.16H1.5ZM15.75 8.49H16.5C16.5 8.07579 16.1642 7.74 15.75 7.74V8.49ZM15 11.16C15 11.5742 15.3358 11.91 15.75 11.91C16.1642 11.91 16.5 11.5742 16.5 11.16H15ZM8.31818 11.25C8.31818 11.6642 8.65397 12 9.06818 12C9.4824 12 9.81818 11.6642 9.81818 11.25H8.31818ZM8.31818 5.625V8.49H9.81818V5.625H8.31818ZM9.06818 7.74H2.25V9.24H9.06818V7.74ZM1.5 8.49V11.16H3V8.49H1.5ZM15 8.49V11.16H16.5V8.49H15ZM15.75 7.74H9.06818V9.24H15.75V7.74ZM9.81818 11.25V8.49H8.31818V11.25H9.81818ZM2.25 9.24H9V7.74H2.25V9.24ZM9 9.24H15.75V7.74H9V9.24Z" fill="#201F1F"/>
    <circle cx="9" cy="15.75" r="1.5" stroke="#201F1F" stroke-width="1.5"/>
    <circle cx="15.75" cy="15.75" r="1.5" stroke="#201F1F" stroke-width="1.5"/>
    <circle cx="2.25" cy="15.75" r="1.5" stroke="#201F1F" stroke-width="1.5"/>
    <circle cx="9" cy="2.25" r="1.5" stroke="#201F1F" stroke-width="1.5"/>
</svg>
