<svg width="24" height="24" viewBox="0 0 24 24" fill="none" xmlns="http://www.w3.org/2000/svg">
    <path d="M17.8462 15.9615C17.8462 15.4427 17.6618 14.9989 17.293 14.6301C16.9242 14.2613 16.4804 14.0769 15.9615 14.0769C15.4427 14.0769 14.9989 14.2613 14.6301 14.6301C14.2613 14.9989 14.0769 15.4427 14.0769 15.9615C14.0769 16.4804 14.2613 16.9242 14.6301 17.293C14.9989 17.6618 15.4427 17.8462 15.9615 17.8462C16.4804 17.8462 16.9242 17.6618 17.293 17.293C17.6618 16.9242 17.8462 16.4804 17.8462 15.9615ZM20 19.4615C20 19.6074 19.9467 19.7336 19.8401 19.8401C19.7336 19.9467 19.6074 20 19.4615 20C19.3101 20 19.1839 19.9467 19.0829 19.8401L17.64 18.4014C17.138 18.7492 16.5785 18.9231 15.9615 18.9231C15.5605 18.9231 15.177 18.8453 14.811 18.6896C14.445 18.534 14.1295 18.3236 13.8645 18.0586C13.5995 17.7936 13.3891 17.4781 13.2335 17.1121C13.0778 16.7461 13 16.3626 13 15.9615C13 15.5605 13.0778 15.177 13.2335 14.811C13.3891 14.445 13.5995 14.1295 13.8645 13.8645C14.1295 13.5995 14.445 13.3891 14.811 13.2335C15.177 13.0778 15.5605 13 15.9615 13C16.3626 13 16.7461 13.0778 17.1121 13.2335C17.4781 13.3891 17.7936 13.5995 18.0586 13.8645C18.3236 14.1295 18.534 14.445 18.6896 14.811C18.8453 15.177 18.9231 15.5605 18.9231 15.9615C18.9231 16.5785 18.7492 17.138 18.4014 17.64L19.8444 19.0829C19.9481 19.1867 20 19.3129 20 19.4615Z" fill="#19D992"/>
    <path d="M7.0366 7.99023L18.4595 4V12.2138C14 10.2045 10.5 14 12 17.5L4 20.018V11.2652L7.0366 10.2045V7.99023Z" fill="#19D992" stroke="#19D992" stroke-linecap="square" stroke-linejoin="round"/>
</svg>
