<svg width="24" height="24" viewBox="0 0 24 24" fill="none" xmlns="http://www.w3.org/2000/svg">
  <path d="M19.9691 11.6858C19.3417 10.0631 18.2527 8.65975 16.8364 7.64925C15.4202 6.63875 13.739 6.06538 12.0004 6C10.2619 6.06538 8.58062 6.63875 7.16441 7.64925C5.74819 8.65975 4.65911 10.0631 4.03178 11.6858C3.98941 11.803 3.98941 11.9313 4.03178 12.0485C4.65911 13.6712 5.74819 15.0745 7.16441 16.085C8.58062 17.0955 10.2619 17.6689 12.0004 17.7343C13.739 17.6689 15.4202 17.0955 16.8364 16.085C18.2527 15.0745 19.3417 13.6712 19.9691 12.0485C20.0114 11.9313 20.0114 11.803 19.9691 11.6858V11.6858ZM12.0004 16.6675C9.17353 16.6675 6.18662 14.5714 5.10386 11.8671C6.18662 9.16292 9.17353 7.06675 12.0004 7.06675C14.8273 7.06675 17.8142 9.16292 18.897 11.8671C17.8142 14.5714 14.8273 16.6675 12.0004 16.6675Z" fill="currentColor"/>
  <path d="M11.9971 8.66687C11.3642 8.66687 10.7454 8.85456 10.2192 9.20621C9.69289 9.55786 9.2827 10.0577 9.04048 10.6424C8.79826 11.2272 8.73489 11.8707 8.85837 12.4915C8.98185 13.1123 9.28665 13.6825 9.73421 14.1301C10.1818 14.5776 10.752 14.8824 11.3728 15.0059C11.9936 15.1294 12.6371 15.066 13.2218 14.8238C13.8066 14.5816 14.3064 14.1714 14.6581 13.6451C15.0097 13.1188 15.1974 12.5001 15.1974 11.8671C15.1974 11.0184 14.8602 10.2044 14.2601 9.6042C13.6599 9.00404 12.8459 8.66687 11.9971 8.66687ZM11.9971 14.0006C11.5752 14.0006 11.1627 13.8755 10.8118 13.6411C10.461 13.4066 10.1875 13.0734 10.026 12.6836C9.86455 12.2937 9.8223 11.8648 9.90462 11.4509C9.98695 11.037 10.1901 10.6569 10.4885 10.3585C10.7869 10.0601 11.1671 9.85694 11.5809 9.77462C11.9948 9.6923 12.4237 9.73455 12.8136 9.89603C13.2034 10.0575 13.5367 10.331 13.7711 10.6818C14.0055 11.0327 14.1306 11.4452 14.1306 11.8671C14.1306 12.433 13.9059 12.9756 13.5058 13.3757C13.1056 13.7759 12.563 14.0006 11.9971 14.0006Z" fill="currentColor"/>
</svg>
