<svg width="24" height="24" viewBox="0 0 24 24" fill="none" xmlns="http://www.w3.org/2000/svg">
  <path d="M5.64065 17.1458L6.21043 16.4248C6.59282 15.9409 6.62126 15.3002 6.38433 14.7823C5.94577 13.8238 5.69886 12.7481 5.69886 11.609C5.69886 9.59328 6.46899 8.03094 7.69413 6.96626C8.92714 5.89474 10.654 5.30005 12.5985 5.30005C14.5429 5.30005 16.2698 5.89474 17.5028 6.96626C18.7279 8.03094 19.498 9.59328 19.498 11.609C19.498 13.6226 18.7344 15.1345 17.5135 16.1749C16.2809 17.2253 14.546 17.8242 12.5745 17.9186C11.3995 17.9748 10.9152 17.998 10.4307 18.0076C10.0885 18.0144 9.74623 18.0143 9.16034 18.0143L6.0236 17.9557C5.61014 17.948 5.38425 17.4703 5.64065 17.1458Z" stroke="currentColor"/>
</svg>
