<svg width="24" height="24" viewBox="0 0 24 24" fill="none" xmlns="http://www.w3.org/2000/svg">
    <path d="M21.2565 10.962C21.7305 11.582 21.7305 12.419 21.2565 13.038C19.7635 14.987 16.1815 19 11.9995 19C7.81752 19 4.23552 14.987 2.74252 13.038C2.51191 12.7411 2.38672 12.3759 2.38672 12C2.38672 11.6241 2.51191 11.2589 2.74252 10.962C4.23552 9.013 7.81752 5 11.9995 5C16.1815 5 19.7635 9.013 21.2565 10.962V10.962Z" stroke="black" stroke-width="2" stroke-linecap="round" stroke-linejoin="round"/>
    <path d="M12 15C13.6569 15 15 13.6569 15 12C15 10.3431 13.6569 9 12 9C10.3431 9 9 10.3431 9 12C9 13.6569 10.3431 15 12 15Z" stroke="black" stroke-width="2" stroke-linecap="round" stroke-linejoin="round"/>
</svg>
