<svg width="16" height="16" viewBox="0 0 16 16" fill="none" xmlns="http://www.w3.org/2000/svg">
    <path d="M8.00016 1.3335C4.3335 1.3335 1.3335 4.3335 1.3335 8.00016C1.3335 11.6668 4.3335 14.6668 8.00016 14.6668C11.6668 14.6668 14.6668 11.6668 14.6668 8.00016C14.6668 4.3335 11.6668 1.3335 8.00016 1.3335ZM8.00016 13.3335C5.06016 13.3335 2.66683 10.9402 2.66683 8.00016C2.66683 5.06016 5.06016 2.66683 8.00016 2.66683C10.9402 2.66683 13.3335 5.06016 13.3335 8.00016C13.3335 10.9402 10.9402 13.3335 8.00016 13.3335ZM11.0602 5.0535L6.66683 9.44683L4.94016 7.72683L4.00016 8.66683L6.66683 11.3335L12.0002 6.00016L11.0602 5.0535Z" fill="black"/>
</svg>
