<svg width="16" height="16" viewBox="0 0 16 16" fill="none" xmlns="http://www.w3.org/2000/svg">
    <path d="M8.00016 13.3335C10.9335 13.3335 13.3335 10.9335 13.3335 8.00016C13.3335 5.06683 10.9335 2.66683 8.00016 2.66683C5.06683 2.66683 2.66683 5.06683 2.66683 8.00016C2.66683 10.9335 5.06683 13.3335 8.00016 13.3335ZM8.00016 1.3335C11.6668 1.3335 14.6668 4.3335 14.6668 8.00016C14.6668 11.6668 11.6668 14.6668 8.00016 14.6668C4.3335 14.6668 1.3335 11.6668 1.3335 8.00016C1.3335 4.3335 4.3335 1.3335 8.00016 1.3335ZM8.3335 8.5335L5.1335 10.4002L4.66683 9.46683L7.3335 7.9335V4.66683H8.3335V8.5335Z" fill="black"/>
</svg>
