<svg width="16" height="16" viewBox="0 0 16 16" fill="none" xmlns="http://www.w3.org/2000/svg">
    <mask id="path-1-inside-1_843_7841" fill="white">
        <path fill-rule="evenodd" clip-rule="evenodd" d="M14.0001 1.20018L4.52009 4.58815V6.46779L2 7.36843V14.8001L11.48 11.4121V9.5325L14.0001 8.63187V1.20018Z"/>
    </mask>
    <path d="M4.52009 4.58817L4.07137 3.33261L3.18676 3.64876V4.58817H4.52009ZM14.0001 1.2002H15.3334V-0.692239L13.5513 -0.0553652L14.0001 1.2002ZM4.52009 6.46781L4.9688 7.72337L5.85342 7.40722V6.46781H4.52009ZM2 7.36845L1.55128 6.11288L0.666667 6.42903V7.36845H2ZM2 14.8001H0.666667V16.6926L2.44872 16.0557L2 14.8001ZM11.48 11.4122L11.9287 12.6677L12.8133 12.3516V11.4122H11.48ZM11.48 9.53252L11.0313 8.27696L10.1466 8.59311V9.53252H11.48ZM14.0001 8.63189L14.4488 9.88745L15.3334 9.5713V8.63189H14.0001ZM4.9688 5.84373L14.4488 2.45576L13.5513 -0.0553652L4.07137 3.33261L4.9688 5.84373ZM5.85342 6.46781V4.58817H3.18676V6.46781H5.85342ZM2.44872 8.62401L4.9688 7.72337L4.07137 5.21225L1.55128 6.11288L2.44872 8.62401ZM3.33333 14.8001V7.36845H0.666667V14.8001H3.33333ZM11.0313 10.1566L1.55128 13.5446L2.44872 16.0557L11.9287 12.6677L11.0313 10.1566ZM10.1466 9.53252V11.4122H12.8133V9.53252H10.1466ZM13.5513 7.37633L11.0313 8.27696L11.9287 10.7881L14.4488 9.88745L13.5513 7.37633ZM12.6667 1.2002V8.63189H15.3334V1.2002H12.6667Z" fill="#201F1F" mask="url(#path-1-inside-1_843_7841)"/>
</svg>
