<svg width="16" height="16" viewBox="0 0 16 16" fill="none" xmlns="http://www.w3.org/2000/svg">
    <path d="M10.3665 12.6157C10.4619 12.5199 10.5157 12.3898 10.5157 12.2539L10.5161 9.08149L13.1649 6.43265C14.676 4.92224 14.6689 1.96512 14.6682 1.8401C14.6658 1.56111 14.4403 1.33595 14.1616 1.33356C14.0363 1.33254 11.0792 1.32539 9.56807 2.83546L6.91855 5.48532H3.74648C3.61124 5.48532 3.48112 5.53914 3.38506 5.63452L1.48325 7.53633C1.35448 7.6651 1.30407 7.85211 1.3504 8.02788C1.37356 8.11679 1.42023 8.19616 1.48325 8.25918C1.5449 8.32049 1.62155 8.36614 1.70841 8.38998L4.22815 9.08762L6.91242 11.7719L7.61073 14.2923C7.63458 14.3788 7.68057 14.4555 7.74222 14.5168C7.8049 14.5798 7.88461 14.6261 7.97352 14.65C8.14929 14.6963 8.3363 14.6456 8.46473 14.5168L10.3665 12.6157ZM4.34431 8.05956L2.82606 7.63955L3.95836 6.50725H5.89662L4.34431 8.05956ZM7.36956 10.7833L5.21806 8.6315L5.69053 8.15971L7.84169 10.3112L7.36956 10.7833ZM8.56385 9.58871L6.41269 7.4372L10.2909 3.5583C11.1647 2.68523 12.7844 2.44542 13.6221 2.37968C13.5563 3.21732 13.3165 4.83674 12.4428 5.7098L8.56385 9.58871ZM7.9415 11.6564L8.92289 10.675C8.92357 10.674 8.92493 10.6733 8.92562 10.6726C8.9263 10.672 8.92698 10.6709 8.92766 10.6699L9.49449 10.1034V12.042L8.36253 13.1743L7.9415 11.6564ZM5.53758 11.5239C5.25553 11.5157 5.02048 11.7378 5.01265 12.0202C5.0055 12.2529 4.85391 12.5687 4.65089 12.7717C4.28538 13.1375 3.45761 13.1239 2.94018 13.0599C2.87546 12.5431 2.86149 11.7187 3.22938 11.3509C3.43275 11.1475 3.74886 10.9956 3.98118 10.9891C4.26289 10.9819 4.48533 10.7466 4.47784 10.4645C4.47035 10.1828 4.2353 9.96035 3.95325 9.96784C3.46272 9.98113 2.89487 10.2404 2.50688 10.628C1.56534 11.5695 1.95265 13.4097 2 13.6165C2.0218 13.7118 2.07018 13.797 2.13694 13.8638C2.20337 13.9305 2.28853 13.9789 2.38459 14.0007C2.59102 14.0481 4.43185 14.4357 5.37373 13.4938C5.76104 13.1065 6.02027 12.5394 6.0339 12.0485C6.04207 11.7664 5.81963 11.5314 5.53758 11.5239Z" fill="#201F1F"/>
</svg>
