<svg width="16" height="16" viewBox="0 0 16 16" fill="none" xmlns="http://www.w3.org/2000/svg">
    <path d="M3.49218 9.87416C3.75807 10.8665 4.34394 11.7433 5.15895 12.3687C5.97396 12.994 6.97254 13.333 7.99984 13.333C9.02713 13.333 10.0257 12.994 10.8407 12.3687C11.6557 11.7433 12.2416 10.8665 12.5075 9.87416" stroke="#201F1F" stroke-width="1.33333"/>
    <path d="M10.917 5.85375L11.4376 6.27021L12.2705 5.22905L11.75 4.81259L10.917 5.85375ZM8.00016 2.6665L8.41663 2.14592L8.00016 1.81275L7.5837 2.14592L8.00016 2.6665ZM4.25037 4.81259L3.72979 5.22905L4.56271 6.27021L5.08329 5.85375L4.25037 4.81259ZM7.3335 8.6665L7.3335 9.33317L8.66683 9.33317L8.66683 8.6665L7.3335 8.6665ZM11.75 4.81259L8.41663 2.14592L7.5837 3.18708L10.917 5.85375L11.75 4.81259ZM7.5837 2.14592L4.25037 4.81259L5.08329 5.85375L8.41663 3.18708L7.5837 2.14592ZM7.3335 2.6665L7.3335 8.6665L8.66683 8.6665L8.66683 2.6665L7.3335 2.6665Z" fill="#201F1F"/>
</svg>
