<svg width="16" height="16" viewBox="0 0 16 16" fill="none" xmlns="http://www.w3.org/2000/svg">
    <path d="M8.00016 13.3335C5.06016 13.3335 2.66683 10.9402 2.66683 8.00016C2.66683 5.06016 5.06016 2.66683 8.00016 2.66683C10.9402 2.66683 13.3335 5.06016 13.3335 8.00016C13.3335 10.9402 10.9402 13.3335 8.00016 13.3335ZM8.00016 1.3335C4.3135 1.3335 1.3335 4.3135 1.3335 8.00016C1.3335 11.6868 4.3135 14.6668 8.00016 14.6668C11.6868 14.6668 14.6668 11.6868 14.6668 8.00016C14.6668 4.3135 11.6868 1.3335 8.00016 1.3335ZM9.72683 5.3335L8.00016 7.06016L6.2735 5.3335L5.3335 6.2735L7.06016 8.00016L5.3335 9.72683L6.2735 10.6668L8.00016 8.94016L9.72683 10.6668L10.6668 9.72683L8.94016 8.00016L10.6668 6.2735L9.72683 5.3335Z" fill="black"/>
</svg>
