<svg width="24" height="24" viewBox="0 0 24 24" fill="none" xmlns="http://www.w3.org/2000/svg">
    <path fill-rule="evenodd" clip-rule="evenodd" d="M21 6.21658L21 4.92995L13.5 4.92995L13.5 6.21658L21 6.21658ZM13.5 14.065L13.5 9.94782L14.325 9.43317L15.825 9.43317L16.5 9.94782L16.5 14.065L15.75 14.5797L14.25 14.5797L13.5 14.065ZM9 7.63188L9 3.51465L9.75 3L11.25 3L12 3.51465L12 7.63188L11.25 8.14653L9.75 8.14653L9 7.63188ZM21 12.6498L21 11.3631L18 11.3631L18 12.6498L21 12.6498ZM12 11.3631L12 12.6498L3 12.6497L3 11.3631L12 11.3631ZM7.5 6.21658L7.5 4.92995L3 4.92995L3 6.21658L7.5 6.21658ZM7.5 16.381L7.5 20.4853L8.25 21L9.675 21L10.425 20.4853L10.425 16.381L9.675 15.8663L8.25 15.8663L7.5 16.381ZM21 19.0829L21 17.7963L12 17.7963L12 19.0829L21 19.0829ZM6 17.7963L6 19.0829L3 19.0829L3 17.7963L6 17.7963Z" fill="#201F1F"/>
</svg>
