<svg width="18" height="18" viewBox="0 0 18 18" fill="none" xmlns="http://www.w3.org/2000/svg">
    <path d="M9 1C7.34176 1 5.82843 1.24933 4.61871 1.69854C4.51949 1.73512 4.42853 1.7907 4.35099 1.86211C4.27346 1.93352 4.21089 2.01936 4.16685 2.11474C4.1228 2.21011 4.09815 2.31315 4.0943 2.41796C4.09045 2.52277 4.10747 2.62731 4.1444 2.7256C4.18132 2.8239 4.23743 2.91402 4.30952 2.99083C4.3816 3.06764 4.46825 3.12963 4.56451 3.17325C4.66077 3.21688 4.76477 3.24129 4.87056 3.2451C4.97634 3.2489 5.08185 3.23202 5.18106 3.19543C6.15686 2.83307 7.51149 2.59667 9 2.59667C10.6187 2.59667 12.0851 2.88127 13.0707 3.29522C13.5636 3.50219 13.9268 3.74381 14.1367 3.95218C14.3465 4.16055 14.3885 4.29646 14.3885 4.40125C14.3885 4.50606 14.3465 4.64194 14.1367 4.85031C13.9268 5.05868 13.5636 5.30031 13.0707 5.50728C12.0851 5.92121 10.6187 6.20582 9 6.20582C7.38132 6.20582 5.92317 5.92143 4.93765 5.50728C4.44489 5.3002 4.07317 5.05891 3.86331 4.85031C3.65345 4.64171 3.61151 4.49876 3.61151 4.39293C3.60852 4.18315 3.52231 3.98297 3.37152 3.83568C3.22074 3.68838 3.0175 3.6058 2.80576 3.6058C2.59401 3.6058 2.39077 3.68838 2.23999 3.83568C2.0892 3.98297 2.00299 4.18315 2 4.39293V14.0229C2 14.6277 2.34667 15.1313 2.77218 15.4865C3.1977 15.8417 3.72811 16.1094 4.35012 16.3264C5.59415 16.7604 7.21369 17 9 17C10.7863 17 12.4058 16.7604 13.6499 16.3264C14.2719 16.1094 14.8023 15.8417 15.2278 15.4865C15.6533 15.1313 16 14.6277 16 14.0229V8.03534C15.997 7.82557 15.9108 7.62539 15.76 7.47809C15.6092 7.33079 15.406 7.24822 15.1942 7.24822C14.9825 7.24822 14.7793 7.33079 14.6285 7.47809C14.4777 7.62539 14.3915 7.82557 14.3885 8.03534C14.3885 8.04439 14.397 8.11653 14.1954 8.28482C13.9939 8.45311 13.6119 8.65951 13.1127 8.83368C12.1143 9.18205 10.6356 9.4158 9 9.4158C7.5091 9.4158 6.15335 9.22131 5.16427 8.92515C4.17518 8.62902 3.637 8.1542 3.61151 8.09355V6.62162C3.83132 6.74712 4.05774 6.86567 4.30815 6.97089C5.56509 7.4991 7.19674 7.80249 9 7.80249C10.8032 7.80249 12.4434 7.49873 13.7002 6.97089C14.3287 6.70699 14.861 6.38723 15.2782 5.97297C15.6954 5.55872 16 5.01499 16 4.40125C16 3.7875 15.6954 3.23545 15.2782 2.82121C14.861 2.40696 14.3287 2.0872 13.7002 1.82328C12.4434 1.29546 10.8033 1 9 1ZM3.61151 10.0146C3.95463 10.1727 4.28608 10.3331 4.69424 10.4553C5.8834 10.8114 7.37175 11.0125 9 11.0125C10.7863 11.0125 12.4058 10.773 13.6499 10.3389C13.916 10.246 14.1566 10.1359 14.3885 10.0229V11.3035C14.3901 11.295 14.3529 11.411 14.1199 11.578C13.8869 11.7449 13.4945 11.9324 12.9952 12.0936C11.9966 12.4159 10.5714 12.6341 9 12.6341C7.42859 12.6341 6.00341 12.4159 5.0048 12.0936C4.50549 11.9324 4.11312 11.7449 3.8801 11.578C3.64707 11.411 3.60992 11.295 3.61151 11.3035V10.0146ZM3.61151 13.2661C3.88407 13.3967 4.17843 13.5112 4.5012 13.6154C5.72077 14.0091 7.28382 14.2308 9 14.2308C10.7162 14.2308 12.2792 14.0091 13.4988 13.6154C13.8212 13.5113 14.1139 13.3966 14.3885 13.2661V14.0229C14.3885 14.0316 14.397 14.0958 14.1954 14.264C13.9939 14.4323 13.6119 14.6387 13.1127 14.8129C12.1143 15.1612 10.6356 15.4033 9 15.4033C7.36437 15.4033 5.88572 15.1612 4.88729 14.8129C4.38808 14.6387 4.01448 14.4323 3.81295 14.264C3.61141 14.0958 3.61151 14.0317 3.61151 14.0229V13.2661Z" fill="#201F1F"/>
</svg>
