<svg width="18" height="18" viewBox="0 0 18 18" fill="none" xmlns="http://www.w3.org/2000/svg">
    <path d="M9 0C7.13448 0 5.43198 0.280495 4.07104 0.785863C3.95943 0.827011 3.85709 0.889538 3.76987 0.969876C3.68265 1.05021 3.61225 1.14679 3.5627 1.25408C3.51315 1.36137 3.48542 1.47729 3.48109 1.5952C3.47675 1.71312 3.4959 1.83072 3.53745 1.9413C3.57899 2.05189 3.64211 2.15327 3.7232 2.23968C3.8043 2.32609 3.90178 2.39583 4.01007 2.44491C4.11837 2.49399 4.23537 2.52146 4.35438 2.52574C4.47339 2.53002 4.59208 2.51103 4.70369 2.46985C5.80146 2.06221 7.32542 1.79626 9 1.79626C10.821 1.79626 12.4707 2.11643 13.5796 2.58212C14.134 2.81496 14.5427 3.08679 14.7788 3.32121C15.0149 3.55562 15.0621 3.70852 15.0621 3.8264C15.0621 3.94432 15.0149 4.09719 14.7788 4.3316C14.5427 4.56602 14.134 4.83785 13.5796 5.07069C12.4707 5.53637 10.821 5.85655 9 5.85655C7.17898 5.85655 5.53857 5.53661 4.42986 5.07069C3.8755 4.83773 3.45732 4.56628 3.22122 4.3316C2.98513 4.09693 2.93795 3.9361 2.93795 3.81705C2.93458 3.58105 2.8376 3.35585 2.66796 3.19014C2.49833 3.02443 2.26969 2.93153 2.03147 2.93153C1.79326 2.93153 1.56462 3.02443 1.39498 3.19014C1.22535 3.35585 1.12837 3.58105 1.125 3.81705V14.6507C1.125 15.3311 1.515 15.8977 1.99371 16.2973C2.47241 16.6969 3.06912 16.9981 3.76889 17.2422C5.16842 17.7304 6.9904 18 9 18C11.0096 18 12.8316 17.7304 14.2311 17.2422C14.9309 16.9981 15.5276 16.6969 16.0063 16.2973C16.485 15.8977 16.875 15.3311 16.875 14.6507V7.91476C16.8716 7.67876 16.7746 7.45356 16.605 7.28785C16.4354 7.12214 16.2067 7.02924 15.9685 7.02924C15.7303 7.02924 15.5017 7.12214 15.332 7.28785C15.1624 7.45356 15.0654 7.67876 15.0621 7.91476C15.0621 7.92494 15.0716 8.0061 14.8449 8.19543C14.6182 8.38475 14.1884 8.61695 13.6268 8.81289C12.5036 9.2048 10.8401 9.46778 9 9.46778C7.32274 9.46778 5.79752 9.24898 4.6848 8.9158C3.57208 8.58265 2.96662 8.04848 2.93795 7.98025V6.32432C3.18524 6.46551 3.43995 6.59888 3.72167 6.71726C5.13572 7.31149 6.97134 7.65281 9 7.65281C11.0287 7.65281 12.8738 7.31107 14.2878 6.71726C14.9947 6.42036 15.5936 6.06063 16.063 5.59459C16.5323 5.12856 16.875 4.51687 16.875 3.8264C16.875 3.13594 16.5323 2.51488 16.063 2.04886C15.5936 1.58284 14.9947 1.2231 14.2878 0.926195C12.8738 0.332391 11.0287 0 9 0ZM2.93795 10.1414C3.32396 10.3193 3.69684 10.4997 4.15603 10.6372C5.49382 11.0378 7.16822 11.264 9 11.264C11.0096 11.264 12.8315 10.9946 14.2311 10.5062C14.5306 10.4018 14.8012 10.2779 15.0621 10.1507V11.5915C15.0638 11.5819 15.022 11.7124 14.7599 11.9002C14.4977 12.088 14.0563 12.2989 13.4946 12.4802C12.3712 12.8429 10.7678 13.0884 9 13.0884C7.23216 13.0884 5.62883 12.8429 4.5054 12.4802C3.94368 12.2989 3.50226 12.088 3.24011 11.9002C2.97796 11.7124 2.93616 11.5818 2.93795 11.5915V10.1414ZM2.93795 13.7994C3.24458 13.9463 3.57574 14.0751 3.93885 14.1923C5.31087 14.6353 7.0693 14.8846 9 14.8846C10.9307 14.8846 12.6891 14.6353 14.0612 14.1923C14.4239 14.0752 14.7532 13.9462 15.0621 13.7994V14.6507C15.0621 14.6606 15.0716 14.7327 14.8449 14.922C14.6182 15.1113 14.1884 15.3436 13.6268 15.5395C12.5036 15.9314 10.8401 16.2037 9 16.2037C7.15992 16.2037 5.49643 15.9314 4.3732 15.5395C3.81159 15.3436 3.39129 15.1113 3.16457 14.922C2.93784 14.7327 2.93795 14.6606 2.93795 14.6507V13.7994Z" fill="#8C8C8C"/>
</svg>
