<svg width="24" height="24" viewBox="0 0 24 24" fill="none" xmlns="http://www.w3.org/2000/svg">
    <path fill-rule="evenodd" clip-rule="evenodd" d="M6.00784 5.23199C5.45293 5.23199 5.00391 5.78363 5.00391 6.46399V12.624C5.00391 13.3043 5.45293 13.856 6.00784 13.856H18.0551C18.61 13.856 19.059 13.3043 19.059 12.624V6.46399C19.059 5.78363 18.61 5.23199 18.0551 5.23199H6.00784ZM9.01965 18.1679C9.01965 17.8278 9.24417 17.5519 9.52162 17.5519H18.5571C18.8345 17.5519 19.059 17.8278 19.059 18.1679C19.059 18.5081 18.8345 18.7839 18.5571 18.7839H9.52162C9.24417 18.7839 9.01965 18.5081 9.01965 18.1679ZM9.52162 15.088C9.24417 15.088 9.01965 15.3638 9.01965 15.7039C9.01965 16.0441 9.24417 16.3199 9.52162 16.3199H18.5571C18.8345 16.3199 19.059 16.0441 19.059 15.7039C19.059 15.3638 18.8345 15.088 18.5571 15.088H9.52162ZM6.50981 18.7839C7.3412 18.7839 8.01572 17.9565 8.01572 16.9359C8.01572 15.9154 7.3412 15.088 6.50981 15.088C5.67843 15.088 5.00391 15.9154 5.00391 16.9359C5.00391 17.9565 5.67843 18.7839 6.50981 18.7839Z" fill="#13A36E"/>
    <path fill-rule="evenodd" clip-rule="evenodd" d="M4 5.23199C4 5.00701 4.04902 4.79616 4.13432 4.61464C4.20981 4.45553 4.31275 4.31898 4.43628 4.21521C4.59805 4.07941 4.79315 4 5.00394 4H19.0591C19.614 4 20.063 4.55163 20.063 5.23199V18.7839C20.063 19.4643 19.614 20.0159 19.0591 20.0159H5.00394C4.44903 20.0159 4 19.4643 4 18.7839V5.23199ZM5.00394 6.46399C5.00394 5.78363 5.45296 5.23199 6.00787 5.23199H18.0551C18.61 5.23199 19.0591 5.78363 19.0591 6.46399V12.624C19.0591 13.3043 18.61 13.856 18.0551 13.856H6.00787C5.45296 13.856 5.00394 13.3043 5.00394 12.624V6.46399ZM9.52165 17.5519C9.2442 17.5519 9.01968 17.8278 9.01968 18.1679C9.01968 18.5081 9.2442 18.7839 9.52165 18.7839H18.5571C18.8345 18.7839 19.0591 18.5081 19.0591 18.1679C19.0591 17.8278 18.8345 17.5519 18.5571 17.5519H9.52165ZM9.01968 15.7039C9.01968 15.3638 9.2442 15.088 9.52165 15.088H18.5571C18.8345 15.088 19.0591 15.3638 19.0591 15.7039C19.0591 16.0441 18.8345 16.3199 18.5571 16.3199H9.52165C9.2442 16.3199 9.01968 16.0441 9.01968 15.7039ZM8.01575 16.9359C8.01575 17.9565 7.34123 18.7839 6.50984 18.7839C5.67846 18.7839 5.00394 17.9565 5.00394 16.9359C5.00394 15.9154 5.67846 15.088 6.50984 15.088C7.34123 15.088 8.01575 15.9154 8.01575 16.9359Z" fill="#19D992"/>
</svg>
