<svg width="18" height="18" viewBox="0 0 18 18" fill="none" xmlns="http://www.w3.org/2000/svg">
    <path fill-rule="evenodd" clip-rule="evenodd" d="M8.47345 2.01401C7.19199 2.13672 6.11168 2.50761 5.13404 3.16051C4.07982 3.86454 3.26517 4.79201 2.70877 5.92164C2.3615 6.62673 2.15096 7.31842 2.03435 8.13745C1.98855 8.45918 1.98855 9.53913 2.03435 9.86086C2.14907 10.6666 2.36221 11.3725 2.69522 12.0493C3.07198 12.8151 3.44102 13.3296 4.05028 13.9384C4.65289 14.5404 5.17582 14.9164 5.91354 15.278C6.42829 15.5303 6.76064 15.6531 7.28248 15.7839C8.6518 16.1271 10.0251 16.0613 11.363 15.5884C11.7685 15.4451 12.4764 15.0906 12.8404 14.8486C13.6586 14.3046 14.4097 13.5353 14.9457 12.6922C15.1429 12.382 15.4598 11.7276 15.5891 11.3636C16.0906 9.95152 16.1338 8.45751 15.7146 7.01586C15.6487 6.78936 15.4141 6.15886 15.3848 6.12959C15.3779 6.12267 15.1475 6.33876 14.8729 6.60977C14.5983 6.88078 14.3333 7.12583 14.284 7.15431C14.2284 7.18651 14.2002 7.22076 14.2094 7.2448C14.2664 7.39332 14.3681 7.80666 14.4155 8.08274C14.828 10.4844 13.5832 12.8828 11.3698 13.9509C9.85797 14.6804 8.10242 14.676 6.59801 13.9391C5.45796 13.3806 4.58562 12.5067 4.03867 11.3751C3.31146 9.8706 3.31146 8.12771 4.03867 6.6232C4.99386 4.64705 7.0195 3.42477 9.19899 3.50949C9.64491 3.52681 10.1968 3.61634 10.5668 3.73143C10.6867 3.76869 10.786 3.79664 10.7876 3.79352C10.8343 3.69865 11.0822 3.42162 11.4287 3.07697C11.6706 2.8364 11.8684 2.63195 11.8684 2.62262C11.8684 2.61329 11.7668 2.56536 11.6425 2.51609C10.737 2.1571 9.85885 1.98966 8.93889 2.00049C8.73561 2.00287 8.52616 2.00897 8.47345 2.01401ZM13.4984 2.24385C13.3798 2.27925 11.5198 4.14154 11.4876 4.25715C11.4719 4.3135 11.4854 4.5983 11.5265 5.07782L11.5895 5.81221L10.1299 7.27574C9.32718 8.08069 8.6507 8.77867 8.62667 8.82681C8.45987 9.16099 8.83168 9.53248 9.16614 9.36583C9.21432 9.34181 9.91289 8.66596 10.7185 7.86392L12.1833 6.40567L12.9072 6.46733C13.3438 6.50453 13.6691 6.52045 13.7267 6.50749C13.8039 6.49009 14.0043 6.30415 14.7761 5.53359C15.8105 4.50075 15.817 4.49235 15.7569 4.2691C15.724 4.14701 15.581 4.00682 15.4639 3.98176C15.4214 3.97265 15.1116 3.9419 14.7755 3.91342C14.4394 3.88495 14.1581 3.85527 14.1503 3.84747C14.1425 3.83967 14.1128 3.56456 14.0843 3.23612C14.0558 2.90766 14.0255 2.59868 14.0169 2.54947C13.9956 2.42754 13.857 2.277 13.7348 2.24311C13.6194 2.21108 13.6081 2.21113 13.4984 2.24385ZM8.47345 4.34975C7.06583 4.52217 5.82916 5.28753 5.07159 6.45507C4.06175 8.01145 4.06164 9.9841 5.07131 11.5432C5.41856 12.0795 5.90763 12.568 6.44743 12.9178C8.35115 14.1516 10.8589 13.8462 12.4017 12.1927C13.5702 10.9404 13.9672 9.19874 13.4523 7.5835C13.408 7.44431 13.3569 7.32994 13.3387 7.32933C13.3206 7.3287 13.121 7.31133 12.8951 7.29073L12.4844 7.25331L12.157 7.57813L11.8296 7.90293L11.8881 8.08859C11.9929 8.42178 12.0175 8.59456 12.0175 8.99915C12.0175 9.41523 11.9929 9.58063 11.8771 9.94293C11.591 10.8384 10.8387 11.5898 9.93822 11.8796C9.57764 11.9956 9.41109 12.0205 8.99365 12.0205C8.57689 12.0205 8.41103 11.9958 8.04908 11.88C7.15248 11.5932 6.40044 10.8416 6.11078 9.94293C5.99466 9.58265 5.9698 9.41625 5.9698 8.99915C5.9698 8.58203 5.99466 8.4156 6.1108 8.05538C6.34681 7.32334 6.89586 6.67258 7.57817 6.31621C8.2979 5.94029 9.14774 5.86353 9.90498 6.10607L10.0908 6.16557L10.4159 5.83845L10.741 5.5113L10.7035 5.10096C10.6829 4.87528 10.6655 4.67583 10.6649 4.65772C10.6634 4.61346 10.2272 4.47643 9.85608 4.40364C9.5119 4.33612 8.80852 4.30869 8.47345 4.34975ZM8.67879 6.80112C8.3071 6.86046 7.87175 7.05485 7.59276 7.28606C7.34126 7.49448 7.15032 7.73704 7.00864 8.02803C6.83007 8.39476 6.79223 8.56455 6.79223 8.99915C6.79223 9.43332 6.82996 9.60289 7.00823 9.97028C7.22515 10.4173 7.57173 10.7629 8.0265 10.9859C9.11965 11.5217 10.4514 11.0635 10.9783 9.97028C11.1523 9.60924 11.1965 9.40938 11.1971 8.98091C11.1974 8.7828 11.1881 8.61122 11.1765 8.59962C11.1649 8.58802 10.8261 8.90527 10.4236 9.30458C9.62019 10.1016 9.56247 10.1438 9.18768 10.2081C8.80121 10.2743 8.4176 10.1489 8.12925 9.86206C7.84218 9.57655 7.71706 9.19384 7.78373 8.80528C7.84801 8.43081 7.89023 8.37315 8.68797 7.57039C9.08761 7.16824 9.40658 6.83119 9.39677 6.82139C9.37484 6.79948 8.79217 6.78304 8.67879 6.80112Z" fill="#8C8C8C"/>
</svg>
