<svg width="18" height="18" viewBox="0 0 18 18" fill="none" xmlns="http://www.w3.org/2000/svg">
    <path d="M12.6364 15.0907V13.6361C12.6364 12.8646 12.3299 12.1247 11.7843 11.5791C11.2388 11.0335 10.4988 10.7271 9.72727 10.7271H3.90909C3.13755 10.7271 2.39761 11.0335 1.85205 11.5791C1.30649 12.1247 1 12.8646 1 13.6361V15.0907" stroke="#201F1F" stroke-width="1.5" stroke-linecap="round" stroke-linejoin="round"/>
    <path d="M6.81815 7.81818C8.4248 7.81818 9.72724 6.51574 9.72724 4.90909C9.72724 3.30244 8.4248 2 6.81815 2C5.2115 2 3.90906 3.30244 3.90906 4.90909C3.90906 6.51574 5.2115 7.81818 6.81815 7.81818Z" stroke="#201F1F" stroke-width="1.5" stroke-linecap="round" stroke-linejoin="round"/>
    <path d="M17.0001 15.0909V13.6363C16.9996 12.9918 16.785 12.3656 16.3901 11.8562C15.9952 11.3468 15.4423 10.9829 14.8182 10.8218" stroke="#201F1F" stroke-width="1.5" stroke-linecap="round" stroke-linejoin="round"/>
    <path d="M11.9091 2.09473C12.5348 2.25495 13.0894 2.61887 13.4855 3.12913C13.8816 3.6394 14.0966 4.26697 14.0966 4.91291C14.0966 5.55885 13.8816 6.18642 13.4855 6.69668C13.0894 7.20694 12.5348 7.57087 11.9091 7.73109" stroke="#201F1F" stroke-width="1.5" stroke-linecap="round" stroke-linejoin="round"/>
</svg>
