<svg
  width="32"
  height="32"
  viewBox="0 0 32 32"
  fill="none"
  xmlns="http://www.w3.org/2000/svg"
>
  <circle cx="16" cy="16" r="16" fill="#201F1F" />
  <path
    d="M20.0056 10.25L17.2947 14.2222C17.2508 14.2795 17.2305 14.3512 17.2379 14.4227C17.2453 14.4942 17.2798 14.5603 17.3346 14.6077C17.3893 14.6551 17.4602 14.6803 17.533 14.6781C17.6058 14.676 17.6751 14.6468 17.7269 14.5963L20.3945 12.3207C20.4099 12.3068 20.4291 12.2976 20.4497 12.2944C20.4703 12.2911 20.4914 12.2939 20.5104 12.3024C20.5294 12.3108 20.5455 12.3246 20.5567 12.3421C20.5678 12.3595 20.5735 12.3798 20.5731 12.4004V19.5527C20.5729 19.5744 20.566 19.5955 20.5533 19.6133C20.5406 19.631 20.5227 19.6445 20.502 19.6519C20.4813 19.6593 20.4589 19.6603 20.4376 19.6548C20.4163 19.6493 20.3973 19.6375 20.383 19.621L12.3167 10.0921C12.1879 9.93911 12.0268 9.8158 11.8447 9.73079C11.6626 9.64579 11.4638 9.60115 11.2623 9.6H10.9814C10.6151 9.6 10.2637 9.7437 10.0047 9.99948C9.74563 10.2553 9.6001 10.6022 9.6001 10.9639V21.0361C9.6001 21.3978 9.74563 21.7447 10.0047 22.0005C10.2637 22.2563 10.6151 22.4 10.9814 22.4C11.2175 22.3999 11.4496 22.3402 11.6556 22.2264C11.8616 22.1126 12.0347 21.9486 12.1583 21.75L14.8691 17.7778C14.913 17.7204 14.9333 17.6488 14.9259 17.5773C14.9186 17.5058 14.884 17.4397 14.8293 17.3923C14.7745 17.3449 14.7036 17.3197 14.6308 17.3218C14.5581 17.324 14.4888 17.3532 14.437 17.4037L11.7693 19.6793C11.754 19.6932 11.7348 19.7024 11.7142 19.7056C11.6936 19.7089 11.6725 19.7061 11.6534 19.6976C11.6344 19.6891 11.6183 19.6753 11.6072 19.6579C11.596 19.6405 11.5903 19.6202 11.5907 19.5996V12.4544C11.591 12.4327 11.5979 12.4115 11.6106 12.3938C11.6233 12.3761 11.6412 12.3626 11.6618 12.3552C11.6825 12.3478 11.705 12.3468 11.7263 12.3523C11.7475 12.3578 11.7666 12.3696 11.7809 12.3861L19.8471 21.915C19.9769 22.0666 20.1386 22.1884 20.321 22.2719C20.5033 22.3554 20.7019 22.3987 20.903 22.3986H21.191C21.3724 22.3986 21.5521 22.3633 21.7197 22.2947C21.8873 22.2262 22.0395 22.1257 22.1678 21.9991C22.2961 21.8724 22.3978 21.7221 22.4672 21.5566C22.5367 21.3911 22.5724 21.2138 22.5724 21.0346V10.9639C22.5724 10.7841 22.5364 10.606 22.4664 10.44C22.3965 10.274 22.2939 10.1232 22.1648 9.99645C22.0356 9.86969 21.8823 9.7694 21.7137 9.70136C21.5451 9.63333 21.3645 9.59888 21.1824 9.6C20.9463 9.60003 20.7142 9.65979 20.5082 9.77357C20.3022 9.88735 20.1292 10.0514 20.0056 10.25Z"
    fill="white"
  />
</svg>
