<svg width="56" height="56" viewBox="0 0 56 56" fill="none" xmlns="http://www.w3.org/2000/svg">
<rect x="39" y="34" width="2" height="10" fill="#6038D0"/>
<rect x="45" y="38" width="2" height="10" transform="rotate(90 45 38)" fill="#6038D0"/>
<path fill-rule="evenodd" clip-rule="evenodd" d="M50.7759 28.6867C50.8921 29.4559 50.5835 30.3932 49.6142 31.4838C48.7976 32.4026 47.5799 33.3476 45.9999 34.2671V35.4167C49.8914 33.2638 52.1084 30.8137 51.7647 28.5375C51.0529 23.8225 39.6241 21.6386 26.2378 23.6596C12.8516 25.6806 2.57692 31.1412 3.28877 35.8562C4.00062 40.5711 15.4294 42.755 28.8157 40.734C29.8988 40.5705 30.9616 40.3844 31.9999 40.1781V39.1582C30.9159 39.377 29.8031 39.5736 28.6664 39.7452C22.0547 40.7434 15.9686 40.6952 11.487 39.8389C9.24147 39.4098 7.45479 38.7882 6.21325 38.0363C4.96525 37.2805 4.39368 36.476 4.27757 35.7069C4.16145 34.9378 4.47004 34.0004 5.43927 32.9098C6.4035 31.8249 7.92704 30.7036 9.94581 29.6307C13.9749 27.4894 19.7754 25.6466 26.3871 24.6484C32.9988 23.6502 39.0849 23.6984 43.5665 24.5548C45.812 24.9839 47.5987 25.6054 48.8403 26.3573C50.0883 27.1132 50.6598 27.9176 50.7759 28.6867Z" fill="#E8E0FF"/>
<path d="M17 20.885L33.6828 14.9062V28.021L17 33.9998V20.885Z" fill="#201F1F"/>
<path d="M21.436 15.9788L38.1188 10V23.1148L21.436 29.0936V15.9788Z" fill="#201F1F"/>
</svg>
