<svg width="56" height="56" viewBox="0 0 56 56" fill="none" xmlns="http://www.w3.org/2000/svg">
<ellipse cx="19" cy="17" rx="8" ry="4" fill="#E1FC31"/>
<ellipse cx="19" cy="38" rx="8" ry="4" fill="#E1FC31"/>
<rect x="11" y="17" width="16" height="21" fill="#E1FC31"/>
<path d="M26 17C26 18.6569 22.866 20 19 20C15.134 20 12 18.6569 12 17" stroke="#201F1F"/>
<path d="M26 21C26 22.6569 22.866 24 19 24C15.134 24 12 22.6569 12 21" stroke="#201F1F"/>
<path d="M26 25C26 26.6569 22.866 28 19 28C15.134 28 12 26.6569 12 25" stroke="#201F1F"/>
<path d="M26 29C26 30.6569 22.866 32 19 32C15.134 32 12 30.6569 12 29" stroke="#201F1F"/>
<path d="M26 33C26 34.6569 22.866 36 19 36C15.134 36 12 34.6569 12 33" stroke="#201F1F"/>
<path d="M26 37C26 38.6569 22.866 40 19 40C15.134 40 12 38.6569 12 37" stroke="#201F1F"/>
<circle cx="37.3562" cy="24.3562" r="8" transform="rotate(-2.61158 37.3562 24.3562)" fill="#FFF3EC"/>
<path d="M33.887 27.3173L40.4781 27.0167L42.0596 22.1396L35.2943 22.4481C35.1598 22.4543 33.887 27.3173 33.887 27.3173Z" fill="#401700"/>
<path fill-rule="evenodd" clip-rule="evenodd" d="M39.2502 27.0722L38.7056 28.946C38.5719 29.4061 38.0134 29.5823 37.6399 29.2822C37.0782 28.8308 36.7367 28.1605 36.7017 27.4408L36.6895 27.189L32.6879 27.3715C32.6879 27.3715 34.1532 22.4997 34.0952 22.5023L40.8605 22.1937L39.279 27.0709L39.2502 27.0722Z" fill="#FF8743"/>
<circle cx="31.3562" cy="37.3562" r="8" transform="rotate(-2.61158 31.3562 37.3562)" fill="#CFF9EA"/>
<path d="M35.2746 35.4781L28.6835 35.7787L27.102 40.6559L33.8673 40.3473C34.0018 40.3411 35.2746 35.4781 35.2746 35.4781Z" fill="#0C422A"/>
<path fill-rule="evenodd" clip-rule="evenodd" d="M29.9423 35.7213L30.576 33.5408C30.7097 33.0807 31.2682 32.9045 31.6417 33.2046C32.2034 33.656 32.5449 34.3263 32.5798 35.0461L32.6067 35.5998L36.4738 35.4234C36.4738 35.4234 35.0085 40.2952 35.0665 40.2926L28.3013 40.6012L29.8828 35.724L29.9423 35.7213Z" fill="#19D992"/>
</svg>
