<svg width="58" height="58" viewBox="0 0 58 58" fill="none" xmlns="http://www.w3.org/2000/svg">
<path fill-rule="evenodd" clip-rule="evenodd" d="M6.25 9.25C6.25 7.59314 7.59315 6.25 9.25 6.25H48.75C50.4069 6.25 51.75 7.59315 51.75 9.25V48.75C51.75 50.4069 50.4069 51.75 48.75 51.75H9.25C7.59314 51.75 6.25 50.4069 6.25 48.75V9.25ZM9.25 8.25C8.69771 8.25 8.25 8.69772 8.25 9.25V48.75C8.25 49.3023 8.69772 49.75 9.25 49.75H48.75C49.3023 49.75 49.75 49.3023 49.75 48.75V9.25C49.75 8.69771 49.3023 8.25 48.75 8.25H9.25Z" fill="#DBDBFF"/>
<path fill-rule="evenodd" clip-rule="evenodd" d="M15.917 20.5417C15.917 17.9874 17.9877 15.9167 20.542 15.9167C23.0963 15.9167 25.167 17.9874 25.167 20.5417C25.167 23.0961 23.0963 25.1667 20.542 25.1667C17.9877 25.1667 15.917 23.0961 15.917 20.5417ZM20.542 17.9167C19.0922 17.9167 17.917 19.092 17.917 20.5417C17.917 21.9915 19.0922 23.1667 20.542 23.1667C21.9917 23.1667 23.167 21.9915 23.167 20.5417C23.167 19.092 21.9917 17.9167 20.542 17.9167Z" fill="#DBDBFF"/>
<path fill-rule="evenodd" clip-rule="evenodd" d="M37.9592 23.4596C38.3498 23.0691 38.9829 23.0691 39.3734 23.4596L51.4568 35.543C51.8473 35.9335 51.8473 36.5667 51.4568 36.9572C51.0663 37.3477 50.4331 37.3477 50.0426 36.9572L38.6663 25.581L12.7901 51.4572C12.3996 51.8477 11.7664 51.8477 11.3759 51.4572C10.9854 51.0667 10.9854 50.4335 11.3759 50.043L37.9592 23.4596Z" fill="#DBDBFF"/>
</svg>
