<svg width="16" height="16" viewBox="0 0 16 16" fill="none" xmlns="http://www.w3.org/2000/svg">
    <circle cx="8" cy="8" r="7.25" stroke="#0C5C6E" stroke-width="1.5"/>
    <path fill-rule="evenodd" clip-rule="evenodd" d="M8.00977 12.5C7.45748 12.5 7.00977 12.0523 7.00977 11.5L7.00977 7.5C7.00977 6.94772 7.45748 6.5 8.00977 6.5C8.56205 6.5 9.00977 6.94772 9.00977 7.5L9.00977 11.5C9.00977 12.0523 8.56205 12.5 8.00977 12.5Z" fill="#0C5C6E"/>
    <path fill-rule="evenodd" clip-rule="evenodd" d="M9.00977 4.5C9.00977 5.05228 8.56205 5.5 8.00977 5.5L7.99977 5.5C7.44748 5.5 6.99977 5.05228 6.99977 4.5C6.99977 3.94772 7.44748 3.5 7.99977 3.5L8.00977 3.5C8.56205 3.5 9.00977 3.94772 9.00977 4.5Z" fill="#0C5C6E"/>
</svg>
