<svg width="24" height="24" viewBox="0 0 24 24" fill="none" xmlns="http://www.w3.org/2000/svg">
  <path d="M20.7633 12.509C21.157 11.9887 21.375 11.3512 21.375 10.6879C21.375 9.63556 20.7867 8.63947 19.8398 8.084C19.5961 7.94102 19.3185 7.86577 19.0359 7.86603H13.4156L13.5563 4.98556C13.5891 4.28947 13.343 3.62853 12.8648 3.12463C12.6302 2.87626 12.3471 2.67864 12.0331 2.544C11.7191 2.40936 11.3807 2.34054 11.0391 2.34181C9.82031 2.34181 8.74219 3.16213 8.41875 4.33635L6.40547 11.6254H6.39844V21.6567H17.468C17.6836 21.6567 17.8945 21.6145 18.0891 21.5301C19.2047 21.0543 19.9242 19.9645 19.9242 18.7551C19.9242 18.4598 19.882 18.1692 19.7977 17.8879C20.1914 17.3676 20.4094 16.7301 20.4094 16.0668C20.4094 15.7715 20.3672 15.4809 20.2828 15.1996C20.6766 14.6793 20.8945 14.0418 20.8945 13.3785C20.8898 13.0832 20.8477 12.7903 20.7633 12.509V12.509ZM2.625 12.3754V20.9067C2.625 21.3215 2.96016 21.6567 3.375 21.6567H4.89844V11.6254H3.375C2.96016 11.6254 2.625 11.9606 2.625 12.3754Z" fill="currentColor"/>
</svg>
