<svg width="20" height="20" viewBox="0 0 20 20" fill="none" xmlns="http://www.w3.org/2000/svg">
    <path d="M6.24999 8.46875V11.2812C6.24999 11.7472 5.87223 12.125 5.40624 12.125H1.84375C1.37775 12.125 1 11.7472 1 11.2812V8.46875C1 8.00275 1.37775 7.625 1.84375 7.625H5.40624C5.87223 7.625 6.24999 8.00275 6.24999 8.46875ZM1 14.0938V16.9062C1 17.3722 1.37775 17.75 1.84375 17.75H5.40624C5.87223 17.75 6.24999 17.3722 6.24999 16.9062V14.0938C6.24999 13.6278 5.87223 13.25 5.40624 13.25H1.84375C1.37775 13.25 1 13.6278 1 14.0938ZM5.40624 2H1.84375C1.37775 2 1 2.37775 1 2.84375V5.65625C1 6.12225 1.37775 6.5 1.84375 6.5H5.40624C5.87223 6.5 6.24999 6.12225 6.24999 5.65625V2.84375C6.24999 2.37775 5.87223 2 5.40624 2ZM8.21874 17.75H18.1562C18.6222 17.75 19 17.3722 19 16.9062V14.0938C19 13.6278 18.6222 13.25 18.1562 13.25H8.21874C7.75274 13.25 7.37499 13.6278 7.37499 14.0938V16.9062C7.37499 17.3722 7.75274 17.75 8.21874 17.75ZM7.37499 2.84375V5.65625C7.37499 6.12225 7.75274 6.5 8.21874 6.5H18.1562C18.6222 6.5 19 6.12225 19 5.65625V2.84375C19 2.37775 18.6222 2 18.1562 2H8.21874C7.75274 2 7.37499 2.37775 7.37499 2.84375ZM8.21874 12.125H18.1562C18.6222 12.125 19 11.7472 19 11.2812V8.46875C19 8.00275 18.6222 7.625 18.1562 7.625H8.21874C7.75274 7.625 7.37499 8.00275 7.37499 8.46875V11.2812C7.37499 11.7472 7.75274 12.125 8.21874 12.125Z" fill="#6038D0"/>
</svg>
