<svg width="38" height="38" viewBox="0 0 38 38" fill="none" xmlns="http://www.w3.org/2000/svg">
  <circle cx="19" cy="19" r="18.5" fill="white" stroke="#FF8743"/>
  <path d="M23.5 19C23.5 19.1989 23.421 19.3897 23.2803 19.5303C23.1397 19.671 22.9489 19.75 22.75 19.75L16 19.75L16 24.625C16 26.125 17.5839 27.25 19 27.25L26.125 27.25C26.821 27.2493 27.4882 26.9725 27.9803 26.4803C28.4725 25.9882 28.7493 25.321 28.75 24.625L28.75 13.375C28.7493 12.679 28.4725 12.0118 27.9803 11.5197C27.4882 11.0275 26.821 10.7507 26.125 10.75L18.625 10.75C17.929 10.7507 17.2618 11.0275 16.7697 11.5197C16.2775 12.0118 16.0007 12.679 16 13.375L16 18.25L22.75 18.25C22.9489 18.25 23.1397 18.329 23.2803 18.4697C23.421 18.6103 23.5 18.8011 23.5 19ZM9.46985 19.5302L13.2198 23.2802C13.3616 23.4149 13.5505 23.4889 13.746 23.4864C13.9416 23.4839 14.1285 23.4051 14.2668 23.2668C14.4051 23.1285 14.4839 22.9416 14.4864 22.746C14.4889 22.5505 14.4149 22.3616 14.2802 22.2198L11.8108 19.75L16 19.75L16 18.25L11.8108 18.25L14.2802 15.7802C14.3527 15.7112 14.4108 15.6284 14.4508 15.5367C14.4909 15.445 14.5122 15.3461 14.5135 15.246C14.5148 15.1459 14.496 15.0466 14.4583 14.9539C14.4206 14.8611 14.3647 14.7769 14.2939 14.7061C14.2231 14.6353 14.1389 14.5794 14.0462 14.5417C13.9534 14.504 13.8541 14.4852 13.754 14.4865C13.6539 14.4878 13.555 14.5091 13.4633 14.5492C13.3716 14.5892 13.2888 14.6473 13.2198 14.7198L9.46985 18.4698C9.3293 18.6105 9.25035 18.8012 9.25035 19C9.25035 19.1988 9.3293 19.3895 9.46985 19.5302Z" fill="#FF8743"/>
</svg>
