<svg width="135" height="36" viewBox="0 0 135 36" fill="none" xmlns="http://www.w3.org/2000/svg">
<path d="M67.394 8.23324V28.5935C67.3929 28.6704 67.3616 28.7438 67.3065 28.7981C67.2515 28.8524 67.1772 28.8834 67.0994 28.8844H64.9548C64.4626 28.8848 63.9781 28.7632 63.5458 28.5308C63.1135 28.2984 62.7472 27.9626 62.4803 27.5542L52.7474 12.7009L53.0812 20.1198V28.5935C53.0802 28.6704 53.0489 28.7438 52.9938 28.7981C52.9388 28.8524 52.8645 28.8834 52.7867 28.8844H49.9508C49.873 28.8834 49.7987 28.8524 49.7437 28.7981C49.6886 28.7438 49.6573 28.6704 49.6562 28.5935V8.23324C49.6573 8.15642 49.6886 8.08302 49.7437 8.02868C49.7987 7.97435 49.873 7.94339 49.9508 7.94238H52.0836C52.5753 7.94264 53.0591 8.06408 53.4912 8.29569C53.9233 8.5273 54.29 8.86175 54.5581 9.26871L64.291 24.0988L63.9886 16.707V8.23324C63.9886 8.1561 64.0196 8.08212 64.0749 8.02757C64.1301 7.97303 64.205 7.94238 64.2832 7.94238H67.119C67.1933 7.94819 67.2628 7.98127 67.3137 8.0351C67.3646 8.08893 67.3932 8.15961 67.394 8.23324Z" fill="currentColor"/>
<path d="M96.3727 28.8837H93.3719C93.325 28.8833 93.2789 28.8718 93.2374 28.8502C93.1959 28.8286 93.1602 28.7976 93.1333 28.7597C93.1064 28.7217 93.0891 28.678 93.0828 28.6321C93.0764 28.5862 93.0813 28.5395 93.0969 28.4959L101.047 8.2209C101.081 8.13601 101.14 8.0636 101.218 8.0136C101.295 7.96361 101.386 7.93848 101.479 7.94168H105.238C105.327 7.94244 105.413 7.96941 105.487 8.01915C105.56 8.06889 105.617 8.13914 105.65 8.2209L113.576 28.4959C113.592 28.5395 113.597 28.5862 113.59 28.6321C113.584 28.678 113.567 28.7217 113.54 28.7597C113.513 28.7976 113.477 28.8286 113.436 28.8502C113.394 28.8718 113.348 28.8833 113.301 28.8837H110.3C110.24 28.884 110.182 28.8664 110.132 28.8331C110.082 28.7999 110.044 28.7527 110.022 28.6976L103.615 12.0215C103.595 11.9653 103.557 11.9168 103.508 11.8825C103.458 11.8483 103.399 11.8299 103.339 11.8299C103.278 11.8299 103.219 11.8483 103.169 11.8825C103.12 11.9168 103.082 11.9653 103.062 12.0215L96.6555 28.6976C96.6331 28.7533 96.5941 28.801 96.5435 28.8342C96.493 28.8675 96.4334 28.8848 96.3727 28.8837Z" fill="currentColor"/>
<path d="M134.404 28.4152L128.442 20.8954C131.808 20.2672 133.776 18.0256 133.776 14.5857C133.776 10.6338 131.172 7.94238 126.565 7.94238H118.249C118.133 7.94238 118.021 7.98815 117.938 8.0696C117.856 8.15106 117.81 8.26154 117.81 8.37674C117.81 8.74342 117.883 9.10652 118.025 9.44529C118.167 9.78407 118.375 10.0919 118.638 10.3512C118.9 10.6105 119.212 10.8161 119.555 10.9565C119.898 11.0968 120.266 11.169 120.638 11.169H126.219C129.004 11.169 130.339 12.5768 130.339 14.6089C130.339 16.6411 129.035 18.0993 126.219 18.0993H118.249C118.132 18.1003 118.021 18.1469 117.938 18.229C117.856 18.3111 117.81 18.4219 117.81 18.5375V28.6207C117.81 28.6978 117.841 28.7718 117.896 28.8264C117.951 28.8809 118.026 28.9116 118.104 28.9116H120.94C121.018 28.9106 121.092 28.8796 121.147 28.8253C121.202 28.7709 121.234 28.6975 121.235 28.6207V21.0777H124.506L129.679 27.7442C129.956 28.101 130.313 28.3895 130.722 28.5874C131.131 28.7852 131.581 28.8868 132.036 28.8844H134.188C134.242 28.8815 134.294 28.8641 134.338 28.8341C134.383 28.8041 134.418 28.7627 134.44 28.7144C134.462 28.666 134.471 28.6126 134.465 28.5598C134.458 28.5071 134.437 28.457 134.404 28.4152Z" fill="currentColor"/>
<path d="M87.4023 7.94238H74.2443C74.1402 7.94238 74.0403 7.98324 73.9666 8.05597C73.8929 8.1287 73.8516 8.22734 73.8516 8.3302C73.8516 9.08413 74.1549 9.80717 74.6948 10.3403C75.2347 10.8734 75.967 11.1729 76.7306 11.1729H87.4023C87.4411 11.1734 87.4797 11.1662 87.5157 11.1518C87.5516 11.1374 87.5843 11.116 87.6118 11.0889C87.6393 11.0617 87.6609 11.0295 87.6755 10.9939C87.6902 10.9584 87.6974 10.9204 87.6969 10.882V8.23324C87.6969 8.1561 87.6658 8.08212 87.6106 8.02757C87.5554 7.97303 87.4804 7.94238 87.4023 7.94238ZM87.4023 25.6539H77.5829C77.5051 25.6529 77.4308 25.6219 77.3758 25.5676C77.3207 25.5133 77.2894 25.4399 77.2883 25.3631V20.112C77.2883 20.0349 77.3194 19.9609 77.3746 19.9064C77.4299 19.8518 77.5048 19.8212 77.5829 19.8212H86.66C86.7381 19.8212 86.813 19.7905 86.8683 19.736C86.9235 19.6814 86.9545 19.6074 86.9545 19.5303V16.8621C86.9545 16.785 86.9235 16.711 86.8683 16.6565C86.813 16.6019 86.7381 16.5713 86.66 16.5713H74.2915C74.1744 16.5723 74.0626 16.6189 73.9802 16.701C73.8978 16.7831 73.8516 16.8939 73.8516 17.0095V28.4345C73.8516 28.5497 73.8979 28.6602 73.9804 28.7417C74.0629 28.8231 74.1748 28.8689 74.2915 28.8689H87.4023C87.4804 28.8689 87.5554 28.8383 87.6106 28.7837C87.6658 28.7292 87.6969 28.6552 87.6969 28.578V25.9293C87.6938 25.8545 87.6613 25.7839 87.6063 25.7325C87.5513 25.681 87.4781 25.6528 87.4023 25.6539Z" fill="currentColor"/>
<path d="M28.5147 2.73381L21.1227 13.5655C21.0029 13.7218 20.9475 13.9172 20.9676 14.1122C20.9878 14.3072 21.082 14.4875 21.2313 14.6167C21.3806 14.7459 21.5739 14.8145 21.7724 14.8087C21.9708 14.8029 22.1597 14.7232 22.301 14.5855L29.5752 8.38041C29.6171 8.34243 29.6694 8.31745 29.7256 8.30855C29.7818 8.29966 29.8394 8.30725 29.8912 8.33037C29.9431 8.3535 29.9869 8.39114 30.0173 8.43864C30.0477 8.48614 30.0633 8.54141 30.0622 8.59758V28.1008C30.0616 28.16 30.0427 28.2177 30.0081 28.266C29.9734 28.3143 29.9247 28.3511 29.8683 28.3713C29.8119 28.3915 29.7507 28.3943 29.6927 28.3792C29.6347 28.3642 29.5827 28.332 29.5437 28.287L7.54836 2.30334C7.19722 1.8862 6.75791 1.54994 6.26125 1.31814C5.76459 1.08634 5.22259 0.964619 4.67325 0.961499H3.90733C2.90834 0.961499 1.95026 1.35334 1.24387 2.05081C0.537473 2.74829 0.140625 3.69427 0.140625 4.68065V32.1457C0.140625 33.1321 0.537473 34.0781 1.24387 34.7756C1.95026 35.473 2.90834 35.8649 3.90733 35.8649C4.55102 35.8648 5.18395 35.7019 5.74572 35.3916C6.30749 35.0813 6.77936 34.6341 7.1163 34.0926L14.5083 23.2609C14.6281 23.1045 14.6835 22.9092 14.6633 22.7142C14.6432 22.5192 14.549 22.3389 14.3997 22.2097C14.2504 22.0805 14.0571 22.0119 13.8586 22.0176C13.6602 22.0234 13.4713 22.1032 13.33 22.2409L6.05581 28.446C6.01387 28.484 5.96157 28.5089 5.90538 28.5178C5.84919 28.5267 5.7916 28.5191 5.73974 28.496C5.68788 28.4729 5.64403 28.4352 5.61364 28.3877C5.58325 28.3402 5.56765 28.285 5.56877 28.2288V8.74495C5.56936 8.68574 5.58825 8.62812 5.62289 8.57978C5.65754 8.53145 5.70631 8.49471 5.76267 8.47447C5.81903 8.45424 5.8803 8.45147 5.9383 8.46654C5.9963 8.48161 6.04826 8.5138 6.08723 8.5588L28.0826 34.5424C28.4364 34.9558 28.8774 35.288 29.3746 35.5157C29.8719 35.7435 30.4135 35.8613 30.9617 35.861H31.7472C32.2419 35.861 32.7317 35.7648 33.1887 35.5779C33.6457 35.391 34.0609 35.1171 34.4107 34.7717C34.7604 34.4263 35.0379 34.0163 35.2272 33.5651C35.4165 33.1139 35.5139 32.6303 35.5139 32.1419V4.68065C35.5139 4.19028 35.4157 3.70475 35.225 3.252C35.0342 2.79925 34.7546 2.38821 34.4024 2.04255C34.0501 1.69689 33.6321 1.42343 33.1723 1.2379C32.7126 1.05237 32.2203 0.958431 31.7236 0.961499C31.08 0.961575 30.447 1.12452 29.8853 1.43479C29.3235 1.74505 28.8516 2.19229 28.5147 2.73381Z" fill="currentColor"/>
</svg>
