<svg width="300" height="301" viewBox="0 0 300 301" fill="none" xmlns="http://www.w3.org/2000/svg">
<circle cx="150" cy="150.5" r="150" fill="black"/>
<path d="M91.5841 216.837V191.094H65.3465C62.6124 191.094 60.396 188.878 60.396 186.144V169.312C60.396 166.578 62.6124 164.361 65.3465 164.361H91.5841V148.52H65.3465C62.6124 148.52 60.396 146.303 60.396 143.569V125.748C60.396 123.013 62.6124 120.797 65.3465 120.797H91.5841V98.63C91.5841 88.1796 100.056 79.7079 110.506 79.7079C116.647 79.7079 122.405 82.6876 125.952 87.7002L173.005 154.196C175.235 157.348 180.198 155.77 180.198 151.908V87.6287C180.198 84.8946 182.414 82.6782 185.148 82.6782H202.475C205.209 82.6782 207.426 84.8946 207.426 87.6287V120.797H235.148C237.883 120.797 240.099 123.013 240.099 125.748V143.569C240.099 146.303 237.883 148.52 235.148 148.52H207.426V164.361H235.148C237.883 164.361 240.099 166.578 240.099 169.312V188.124C240.099 190.858 237.883 193.074 235.148 193.074H207.426V205.933C207.426 214.689 200.328 221.787 191.572 221.787C186.592 221.787 181.902 219.447 178.906 215.469L127.421 147.091C125.134 144.053 120.297 145.671 120.297 149.473V216.837C120.297 219.571 118.081 221.787 115.346 221.787H96.5346C93.8005 221.787 91.5841 219.571 91.5841 216.837Z" fill="white"/>
</svg>
