<svg width="16" height="16" viewBox="0 0 16 16" fill="none" xmlns="http://www.w3.org/2000/svg">
    <path d="M13.3333 1.33337H5.33333C4.97971 1.33337 4.64057 1.47385 4.39052 1.7239C4.14048 1.97395 4 2.31309 4 2.66671V10.6667C4 11.0203 4.14048 11.3595 4.39052 11.6095C4.64057 11.8596 4.97971 12 5.33333 12H13.3333C13.687 12 14.0261 11.8596 14.2761 11.6095C14.5262 11.3595 14.6667 11.0203 14.6667 10.6667V2.66671C14.6667 2.31309 14.5262 1.97395 14.2761 1.7239C14.0261 1.47385 13.687 1.33337 13.3333 1.33337ZM8.71133 9.65404L6.52867 7.47137L7.47133 6.52871L8.622 7.67937L11.488 4.24004L12.5127 5.09404L8.71133 9.65404Z" fill="#595959"/>
    <path d="M2.66665 14.6666H9.99998V13.3333H2.66665V5.33325H1.33331V13.3333C1.33331 14.0686 1.93131 14.6666 2.66665 14.6666Z" fill="#595959"/>
</svg>
