<svg width="24" height="24" viewBox="0 0 24 24" fill="none" xmlns="http://www.w3.org/2000/svg">
    <path fill-rule="evenodd" clip-rule="evenodd" d="M18.413 4.02338C18.7351 3.92208 19.063 4.16266 19.063 4.50035V11.3265C19.063 9.39156 17.4898 7.82299 15.5492 7.82299C13.6086 7.82299 12.0354 9.39156 12.0354 11.3265C12.0354 13.2614 13.6086 14.83 15.5492 14.83H12.7884C12.0562 14.83 11.354 15.1815 10.8362 15.8073C10.4277 16.301 10.1604 16.9336 10.0658 17.6132L3.64998 19.6306C3.32784 19.7319 3 19.4913 3 19.1536V11.4506C3 11.2322 3.14171 11.0391 3.35002 10.9736L6.0253 10.1324C6.23361 10.0669 6.37532 9.8738 6.37532 9.65541V8.17548C6.37532 7.95712 6.51702 7.76401 6.72533 7.69851L18.413 4.02338ZM15.6877 14.83H15.5492C15.5956 14.83 15.6417 14.8291 15.6877 14.8273V14.83Z" fill="#19D992"/>
    <path d="M20.1505 19.8351V18.5004C20.1505 17.7924 19.9081 17.1135 19.4766 16.6129C19.0452 16.1123 18.46 15.831 17.8498 15.831H13.2484C12.6383 15.831 12.0531 16.1123 11.6216 16.6129C11.1901 17.1135 10.9478 17.7924 10.9478 18.5004V19.8351" fill="#19D992"/>
    <path d="M15.549 13.829C16.9351 13.829 18.0588 12.7086 18.0588 11.3265C18.0588 9.9444 16.9351 8.82401 15.549 8.82401C14.1628 8.82401 13.0391 9.9444 13.0391 11.3265C13.0391 12.7086 14.1628 13.829 15.549 13.829Z" fill="#19D992"/>
</svg>
