<svg width="24" height="24" viewBox="0 0 24 24" fill="none" xmlns="http://www.w3.org/2000/svg">
    <path fill-rule="evenodd" clip-rule="evenodd" d="M4.80031 5.02535C4.34342 5.14307 4 5.65685 4 6.27274V12.6364C4 13.3392 4.44726 13.9092 5 13.9092H12.8612C12.3977 13.2953 12.1215 12.5228 12.1215 11.6836C12.1215 9.68471 13.6885 8.06428 15.6216 8.06428C16.5399 8.06428 17.3757 8.4017 18 9V6.27275C18 5.74561 17.7484 5.29327 17.3894 5.10003C17.2698 5.03562 17.1382 5 17 5L4.99996 5.00001C4.98269 5.00001 4.96554 5.00056 4.94849 5.00166C4.89802 5.00492 4.84853 5.01292 4.80031 5.02535ZM13.1055 15.0664L8.35938 15C8.05859 15 8 15.172 8 15.5C8 15.8514 7.92286 16.4545 8.19922 16.4545H10.7109C10.7454 16.4061 11.01 16.0501 11.0469 16.0039C11.5625 15.3574 12.3761 15.0664 13.1055 15.0664ZM8.00001 18.3636C8.00001 18.1001 8 17.5 8 17.5C8.05981 17.4679 8.43092 17.5 8.5 17.5L10.2406 17.5276C10.1592 17.8558 10.1216 18.4 10.1216 18.75V19H8.5C8.22364 19 8.00001 18.7151 8.00001 18.3636ZM5.48061 15.1821L5.49996 15.1819C6.32809 15.1819 6.99996 16.0367 6.99996 17.0909C6.99996 17.8037 6.69287 18.4253 6.23801 18.7532C6.02008 18.9103 5.76823 19 5.5 19C4.67188 19 4 18.1452 4 17.0909C4 16.1685 4.51441 15.3987 5.19778 15.2207C5.28931 15.1969 5.38385 15.1837 5.48061 15.1821Z" fill="#13A36E"/>
    <path fill-rule="evenodd" clip-rule="evenodd" d="M3 5.23077C3 5.00601 3.04883 4.79537 3.13379 4.61403C3.20899 4.45508 3.31152 4.31866 3.43457 4.215C3.5957 4.07933 3.79004 4 4 4H18C18.5528 4 19 4.55108 19 5.23077V10.7765C18.8261 10.1344 18.5 9.5 18 9V6.46154C18 5.78186 17.5527 5.23077 17 5.23077H5C4.44726 5.23077 4 5.78186 4 6.46154V12.6154C4 13.2951 4.44726 13.8462 5 13.8462H12.8613C13.3238 14.4387 13.973 14.8784 14.7205 15.077H8.49999C8.22363 15.077 8 15.3525 8 15.6923C8 16.0321 8.22363 16.3077 8.49999 16.3077H10.82C10.5563 16.6656 10.3614 17.086 10.2454 17.5384H8.49999C8.22363 17.5384 8 17.8141 8 18.1538C8 18.4937 8.22363 18.7692 8.49999 18.7692H10.1217V20H4C3.44727 20 3 19.4489 3 18.7692V5.23077ZM16.5227 15.077C17.7259 14.7573 18.6746 13.8125 19 12.6115V15.077C18.8033 15.077 18.6349 15.077 18.4217 15.077H17.48C17.48 15.077 17.6097 15.077 17.5 15.077H16.5227ZM7 17C7 18.0196 6.32813 18.7692 5.5 18.7692C4.67188 18.7692 4 18.0196 4 17C4 15.9805 4.67188 15.1941 5.5 15.1941C6.32813 15.1941 7 15.9805 7 17Z" fill="#19D992"/>
    <path d="M20.2028 20.011V18.6764C20.2028 17.9684 19.9604 17.2894 19.5289 16.7889C19.0975 16.2883 18.5123 16.007 17.9021 16.007H13.3007C12.6905 16.007 12.1053 16.2883 11.6739 16.7889C11.2424 17.2894 11 17.9684 11 18.6764V20.011" fill="#19D992"/>
    <path d="M15.6016 14.005C16.9878 14.005 18.1115 12.8846 18.1115 11.5025C18.1115 10.1204 16.9878 9 15.6016 9C14.2155 9 13.0918 10.1204 13.0918 11.5025C13.0918 12.8846 14.2155 14.005 15.6016 14.005Z" fill="#19D992"/>
</svg>
