<svg width="24" height="24" viewBox="0 0 24 24" fill="none" xmlns="http://www.w3.org/2000/svg">
  <path
    d="M20 10L20.7071 10.7071L21.4142 10L20.7071 9.29289L20 10ZM3 18C3 18.5523 3.44772 19 4 19C4.55229 19 5 18.5523 5 18L3 18ZM15.7071 15.7071L20.7071 10.7071L19.2929 9.29289L14.2929 14.2929L15.7071 15.7071ZM20.7071 9.29289L15.7071 4.29289L14.2929 5.70711L19.2929 10.7071L20.7071 9.29289ZM20 9L10 9L10 11L20 11L20 9ZM3 16L3 18L5 18L5 16L3 16ZM10 9C6.13401 9 3 12.134 3 16L5 16C5 13.2386 7.23858 11 10 11L10 9Z"
    fill="#6038D0"/>
</svg>
