<svg width="244" height="100" viewBox="0 0 244 100" fill="none" xmlns="http://www.w3.org/2000/svg">
<path opacity="0.5" d="M186.716 29.5483C187.456 32.1477 186.339 35.1975 183.56 38.5178C180.787 41.8304 176.399 45.3619 170.719 48.8995C159.362 55.973 142.888 63.0416 123.989 68.4216C105.091 73.8017 87.3645 76.4697 73.9846 76.4386C67.293 76.423 61.7028 75.7323 57.6009 74.3767C53.4897 73.0181 50.9342 71.0137 50.1942 68.4143C49.4542 65.8148 50.5708 62.765 53.35 59.4448C56.1229 56.1321 60.511 52.6006 66.1911 49.063C77.5484 41.9895 94.0224 34.921 112.921 29.5409C131.819 24.1608 149.546 21.4928 162.925 21.5239C169.617 21.5395 175.207 22.2303 179.309 23.5858C183.42 24.9444 185.976 26.9488 186.716 29.5483Z" stroke="#201F1F" stroke-width="0.479895"/>
<circle r="3.41259" transform="matrix(0.994597 0.103812 0.103812 -0.994597 53.2308 71.5736)" fill="#FF8743"/>
<circle r="3.41259" transform="matrix(0.994597 0.103812 0.103812 -0.994597 170.112 22.0912)" fill="#FF8743"/>
<path d="M31.9546 41.2891C31.8854 41.2043 31.8303 41.135 31.7898 41.0835C31.8303 41.032 31.8854 40.9628 31.9546 40.878C32.1178 40.6781 32.3589 40.392 32.6696 40.0483C33.2914 39.3607 34.191 38.444 35.3021 37.5277C37.5293 35.6911 40.5822 33.8759 43.937 33.8759C47.2919 33.8759 50.3448 35.6911 52.572 37.5277C53.6831 38.444 54.5827 39.3607 55.2044 40.0483C55.5152 40.392 55.7563 40.6781 55.9194 40.878C55.9886 40.9628 56.0438 41.032 56.0843 41.0835C56.0438 41.135 55.9886 41.2043 55.9194 41.2891C55.7563 41.489 55.5152 41.7751 55.2044 42.1188C54.5827 42.8064 53.6831 43.7231 52.572 44.6393C50.3448 46.476 47.2919 48.2911 43.937 48.2911C40.5822 48.2911 37.5293 46.476 35.3021 44.6393C34.191 43.7231 33.2914 42.8064 32.6696 42.1188C32.3589 41.7751 32.1178 41.489 31.9546 41.2891Z" fill="white" stroke="#201F1F" stroke-width="0.353447"/>
<ellipse cx="47.1182" cy="41.2591" rx="4.94825" ry="4.92288" fill="#19D992"/>
<ellipse cx="47.1187" cy="41.26" rx="2.47413" ry="2.46144" fill="#201F1F"/>
<path d="M86.3085 9.14649C86.2835 9.11579 86.2635 9.09071 86.2489 9.07207C86.2635 9.05342 86.2835 9.02835 86.3085 8.99764C86.3676 8.92528 86.4549 8.82167 86.5674 8.69723C86.7925 8.44827 87.1183 8.11637 87.5206 7.78462C88.3269 7.11963 89.4323 6.46242 90.647 6.46242C91.8617 6.46242 92.967 7.11963 93.7734 7.78462C94.1757 8.11637 94.5014 8.44827 94.7266 8.69723C94.8391 8.82167 94.9264 8.92528 94.9854 8.99764C95.0105 9.02835 95.0305 9.05343 95.0451 9.07207C95.0305 9.09072 95.0105 9.11579 94.9854 9.14649C94.9264 9.21886 94.8391 9.32247 94.7266 9.44691C94.5014 9.69587 94.1757 10.0278 93.7734 10.3595C92.967 11.0245 91.8617 11.6817 90.647 11.6817C89.4323 11.6817 88.3269 11.0245 87.5206 10.3595C87.1183 10.0278 86.7925 9.69587 86.5674 9.44691C86.4549 9.32247 86.3676 9.21886 86.3085 9.14649Z" fill="white" stroke="#201F1F" stroke-width="0.127972"/>
<ellipse cx="91.7994" cy="9.13569" rx="1.79161" ry="1.78242" fill="#19D992"/>
<ellipse cx="91.8001" cy="9.13608" rx="0.895804" ry="0.89121" fill="#201F1F"/>
<path d="M209.247 18.5261C209.207 18.4764 209.174 18.4358 209.15 18.4056C209.174 18.3754 209.207 18.3349 209.247 18.2851C209.343 18.168 209.484 18.0002 209.666 17.7988C210.031 17.3957 210.558 16.8583 211.209 16.3212C212.515 15.2446 214.305 14.1805 216.271 14.1805C218.238 14.1805 220.028 15.2446 221.333 16.3212C221.984 16.8583 222.512 17.3957 222.876 17.7988C223.058 18.0002 223.2 18.168 223.295 18.2851C223.336 18.3349 223.368 18.3754 223.392 18.4056C223.368 18.4358 223.336 18.4764 223.295 18.5261C223.2 18.6433 223.058 18.811 222.876 19.0125C222.512 19.4156 221.984 19.953 221.333 20.4901C220.028 21.5667 218.238 22.6308 216.271 22.6308C214.305 22.6308 212.515 21.5667 211.209 20.4901C210.558 19.953 210.031 19.4156 209.666 19.0125C209.484 18.811 209.343 18.6433 209.247 18.5261Z" fill="white" stroke="#201F1F" stroke-width="0.207193"/>
<ellipse cx="213.991" cy="18.5086" rx="2.9007" ry="2.88582" fill="#19D992"/>
<ellipse cx="213.993" cy="18.5088" rx="1.45035" ry="1.44291" fill="#201F1F"/>
<path d="M164.111 73.8448C164.056 73.7775 164.012 73.7226 163.98 73.6817C164.012 73.6409 164.056 73.586 164.111 73.5187C164.24 73.3602 164.431 73.1332 164.678 72.8607C165.171 72.3153 165.884 71.5883 166.766 70.8616C168.532 69.405 170.953 67.9654 173.614 67.9654C176.275 67.9654 178.696 69.405 180.462 70.8616C181.344 71.5883 182.057 72.3153 182.55 72.8607C182.797 73.1332 182.988 73.3602 183.117 73.5187C183.172 73.586 183.216 73.6409 183.248 73.6817C183.216 73.7226 183.172 73.7775 183.117 73.8448C182.988 74.0033 182.797 74.2302 182.55 74.5028C182.057 75.0481 181.344 75.7752 180.462 76.5019C178.696 77.9585 176.275 79.3981 173.614 79.3981C170.953 79.3981 168.532 77.9585 166.766 76.5019C165.884 75.7752 165.171 75.0481 164.678 74.5028C164.431 74.2302 164.24 74.0033 164.111 73.8448Z" fill="white" stroke="#201F1F" stroke-width="0.28032"/>
<ellipse cx="170.53" cy="73.8209" rx="3.92447" ry="3.90435" fill="#19D992"/>
<ellipse cx="170.533" cy="73.8216" rx="1.96224" ry="1.95218" fill="#201F1F"/>
<g clip-path="url(#clip0_13137_120312)">
<path d="M144.263 41.4404L139.341 39.9711C139.148 39.3118 138.917 38.6642 138.65 38.0316C136.391 37.6495 134.308 36.5722 132.691 34.9497C131.074 33.3272 130.003 31.2406 129.628 28.9806C128.992 28.7068 128.339 28.4712 127.674 28.2754L126.205 23.412C126.153 23.2218 126.04 23.0539 125.884 22.9344C125.727 22.8149 125.535 22.7503 125.338 22.7508H120.372C120.181 22.7517 119.995 22.8134 119.842 22.927C119.689 23.0407 119.576 23.2003 119.52 23.3826L118.05 28.2313C116.834 28.5898 115.661 29.0826 114.553 29.7006L110.145 27.3203C109.975 27.2299 109.78 27.1968 109.59 27.2259C109.399 27.255 109.223 27.3448 109.088 27.4819L105.517 30.9642C105.38 31.0997 105.29 31.2758 105.261 31.4664C105.232 31.657 105.265 31.8518 105.355 32.0221L107.736 36.43C107.119 37.5329 106.626 38.7008 106.266 39.9123L101.403 41.3816C101.221 41.4379 101.061 41.5509 100.948 41.7042C100.834 41.8575 100.772 42.043 100.771 42.2338V47.2001C100.772 47.3909 100.834 47.5764 100.948 47.7297C101.061 47.8829 101.221 47.996 101.403 48.0523L106.296 49.5216C106.659 50.7129 107.152 51.8609 107.765 52.9451L105.355 57.5587C105.265 57.7289 105.232 57.9238 105.261 58.1144C105.29 58.305 105.38 58.4811 105.517 58.6166L109.029 62.1282C109.164 62.2654 109.34 62.3551 109.531 62.3843C109.722 62.4134 109.916 62.3803 110.087 62.2899L114.627 59.8655C115.701 60.445 116.834 60.908 118.006 61.2466L119.476 66.1982C119.532 66.3805 119.645 66.5401 119.798 66.6537C119.951 66.7674 120.137 66.8291 120.328 66.83H125.294C125.485 66.8291 125.67 66.7674 125.824 66.6537C125.977 66.5401 126.09 66.3805 126.146 66.1982L127.616 61.232C128.778 60.8916 129.901 60.4286 130.966 59.8508L135.535 62.2899C135.705 62.3803 135.9 62.4134 136.091 62.3843C136.281 62.3551 136.457 62.2654 136.593 62.1282L140.105 58.6166C140.242 58.4811 140.332 58.305 140.361 58.1144C140.39 57.9238 140.357 57.7289 140.266 57.5587L137.827 53.0038C138.411 51.9352 138.879 50.8072 139.223 49.6391L144.175 48.1698C144.357 48.1135 144.516 48.0005 144.63 47.8472C144.744 47.6939 144.806 47.5084 144.806 47.3176V42.3073C144.815 42.1246 144.768 41.9436 144.67 41.7886C144.573 41.6336 144.431 41.5121 144.263 41.4404ZM122.855 52.8716C121.257 52.8716 119.694 52.3976 118.365 51.5097C117.036 50.6217 116.001 49.3596 115.389 47.8829C114.777 46.4063 114.617 44.7814 114.929 43.2138C115.241 41.6462 116.01 40.2063 117.141 39.0761C118.271 37.9459 119.711 37.1763 121.278 36.8645C122.846 36.5527 124.471 36.7127 125.947 37.3243C127.424 37.936 128.686 38.9718 129.574 40.3007C130.462 41.6297 130.936 43.1921 130.936 44.7904C130.936 46.9337 130.085 48.9891 128.569 50.5047C127.054 52.0202 124.998 52.8716 122.855 52.8716Z" fill="#201F1F"/>
<path d="M139.16 21.2813C142.525 21.2813 145.29 23.7694 145.757 27.0011H147.74L144.403 30.8143L141.067 27.0011H143.278C143.065 26.0679 142.542 25.2346 141.794 24.6373C141.046 24.0399 140.117 23.7138 139.16 23.7122C137.778 23.7122 136.558 24.3891 135.786 25.4091L134.155 23.5502C134.779 22.8367 135.549 22.265 136.412 21.8737C137.275 21.4823 138.212 21.2804 139.16 21.2813ZM138.779 34.0936C135.423 34.0936 132.649 31.6055 132.182 28.3738H130.199L133.536 24.5607C134.651 25.8285 135.757 27.106 136.872 28.3738H134.661C134.874 29.307 135.397 30.1403 136.145 30.7377C136.893 31.335 137.822 31.6611 138.779 31.6627C140.161 31.6627 141.381 30.9859 142.154 29.9658L143.784 31.8248C143.16 32.539 142.391 33.1111 141.528 33.5025C140.664 33.8939 139.727 34.0955 138.779 34.0936Z" fill="#19D992"/>
</g>
<defs>
<clipPath id="clip0_13137_120312">
<rect width="52.8951" height="52.8951" fill="white" transform="translate(96.4062 18.3428)"/>
</clipPath>
</defs>
</svg>
