<svg width="244" height="100" viewBox="0 0 244 100" fill="none" xmlns="http://www.w3.org/2000/svg">
  <path opacity="0.5"
        d="M227.55 69.0001C227.55 69.7728 226.897 70.6022 225.45 71.4587C224.021 72.3041 221.898 73.1278 219.143 73.9168C213.635 75.4936 205.653 76.9166 195.777 78.1126C176.027 80.5041 148.737 81.984 118.588 81.984C88.4386 81.984 61.1479 80.5041 41.3984 78.1126C31.5219 76.9166 23.5404 75.4936 18.0325 73.9168C15.2767 73.1278 13.1542 72.3041 11.7256 71.4587C10.2783 70.6022 9.62471 69.7728 9.62471 69.0001C9.62471 68.2274 10.2783 67.398 11.7256 66.5416C13.1542 65.6962 15.2767 64.8725 18.0325 64.0835C23.5404 62.5066 31.5219 61.0837 41.3984 59.8877C61.1479 57.4962 88.4386 56.0163 118.588 56.0163C148.737 56.0163 176.027 57.4962 195.777 59.8877C205.653 61.0837 213.635 62.5066 219.143 64.0835C221.898 64.8725 224.021 65.6962 225.45 66.5416C226.897 67.398 227.55 68.2274 227.55 69.0001Z"
        stroke="#201F1F" stroke-width="0.479895"/>
  <path
    d="M107.192 18.7113C111.415 17.563 115.903 16.5315 118.589 16.5315C121.275 16.5315 125.763 17.563 129.986 18.7113C134.307 19.879 138.663 21.2609 141.224 22.0977C142.295 22.4514 143.244 23.0999 143.963 23.9689C144.682 24.8378 145.141 25.8919 145.288 27.0101C147.608 44.4367 142.224 57.352 135.693 65.896C132.923 69.5509 129.62 72.7695 125.895 75.4442C124.607 76.3698 123.243 77.1837 121.816 77.877C120.726 78.3908 119.555 78.8112 118.589 78.8112C117.624 78.8112 116.456 78.3908 115.362 77.877C113.936 77.1837 112.571 76.3698 111.283 75.4442C107.558 72.7694 104.255 69.5508 101.486 65.896C94.954 57.352 89.5707 44.4367 91.8907 27.0101C92.0374 25.8919 92.4965 24.8378 93.2153 23.9689C93.9342 23.0999 94.8836 22.4514 95.9544 22.0977C99.6725 20.8787 103.419 19.7495 107.192 18.7113Z"
    fill="#19D992"/>
  <path
    d="M104.631 55.8704L117.599 42.9025L115.708 40.9844L114.736 41.9434C114.611 42.0687 114.462 42.168 114.299 42.2358C114.135 42.3036 113.96 42.3385 113.783 42.3385C113.606 42.3385 113.431 42.3036 113.268 42.2358C113.104 42.168 112.956 42.0687 112.831 41.9434L111.872 40.9844C111.747 40.8594 111.647 40.711 111.579 40.5475C111.512 40.3841 111.477 40.209 111.477 40.032C111.477 39.8551 111.512 39.68 111.579 39.5165C111.647 39.3531 111.747 39.2047 111.872 39.0797L119.517 31.4341C119.642 31.3089 119.791 31.2095 119.954 31.1417C120.118 31.074 120.293 31.0391 120.47 31.0391C120.647 31.0391 120.822 31.074 120.985 31.1417C121.149 31.2095 121.297 31.3089 121.422 31.4341L122.381 32.3932C122.908 32.92 122.908 33.771 122.381 34.2978L121.422 35.2299L123.34 37.1616C123.465 37.0363 123.614 36.937 123.777 36.8692C123.94 36.8014 124.116 36.7665 124.293 36.7665C124.469 36.7665 124.645 36.8014 124.808 36.8692C124.971 36.937 125.12 37.0363 125.245 37.1616C125.772 37.6884 125.772 38.5529 125.245 39.0797L127.15 40.9844L128.109 40.0253C128.635 39.4985 129.5 39.4985 130.027 40.0253L130.972 40.9844C131.499 41.5112 131.499 42.3757 130.972 42.9025L123.34 50.5346C122.813 51.0615 121.949 51.0615 121.422 50.5346L120.477 49.5891C120.348 49.4644 120.246 49.3153 120.177 49.1506C120.107 48.9859 120.071 48.8088 120.071 48.63C120.071 48.4511 120.107 48.2741 120.177 48.1094C120.246 47.9446 120.348 47.7955 120.477 47.6709L121.422 46.7118L119.517 44.8072L106.536 57.7885C106.411 57.9137 106.263 58.0131 106.099 58.0809C105.936 58.1487 105.761 58.1836 105.584 58.1836C105.407 58.1836 105.232 58.1487 105.068 58.0809C104.905 58.0131 104.756 57.9137 104.631 57.7885C104.105 57.2617 104.105 56.3972 104.631 55.8704ZM128.541 54.1413C129.257 54.1413 129.945 54.426 130.451 54.9326C130.958 55.4393 131.243 56.1264 131.243 56.8429V58.1938H117.734V56.8429C117.734 56.1264 118.019 55.4393 118.526 54.9326C119.032 54.426 119.719 54.1413 120.436 54.1413H128.541Z"
    fill="black"/>
  <circle cx="66.9721" cy="80.0912" r="8.10489" fill="#CFF9EA"/>
  <g clip-path="url(#clip0_13137_120236)">
    <path
      d="M68.5358 83.6102V82.8281C68.5358 82.4133 68.371 82.0155 68.0777 81.7222C67.7844 81.4288 67.3865 81.264 66.9717 81.264H64.2345C63.8197 81.264 63.4219 81.4288 63.1285 81.7222C62.8352 82.0155 62.6704 82.4133 62.6704 82.8281V83.6102"
      stroke="#19D992" stroke-width="0.853147" stroke-linecap="square" stroke-linejoin="round"/>
    <path
      d="M65.6029 79.7C66.4668 79.7 67.167 78.9997 67.167 78.1359C67.167 77.2721 66.4668 76.5718 65.6029 76.5718C64.7391 76.5718 64.0388 77.2721 64.0388 78.1359C64.0388 78.9997 64.7391 79.7 65.6029 79.7Z"
      stroke="#19D992" stroke-width="0.853147" stroke-linecap="round" stroke-linejoin="round"/>
    <path d="M70.0999 78.5269V80.8731" stroke="#19D992" stroke-width="0.853147" stroke-linecap="square"
          stroke-linejoin="round"/>
    <path d="M71.2729 79.6999H68.9268" stroke="#19D992" stroke-width="0.853147" stroke-linecap="square"
          stroke-linejoin="round"/>
  </g>
  <circle cx="164.232" cy="56.2033" r="8.10489" fill="#CFF9EA"/>
  <path
    d="M161.587 57.3025C161.743 57.8845 162.087 58.3988 162.565 58.7656C163.043 59.1324 163.629 59.3312 164.231 59.3312C164.834 59.3312 165.42 59.1324 165.898 58.7656C166.376 58.3988 166.719 57.8845 166.875 57.3025"
    stroke="#19D992" stroke-width="0.853147"/>
  <path
    d="M165.92 54.9721L166.253 55.2385L166.786 54.5723L166.453 54.3059L165.92 54.9721ZM164.231 53.0749L164.498 52.7418L164.231 52.5286L163.965 52.7418L164.231 53.0749ZM162.01 54.3059L161.677 54.5723L162.21 55.2385L162.543 54.9721L162.01 54.3059ZM163.805 56.5941L163.805 57.0207L164.658 57.0207L164.658 56.5941L163.805 56.5941ZM166.453 54.3059L164.498 52.7418L163.965 53.4079L165.92 54.9721L166.453 54.3059ZM163.965 52.7418L162.01 54.3059L162.543 54.9721L164.498 53.4079L163.965 52.7418ZM163.805 53.0749L163.805 56.5941L164.658 56.5941L164.658 53.0749L163.805 53.0749Z"
    fill="#19D992"/>
  <circle cx="138.636" cy="82.6506" r="8.10489" fill="#FFF3EC"/>
  <path
    d="M140.024 85.3575C140.08 85.3014 140.111 85.225 140.111 85.1453L140.111 83.2846L141.665 81.7309C142.551 80.845 142.547 79.1106 142.547 79.0372C142.545 78.8736 142.413 78.7415 142.25 78.7401C142.176 78.7395 140.442 78.7353 139.555 79.621L138.001 81.1753H136.141C136.061 81.1753 135.985 81.2069 135.929 81.2628L134.813 82.3783C134.738 82.4538 134.708 82.5635 134.735 82.6666C134.749 82.7187 134.776 82.7653 134.813 82.8023C134.849 82.8382 134.894 82.865 134.945 82.879L136.423 83.2882L137.998 84.8626L138.407 86.3409C138.421 86.3917 138.448 86.4366 138.484 86.4726C138.521 86.5096 138.568 86.5367 138.62 86.5507C138.723 86.5779 138.833 86.5481 138.908 86.4726L140.024 85.3575ZM136.491 82.6852L135.601 82.4388L136.265 81.7747H137.402L136.491 82.6852ZM138.266 84.2828L137.004 83.0206L137.281 82.7439L138.543 84.0059L138.266 84.2828ZM138.966 83.5821L137.704 82.3201L139.979 80.045C140.492 79.5329 141.442 79.3923 141.933 79.3537C141.894 79.845 141.754 80.7949 141.241 81.307L138.966 83.5821ZM138.601 84.7949L139.177 84.2192C139.177 84.2186 139.178 84.2182 139.178 84.2178C139.179 84.2174 139.179 84.2168 139.18 84.2162L139.512 83.884V85.021L138.848 85.6852L138.601 84.7949ZM137.191 84.7171C137.026 84.7123 136.888 84.8426 136.883 85.0083C136.879 85.1447 136.79 85.3299 136.671 85.449C136.457 85.6636 135.971 85.6556 135.668 85.618C135.63 85.3149 135.622 84.8314 135.837 84.6156C135.957 84.4964 136.142 84.4073 136.278 84.4035C136.444 84.3993 136.574 84.2612 136.57 84.0958C136.565 83.9305 136.427 83.8001 136.262 83.8045C135.974 83.8123 135.641 83.9643 135.414 84.1917C134.861 84.7439 135.089 85.8232 135.116 85.9445C135.129 86.0005 135.157 86.0504 135.197 86.0896C135.236 86.1287 135.286 86.1571 135.342 86.1699C135.463 86.1977 136.543 86.425 137.095 85.8726C137.322 85.6454 137.474 85.3127 137.482 85.0248C137.487 84.8594 137.357 84.7215 137.191 84.7171Z"
    fill="#FF8743"/>
  <circle cx="37.9662" cy="59.6156" r="8.10489" fill="#FFF3EC"/>
  <g clip-path="url(#clip1_13137_120236)">
    <path
      d="M37.9657 63.5257C40.1253 63.5257 41.8759 61.775 41.8759 59.6154C41.8759 57.4559 40.1253 55.7052 37.9657 55.7052C35.8061 55.7052 34.0554 57.4559 34.0554 59.6154C34.0554 61.775 35.8061 63.5257 37.9657 63.5257Z"
      stroke="#FF8743" stroke-width="0.782051" stroke-linecap="round" stroke-linejoin="round"/>
    <path
      d="M36.8276 58.4423C36.9196 58.181 37.101 57.9606 37.3399 57.8203C37.5787 57.6799 37.8595 57.6286 38.1326 57.6754C38.4056 57.7223 38.6533 57.8642 38.8317 58.0761C39.0101 58.2881 39.1077 58.5563 39.1073 58.8334C39.1073 59.6154 37.9342 60.0064 37.9342 60.0064"
      stroke="#FF8743" stroke-width="0.782051" stroke-linejoin="round"/>
    <path d="M37.9658 61.5706H37.9697" stroke="#FF8743" stroke-width="0.782051" stroke-linecap="round"
          stroke-linejoin="round"/>
  </g>
  <circle cx="223.953" cy="68.1471" r="8.10489" fill="#FFF3EC"/>
  <path d="M228.253 67.7558H225.907" stroke="#FF8743" stroke-width="0.853147" stroke-linecap="square"
        stroke-linejoin="round"/>
  <path
    d="M222.583 67.7559C223.447 67.7559 224.147 67.0556 224.147 66.1918C224.147 65.3279 223.447 64.6277 222.583 64.6277C221.72 64.6277 221.019 65.3279 221.019 66.1918C221.019 67.0556 221.72 67.7559 222.583 67.7559Z"
    stroke="#FF8743" stroke-width="0.853147" stroke-linecap="round" stroke-linejoin="round"/>
  <path
    d="M225.516 71.6661V70.8841C225.516 70.4693 225.351 70.0714 225.058 69.7781C224.765 69.4848 224.367 69.32 223.952 69.32H221.215C220.8 69.32 220.402 69.4848 220.109 69.7781C219.815 70.0714 219.651 70.4693 219.651 70.8841V71.6661"
    stroke="#FF8743" stroke-width="0.853147" stroke-linecap="square" stroke-linejoin="round"/>
  <defs>
    <clipPath id="clip0_13137_120236">
      <rect width="9.38462" height="9.38462" fill="white" transform="translate(62.2793 75.3987)"/>
    </clipPath>
    <clipPath id="clip1_13137_120236">
      <rect width="9.38461" height="9.38461" fill="white" transform="translate(33.2734 54.9231)"/>
    </clipPath>
  </defs>
</svg>
