<svg width="244" height="100" viewBox="0 0 244 100" fill="none" xmlns="http://www.w3.org/2000/svg">
  <path d="M122.812 21.4585L142.827 14.2855V30.0197L122.812 37.1927V21.4585Z" fill="#201F1F"/>
  <path d="M128.135 15.5721L148.15 8.39917V24.1334L128.135 31.3064V15.5721Z" fill="#201F1F"/>
  <line x1="123.452" y1="21.5481" x2="123.452" y2="44.871" stroke="#201F1F" stroke-width="1.27972"/>
  <path
    d="M123.396 42.5557C117.452 49.7187 105.651 69.2394 84.2734 86.1189H166.598C144.75 69.4991 130.047 50.2649 123.396 42.5557Z"
    fill="#19D992"/>
  <path opacity="0.5"
        d="M118.184 48.6333C108.632 48.3439 95.421 51.2708 95.2809 54.8811C95.1409 58.4914 107.304 61.8945 122.448 62.4819C137.592 63.0694 149.982 60.6189 150.122 57.0085C150.217 54.568 140.183 49.7912 129.473 49.2122"
        stroke="#201F1F" stroke-width="0.479895"/>
  <path opacity="0.5"
        d="M193.01 75.2368C193.613 73.1197 192.4 70.5165 189.498 67.5833C186.61 64.6659 182.118 61.4917 176.35 58.2548C164.817 51.783 148.233 45.0871 129.332 39.7062C110.431 34.3254 92.8073 31.2827 79.5952 30.71C72.9872 30.4235 67.4965 30.7557 63.5058 31.715C59.4933 32.6795 57.0914 34.2537 56.4886 36.3708C55.8859 38.4879 57.0986 41.0912 60.0014 44.0244C62.8886 46.9418 67.381 50.116 73.149 53.3529C84.6817 59.8247 101.266 66.5206 120.167 71.9015C139.068 77.2823 156.692 80.325 169.904 80.8977C176.512 81.1841 182.002 80.852 185.993 79.8927C190.006 78.9282 192.408 77.3539 193.01 75.2368Z"
        stroke="#201F1F" stroke-width="0.479895"/>
  <path opacity="0.5"
        d="M228.782 42.855C228.618 41.2292 227.741 39.6952 226.184 38.2627C224.626 36.8289 222.397 35.508 219.558 34.3145C213.881 31.9278 205.811 30.0707 195.926 28.8235C176.158 26.3296 149.182 26.2808 119.686 29.2724C90.1901 32.2641 63.7734 37.7282 44.9093 44.1403C35.4754 47.347 27.9433 50.7865 22.8607 54.2645C20.3193 56.0036 18.401 57.7452 17.1623 59.4627C15.9247 61.1786 15.374 62.8574 15.5389 64.4832C15.7038 66.109 16.5803 67.6431 18.1372 69.0755C19.6956 70.5093 21.9246 71.8303 24.7634 73.0237C30.4408 75.4104 38.5101 77.2676 48.3957 78.5148C68.1631 81.0087 95.1389 81.0574 124.635 78.0658C154.131 75.0742 180.548 69.6101 199.412 63.198C208.846 59.9913 216.378 56.5518 221.461 53.0737C224.002 51.3346 225.92 49.593 227.159 47.8756C228.397 46.1597 228.947 44.4809 228.782 42.855Z"
        stroke="#201F1F" stroke-width="0.479895"/>
  <circle cx="35.1273" cy="75.4322" r="3.41259" transform="rotate(-5.95875 35.1273 75.4322)" fill="#FF8743"/>
  <circle cx="198.077" cy="29.3624" r="3.41259" transform="rotate(-5.95875 198.077 29.3624)" fill="#FF8743"/>
  <circle cx="61.5746" cy="31.9217" r="3.41259" transform="rotate(-5.95875 61.5746 31.9217)" fill="#FF8743"/>
  <circle cx="123.852" cy="61.7818" r="3.41259" transform="rotate(-5.95875 123.852 61.7818)" fill="#FF8743"/>
  <circle cx="180.161" cy="80.5511" r="3.41259" transform="rotate(-5.95875 180.161 80.5511)" fill="#FF8743"/>
</svg>
