<svg width="40" height="40" viewBox="0 0 40 40" fill="none" xmlns="http://www.w3.org/2000/svg">
    <path d="M36.1897 17.4666L32.4674 16.3555C32.3218 15.8569 32.1474 15.3672 31.9452 14.8888C30.2372 14.5999 28.6618 13.7852 27.4389 12.5583C26.2159 11.3313 25.4064 9.75336 25.123 8.04436C24.6415 7.83726 24.148 7.65916 23.6452 7.51103L22.5341 3.83325C22.495 3.68943 22.4096 3.5625 22.2911 3.47211C22.1726 3.38173 22.0276 3.33292 21.8786 3.33325H18.123C17.9787 3.33393 17.8384 3.38063 17.7225 3.46656C17.6066 3.55249 17.5211 3.67317 17.4786 3.81103L16.3674 7.4777C15.4475 7.74879 14.5605 8.12145 13.723 8.58881L10.3897 6.78881C10.2609 6.72043 10.1135 6.6954 9.96943 6.71742C9.82531 6.73943 9.69214 6.80733 9.58967 6.91103L6.88967 9.54436C6.78597 9.64683 6.71807 9.78001 6.69605 9.92412C6.67404 10.0682 6.69907 10.2156 6.76745 10.3444L8.56745 13.6777C8.10084 14.5117 7.7282 15.3949 7.45634 16.311L3.77856 17.4221C3.6407 17.4647 3.52002 17.5502 3.43408 17.6661C3.34815 17.782 3.30145 17.9223 3.30078 18.0666V21.8221C3.30145 21.9664 3.34815 22.1067 3.43408 22.2226C3.52002 22.3386 3.6407 22.424 3.77856 22.4666L7.47856 23.5777C7.75339 24.4786 8.12598 25.3467 8.58967 26.1666L6.76745 29.6555C6.69907 29.7842 6.67404 29.9316 6.69605 30.0757C6.71807 30.2198 6.78597 30.353 6.88967 30.4555L9.54523 33.111C9.64769 33.2147 9.78087 33.2826 9.92498 33.3046C10.0691 33.3267 10.2165 33.3016 10.3452 33.2333L13.7786 31.3999C14.5907 31.8382 15.4475 32.1883 16.3341 32.4444L17.4452 36.1888C17.4878 36.3267 17.5733 36.4474 17.6892 36.5333C17.8051 36.6192 17.9454 36.6659 18.0897 36.6666H21.8452C21.9895 36.6659 22.1298 36.6192 22.2457 36.5333C22.3616 36.4474 22.4471 36.3267 22.4897 36.1888L23.6008 32.4333C24.4799 32.1759 25.3291 31.8258 26.1341 31.3888L29.5897 33.2333C29.7184 33.3016 29.8658 33.3267 30.0099 33.3046C30.154 33.2826 30.2872 33.2147 30.3897 33.111L33.0452 30.4555C33.1489 30.353 33.2168 30.2198 33.2388 30.0757C33.2609 29.9316 33.2358 29.7842 33.1674 29.6555L31.323 26.211C31.7645 25.4029 32.1184 24.5499 32.3786 23.6666L36.123 22.5555C36.2609 22.5129 36.3815 22.4274 36.4675 22.3115C36.5534 22.1956 36.6001 22.0553 36.6008 21.911V18.1221C36.6073 17.984 36.5715 17.8471 36.498 17.7299C36.4245 17.6127 36.3169 17.5209 36.1897 17.4666ZM20.0008 26.111C18.7921 26.111 17.6106 25.7526 16.6056 25.0811C15.6007 24.4096 14.8174 23.4552 14.3549 22.3385C13.8923 21.2219 13.7713 19.9931 14.0071 18.8077C14.2429 17.6223 14.8249 16.5334 15.6796 15.6787C16.5342 14.8241 17.6231 14.242 18.8086 14.0062C19.994 13.7704 21.2227 13.8915 22.3394 14.354C23.4561 14.8165 24.4105 15.5998 25.082 16.6048C25.7535 17.6097 26.1119 18.7913 26.1119 19.9999C26.1119 21.6207 25.468 23.1751 24.322 24.3211C23.1759 25.4672 21.6215 26.111 20.0008 26.111Z" fill="#8C8C8C"/>
    <path d="M32.3311 2.22217C34.8759 2.22217 36.9665 4.10371 37.3197 6.54755H38.8192L36.296 9.43113L33.7729 6.54755H35.4454C35.2841 5.84187 34.8883 5.21171 34.3227 4.75999C33.7571 4.30827 33.055 4.06167 32.3311 4.06046C31.2858 4.06046 30.3631 4.57229 29.7791 5.34365L28.5464 3.9379C29.0182 3.39835 29.6001 2.96608 30.2529 2.67014C30.9057 2.37419 31.6144 2.22145 32.3311 2.22217ZM32.0428 11.911C29.5052 11.911 27.4074 10.0295 27.0542 7.58564H25.5547L28.0778 4.70205C28.9213 5.66085 29.7575 6.62685 30.601 7.58564H28.9285C29.0898 8.29132 29.4855 8.92147 30.0512 9.37319C30.6168 9.82492 31.3189 10.0715 32.0428 10.0727C33.0881 10.0727 34.0108 9.56089 34.5947 8.78953L35.8275 10.1953C35.3561 10.7354 34.7743 11.168 34.1214 11.464C33.4685 11.76 32.7596 11.9124 32.0428 11.911Z" fill="#8C8C8C"/>
</svg>
