<svg width="40" height="40" viewBox="0 0 40 40" fill="none" xmlns="http://www.w3.org/2000/svg">
    <path d="M35 10.5001C35 9.18342 34.2167 7.98341 33.0167 7.45008L21.35 2.26675C20.4833 1.88341 19.5 1.88341 18.65 2.26675L6.98333 7.45008C5.78333 7.98341 5 9.18342 5 10.5001V18.3334C5 27.5834 11.4 36.2334 20 38.3334C23.8333 37.4001 27.2167 35.1668 29.8 32.1501L24.6 26.9501C22.9978 28.009 21.0787 28.4814 19.168 28.287C17.2574 28.0925 15.4727 27.2434 14.1167 25.8834C12.5556 24.32 11.6788 22.201 11.6788 19.9917C11.6788 17.7825 12.5556 15.6635 14.1167 14.1001C15.68 12.539 17.799 11.6623 20.0083 11.6623C22.2176 11.6623 24.3366 12.539 25.9 14.1001C27.2566 15.4581 28.1034 17.2424 28.2978 19.152C28.4921 21.0617 28.0219 22.98 26.9667 24.5834L31.8 29.4167C33.8167 26.1501 35 22.3001 35 18.3334V10.5001Z" fill="#8C8C8C"/>
    <path d="M20 25C22.7614 25 25 22.7614 25 20C25 17.2386 22.7614 15 20 15C17.2386 15 15 17.2386 15 20C15 22.7614 17.2386 25 20 25Z" fill="#8C8C8C"/>
</svg>
