<svg width="16" height="19" viewBox="0 0 16 19" fill="none" xmlns="http://www.w3.org/2000/svg">
    <path d="M16 14.1538V10.5436V4.02051C16 3.79487 15.8154 3.61026 15.5897 3.61026H11.0154V1.90769C11.0154 1.68205 10.8308 1.49744 10.6051 1.49744H8.41026V0.410256C8.41026 0.184615 8.22564 0 8 0C7.77436 0 7.58974 0.184615 7.58974 0.410256V1.49744H5.39487C5.16923 1.49744 4.98462 1.68205 4.98462 1.90769V3.61026H0.410256C0.184615 3.61026 0 3.79487 0 4.02051V14.1538C0 14.3795 0.184615 14.5641 0.410256 14.5641H3.17949L1.29231 17.7641C1.16923 17.9692 1.25128 18.2154 1.4359 18.3179C1.49744 18.359 1.57949 18.3795 1.64103 18.3795C1.78462 18.3795 1.92821 18.2974 1.98974 18.1744L4.12308 14.5641H7.58974V17.9692C7.58974 18.1949 7.77436 18.3795 8 18.3795C8.22564 18.3795 8.41026 18.1949 8.41026 17.9692V14.5641H11.8769L14.0103 18.1744C14.0923 18.2974 14.2154 18.3795 14.359 18.3795C14.4205 18.3795 14.5026 18.359 14.5641 18.3179C14.7692 18.1949 14.8308 17.9487 14.7077 17.7641L12.8205 14.5641H15.5897C15.8154 14.5641 16 14.3795 16 14.1538ZM5.80513 2.31795H10.1744V3.61026H5.80513V2.31795ZM5.39487 4.43077H10.5846H15.1795V10.1128H11.2821L9.2718 8.57436C9.10769 8.45128 8.88205 8.47179 8.73846 8.61538L7.38462 9.94872L4.53333 6.91282C4.38974 6.74872 4.12308 6.74872 3.95897 6.89231L0.820513 9.64103V4.43077H5.39487ZM0.820513 13.7436V10.7282L4.20513 7.77436L7.07692 10.8103C7.15897 10.8923 7.26154 10.9333 7.3641 10.9333C7.46667 10.9333 7.58974 10.8923 7.65128 10.8103L9.04615 9.4359L10.8718 10.8513C10.9333 10.9128 11.0359 10.9333 11.1179 10.9333H15.1795V13.7436H0.820513Z" fill="#201F1F"/>
    <path d="M12.307 8.65695C13.107 8.65695 13.7429 8.02105 13.7429 7.22105C13.7429 6.42105 13.107 5.78516 12.307 5.78516C11.507 5.78516 10.8711 6.42105 10.8711 7.22105C10.8711 8.02105 11.507 8.65695 12.307 8.65695ZM12.307 6.60567C12.6557 6.60567 12.9224 6.87234 12.9224 7.22105C12.9224 7.56977 12.6557 7.83644 12.307 7.83644C11.9583 7.83644 11.6916 7.56977 11.6916 7.22105C11.6916 6.87234 11.9583 6.60567 12.307 6.60567Z" fill="#201F1F"/>
</svg>
