<svg width="16" height="19" viewBox="0 0 16 19" fill="none" xmlns="http://www.w3.org/2000/svg">
    <path d="M16 13.8616V10.3259V3.9375C16 3.71652 15.8154 3.53571 15.5897 3.53571H11.0154V1.8683C11.0154 1.64732 10.8308 1.46652 10.6051 1.46652H8.41026V0.401786C8.41026 0.180804 8.22564 0 8 0C7.77436 0 7.58974 0.180804 7.58974 0.401786V1.46652H5.39487C5.16923 1.46652 4.98462 1.64732 4.98462 1.8683V3.53571H0.410256C0.184615 3.53571 0 3.71652 0 3.9375V13.8616C0 14.0826 0.184615 14.2634 0.410256 14.2634H3.17949L1.29231 17.3973C1.16923 17.5982 1.31538 17.8996 1.5 18C1.56154 18.0402 2.43846 18 2.5 18L4.76647 14.2634H7.3641V17.5C7.3641 17.8644 7.77436 18 8 18C8.22564 18 8.73846 17.9023 8.73846 17.5V14.2634H11.3035L13.5 18C13.5 18 14.5026 17.9799 14.5641 17.9397C14.7692 17.8192 14.8308 17.5781 14.7077 17.3973L12.8205 14.2634H15.5897C15.8154 14.2634 16 14.0826 16 13.8616ZM6 2.5H8H10V3.53571L6 3.5V2.5ZM5.39487 5H10.6051H14.7077V9.5H11.1179L9.2718 8.39732C9.10769 8.27678 8.88205 8.29687 8.73846 8.4375L7.3641 9.24107L4.53333 6.77009C4.38974 6.60938 4.12308 6.60937 3.95897 6.75L1.29231 8.77838V5H5.39487ZM1.29231 13V10.3259L4.12308 8L7.07692 10.5871C7.15897 10.6674 7.26154 10.7076 7.3641 10.7076C7.46667 10.7076 7.58974 10.6674 7.65128 10.5871L9 9.5L10.8718 10.6272C10.9333 10.6875 11.0359 10.7076 11.1179 10.7076H14.7077V13H1.29231Z" fill="#201F1F"/>
    <path d="M12.3077 8.47803C13.1077 8.47803 13.7436 7.85526 13.7436 7.07178C13.7436 6.2883 13.1077 5.66553 12.3077 5.66553C11.5077 5.66553 10.8718 6.2883 10.8718 7.07178C10.8718 7.85526 11.5077 8.47803 12.3077 8.47803ZM12.3077 6.4691C12.6564 6.4691 12.9231 6.73026 12.9231 7.07178C12.9231 7.4133 12.6564 7.67446 12.3077 7.67446C11.959 7.67446 11.6923 7.4133 11.6923 7.07178C11.6923 6.73026 11.959 6.4691 12.3077 6.4691Z" fill="#201F1F"/>
</svg>
