<svg width="107" height="121" viewBox="0 0 107 121" fill="none" xmlns="http://www.w3.org/2000/svg">
<path d="M18.9079 57V83.6667C18.9079 85.0812 18.3524 86.4377 17.3635 87.4379L12.7964 92.0572C12.2816 92.5779 12.2816 93.4221 12.7964 93.9428C13.0437 94.1929 13.379 94.3333 13.7286 94.3333H66.2714C66.9995 94.3333 67.5897 93.7364 67.5897 93C67.5897 92.6464 67.4508 92.3072 67.2036 92.0572L62.6365 87.4379C61.6476 86.4377 61.0921 85.0812 61.0921 83.6667V57C61.0921 45.2179 51.6488 35.6667 40 35.6667C28.3512 35.6667 18.9079 45.2179 18.9079 57ZM60.4276 105C58.0861 114.201 49.8281 121 40 121C30.1719 121 21.9139 114.201 19.5724 105H10.546C4.72162 105 0 100.224 0 94.3333C0 91.5044 1.1111 88.7913 3.08886 86.7909L8.36188 81.4575V57C8.36188 39.3269 22.5268 25 40 25C57.4733 25 71.6381 39.3269 71.6381 57V81.4575L76.9111 86.7909C81.0296 90.9565 81.0296 97.7102 76.9111 101.876C74.9334 103.876 72.251 105 69.454 105H60.4276ZM30.8648 105C32.6883 108.188 36.0965 110.333 40 110.333C43.9035 110.333 47.3117 108.188 49.1352 105H30.8648Z" fill="#F0F0F0"/>
<path d="M45.2125 47.2733L42.227 48.917L45.2125 47.2733C42.6181 42.5612 41.1288 37.1088 41.1288 31.2787C41.1288 22.3777 44.5843 15.543 50.0573 10.882C55.5909 6.16932 63.4109 3.5 72.3144 3.5C81.2179 3.5 89.0379 6.16932 94.5715 10.882C100.044 15.543 103.5 22.3777 103.5 31.2787C103.5 40.1645 100.079 46.7644 94.6304 51.315C89.0933 55.9392 81.2187 58.6357 72.1503 59.0612C66.6454 59.3196 64.3851 59.4258 62.1235 59.4695C60.5305 59.5003 58.9369 59.5 56.2084 59.5L39.2125 59.1888L44.7771 52.288L42.0947 50.125L44.7771 52.288C45.9514 50.8317 46.0783 48.846 45.2125 47.2733Z" fill="#F0F0F0" stroke="#FAFAFA" stroke-width="7"/>
<circle cx="63.4286" cy="31.4286" r="3.42857" fill="#E8E0FF"/>
<circle cx="72.0001" cy="31.4286" r="3.42857" fill="#C1B0F1"/>
<circle cx="80.5714" cy="31.4286" r="3.42857" fill="#8060D9"/>
</svg>
