<svg width="24" height="24" viewBox="0 0 24 24" fill="none" xmlns="http://www.w3.org/2000/svg">
<path d="M7.39488 9.23252H4.68503C4.3067 9.23252 4 9.53922 4 9.91755V14.0828C4 14.4608 4.3067 14.7675 4.68503 14.7675H7.39488C7.51698 14.7675 7.63679 14.8 7.74228 14.8619L12.0843 18.9044C12.5408 19.173 13.1164 18.8438 13.1164 18.3141V5.68591C13.1164 5.15618 12.5408 4.82702 12.0843 5.09562L7.74228 9.1381C7.63679 9.19996 7.51698 9.23252 7.39488 9.23252Z" fill="#8C8C8C"/>
<path fill-rule="evenodd" clip-rule="evenodd" d="M16.8333 12.5782L15.0782 14.3333L14.5 13.7551L16.2551 12L14.5 10.2448L15.0782 9.66664L16.8333 11.4218L18.5885 9.66664L19.1667 10.2448L17.4115 12L19.1667 13.7551L18.5885 14.3333L16.8333 12.5782Z" fill="#8C8C8C"/>
</svg>
