<svg width="21" height="18" viewBox="0 0 21 18" fill="none" xmlns="http://www.w3.org/2000/svg">
    <path d="M14 9C14 7.9 13.1 7 12 7C10.9 7 10 7.9 10 9C10 10.1 10.9 11 12 11C13.1 11 14 10.1 14 9ZM12 0C9.61305 0 7.32387 0.948211 5.63604 2.63604C3.94821 4.32387 3 6.61305 3 9H0L4 13L8 9H5C5 5.13 8.13 2 12 2C15.87 2 19 5.13 19 9C19.0014 10.2858 18.6483 11.5471 17.9796 12.6453C17.3109 13.7435 16.3524 14.6362 15.2095 15.2252C14.0666 15.8142 12.7834 16.0769 11.5009 15.9842C10.2185 15.8916 8.98639 15.4472 7.94 14.7L6.52 16.14C7.65464 17.0107 8.98046 17.5985 10.3876 17.8545C11.7947 18.1106 13.2426 18.0277 14.6112 17.6126C15.9799 17.1975 17.2299 16.4622 18.2577 15.4676C19.2855 14.473 20.0614 13.2478 20.5213 11.8935C20.9811 10.5392 21.1115 9.09486 20.9018 7.6801C20.692 6.26534 20.1481 4.92094 19.3151 3.75832C18.4822 2.59569 17.3841 1.64833 16.112 0.994737C14.8398 0.341144 13.4302 0.000145016 12 0Z" fill="#FF9F69"/>
</svg>
