<svg width="24" height="24" viewBox="0 0 24 24" fill="none" xmlns="http://www.w3.org/2000/svg">
<circle cx="12" cy="12" r="10" fill="white"/>
<path d="M13.8063 16.1539C13.8993 16.0678 13.9518 15.9507 13.9518 15.8284L13.9521 12.9732L16.5344 10.5892C18.0076 9.22987 18.0006 6.56846 18 6.45594C17.9976 6.20486 17.7778 6.00221 17.5061 6.00006C17.3839 5.99914 14.501 5.9927 13.0279 7.35177L10.4449 9.73664H7.35241C7.22057 9.73664 7.09371 9.78508 7.00006 9.87092L5.14599 11.5826C5.02046 11.6984 4.97131 11.8668 5.01648 12.0249C5.03906 12.105 5.08455 12.1764 5.14599 12.2331C5.2061 12.2883 5.28082 12.3294 5.36551 12.3508L7.82199 12.9787L10.4389 15.3946L11.1197 17.6629C11.1429 17.7408 11.1878 17.8098 11.2479 17.865C11.309 17.9217 11.3867 17.9634 11.4733 17.9848C11.6447 18.0265 11.827 17.9808 11.9522 17.865L13.8063 16.1539ZM7.93524 12.0535L6.4551 11.6754L7.55898 10.6564H9.44858L7.93524 12.0535ZM10.8845 14.5049L8.78705 12.5682L9.24767 12.1436L11.3448 14.0799L10.8845 14.5049ZM12.0489 13.4297L9.9517 11.4933L13.7326 8.00233C14.5844 7.21656 16.1635 7.00073 16.9801 6.94156C16.916 7.69544 16.6822 9.15292 15.8304 9.93868L12.0489 13.4297ZM11.4421 15.2906L12.3989 14.4074C12.3996 14.4064 12.4009 14.4058 12.4015 14.4052C12.4022 14.4046 12.4029 14.4037 12.4035 14.4028L12.9561 13.8929V15.6377L11.8526 16.6567L11.4421 15.2906ZM9.09856 15.1714C8.82358 15.164 8.59444 15.3639 8.5868 15.618C8.57983 15.8274 8.43205 16.1116 8.23412 16.2944C7.87778 16.6236 7.0708 16.6114 6.56635 16.5537C6.50325 16.0886 6.48964 15.3467 6.8483 15.0156C7.04656 14.8326 7.35474 14.6959 7.58123 14.69C7.85587 14.6836 8.07272 14.4718 8.06542 14.2179C8.05811 13.9644 7.82897 13.7642 7.55399 13.7709C7.07578 13.7829 6.52218 14.0162 6.14393 14.3651C5.22603 15.2124 5.60362 16.8686 5.64978 17.0547C5.67103 17.1405 5.71819 17.2172 5.78328 17.2773C5.84804 17.3373 5.93106 17.3809 6.02471 17.4005C6.22596 17.4431 8.02058 17.792 8.93882 16.9443C9.31641 16.5957 9.56913 16.0853 9.58241 15.6435C9.59038 15.3896 9.37353 15.1781 9.09856 15.1714Z" fill="#201F1F"/>
</svg>
