<svg width="24" height="24" viewBox="0 0 24 24" fill="none" xmlns="http://www.w3.org/2000/svg">
<path d="M7.39488 9.23252H4.68503C4.3067 9.23252 4 9.53922 4 9.91755V14.0828C4 14.4608 4.3067 14.7675 4.68503 14.7675H7.39488C7.51698 14.7675 7.63679 14.8 7.74228 14.8619L12.0843 18.9044C12.5408 19.173 13.1164 18.8438 13.1164 18.3141V5.68591C13.1164 5.15618 12.5408 4.82702 12.0843 5.09562L7.74228 9.1381C7.63679 9.19996 7.51698 9.23252 7.39488 9.23252Z" fill="#251455"/>
<path d="M15.8829 15.9461C15.6509 16.0767 15.3725 15.9619 15.2611 15.6898C15.1498 15.4177 15.2476 15.0912 15.4797 14.9607C16.4425 14.4189 17.0679 13.2769 17.0679 12.0024C17.0679 10.7245 16.439 9.57996 15.4722 9.04004C15.2398 8.91027 15.1411 8.58416 15.2518 8.31166C15.3625 8.03915 15.6406 7.92345 15.8729 8.05322C17.1614 8.77274 18 10.299 18 12.0024C18 13.7013 17.166 15.2241 15.8829 15.9461ZM15.864 13.1395C15.73 13.3972 15.4432 13.4787 15.2234 13.3215C15.0037 13.1644 14.9342 12.8281 15.0682 12.5704C15.1565 12.4008 15.2037 12.2063 15.2037 12.0024C15.2037 11.8052 15.1595 11.6169 15.0767 11.4511C14.9466 11.1907 15.0212 10.8559 15.2432 10.7033C15.4653 10.5508 15.7508 10.6382 15.8809 10.8986C16.0469 11.2308 16.1358 11.6097 16.1358 12.0024C16.1358 12.4086 16.0408 12.7997 15.864 13.1395Z" fill="#251455"/>
</svg>
