<svg width="24" height="24" viewBox="0 0 24 24" fill="none" xmlns="http://www.w3.org/2000/svg">
<circle cx="12" cy="12" r="10" fill="white"/>
<path d="M6.20444 13.5529C6.54629 14.8287 7.29957 15.9561 8.34743 16.7601C9.3953 17.5642 10.6792 18 12 18C13.3208 18 14.6047 17.5642 15.6526 16.7601C16.7004 15.9561 17.4537 14.8287 17.7956 13.5529" stroke="#201F1F" stroke-width="1.4"/>
<path d="M15.5702 9.66366L16.1228 10.0934L16.9823 8.98832L16.4298 8.55856L15.5702 9.66366ZM12 6L12.4298 5.44745L12 5.1132L11.5702 5.44745L12 6ZM7.57024 8.55856L7.0177 8.98832L7.87721 10.0934L8.42976 9.66366L7.57024 8.55856ZM11.3 13L11.3 13.7L12.7 13.7L12.7 13L11.3 13ZM16.4298 8.55856L12.4298 5.44745L11.5702 6.55255L15.5702 9.66366L16.4298 8.55856ZM11.5702 5.44745L7.57024 8.55856L8.42976 9.66366L12.4298 6.55255L11.5702 5.44745ZM11.3 6L11.3 13L12.7 13L12.7 6L11.3 6Z" fill="#201F1F"/>
</svg>
