<svg width="24" height="24" viewBox="0 0 24 24" fill="none" xmlns="http://www.w3.org/2000/svg">
<circle cx="12" cy="12" r="8.7" fill="#FF9F69" stroke="white" stroke-width="1.4"/>
<path d="M8.67656 10.1305C8.66235 9.5685 9.11406 9.10522 9.67624 9.10522H14.1184C14.6831 9.10522 15.1358 9.5725 15.1179 10.1369L14.9309 16.0317C14.9138 16.5713 14.4714 17 13.9314 17H9.82528C9.28284 17 8.83931 16.5675 8.8256 16.0252L8.67656 10.1305Z" fill="white"/>
<path fill-rule="evenodd" clip-rule="evenodd" d="M15.7778 7.83593C15.7778 7.68108 15.6561 7.55555 15.4992 7.55555H13.4025C13.3643 7.55555 13.3094 7.53168 13.286 7.50819L12.9752 7.19743C12.8662 7.08839 12.6512 7 12.5013 7H11.2765C11.1238 7 10.9132 7.08681 10.8026 7.19743L10.4918 7.50819C10.4656 7.53435 10.4107 7.55555 10.3752 7.55555H8.27859C8.12473 7.55555 8 7.67871 8 7.83593V7.98947C8 8.14432 8.12217 8.28421 8.27681 8.28421H15.5009C15.6538 8.28421 15.7778 8.1467 15.7778 7.98947C15.7778 7.98947 15.7778 7.99078 15.7778 7.83593Z" fill="white"/>
</svg>
