<svg width="24" height="24" viewBox="0 0 24 24" fill="none" xmlns="http://www.w3.org/2000/svg">
<circle cx="12" cy="12" r="10.5" fill="white" stroke="#201F1F"/>
<path d="M14.8637 17.0455V15.8636C14.8637 15.2368 14.6146 14.6356 14.1714 14.1923C13.7281 13.749 13.1269 13.5 12.5 13.5H8.36364C7.73676 13.5 7.13556 13.749 6.69229 14.1923C6.24903 14.6356 6 15.2368 6 15.8636V17.0455" stroke="#201F1F" stroke-width="1.4" stroke-linecap="square" stroke-linejoin="round"/>
<path d="M10.4318 11.1363C11.7372 11.1363 12.7954 10.0781 12.7954 8.7727C12.7954 7.4673 11.7372 6.40906 10.4318 6.40906C9.12635 6.40906 8.06812 7.4673 8.06812 8.7727C8.06812 10.0781 9.12635 11.1363 10.4318 11.1363Z" stroke="#201F1F" stroke-width="1.4" stroke-linecap="round" stroke-linejoin="round"/>
<path d="M17.2273 9.36353V12.909" stroke="#201F1F" stroke-width="1.4" stroke-linecap="square" stroke-linejoin="round"/>
<path d="M19.0001 11.1364H15.4546" stroke="#201F1F" stroke-width="1.4" stroke-linecap="square" stroke-linejoin="round"/>
</svg>
