<svg width="24" height="24" viewBox="0 0 24 24" fill="none" xmlns="http://www.w3.org/2000/svg">
<path fill-rule="evenodd" clip-rule="evenodd" d="M5.30942 12.5454C5.30942 13.1169 5.08635 13.6623 4.68977 14.0259L4.07012 14.5974C3.25219 15.3766 3.2274 16.7013 3.99576 17.5064C4.36755 17.8961 4.83848 18.1038 5.35899 18.1038H19.016C19.5365 18.1038 20.0075 17.8961 20.3792 17.5064C21.1476 16.7013 21.1228 15.3766 20.3049 14.5974L19.6852 14.0259C19.2886 13.6364 19.0656 13.1169 19.0656 12.5454V9.37661C19.0656 5.99999 16.587 2 12.3734 2H12.0016C7.788 2 5.30942 5.97402 5.30942 9.37661V12.5454ZM19.2989 15.6823L18.6737 15.1057L18.657 15.0894C17.9799 14.4241 17.5925 13.5227 17.5925 12.5454V9.37661C17.5925 6.51724 15.5024 3.48493 12.3734 3.48493H12.1875H12.0016C8.8698 3.48493 6.78254 6.49471 6.78254 9.37661V12.5444C6.78254 13.4905 6.41517 14.4501 5.68296 15.1226L5.68103 15.1244L5.07613 15.6823C4.85942 15.8952 4.85797 16.268 5.05745 16.4771C5.16396 16.5886 5.25672 16.6189 5.35899 16.6189H19.016C19.1182 16.6189 19.211 16.5886 19.3175 16.4771C19.517 16.268 19.5156 15.8952 19.2989 15.6823ZM14.7777 19.2727H9.57268C9.57268 19.8204 9.72668 20.3305 9.99178 20.7577C10.4558 21.5055 11.2603 22 12.1752 22C13.0901 22 13.8946 21.5055 14.3586 20.7577C14.6238 20.3305 14.7777 19.8204 14.7777 19.2727Z" fill="#201F1F"/>
<circle cx="19" cy="5" r="4" fill="#19D992"/>
</svg>
