<svg width="16" height="16" viewBox="0 0 16 16" fill="none" xmlns="http://www.w3.org/2000/svg">
    <path d="M10.8682 4.1396C10.6925 3.95347 10.4076 3.95347 10.2318 4.1396L4.84052 9.84951L2.76821 7.65474C2.59248 7.46861 2.30757 7.46862 2.13181 7.65474C1.95606 7.84085 1.95606 8.14259 2.13181 8.32872L4.52233 10.8605C4.698 11.0466 4.98312 11.0464 5.15872 10.8605L10.8682 4.8136C11.0439 4.62749 11.0439 4.32573 10.8682 4.1396Z" fill="#8C8C8C"/>
    <path d="M13.8682 4.1396C13.6925 3.95347 13.4076 3.95347 13.2318 4.1396L7.84052 9.84951L5.76821 7.65474C5.59248 7.46861 5.30757 7.46862 5.13181 7.65474C4.95606 7.84085 4.95606 8.14259 5.13181 8.32872L7.52233 10.8605C7.698 11.0466 7.98312 11.0464 8.15872 10.8605L13.8682 4.8136C14.0439 4.62749 14.0439 4.32573 13.8682 4.1396Z" fill="#8C8C8C"/>
</svg>
