<svg width="16" height="14" viewBox="0 0 16 14" fill="none" xmlns="http://www.w3.org/2000/svg">
    <path d="M12.643 14C13.979 14 15 12.845 15 11.5V4H1V11.5C1 12.845 2.021 14 3.357 14H12.643ZM5.5 6H10.5C10.6326 6 10.7598 6.05268 10.8536 6.14645C10.9473 6.24021 11 6.36739 11 6.5C11 6.63261 10.9473 6.75979 10.8536 6.85355C10.7598 6.94732 10.6326 7 10.5 7H5.5C5.36739 7 5.24021 6.94732 5.14645 6.85355C5.05268 6.75979 5 6.63261 5 6.5C5 6.36739 5.05268 6.24021 5.14645 6.14645C5.24021 6.05268 5.36739 6 5.5 6ZM0.8 0C0.587827 0 0.384344 0.0842855 0.234315 0.234315C0.0842855 0.384344 0 0.587827 0 0.8L0 2C0 2.21217 0.0842855 2.41566 0.234315 2.56569C0.384344 2.71571 0.587827 2.8 0.8 2.8H15.2C15.4122 2.8 15.6157 2.71571 15.7657 2.56569C15.9157 2.41566 16 2.21217 16 2V0.8C16 0.587827 15.9157 0.384344 15.7657 0.234315C15.6157 0.0842855 15.4122 0 15.2 0H0.8Z" fill="#FF9F69"/>
</svg>
