<svg width="24" height="24" viewBox="0 0 24 24" fill="none" xmlns="http://www.w3.org/2000/svg">
<path d="M4.02836 19.4102C3.73893 19.4048 3.58081 19.0704 3.76029 18.8433L3.25031 18.4402L3.76029 18.8433L4.88913 17.4148C5.30961 16.8827 5.34323 16.1768 5.07205 15.6095C4.48385 14.3791 4.15101 12.988 4.15101 11.5112C4.15101 8.99846 5.11078 7.05253 6.63651 5.72663C8.17247 4.39185 10.3249 3.65 12.7505 3.65C15.1761 3.65 17.3285 4.39185 18.8645 5.72663C20.3902 7.05253 21.35 8.99846 21.35 11.5112C21.35 14.0212 20.3984 15.904 18.8781 17.1995C17.3425 18.5081 15.1797 19.2554 12.7194 19.3732C11.2507 19.4435 10.6456 19.4725 10.0402 19.4845C9.6127 19.4929 9.18508 19.4929 8.45318 19.4929L4.02836 19.4102Z" stroke="#8C8C8C" stroke-width="1.3"/>
</svg>
