<svg width="24" height="24" viewBox="0 0 24 24" fill="none" xmlns="http://www.w3.org/2000/svg">
<circle cx="12" cy="12" r="10.5" fill="white" stroke="#201F1F"/>
<path d="M14.7273 16.8183V15.7274C14.7273 15.1487 14.4974 14.5937 14.0882 14.1846C13.6791 13.7754 13.1241 13.5455 12.5455 13.5455H8.18182C7.60316 13.5455 7.04821 13.7754 6.63904 14.1846C6.22987 14.5937 6 15.1487 6 15.7274V16.8183" stroke="#201F1F" stroke-width="1.4" stroke-linecap="square"/>
<path d="M10.3637 11.3636C11.5687 11.3636 12.5455 10.3868 12.5455 9.18182C12.5455 7.97683 11.5687 7 10.3637 7C9.15872 7 8.18188 7.97683 8.18188 9.18182C8.18188 10.3868 9.15872 11.3636 10.3637 11.3636Z" stroke="#201F1F" stroke-width="1.4" stroke-linecap="square"/>
<path d="M18.0001 16.8182V15.7272C17.9998 15.2438 17.8389 14.7742 17.5427 14.3921C17.2465 14.0101 16.8318 13.7372 16.3638 13.6163" stroke="#201F1F" stroke-width="1.4" stroke-linecap="round"/>
<path d="M14.1819 7.07092C14.6512 7.19109 15.0672 7.46403 15.3642 7.84673C15.6613 8.22942 15.8225 8.7001 15.8225 9.18456C15.8225 9.66902 15.6613 10.1397 15.3642 10.5224C15.0672 10.9051 14.6512 11.178 14.1819 11.2982" stroke="#201F1F" stroke-width="1.4" stroke-linecap="round"/>
</svg>
