<svg width="24" height="24" viewBox="0 0 24 24" fill="none" xmlns="http://www.w3.org/2000/svg">
    <circle cx="12" cy="12" r="10.5" fill="white" stroke="#201F1F"/>
    <path d="M17.8286 8.90812C17.6386 8.46803 17.3645 8.06922 17.0218 7.73402C16.6788 7.39783 16.2745 7.13066 15.8307 6.94704C15.3705 6.75589 14.877 6.65804 14.3787 6.65919C13.6796 6.65919 12.9975 6.85062 12.4048 7.2122C12.263 7.2987 12.1283 7.39371 12.0007 7.49722C11.8731 7.39371 11.7384 7.2987 11.5966 7.2122C11.0039 6.85062 10.3218 6.65919 9.62274 6.65919C9.11935 6.65919 8.63157 6.75561 8.17072 6.94704C7.72547 7.13138 7.32418 7.39654 6.97961 7.73402C6.63645 8.06884 6.36233 8.46774 6.17278 8.90812C5.97568 9.36613 5.875 9.8525 5.875 10.353C5.875 10.8252 5.97142 11.3173 6.16285 11.8178C6.32308 12.2361 6.5528 12.67 6.84632 13.1082C7.31142 13.8016 7.95093 14.5248 8.745 15.2579C10.0609 16.4731 11.364 17.3125 11.4193 17.3466L11.7554 17.5621C11.9043 17.6571 12.0957 17.6571 12.2446 17.5621L12.5807 17.3466C12.636 17.3111 13.9377 16.4731 15.255 15.2579C16.0491 14.5248 16.6886 13.8016 17.1537 13.1082C17.4472 12.67 17.6783 12.2361 17.8371 11.8178C18.0286 11.3173 18.125 10.8252 18.125 10.353C18.1264 9.8525 18.0257 9.36613 17.8286 8.90812Z" fill="#6038D0"/>
</svg>
