<svg width="32" height="24" viewBox="0 0 32 24" fill="none" xmlns="http://www.w3.org/2000/svg">
    <path d="M4.13379 24V21.1729H32.0002V24H4.13379Z" fill="#6038D0"/>
    <path d="M4.13379 21.173L7.75706 14.3877H28.0996L32.0002 21.173H4.13379Z" fill="#C1B0F1"/>
    <path d="M10.6826 17.7803H25.0338" stroke="black" stroke-width="0.831122" stroke-linecap="round"/>
    <path d="M6.55001 1.66749L3.85466 0.673096L1.34668 6.18612L5.52664 8.02379L9.28861 8.58923L15.5586 5.62068L13.6698 3.20017C13.1869 2.58135 12.4642 2.19641 11.6813 2.14099L7.31331 1.83181C7.0524 1.81335 6.79541 1.75802 6.55001 1.66749Z" fill="#C1B0F1"/>
    <path d="M12.3545 6.7317V17.7805H23.5011V6.7317C23.5011 6.11968 23.0049 5.62354 22.3929 5.62354H13.4627C12.8506 5.62354 12.3545 6.11968 12.3545 6.7317Z" fill="#6038D0"/>
    <path d="M12.4927 10.2857L9.28809 8.58939L12.2141 6.61035L14.304 8.30667C15.4187 9.5789 13.6921 10.6748 12.4927 10.2857Z" fill="#C1B0F1"/>
    <rect width="1.67637" height="6.13609" transform="matrix(0.903765 0.428029 -0.417995 0.908449 2.56445 0)" fill="#6038D0"/>
</svg>
