<svg width="19" height="18" viewBox="0 0 19 18" fill="none" xmlns="http://www.w3.org/2000/svg">
<path d="M14.7614 1.00098C14.4023 1.00185 14.047 1.0738 13.7159 1.21269C13.3848 1.35157 13.0845 1.55464 12.8323 1.81018L2.33521 12.3066L2.29406 12.5144L1.56783 16.1654L1.36072 17.1399L2.33588 16.9328L5.98692 16.2066L6.19404 16.1648L16.6911 5.66834C16.9473 5.41657 17.1508 5.11628 17.2897 4.78502C17.4287 4.45375 17.5002 4.09814 17.5002 3.73893C17.5002 3.37972 17.4287 3.0241 17.2897 2.69284C17.1508 2.36157 16.9473 2.06129 16.6911 1.80952C16.4388 1.55402 16.1383 1.35103 15.8071 1.21225C15.4759 1.07348 15.1205 1.00167 14.7614 1.00098ZM14.7614 2.26623C15.096 2.26623 15.4332 2.41891 15.7571 2.74352C16.403 3.38876 16.403 4.0891 15.7571 4.735L15.2805 5.19105L13.3089 3.22015L13.7656 2.74352C14.0903 2.41891 14.4268 2.26623 14.7614 2.26623ZM12.3763 4.15415L14.3465 6.12505L6.31884 14.152C5.88546 13.3041 5.19549 12.6146 4.34727 12.1818L12.3763 4.15415ZM3.49758 13.2612C3.89045 13.4192 4.24733 13.6551 4.54678 13.9545C4.84623 14.254 5.08206 14.6109 5.24012 15.0037L3.06144 15.4392L3.49758 13.2612Z" fill="#8C8C8C"/>
</svg>
