<?xml version="1.0" encoding="UTF-8"?>
<svg width="700pt" height="700pt" version="1.1" viewBox="0 0 700 700" xmlns="http://www.w3.org/2000/svg" xmlns:xlink="http://www.w3.org/1999/xlink">
  <g>
    <path d="m612.5 122.5c0-2.3203-0.92188-4.5469-2.5625-6.1875s-3.8672-2.5625-6.1875-2.5625h-148.75v-8.75c-0.019531-16.238-6.4766-31.809-17.961-43.289-11.48-11.484-27.051-17.941-43.289-17.961h-87.5c-16.238 0.019531-31.809 6.4766-43.289 17.961-11.484 11.48-17.941 27.051-17.961 43.289v8.75h-148.75c-4.832 0-8.75 3.918-8.75 8.75v350c0.011719 11.598 4.625 22.719 12.828 30.922s19.324 12.816 30.922 12.828h437.5c11.598-0.011719 22.719-4.625 30.922-12.828s12.816-19.324 12.828-30.922zm-350-17.5c0.011719-11.598 4.625-22.719 12.828-30.922s19.324-12.816 30.922-12.828h87.5c11.598 0.011719 22.719 4.625 30.922 12.828s12.816 19.324 12.828 30.922v8.75h-17.5v-8.75c-0.007812-6.9609-2.7773-13.633-7.6992-18.551-4.918-4.9219-11.59-7.6914-18.551-7.6992h-87.5c-6.9609 0.007812-13.633 2.7773-18.551 7.6992-4.9219 4.918-7.6914 11.59-7.6992 18.551v8.75h-17.5zm140 8.75h-105v-8.75c0.003906-4.832 3.918-8.7461 8.75-8.75h87.5c4.832 0.003906 8.7461 3.918 8.75 8.75zm192.5 17.5v32.223l-100.79 142.78h-91.715v-17.5c0-2.3203-0.92188-4.5469-2.5625-6.1875s-3.8672-2.5625-6.1875-2.5625h-87.5c-4.832 0-8.75 3.918-8.75 8.75v17.5h-91.715l-100.79-142.78v-32.223zm-455 112.15 54.102 76.645c1.6406 2.3203 4.3047 3.7031 7.1484 3.7031h96.25v17.5c0 2.3203 0.92188 4.5469 2.5625 6.1875s3.8672 2.5625 6.1875 2.5625h87.5c2.3203 0 4.5469-0.92188 6.1875-2.5625s2.5625-3.8672 2.5625-6.1875v-17.5h96.25c2.8438 0 5.5078-1.3828 7.1484-3.7031l54.102-76.645v220.35h-420zm245 54.098v35h-26.25v-35zm-43.75 35h-26.25v-35h26.25zm227.5 166.25h-437.5c-6.9609-0.007812-13.633-2.7773-18.551-7.6992-4.9219-4.918-7.6914-11.59-7.6992-18.551v-278.68l17.5 24.793v253.89c0 2.3203 0.92188 4.5469 2.5625 6.1875s3.8672 2.5625 6.1875 2.5625h437.5c2.3203 0 4.5469-0.92188 6.1875-2.5625s2.5625-3.8672 2.5625-6.1875v-253.89l17.5-24.793v278.68c-0.007812 6.9609-2.7773 13.633-7.6992 18.551-4.918 4.9219-11.59 7.6914-18.551 7.6992z"/>
  </g>
</svg>
