<svg width="24" height="24" viewBox="0 0 24 24" fill="none" xmlns="http://www.w3.org/2000/svg">
  <path
    d="M15.5496 18.9232C15.6926 18.7797 15.7734 18.5845 15.7734 18.3806L15.7739 13.622L19.7471 9.64873C22.0138 7.38311 22.003 2.94743 22.002 2.75991C21.9984 2.34143 21.6602 2.00368 21.2422 2.0001C21.0542 1.99857 16.6185 1.98784 14.3519 4.25294L10.3776 8.22774H5.61947C5.41662 8.22774 5.22143 8.30847 5.07734 8.45154L2.22463 11.3043C2.03148 11.4974 1.95586 11.7779 2.02535 12.0416C2.0601 12.1749 2.1301 12.294 2.22463 12.3885C2.31711 12.4805 2.43208 12.549 2.56237 12.5847L6.34198 13.6312L10.3684 17.6576L11.4159 21.4382C11.4516 21.568 11.5206 21.683 11.6131 21.7749C11.7071 21.8695 11.8267 21.939 11.96 21.9747C12.2237 22.0442 12.5042 21.9681 12.6968 21.7749L15.5496 18.9232ZM6.51622 12.0891L4.23885 11.4591L5.93729 9.76063H8.84468L6.51622 12.0891ZM11.0541 16.1748L7.82684 12.947L8.53555 12.2393L11.7623 15.4666L11.0541 16.1748ZM12.8455 14.3828L9.61879 11.1556L15.4361 5.33721C16.7467 4.02761 19.1764 3.66789 20.4328 3.56927C20.3342 4.82573 19.9745 7.25486 18.6639 8.56446L12.8455 14.3828ZM11.912 17.4844L13.3841 16.0123C13.3851 16.0107 13.3872 16.0097 13.3882 16.0087C13.3892 16.0077 13.3902 16.0062 13.3912 16.0046L14.2415 15.1549V18.0628L12.5436 19.7612L11.912 17.4844ZM8.30613 17.2856C7.88305 17.2733 7.53048 17.6065 7.51873 18.0301C7.508 18.3791 7.28062 18.8527 6.97609 19.1573C6.42782 19.706 5.18618 19.6856 4.41002 19.5895C4.31294 18.8144 4.29199 17.5779 4.84383 17.026C5.14888 16.721 5.62305 16.4931 5.97153 16.4834C6.3941 16.4727 6.72776 16.1196 6.71652 15.6965C6.70527 15.2739 6.35271 14.9403 5.92963 14.9515C5.19384 14.9714 4.34206 15.3603 3.76007 15.9418C2.34777 17.3541 2.92874 20.1143 2.99976 20.4245C3.03246 20.5675 3.10502 20.6953 3.20517 20.7954C3.30481 20.8956 3.43255 20.9681 3.57664 21.0008C3.88628 21.0718 6.64753 21.6533 8.06035 20.2405C8.64132 19.6595 9.03016 18.8088 9.0506 18.0725C9.06286 17.6494 8.72921 17.2968 8.30613 17.2856Z"
    fill="#381E80"/>
</svg>
