<svg width="56" height="56" viewBox="0 0 56 56" fill="none" xmlns="http://www.w3.org/2000/svg">
    <circle cx="28" cy="28" r="20" fill="#E8E0FF"/>
    <rect x="39" y="38" width="2" height="10" fill="#6038D0"/>
    <rect x="45" y="42" width="2" height="10" transform="rotate(90 45 42)" fill="#6038D0"/>
    <path d="M14.697 35.2587C14.3218 34.8534 14.3461 34.2207 14.7513 33.8455L32.0922 17.7886C32.2094 17.6801 32.3509 17.6012 32.5049 17.5586L39.442 15.6387C40.2244 15.4221 40.9251 16.1789 40.6492 16.9424L38.2023 23.7116C38.148 23.8618 38.0585 23.9969 37.9413 24.1054L20.6004 40.1623C20.1952 40.5375 19.5625 40.5132 19.1873 40.108L14.697 35.2587Z" fill="#6038D0"/>
    <path d="M12.4797 29.2437L15.8221 32.8533L23.4925 25.7508L17.443 24.6479L12.4797 29.2437Z" fill="#FF8743"/>
    <path d="M25.0142 42.7793L21.6718 39.1697L29.3422 32.0672L29.9774 38.1836L25.0142 42.7793Z" fill="#FF8743"/>
    <circle cx="33.0489" cy="22.6676" r="1.84478" transform="rotate(-13.0404 33.0489 22.6676)" fill="white"/>
    <circle cx="28.8111" cy="26.1739" r="1.84478" transform="rotate(-13.0404 28.8111 26.1739)" fill="white"/>
    <path d="M16 32.5L22 39" stroke="#201F1F"/>
</svg>
