<svg width="24" height="24" viewBox="0 0 24 24" fill="none" xmlns="http://www.w3.org/2000/svg">
  <path
    d="M5.23852 14.8117C5.63734 16.3002 6.51616 17.6154 7.73867 18.5535C8.96118 19.4915 10.4591 20 12 20C13.5409 20 15.0388 19.4915 16.2613 18.5535C17.4838 17.6154 18.3627 16.3002 18.7615 14.8117"
    stroke="#381E80" stroke-width="2"/>
  <path
    d="M16.3753 8.78087L17.1562 9.40556L18.4056 7.84383L17.6247 7.21913L16.3753 8.78087ZM12 4L12.6247 3.21913L12 2.71937L11.3753 3.21913L12 4ZM6.37531 7.21913L5.59444 7.84383L6.84383 9.40556L7.62469 8.78087L6.37531 7.21913ZM11 13L11 14L13 14L13 13L11 13ZM17.6247 7.21913L12.6247 3.21913L11.3753 4.78087L16.3753 8.78087L17.6247 7.21913ZM11.3753 3.21913L6.37531 7.21913L7.62469 8.78087L12.6247 4.78087L11.3753 3.21913ZM11 4L11 13L13 13L13 4L11 4Z"
    fill="#381E80"/>
</svg>
