<svg width="18" height="18" viewBox="0 0 18 18" fill="none" xmlns="http://www.w3.org/2000/svg">
  <path d="M9 16.5C13.1421 16.5 16.5 13.1421 16.5 9C16.5 4.85786 13.1421 1.5 9 1.5C4.85786 1.5 1.5 4.85786 1.5 9C1.5 13.1421 4.85786 16.5 9 16.5Z" stroke="#201F1F" stroke-width="1.5" stroke-linecap="round" stroke-linejoin="round"/>
  <path d="M6.8175 6.74994C6.99383 6.24869 7.34187 5.82602 7.79997 5.55679C8.25807 5.28756 8.79668 5.18914 9.32039 5.27897C9.8441 5.3688 10.3191 5.64108 10.6613 6.04758C11.0035 6.45409 11.1908 6.96858 11.19 7.49994C11.19 8.99994 8.94 9.74994 8.94 9.74994" stroke="#201F1F" stroke-width="1.5" stroke-linejoin="round"/>
  <path d="M9 12.75H9.00667" stroke="#201F1F" stroke-width="2" stroke-linecap="round" stroke-linejoin="round"/>
</svg>
