<svg width="56" height="56" viewBox="0 0 56 56" fill="none" xmlns="http://www.w3.org/2000/svg">
    <circle cx="28" cy="28" r="20" fill="#E8E0FF"/>
    <ellipse cx="28" cy="18" rx="8" ry="4" fill="#E1FC31"/>
    <ellipse cx="28" cy="39" rx="8" ry="4" fill="#E1FC31"/>
    <rect x="20" y="18" width="16" height="21" fill="#E1FC31"/>
    <path d="M35 18C35 19.6569 31.866 21 28 21C24.134 21 21 19.6569 21 18" stroke="#201F1F"/>
    <path d="M35 22C35 23.6569 31.866 25 28 25C24.134 25 21 23.6569 21 22" stroke="#201F1F"/>
    <path d="M35 26C35 27.6569 31.866 29 28 29C24.134 29 21 27.6569 21 26" stroke="#201F1F"/>
    <path d="M35 30C35 31.6569 31.866 33 28 33C24.134 33 21 31.6569 21 30" stroke="#201F1F"/>
    <path d="M35 34C35 35.6569 31.866 37 28 37C24.134 37 21 35.6569 21 34" stroke="#201F1F"/>
    <path d="M35 38C35 39.6569 31.866 41 28 41C24.134 41 21 39.6569 21 38" stroke="#201F1F"/>
    <path d="M48.5303 41.5303C48.8232 41.2374 48.8232 40.7626 48.5303 40.4697L43.7574 35.6967C43.4645 35.4038 42.9896 35.4038 42.6967 35.6967C42.4038 35.9896 42.4038 36.4645 42.6967 36.7574L46.9393 41L42.6967 45.2426C42.4038 45.5355 42.4038 46.0104 42.6967 46.3033C42.9896 46.5962 43.4645 46.5962 43.7574 46.3033L48.5303 41.5303ZM39 41.75L48 41.75L48 40.25L39 40.25L39 41.75Z" fill="#6038D0"/>
</svg>
