<svg width="244" height="100" viewBox="0 0 244 100" fill="none" xmlns="http://www.w3.org/2000/svg">
<g clip-path="url(#clip0_13137_120278)">
<rect x="40.248" y="29.1091" width="154.67" height="35.392" rx="3.96015" transform="rotate(-2.61159 40.248 29.1091)" fill="#201F1F"/>
<line y1="-2.97011" x2="130.745" y2="-2.97011" transform="matrix(0.999414 -0.034231 0.0656687 0.997841 51.8027 49.1899)" stroke="white" stroke-width="5.94023"/>
<line y1="-2.97011" x2="83.9521" y2="-2.97011" transform="matrix(0.999414 -0.0342311 0.0656686 0.997841 52.3516 55.7083)" stroke="white" stroke-width="5.94023"/>
<path d="M54.8983 28.3395C68.3312 21.5868 97.9235 21.1754 130.868 28.3329C173.938 37.6904 206.428 56.4415 203.435 70.2146C200.443 83.9878 145.104 85.4218 86.2144 70.9087L77.3752 68.2144" stroke="#201F1F" stroke-width="0.214062"/>
<ellipse cx="110.175" cy="74.7937" rx="6.81107" ry="6.81107" transform="rotate(-2.61158 110.175 74.7937)" fill="#CFF9EA"/>
<path d="M108.028 71.7628C108.055 71.6504 108.125 71.5531 108.224 71.4925C108.322 71.4318 108.44 71.4127 108.553 71.4394L113.64 72.6459C113.753 72.6725 113.85 72.7428 113.911 72.8411C113.971 72.9395 113.99 73.0579 113.964 73.1703L113.763 74.0183C113.736 74.1307 113.666 74.2279 113.567 74.2886C113.469 74.3492 113.351 74.3683 113.238 74.3417L108.151 73.1352C108.038 73.1085 107.941 73.0383 107.88 72.9399C107.82 72.8416 107.801 72.7232 107.827 72.6107L108.028 71.7628ZM107.425 74.3065C107.452 74.1941 107.522 74.0969 107.62 74.0362C107.719 73.9755 107.837 73.9565 107.95 73.9831L110.493 74.5863C110.606 74.613 110.703 74.6832 110.764 74.7816C110.824 74.88 110.843 74.9984 110.817 75.1108L110.214 77.6545C110.187 77.767 110.117 77.8642 110.018 77.9249C109.92 77.9855 109.801 78.0046 109.689 77.978L107.145 77.3747C107.033 77.3481 106.936 77.2778 106.875 77.1795C106.814 77.0811 106.795 76.9627 106.822 76.8502L107.425 74.3065ZM112.189 74.9885C112.077 74.9618 111.958 74.9809 111.86 75.0416C111.762 75.1022 111.691 75.1995 111.665 75.3119L111.061 77.8556C111.035 77.9681 111.054 78.0865 111.115 78.1848C111.175 78.2832 111.272 78.3534 111.385 78.3801L112.233 78.5812C112.345 78.6079 112.464 78.5888 112.562 78.5281C112.66 78.4675 112.731 78.3702 112.757 78.2578L113.36 75.7141C113.387 75.6016 113.368 75.4832 113.307 75.3848C113.247 75.2865 113.149 75.2162 113.037 75.1896L112.189 74.9885Z" fill="#19D992"/>
<circle cx="85.1992" cy="22.3772" r="7.49218" fill="#FFF3EC"/>
<g clip-path="url(#clip1_13137_120278)">
<path d="M85.8527 25.9447H84.5541C84.4727 25.9447 84.3937 25.9169 84.3303 25.8659C84.2669 25.8149 84.2228 25.7438 84.2054 25.6643L84.0598 24.9922C83.8661 24.9073 83.6823 24.8011 83.512 24.6757L82.8567 24.8844C82.7792 24.9092 82.6955 24.9066 82.6195 24.8772C82.5436 24.8478 82.48 24.7933 82.4392 24.7228L81.7879 23.5986C81.7476 23.528 81.7325 23.4459 81.7449 23.3656C81.7574 23.2853 81.7968 23.2116 81.8566 23.1566L82.3647 22.6928C82.3415 22.4827 82.3414 22.2707 82.3644 22.0606L81.8558 21.5978C81.7959 21.5428 81.7564 21.4691 81.7438 21.3887C81.7313 21.3083 81.7464 21.2261 81.7867 21.1554L82.4355 20.0306C82.4761 19.96 82.5397 19.9055 82.6156 19.8761C82.6915 19.8467 82.7752 19.8442 82.8528 19.8689L83.5083 20.0776C83.5953 20.0134 83.6859 19.9535 83.7794 19.8993C83.8696 19.8486 83.9624 19.8026 84.0572 19.7615L84.2025 19.0901C84.2198 19.0106 84.2637 18.9394 84.327 18.8884C84.3903 18.8373 84.4692 18.8094 84.5505 18.8093H85.8492C85.9305 18.8094 86.0094 18.8373 86.0728 18.8884C86.1361 18.9394 86.1802 19.0106 86.1975 19.0901L86.3448 19.7619C86.5383 19.8473 86.722 19.9534 86.8926 20.0784L87.5483 19.8696C87.6258 19.845 87.7094 19.8476 87.7853 19.877C87.8612 19.9064 87.9247 19.9608 87.9654 20.0313L88.6153 21.1562C88.6982 21.3014 88.6697 21.4851 88.5467 21.5982L88.0385 22.062C88.0617 22.2721 88.0618 22.4841 88.0388 22.6942L88.5474 23.158C88.6706 23.2715 88.6992 23.4548 88.6165 23.6L87.9678 24.7249C87.9271 24.7955 87.8635 24.85 87.7876 24.8794C87.7117 24.9088 87.628 24.9113 87.5504 24.8866L86.8949 24.6778C86.7248 24.8032 86.5413 24.9092 86.3478 24.9939L86.2008 25.6643C86.1834 25.7437 86.1394 25.8148 86.0761 25.8658C86.0128 25.9168 85.934 25.9447 85.8527 25.9447ZM85.1995 20.9499C84.821 20.9499 84.4581 21.1003 84.1906 21.3679C83.9231 21.6356 83.7729 21.9985 83.7731 22.377C83.7733 22.7555 83.9238 23.1185 84.1916 23.3861C84.4594 23.6538 84.8224 23.8041 85.2009 23.8041C85.5794 23.8041 85.9423 23.6538 86.2098 23.3861C86.4773 23.1185 86.6275 22.7555 86.6273 22.377C86.6271 21.9985 86.4766 21.6356 86.2088 21.3679C85.941 21.1003 85.578 20.9499 85.1995 20.9499Z" fill="#FF8743"/>
</g>
<path d="M41.6012 57.8897C37.2341 62.5671 35.3408 66.5518 36.5776 69.3515C40.541 78.3233 75.1466 71.7285 113.872 54.6216C152.596 37.5146 180.776 16.3736 176.813 7.40176C173.165 -0.856189 138.375 6.64224 103.489 20.8188L96.7457 23.4587" stroke="#201F1F" stroke-width="0.214062"/>
<ellipse cx="114.821" cy="16.2915" rx="4.08665" ry="4.08664" transform="rotate(-2.61159 114.821 16.2915)" fill="#CFF9EA"/>
<path d="M112.289 15.081C112.269 15.0026 112.28 14.9191 112.32 14.849C112.361 14.7788 112.428 14.7277 112.506 14.7069L116.053 13.765C116.132 13.7441 116.215 13.7553 116.285 13.796C116.355 13.8367 116.406 13.9036 116.427 13.982L116.584 14.5731C116.605 14.6515 116.594 14.735 116.553 14.8051C116.512 14.8753 116.446 14.9264 116.367 14.9472L112.82 15.8891C112.742 15.91 112.659 15.8988 112.588 15.8581C112.518 15.8174 112.467 15.7505 112.446 15.6721L112.289 15.081ZM112.76 16.8543C112.74 16.7759 112.751 16.6925 112.791 16.6223C112.832 16.5522 112.899 16.5011 112.977 16.4803L114.751 16.0093C114.829 15.9885 114.913 15.9996 114.983 16.0403C115.053 16.0811 115.104 16.148 115.125 16.2263L115.596 17.9997C115.617 18.0781 115.605 18.1615 115.565 18.2317C115.524 18.3018 115.457 18.3529 115.379 18.3737L113.605 18.8447C113.527 18.8655 113.444 18.8544 113.373 18.8136C113.303 18.7729 113.252 18.706 113.231 18.6276L112.76 16.8543ZM115.933 15.6953C115.855 15.7161 115.788 15.7672 115.747 15.8374C115.706 15.9075 115.695 15.991 115.716 16.0694L116.187 17.8427C116.208 17.9211 116.259 17.988 116.329 18.0287C116.399 18.0694 116.483 18.0806 116.561 18.0598L117.152 17.9028C117.23 17.882 117.297 17.8308 117.338 17.7607C117.379 17.6906 117.39 17.6071 117.369 17.5287L116.898 15.7554C116.877 15.677 116.826 15.6101 116.756 15.5694C116.686 15.5287 116.603 15.5175 116.524 15.5383L115.933 15.6953Z" fill="#19D992"/>
<ellipse cx="59.1651" cy="71.9477" rx="4.08665" ry="4.08664" transform="rotate(-2.61159 59.1651 71.9477)" fill="#FFF3EC"/>
<g clip-path="url(#clip2_13137_120278)">
<path d="M59.5064 73.7442H58.8571C58.8164 73.7442 58.777 73.7303 58.7452 73.7048C58.7135 73.6793 58.6915 73.6437 58.6828 73.604L58.61 73.2679C58.5131 73.2255 58.4213 73.1724 58.3361 73.1097L58.0084 73.2141C57.9697 73.2264 57.9278 73.2252 57.8898 73.2105C57.8519 73.1958 57.8201 73.1685 57.7997 73.1332L57.474 72.5712C57.4539 72.5359 57.4463 72.4948 57.4526 72.4546C57.4588 72.4145 57.4785 72.3776 57.5084 72.3501L57.7624 72.1182C57.7508 72.0132 57.7508 71.9072 57.7623 71.8021L57.508 71.5708C57.478 71.5433 57.4583 71.5064 57.452 71.4662C57.4457 71.426 57.4533 71.3849 57.4734 71.3496L57.7978 70.7871C57.8181 70.7519 57.8499 70.7246 57.8879 70.7099C57.9258 70.6952 57.9677 70.6939 58.0065 70.7063L58.3342 70.8107C58.3777 70.7786 58.423 70.7486 58.4698 70.7215C58.5149 70.6961 58.5613 70.6731 58.6087 70.6526L58.6813 70.3169C58.69 70.2772 58.7119 70.2416 58.7436 70.216C58.7752 70.1905 58.8147 70.1766 58.8553 70.1765H59.5047C59.5453 70.1766 59.5848 70.1905 59.6165 70.216C59.6482 70.2416 59.6702 70.2772 59.6788 70.3169L59.7525 70.6528C59.8493 70.6955 59.9411 70.7485 60.0264 70.811L60.3542 70.7067C60.393 70.6944 60.4348 70.6956 60.4727 70.7103C60.5107 70.725 60.5424 70.7523 60.5628 70.7875L60.8877 71.3499C60.9292 71.4225 60.9149 71.5144 60.8534 71.571L60.5993 71.8029C60.6109 71.9079 60.611 72.0139 60.5995 72.119L60.8538 72.3509C60.9154 72.4076 60.9297 72.4993 60.8883 72.5719L60.564 73.1343C60.5436 73.1696 60.5118 73.1968 60.4739 73.2115C60.4359 73.2262 60.3941 73.2275 60.3553 73.2151L60.0275 73.1108C59.9425 73.1734 59.8507 73.2265 59.754 73.2688L59.6805 73.604C59.6718 73.6437 59.6498 73.6793 59.6181 73.7048C59.5865 73.7303 59.5471 73.7442 59.5064 73.7442ZM59.1798 71.2468C58.9906 71.2468 58.8091 71.322 58.6754 71.4558C58.5416 71.5896 58.4665 71.7711 58.4666 71.9604C58.4667 72.1496 58.542 72.3311 58.6759 72.4649C58.8098 72.5987 58.9913 72.6739 59.1805 72.6739C59.3698 72.6739 59.5512 72.5987 59.685 72.4649C59.8187 72.3311 59.8938 72.1496 59.8937 71.9604C59.8936 71.7711 59.8184 71.5896 59.6845 71.4558C59.5506 71.322 59.3691 71.2468 59.1798 71.2468Z" fill="#FF8743"/>
</g>
<ellipse cx="136.227" cy="9.8696" rx="4.08665" ry="4.08664" fill="#FFF3EC"/>
<g clip-path="url(#clip3_13137_120278)">
<path d="M136.565 11.6668H135.916C135.875 11.6668 135.836 11.6529 135.804 11.6274C135.772 11.6019 135.75 11.5664 135.741 11.5266L135.669 11.1905C135.572 11.1481 135.48 11.095 135.395 11.0323L135.067 11.1367C135.028 11.149 134.986 11.1478 134.948 11.1331C134.91 11.1184 134.879 11.0911 134.858 11.0559L134.533 10.4938C134.512 10.4585 134.505 10.4174 134.511 10.3772C134.517 10.3371 134.537 10.3002 134.567 10.2727L134.821 10.0408C134.809 9.93579 134.809 9.82979 134.821 9.72475L134.567 9.49338C134.537 9.46587 134.517 9.429 134.511 9.38881C134.504 9.34862 134.512 9.3075 134.532 9.27218L134.856 8.70973C134.877 8.67447 134.909 8.64723 134.946 8.63253C134.984 8.61783 135.026 8.61656 135.065 8.62893L135.393 8.73328C135.436 8.70117 135.482 8.6712 135.528 8.64409C135.573 8.61876 135.62 8.59575 135.667 8.57523L135.74 8.23951C135.749 8.19977 135.771 8.16418 135.802 8.13864C135.834 8.11311 135.873 8.09916 135.914 8.09912H136.563C136.604 8.09916 136.643 8.11311 136.675 8.13864C136.707 8.16418 136.729 8.19977 136.737 8.23951L136.811 8.57541C136.908 8.61809 137 8.67114 137.085 8.73364L137.413 8.62928C137.452 8.61696 137.493 8.61825 137.531 8.63295C137.569 8.64765 137.601 8.67486 137.621 8.71009L137.946 9.27254C137.988 9.34514 137.974 9.43701 137.912 9.49356L137.658 9.72546C137.67 9.83051 137.67 9.93651 137.658 10.0416L137.912 10.2735C137.974 10.3302 137.988 10.4219 137.947 10.4945L137.623 11.0569C137.602 11.0922 137.57 11.1194 137.532 11.1341C137.495 11.1488 137.453 11.1501 137.414 11.1377L137.086 11.0334C137.001 11.0961 136.909 11.1491 136.813 11.1914L136.739 11.5266C136.73 11.5663 136.708 11.6019 136.677 11.6274C136.645 11.6529 136.606 11.6668 136.565 11.6668ZM136.238 9.16943C136.049 9.16943 135.868 9.24461 135.734 9.37842C135.6 9.51224 135.525 9.69373 135.525 9.88297C135.525 10.0722 135.601 10.2537 135.734 10.3875C135.868 10.5213 136.05 10.5965 136.239 10.5965C136.428 10.5965 136.61 10.5213 136.744 10.3875C136.877 10.2537 136.952 10.0722 136.952 9.88297C136.952 9.69373 136.877 9.51224 136.743 9.37842C136.609 9.24461 136.428 9.16943 136.238 9.16943Z" fill="#FF8743"/>
</g>
<mask id="mask0_13137_120278" style="mask-type:alpha" maskUnits="userSpaceOnUse" x="50" y="34" width="7" height="8">
<path fill-rule="evenodd" clip-rule="evenodd" d="M56.1 34.6233L51.3412 36.5727L51.3849 37.5318L50.1196 38.0501L50.2924 41.8425L55.0513 39.8931L55.0075 38.9341L56.2729 38.4157L56.1 34.6233Z" fill="#ADD5E5"/>
</mask>
<g mask="url(#mask0_13137_120278)">
<path fill-rule="evenodd" clip-rule="evenodd" d="M56.1 34.6233L51.3412 36.5727L51.3849 37.5318L50.1196 38.0501L50.2924 41.8425L55.0513 39.8931L55.0075 38.9341L56.2729 38.4157L56.1 34.6233Z" fill="white"/>
</g>
<ellipse cx="129.805" cy="46.2605" rx="4.08665" ry="4.08664" fill="#CFF9EA"/>
<path d="M127.072 45.6299C127.035 45.5579 127.028 45.4741 127.052 45.3967C127.077 45.3194 127.131 45.255 127.203 45.2177L130.461 43.5286C130.533 43.4913 130.617 43.4841 130.694 43.5086C130.771 43.5331 130.836 43.5873 130.873 43.6594L131.155 44.2023C131.192 44.2743 131.199 44.3582 131.175 44.4355C131.15 44.5128 131.096 44.5772 131.024 44.6146L127.766 46.3036C127.694 46.341 127.61 46.3482 127.533 46.3237C127.456 46.2991 127.391 46.2449 127.354 46.1729L127.072 45.6299ZM127.917 47.2588C127.88 47.1868 127.872 47.103 127.897 47.0256C127.921 46.9483 127.976 46.8839 128.048 46.8466L129.677 46.0021C129.749 45.9647 129.832 45.9575 129.91 45.9821C129.987 46.0066 130.051 46.0608 130.089 46.1328L130.933 47.7617C130.971 47.8337 130.978 47.9176 130.953 47.9949C130.929 48.0722 130.875 48.1366 130.803 48.1739L129.174 49.0185C129.102 49.0558 129.018 49.063 128.941 49.0385C128.863 49.014 128.799 48.9597 128.761 48.8877L127.917 47.2588ZM130.762 45.439C130.69 45.4764 130.636 45.5408 130.612 45.6181C130.587 45.6954 130.594 45.7793 130.632 45.8513L131.476 47.4802C131.514 47.5522 131.578 47.6064 131.655 47.6309C131.733 47.6554 131.817 47.6482 131.889 47.6109L132.432 47.3294C132.504 47.2921 132.558 47.2277 132.582 47.1503C132.607 47.073 132.6 46.9892 132.562 46.9172L131.718 45.2883C131.68 45.2163 131.616 45.162 131.539 45.1375C131.461 45.113 131.377 45.1202 131.305 45.1575L130.762 45.439Z" fill="#19D992"/>
</g>
<defs>
<clipPath id="clip0_13137_120278">
<rect width="244" height="100" fill="white"/>
</clipPath>
<clipPath id="clip1_13137_120278">
<rect width="8.56249" height="8.56249" fill="white" transform="matrix(1 0 0.000494375 1 80.916 18.0957)"/>
</clipPath>
<clipPath id="clip2_13137_120278">
<rect width="4.28125" height="4.28125" fill="white" transform="matrix(1 0 0.000494377 1 57.0391 69.8196)"/>
</clipPath>
<clipPath id="clip3_13137_120278">
<rect width="4.28125" height="4.28125" fill="white" transform="matrix(1 0 0.000494377 1 134.1 7.74243)"/>
</clipPath>
</defs>
</svg>
