<svg width="18" height="18" viewBox="0 0 18 18" fill="none" xmlns="http://www.w3.org/2000/svg">
  <path d="M11.6622 14.1924C11.7695 14.0847 11.83 13.9384 11.83 13.7855L11.8304 10.2165L14.8103 7.23655C16.5103 5.53733 16.5023 2.21057 16.5015 2.06993C16.4988 1.75607 16.2451 1.50276 15.9317 1.50008C15.7906 1.49893 12.4639 1.49088 10.7639 3.18971L7.78318 6.1708H4.21461C4.06247 6.1708 3.91608 6.23135 3.80801 6.33865L1.66847 8.47819C1.52361 8.62305 1.46689 8.83344 1.51901 9.03118C1.54507 9.1312 1.59757 9.22049 1.66847 9.29139C1.73783 9.36037 1.82406 9.41172 1.92178 9.43855L4.75648 10.2234L7.77628 13.2432L8.56189 16.0787C8.58872 16.176 8.64045 16.2622 8.70982 16.3312C8.78033 16.4021 8.87 16.4542 8.97002 16.481C9.16777 16.5332 9.37816 16.4761 9.52263 16.3312L11.6622 14.1924ZM4.88716 9.06682L3.17914 8.59431L4.45297 7.32047H6.63351L4.88716 9.06682ZM8.29057 12.1311L5.87013 9.71025L6.40166 9.17949L8.82172 11.5999L8.29057 12.1311ZM9.63415 10.7871L7.2141 8.36667L11.5771 4.00291C12.5601 3.02071 14.3823 2.75092 15.3246 2.67695C15.2507 3.6193 14.9809 5.44114 13.9979 6.42335L9.63415 10.7871ZM8.934 13.1133L10.0381 12.0092C10.0388 12.0081 10.0404 12.0073 10.0411 12.0065C10.0419 12.0058 10.0427 12.0046 10.0434 12.0035L10.6811 11.3662V13.5471L9.40767 14.8209L8.934 13.1133ZM6.2296 12.9642C5.91229 12.955 5.64786 13.2049 5.63905 13.5226C5.631 13.7843 5.46047 14.1396 5.23206 14.368C4.82087 14.7795 3.88963 14.7642 3.30752 14.6922C3.2347 14.1108 3.21899 13.1834 3.63287 12.7695C3.86166 12.5407 4.21729 12.3698 4.47865 12.3625C4.79557 12.3545 5.04582 12.0897 5.03739 11.7724C5.02896 11.4555 4.76453 11.2052 4.44722 11.2136C3.89538 11.2286 3.25655 11.5202 2.82006 11.9563C1.76083 13.0156 2.19655 15.0857 2.24982 15.3183C2.27435 15.4256 2.32876 15.5215 2.40388 15.5966C2.4786 15.6717 2.57441 15.7261 2.68248 15.7506C2.91471 15.8039 4.98565 16.24 6.04526 15.1804C6.48099 14.7447 6.77262 14.1066 6.78795 13.5544C6.79715 13.2371 6.5469 12.9726 6.2296 12.9642Z" fill="#201F1F"/>
</svg>
