<svg width="24" height="24" viewBox="0 0 24 24" fill="none" xmlns="http://www.w3.org/2000/svg">
<path d="M18 14.5C19.1 14.5 20.1 14.9 20.8 15.7L22 14.5V18.5H18L19.8 16.7C19.3 16.3 18.7 16 18 16C16.6 16 15.5 17.1 15.5 18.5C15.5 19.9 16.6 21 18 21C18.8 21 19.5 20.6 20 20H21.7C21.1 21.5 19.7 22.5 18 22.5C15.8 22.5 14 20.7 14 18.5C14 16.3 15.8 14.5 18 14.5ZM11.5 18.5C11.5 17.4 11.8 16.4 12.2 15.5H12C10.1 15.5 8.49997 13.9 8.49997 12C8.49997 10.1 10.1 8.5 12 8.5C13.9 8.5 15.5 10.1 15.5 12C15.5 12.2 15.5 12.4 15.4 12.5C16.2 12.2 17 12 18 12C18.5 12 19 12.1 19.5 12.2V12C19.5 11.7 19.5 11.3 19.4 11L21.5 9.4C21.7 9.2 21.7 9 21.6 8.8L19.6 5.3C19.5 5 19.3 5 19 5L16.5 6C16 5.6 15.4 5.3 14.8 5L14.4 2.3C14.5 2.2 14.2 2 14 2H9.99997C9.79997 2 9.49997 2.2 9.49997 2.4L9.09997 5.1C8.49997 5.3 7.99997 5.7 7.39997 6L4.99997 5C4.69997 5 4.49997 5 4.29997 5.3L2.29997 8.8C2.19997 9 2.29997 9.2 2.49997 9.4L4.59997 11C4.59997 11.3 4.49997 11.7 4.49997 12C4.49997 12.3 4.49997 12.7 4.59997 13L2.49997 14.7C2.29997 14.9 2.29997 15.1 2.39997 15.3L4.39997 18.8C4.49997 19 4.69997 19 4.99997 19L7.49997 18C7.99997 18.4 8.59997 18.7 9.19997 19L9.59997 21.7C9.59997 21.9 9.79997 22.1 10.1 22.1H12.6C11.9 21 11.5 19.8 11.5 18.5Z" fill="#FF5E03"/>
</svg>
