<svg width="25" height="24" viewBox="0 0 25 24" fill="none" xmlns="http://www.w3.org/2000/svg">
  <path d="M11.0973 9.013C11.1194 9.00327 11.1436 8.99926 11.1676 9.00132C11.1916 9.00338 11.2148 9.01145 11.2349 9.0248C11.255 9.03814 11.2715 9.05632 11.2827 9.07767C11.294 9.09903 11.2997 9.12287 11.2993 9.147V10.3C11.2993 10.4326 11.352 10.5598 11.4457 10.6536C11.5395 10.7473 11.6667 10.8 11.7993 10.8C12.4663 10.8 13.8123 10.805 15.0993 11.622C16.0833 12.246 17.0893 13.382 17.6943 15.498C16.6743 14.515 15.5093 13.982 14.4893 13.699C13.8623 13.5258 13.218 13.4232 12.5683 13.393C12.3023 13.3813 12.0359 13.384 11.7703 13.401H11.7573L11.7523 13.402H11.7513L11.7993 13.9L11.7493 13.402C11.6259 13.4144 11.5115 13.4722 11.4283 13.5643C11.3451 13.6563 11.2992 13.776 11.2993 13.9V15.053C11.2993 15.161 11.1893 15.229 11.0973 15.187L7.11328 12.254C7.09976 12.244 7.08574 12.2346 7.07128 12.226C7.04954 12.2129 7.03155 12.1945 7.01906 12.1724C7.00656 12.1503 7 12.1254 7 12.1C7 12.0746 7.00656 12.0497 7.01906 12.0276C7.03155 12.0055 7.04954 11.9871 7.07128 11.974C7.08575 11.9654 7.09976 11.956 7.11328 11.946L11.0973 9.013Z" fill="#8C8C8C"/>
  <path d="M12.3006 14.386C12.3686 14.386 12.4436 14.389 12.5236 14.392C12.9576 14.412 13.5576 14.478 14.2236 14.663C15.5496 15.031 17.1196 15.865 18.1636 17.743C18.2201 17.8444 18.3101 17.923 18.4181 17.9653C18.5261 18.0076 18.6455 18.011 18.7558 17.975C18.8661 17.9389 18.9604 17.8656 19.0226 17.7677C19.0848 17.6697 19.111 17.5532 19.0966 17.438C18.6326 13.728 17.2106 11.776 15.6366 10.778C14.3916 9.98802 13.1096 9.83602 12.3006 9.80702V9.14702C12.3007 8.94109 12.2452 8.73895 12.14 8.56193C12.0348 8.38492 11.8837 8.23959 11.7028 8.14128C11.5218 8.04297 11.3177 7.99533 11.1119 8.00338C10.9061 8.01143 10.7064 8.07487 10.5336 8.18702L6.53965 11.127C6.37453 11.2301 6.23835 11.3735 6.14394 11.5437C6.04954 11.7139 6 11.9054 6 12.1C6 12.2947 6.04954 12.4861 6.14394 12.6563C6.23835 12.8266 6.37453 12.97 6.53965 13.073L10.5336 16.013C10.7064 16.1252 10.9061 16.1886 11.1119 16.1967C11.3177 16.2047 11.5218 16.1571 11.7028 16.0588C11.8837 15.9605 12.0348 15.8151 12.14 15.6381C12.2452 15.4611 12.3007 15.259 12.3006 15.053V14.386Z" fill="#8C8C8C"/>
</svg>
