<svg width="164" height="164" viewBox="0 0 164 164" fill="none" xmlns="http://www.w3.org/2000/svg">
  <g opacity="0.15" clip-path="url(#clip0_5597:33965)">
    <path d="M116.617 50.0889C105.206 37.7115 87.6074 31.9097 70.2018 36.3578C52.7961 40.8059 40.2253 54.537 36.3574 70.7823L116.617 50.0889Z" fill="#434343"/>
    <path d="M46.2217 112.556C57.6321 125.707 75.8113 132.089 93.7971 127.447C111.783 122.806 124.547 108.301 128.028 91.2822L46.2217 112.556Z" fill="#434343"/>
    <path d="M158.778 68.4623L161.873 63.434L156.844 60.3396L159.359 55.1179L153.943 52.6038L155.877 46.9953L150.269 45.0613L151.623 39.2594L145.821 37.9057L146.594 32.1038L140.792 31.3302L140.986 25.5283L134.991 25.3349L134.604 19.533L128.802 20.1132L127.642 14.3113L121.84 15.4717L120.873 9.66981L115.264 11.4104L112.943 5.99528L107.528 8.31604L104.627 3.09434L99.4057 5.99528L96.1179 1.16038L91.283 4.64151L87.4151 0.193396L82.967 4.06132L78.7123 0L74.6509 4.44811L70.0094 0.966981L66.5283 5.80189L61.5 2.70755L58.4057 7.73585L52.9906 5.2217L50.6698 10.6368L45.0613 8.70283L43.3208 14.3113L37.5189 12.9575L36.3585 18.7594L30.5566 18.1792L29.9764 23.9811H23.9811V29.9764L18.1792 30.5566L18.7594 36.3585L12.9575 37.5189L14.3113 43.3208L8.70283 45.0613L10.6368 50.6698L5.2217 52.9906L7.73585 58.4057L2.70755 61.3066L5.80189 66.3349L0.966981 69.816L4.44811 74.4575L0 78.7123L4.06132 83.1604L0.193396 87.6085L4.64151 91.4764L1.16038 96.3113L5.99528 99.599L3.09434 104.821L8.31604 107.722L5.99528 113.137L11.4104 115.458L9.66981 120.873L15.2783 122.613L14.1179 128.415L19.9198 129.382L19.3396 135.184L25.1415 135.571L25.3349 141.566L31.1368 141.373L31.9104 147.175L37.7123 146.401L39.066 152.203L44.8679 150.849L46.8019 156.458L52.4104 154.33L54.9245 159.745L60.1462 157.231L63.2406 162.259L68.2689 159.165L71.9434 163.807L76.5849 160.132L80.6462 164.387L84.9009 160.325L89.3491 164.193L93.0236 159.552L97.8585 162.84L101.146 157.811L106.368 160.519L109.075 155.297L114.491 157.425L116.618 152.009L122.226 153.557L123.774 147.948L129.575 148.915L130.542 143.113L136.344 143.5L136.538 137.698L142.34 137.505L141.953 131.703L147.755 130.736L146.788 124.934L152.396 123.387L150.849 117.778L156.264 115.651L154.137 110.236L159.359 107.528L156.651 102.307L161.679 99.0189L158.392 94.184L163.033 90.5094L159.165 86.0613L163.226 81.8066L158.972 77.7453L162.646 73.1038L158.778 68.4623ZM99.9859 151.429C61.6934 161.292 22.6274 138.278 12.5708 99.9858C2.70755 61.6934 25.7217 22.6274 64.0142 12.5708C102.307 2.70755 141.373 25.7217 151.429 64.0141C161.486 102.307 138.278 141.373 99.9859 151.429Z" fill="#434343"/>
    <path d="M29.3906 101.418L29.5287 98.288L34.5432 97.0166L36.1558 99.7025L40.6066 98.5741L31.7404 84.6534L26.1027 86.0827L24.9398 102.546L29.3906 101.418ZM29.681 94.9651L29.9229 89.5669L30.0416 89.5368L32.8262 94.1677L29.681 94.9651ZM42.0698 98.2032L46.1942 97.1575L45.0507 92.6473L47.3355 92.0681C50.7997 91.1898 52.6043 88.5612 51.775 85.2899C50.955 82.0556 48.1508 80.4928 44.7757 81.3486L38.2181 83.0111L42.0698 98.2032ZM44.2383 89.4428L43.1776 85.259L44.6315 84.8904C46.078 84.5237 47.1415 85.0751 47.4725 86.3807C47.8016 87.6788 47.1387 88.7074 45.6922 89.0742L44.2383 89.4428ZM55.7783 94.7276L59.9027 93.682L58.7592 89.1718L61.044 88.5926C64.5082 87.7143 66.3128 85.0857 65.4834 81.8143C64.6634 78.5801 61.8593 77.0173 58.4841 77.873L51.9266 79.5356L55.7783 94.7276ZM57.9468 85.9672L56.886 81.7835L58.34 81.4149C59.7865 81.0481 60.85 81.5996 61.181 82.9051C61.5101 84.2033 60.8472 85.2319 59.4007 85.5986L57.9468 85.9672ZM69.4867 91.2521L73.6112 90.2064L72.3398 85.1919L73.7641 84.8308L77.7059 89.1683L82.1864 88.0324L77.6636 83.1474C79.0833 81.9585 79.6734 80.2378 79.1392 78.1311C78.3193 74.8969 75.5678 73.5418 72.1926 74.3975L65.6351 76.06L69.4867 91.2521ZM71.5273 81.9873L70.5945 78.308L72.0484 77.9393C73.495 77.5726 74.5058 77.9163 74.8368 79.2219C75.1659 80.5201 74.4278 81.2519 72.9813 81.6187L71.5273 81.9873ZM96.2315 76.3872C94.9451 71.3133 90.9891 69.4109 86.8647 70.4566C82.7106 71.5098 80.1684 75.0596 81.4548 80.1335C82.7337 85.1778 86.6676 87.1173 90.8217 86.0641C94.9461 85.0184 97.5179 81.4611 96.2315 76.3872ZM91.9884 77.4629C92.6805 80.1928 91.9588 81.9547 89.9114 82.4738C87.864 82.9929 86.39 81.7876 85.6979 79.0578C85.0058 76.3279 85.7276 74.566 87.7749 74.0469C89.8223 73.5279 91.2963 74.7331 91.9884 77.4629ZM99.4092 67.4972L94.7507 68.6783L103.617 82.599L109.255 81.1697L110.418 64.7063L105.759 65.8874L105.359 77.3888L105.241 77.4189L99.4092 67.4972ZM115.732 79.5274L126.652 76.759L125.809 73.4357L119.014 75.1584L118.352 72.5473L124.613 70.96L123.771 67.6367L117.51 69.224L116.848 66.6129L123.672 64.8827L122.83 61.5594L111.881 64.3353L115.732 79.5274ZM134.572 74.7509C139.201 73.5773 141.416 69.9841 140.213 65.2365C139.009 60.489 135.349 58.3853 130.661 59.5739L124.875 61.0408L128.727 76.2329L134.572 74.7509ZM131.964 71.6859L129.887 63.4964L131.341 63.1278C133.715 62.526 135.254 63.1148 136.059 66.2897C136.864 69.4646 135.791 70.7155 133.536 71.2872L131.964 71.6859Z" fill="#13A36E"/>
  </g>
  <defs>
    <clipPath id="clip0_5597:33965">
      <rect width="164" height="164" fill="white"/>
    </clipPath>
  </defs>
</svg>
