<svg width="164" height="164" viewBox="0 0 164 164" fill="none" xmlns="http://www.w3.org/2000/svg">
  <g opacity="0.15" clip-path="url(#clip0_16001_156690)">
    <path d="M116.619 50.0891C105.208 37.7118 87.6094 31.9099 70.2037 36.358C52.7981 40.8061 40.2273 54.5373 36.3594 70.7825L116.619 50.0891Z" fill="#434343"/>
    <path d="M46.2188 112.555C57.6291 125.706 75.8084 132.088 93.7942 127.447C111.78 122.805 124.544 108.301 128.025 91.2817L46.2188 112.555Z" fill="#434343"/>
    <path d="M158.778 68.4623L161.873 63.434L156.844 60.3396L159.359 55.1179L153.943 52.6038L155.877 46.9953L150.269 45.0613L151.623 39.2594L145.821 37.9057L146.594 32.1038L140.792 31.3302L140.986 25.5283L134.991 25.3349L134.604 19.533L128.802 20.1132L127.642 14.3113L121.84 15.4717L120.873 9.66981L115.264 11.4104L112.943 5.99528L107.528 8.31604L104.627 3.09434L99.4057 5.99528L96.1179 1.16038L91.283 4.64151L87.4151 0.193396L82.967 4.06132L78.7123 0L74.6509 4.44811L70.0094 0.966981L66.5283 5.80189L61.5 2.70755L58.4057 7.73585L52.9906 5.2217L50.6698 10.6368L45.0613 8.70283L43.3208 14.3113L37.5189 12.9575L36.3585 18.7594L30.5566 18.1792L29.9764 23.9811H23.9811V29.9764L18.1792 30.5566L18.7594 36.3585L12.9575 37.5189L14.3113 43.3208L8.70283 45.0613L10.6368 50.6698L5.2217 52.9906L7.73585 58.4057L2.70755 61.3066L5.80189 66.3349L0.966981 69.816L4.44811 74.4575L0 78.7123L4.06132 83.1604L0.193396 87.6085L4.64151 91.4764L1.16038 96.3113L5.99528 99.599L3.09434 104.821L8.31604 107.722L5.99528 113.137L11.4104 115.458L9.66981 120.873L15.2783 122.613L14.1179 128.415L19.9198 129.382L19.3396 135.184L25.1415 135.571L25.3349 141.566L31.1368 141.373L31.9104 147.175L37.7123 146.401L39.066 152.203L44.8679 150.849L46.8019 156.458L52.4104 154.33L54.9245 159.745L60.1462 157.231L63.2406 162.259L68.2689 159.165L71.9434 163.807L76.5849 160.132L80.6462 164.387L84.9009 160.325L89.3491 164.193L93.0236 159.552L97.8585 162.84L101.146 157.811L106.368 160.519L109.075 155.297L114.491 157.425L116.618 152.009L122.226 153.557L123.774 147.948L129.575 148.915L130.542 143.113L136.344 143.5L136.538 137.698L142.34 137.505L141.953 131.703L147.755 130.736L146.788 124.934L152.396 123.387L150.849 117.778L156.264 115.651L154.137 110.236L159.359 107.528L156.651 102.307L161.679 99.0189L158.392 94.184L163.033 90.5094L159.165 86.0613L163.226 81.8066L158.972 77.7453L162.646 73.1038L158.778 68.4623ZM99.9859 151.429C61.6934 161.292 22.6274 138.278 12.5708 99.9858C2.70755 61.6934 25.7217 22.6274 64.0142 12.5708C102.307 2.70755 141.373 25.7217 151.429 64.0141C161.486 102.307 138.278 141.373 99.9859 151.429Z" fill="#434343"/>
    <path d="M28.0652 93.9399L23.8095 95.0821C23.6848 94.738 23.5186 94.4402 23.3109 94.1886C23.1082 93.9356 22.866 93.7364 22.5842 93.5909C22.3062 93.439 21.9939 93.3503 21.6473 93.3247C21.2993 93.294 20.9241 93.3327 20.5217 93.4407C19.8174 93.6297 19.2672 93.9607 18.8711 94.4337C18.48 94.9054 18.2444 95.4944 18.1644 96.2008C18.0893 96.9058 18.172 97.706 18.4123 98.6014C18.6661 99.5471 19.0045 100.306 19.4275 100.877C19.8541 101.442 20.3521 101.821 20.9214 102.013C21.4894 102.2 22.1129 102.203 22.792 102.02C23.1793 101.917 23.5136 101.776 23.7948 101.598C24.0746 101.415 24.3028 101.2 24.4792 100.953C24.6556 100.706 24.7791 100.433 24.8498 100.134C24.9241 99.8278 24.9419 99.5021 24.9031 99.1566L29.1668 98.0447C29.292 98.7121 29.2873 99.4279 29.1526 100.192C29.0166 100.951 28.7338 101.696 28.3042 102.426C27.8783 103.149 27.2843 103.8 26.5223 104.376C25.7603 104.953 24.8134 105.393 23.6816 105.697C22.263 106.077 20.9087 106.115 19.6185 105.808C18.3334 105.501 17.2053 104.844 16.234 103.837C15.2679 102.829 14.5553 101.47 14.0963 99.7597C13.6345 98.0393 13.5777 96.5015 13.9258 95.1462C14.2726 93.7859 14.9283 92.6527 15.8931 91.7466C16.8565 90.8355 18.0325 90.1937 19.4208 89.8211C20.3967 89.5592 21.3304 89.4515 22.2219 89.498C23.1134 89.5446 23.9373 89.7414 24.6938 90.0884C25.4489 90.4304 26.1149 90.9231 26.692 91.5663C27.2691 92.2095 27.7268 93.0007 28.0652 93.9399ZM45.4572 91.343C45.9189 93.0634 45.9738 94.6044 45.6221 95.9661C45.269 97.3227 44.6056 98.4579 43.6322 99.3717C42.6573 100.28 41.4707 100.922 40.0722 101.298C38.6637 101.676 37.3094 101.713 36.0092 101.409C34.7127 101.1 33.5719 100.446 32.587 99.4483C31.6057 98.4444 30.8856 97.0872 30.4266 95.3769C29.9648 93.6566 29.908 92.1187 30.2561 90.7634C30.6079 89.4018 31.2687 88.2672 32.2385 87.3598C33.212 86.446 34.403 85.8001 35.8115 85.4221C37.2099 85.0468 38.5592 85.0109 39.8594 85.3145C41.1583 85.613 42.3009 86.2636 43.2872 87.2661C44.2721 88.2637 44.9954 89.6226 45.4572 91.343ZM41.1411 92.5013C40.8927 91.5758 40.5602 90.8291 40.1436 90.2615C39.7307 89.6874 39.2415 89.301 38.6758 89.1023C38.1139 88.8972 37.4858 88.8878 36.7916 89.0741C36.0974 89.2604 35.556 89.5837 35.1672 90.044C34.7821 90.4979 34.552 91.0773 34.477 91.7823C34.4056 92.4809 34.4942 93.293 34.7426 94.2186C34.991 95.1442 35.3216 95.894 35.7346 96.468C36.1512 97.0357 36.6404 97.4221 37.2024 97.6272C37.768 97.8259 38.3979 97.8321 39.0921 97.6458C39.7863 97.4595 40.3259 97.1394 40.711 96.6855C41.0998 96.2253 41.3299 95.6458 41.4012 94.9472C41.4762 94.2422 41.3896 93.4269 41.1411 92.5013ZM58.6951 79.507L62.8425 94.9602L59.3414 95.8998L51.5788 89.2794L51.4882 89.3037L53.6672 97.4227L49.4719 98.5486L45.3246 83.0955L48.886 82.1396L56.55 88.7541L56.6707 88.7217L54.4999 80.633L58.6951 79.507ZM64.9051 77.8404L70.9984 87.8855L71.1191 87.8531L71.364 76.1069L76.1026 74.8352L75.1492 91.6573L69.4146 93.1963L60.1665 79.1122L64.9051 77.8404ZM81.7383 89.8889L77.5909 74.4358L88.728 71.4467L89.6353 74.8271L82.6934 76.6902L83.4062 79.3462L89.7746 77.637L90.6819 81.0174L84.3135 82.7266L85.0263 85.3826L91.938 83.5276L92.8452 86.908L81.7383 89.8889ZM94.956 86.3415L90.8087 70.8883L97.4789 69.0982C98.6258 68.7904 99.6854 68.7298 100.658 68.9164C101.63 69.1031 102.46 69.5247 103.149 70.1811C103.837 70.8376 104.329 71.7142 104.623 72.8108C104.92 73.9174 104.924 74.9167 104.635 75.8086C104.351 76.6991 103.818 77.4569 103.037 78.0818C102.26 78.7054 101.283 79.1752 100.106 79.4911L96.1224 80.5603L95.2475 77.3007L98.3865 76.4582C98.8794 76.3259 99.2833 76.1528 99.598 75.9389C99.9163 75.7187 100.132 75.4478 100.245 75.1262C100.364 74.8032 100.364 74.4229 100.247 73.9853C100.128 73.5426 99.9356 73.2086 99.6702 72.9833C99.4085 72.7515 99.084 72.6175 98.6968 72.5812C98.3133 72.5385 97.875 72.5834 97.382 72.7157L95.9031 73.1126L99.1513 85.2155L94.956 86.3415ZM102.107 76.8186L107.874 82.8745L103.316 84.0977L97.6401 78.0175L102.107 76.8186ZM105.486 70.5729L104.579 67.1926L118.01 63.5879L118.917 66.9683L114.269 68.2158L117.509 80.2885L113.375 81.3983L110.134 69.3255L105.486 70.5729ZM123.736 78.6173L119.589 63.1642L130.726 60.1752L131.633 63.5556L124.692 65.4186L125.404 68.0746L131.773 66.3655L132.68 69.7458L126.312 71.455L127.024 74.111L133.936 72.2561L134.843 75.6364L123.736 78.6173ZM142.9 73.4742L136.954 75.0699L132.807 59.6168L138.692 58.0372C140.282 57.6106 141.738 57.5514 143.061 57.8596C144.388 58.1615 145.521 58.8065 146.46 59.7947C147.403 60.7765 148.091 62.0723 148.523 63.682C148.955 65.2917 149.012 66.7594 148.693 68.0852C148.374 69.4059 147.721 70.5302 146.735 71.458C145.748 72.3809 144.469 73.0529 142.9 73.4742ZM140.194 70.3825L141.793 69.9532C142.558 69.748 143.176 69.4499 143.648 69.059C144.125 68.6667 144.424 68.1309 144.544 67.4517C144.668 66.7711 144.586 65.8925 144.297 64.8161C144.008 63.7396 143.637 62.9387 143.183 62.4133C142.735 61.8866 142.198 61.575 141.573 61.4783C140.954 61.3804 140.242 61.4394 139.437 61.6554L137.958 62.0523L140.194 70.3825Z" fill="#13A36E"/>
  </g>
  <defs>
    <clipPath id="clip0_16001_156690">
      <rect width="164" height="164" fill="white"/>
    </clipPath>
  </defs>
</svg>
