<svg width="164" height="164" viewBox="0 0 164 164" fill="none" xmlns="http://www.w3.org/2000/svg">
  <g opacity="0.15" clip-path="url(#clip0_5644:33366)">
    <path d="M116.617 50.0889C105.206 37.7115 87.6074 31.9097 70.2018 36.3578C52.7961 40.8059 40.2253 54.537 36.3574 70.7823L116.617 50.0889Z" fill="#434343"/>
    <path d="M46.2207 112.556C57.6311 125.707 75.8103 132.089 93.7962 127.447C111.782 122.806 124.546 108.301 128.027 91.2822L46.2207 112.556Z" fill="#434343"/>
    <path d="M158.778 68.4623L161.873 63.434L156.844 60.3396L159.359 55.1179L153.943 52.6038L155.877 46.9953L150.269 45.0613L151.623 39.2594L145.821 37.9057L146.594 32.1038L140.792 31.3302L140.986 25.5283L134.991 25.3349L134.604 19.533L128.802 20.1132L127.642 14.3113L121.84 15.4717L120.873 9.66981L115.264 11.4104L112.943 5.99528L107.528 8.31604L104.627 3.09434L99.4057 5.99528L96.1179 1.16038L91.283 4.64151L87.4151 0.193396L82.967 4.06132L78.7123 0L74.6509 4.44811L70.0094 0.966981L66.5283 5.80189L61.5 2.70755L58.4057 7.73585L52.9906 5.2217L50.6698 10.6368L45.0613 8.70283L43.3208 14.3113L37.5189 12.9575L36.3585 18.7594L30.5566 18.1792L29.9764 23.9811H23.9811V29.9764L18.1792 30.5566L18.7594 36.3585L12.9575 37.5189L14.3113 43.3208L8.70283 45.0613L10.6368 50.6698L5.2217 52.9906L7.73585 58.4057L2.70755 61.3066L5.80189 66.3349L0.966981 69.816L4.44811 74.4575L0 78.7123L4.06132 83.1604L0.193396 87.6085L4.64151 91.4764L1.16038 96.3113L5.99528 99.599L3.09434 104.821L8.31604 107.722L5.99528 113.137L11.4104 115.458L9.66981 120.873L15.2783 122.613L14.1179 128.415L19.9198 129.382L19.3396 135.184L25.1415 135.571L25.3349 141.566L31.1368 141.373L31.9104 147.175L37.7123 146.401L39.066 152.203L44.8679 150.849L46.8019 156.458L52.4104 154.33L54.9245 159.745L60.1462 157.231L63.2406 162.259L68.2689 159.165L71.9434 163.807L76.5849 160.132L80.6462 164.387L84.9009 160.325L89.3491 164.193L93.0236 159.552L97.8585 162.84L101.146 157.811L106.368 160.519L109.075 155.297L114.491 157.425L116.618 152.009L122.226 153.557L123.774 147.948L129.575 148.915L130.542 143.113L136.344 143.5L136.538 137.698L142.34 137.505L141.953 131.703L147.755 130.736L146.788 124.934L152.396 123.387L150.849 117.778L156.264 115.651L154.137 110.236L159.359 107.528L156.651 102.307L161.679 99.0189L158.392 94.184L163.033 90.5094L159.165 86.0613L163.226 81.8066L158.972 77.7453L162.646 73.1038L158.778 68.4623ZM99.9859 151.429C61.6934 161.292 22.6274 138.278 12.5708 99.9858C2.70755 61.6934 25.7217 22.6274 64.0142 12.5708C102.307 2.70755 141.373 25.7217 151.429 64.0141C161.486 102.307 138.278 141.373 99.9859 151.429Z" fill="#434343"/>
    <path d="M31.5434 104.998L37.9636 103.371L35.6215 94.1328L44.813 91.8025L43.5015 86.6294L34.31 88.9597L33.2795 84.8951L43.4872 82.3072L42.1756 77.1341L25.5478 81.3497L31.5434 104.998ZM53.7225 99.3751L53.9375 94.5032L61.7433 92.5242L64.2535 96.7052L71.1818 94.9487L57.3803 73.2792L48.6045 75.5042L46.7942 101.132L53.7225 99.3751ZM54.1745 89.3307L54.5511 80.9277L54.7359 80.8808L59.0705 88.0895L54.1745 89.3307ZM73.884 69.095L67.4638 70.7227L73.4594 94.3712L79.8796 92.7435L73.884 69.095ZM82.9223 91.9721L98.9035 87.9204L97.5919 82.7472L88.0309 85.1713L83.3468 66.6959L76.9266 68.3236L82.9223 91.9721ZM101.499 87.2624L118.496 82.953L117.185 77.7799L106.607 80.4616L105.577 76.397L115.323 73.9261L114.011 68.753L104.265 71.2239L103.235 67.1593L113.858 64.4659L112.547 59.2928L95.5031 63.6139L101.499 87.2624ZM130.825 79.8271C138.031 78.0003 141.479 72.4069 139.606 65.0168C137.732 57.6266 132.035 54.3518 124.737 56.2021L115.731 58.4855L121.726 82.134L130.825 79.8271ZM126.765 75.0561L123.533 62.3081L125.796 61.7343C129.491 60.7974 131.886 61.714 133.139 66.6562C134.392 71.5984 132.723 73.5455 129.213 74.4354L126.765 75.0561Z" fill="#FF5E03"/>
  </g>
  <defs>
    <clipPath id="clip0_5644:33366">
      <rect width="164" height="164" fill="white"/>
    </clipPath>
  </defs>
</svg>
