<svg width="150" height="98" viewBox="0 0 150 98" fill="none" xmlns="http://www.w3.org/2000/svg">
<path opacity="0.5" d="M120.436 58.4126C120.481 57.0709 119.372 55.6656 117.093 54.2846C114.836 52.9174 111.529 51.6341 107.402 50.5075C99.1534 48.2554 87.6921 46.646 74.9765 46.2184C62.2609 45.7908 50.7165 46.6266 42.3335 48.3193C38.1397 49.1662 34.7529 50.2244 32.4088 51.4368C30.0411 52.6616 28.8388 53.9892 28.7932 55.3309C28.7476 56.6725 29.8571 58.0779 32.1363 59.4589C34.3927 60.8261 37.7 62.1094 41.8267 63.236C50.0757 65.488 61.537 67.0975 74.2526 67.5251C86.9682 67.9527 98.5126 67.1168 106.896 65.4241C111.089 64.5773 114.476 63.5191 116.82 62.3066C119.188 61.0819 120.39 59.7543 120.436 58.4126Z" stroke="#201F1F" stroke-width="0.5625"/>
<path opacity="0.5" d="M130.115 34.1211C129.764 33.2986 129.043 32.6295 127.944 32.123C126.843 31.6155 125.38 31.2803 123.587 31.1203C120.002 30.8002 115.155 31.1854 109.381 32.2249C97.8368 34.3031 82.6459 38.9845 66.5492 45.78C50.4524 52.5756 36.5134 60.1919 26.99 67.0077C22.2265 70.417 18.5806 73.617 16.3207 76.4048C15.1906 77.7989 14.4169 79.0781 14.0185 80.2186C13.6209 81.3571 13.6033 82.3381 13.9542 83.1607C14.305 83.9832 15.0264 84.6523 16.1257 85.1588C17.2269 85.6663 18.6893 86.0015 20.4823 86.1616C24.0677 86.4816 28.9142 86.0964 34.6886 85.0569C46.2327 82.9787 61.4236 78.2973 77.5203 71.5018C93.6171 64.7063 107.556 57.09 117.079 50.2741C121.843 46.8648 125.489 43.6648 127.749 40.8771C128.879 39.483 129.653 38.2037 130.051 37.0632C130.449 35.9247 130.466 34.9437 130.115 34.1211Z" stroke="#201F1F" stroke-width="0.5625"/>
<ellipse rx="1.49911" ry="1.4932" transform="matrix(0.940765 -0.33906 0.342157 0.939643 33.8724 50.7708)" fill="#FF8743"/>
<ellipse rx="1.49911" ry="1.4932" transform="matrix(0.940765 -0.33906 0.342157 0.939643 107.546 50.4114)" fill="#FF8743"/>
<ellipse rx="1.49911" ry="1.4932" transform="matrix(0.940765 -0.33906 0.342157 0.939643 64.4212 76.5266)" fill="#FF8743"/>
<ellipse rx="1.49911" ry="1.4932" transform="matrix(0.940764 -0.339061 0.342156 0.939643 86.9212 67.5725)" fill="#FF8743"/>
<path d="M19.9148 30.0824C19.8854 30.0464 19.862 30.017 19.8448 29.9952C19.862 29.9733 19.8854 29.9439 19.9148 29.9079C19.984 29.8231 20.0863 29.7017 20.2182 29.5558C20.4821 29.264 20.8639 28.875 21.3354 28.4861C22.2806 27.7067 23.5762 26.9363 25 26.9363C26.4238 26.9363 27.7194 27.7067 28.6646 28.4861C29.1361 28.875 29.5179 29.264 29.7818 29.5558C29.9137 29.7017 30.016 29.8231 30.0852 29.9079C30.1146 29.9439 30.138 29.9733 30.1552 29.9952C30.138 30.017 30.1146 30.0464 30.0852 30.0824C30.016 30.1672 29.9137 30.2887 29.7818 30.4345C29.5179 30.7263 29.1361 31.1154 28.6646 31.5042C27.7194 32.2837 26.4238 33.054 25 33.054C23.5762 33.054 22.2806 32.2837 21.3354 31.5042C20.8639 31.1154 20.4821 30.7263 20.2182 30.4345C20.0863 30.2887 19.984 30.1672 19.9148 30.0824Z" fill="white" stroke="black" stroke-width="0.15"/>
<ellipse cx="26.35" cy="30.0698" rx="2.1" ry="2.08923" fill="#6038D0"/>
<ellipse cx="26.3508" cy="30.07" rx="1.05" ry="1.04462" fill="#201F1F"/>
<path d="M49.5398 9.18983C49.5104 9.15384 49.487 9.12445 49.4698 9.1026C49.487 9.08074 49.5104 9.05135 49.5398 9.01536C49.609 8.93054 49.7113 8.80909 49.8432 8.66324C50.1071 8.37142 50.4889 7.98239 50.9604 7.59354C51.9056 6.81408 53.2012 6.04375 54.625 6.04375C56.0488 6.04375 57.3444 6.81408 58.2896 7.59354C58.7611 7.98239 59.1429 8.37142 59.4068 8.66324C59.5387 8.80909 59.641 8.93054 59.7102 9.01536C59.7396 9.05135 59.763 9.08074 59.7802 9.1026C59.763 9.12445 59.7396 9.15384 59.7102 9.18983C59.641 9.27465 59.5387 9.3961 59.4068 9.54196C59.1429 9.83377 58.7611 10.2228 58.2896 10.6117C57.3444 11.3911 56.0488 12.1614 54.625 12.1614C53.2012 12.1614 51.9056 11.3911 50.9604 10.6117C50.4889 10.2228 50.1071 9.83377 49.8432 9.54196C49.7113 9.3961 49.609 9.27465 49.5398 9.18983Z" fill="white" stroke="black" stroke-width="0.15"/>
<ellipse cx="55.975" cy="9.17721" rx="2.1" ry="2.08923" fill="#6038D0"/>
<ellipse cx="55.9758" cy="9.17743" rx="1.05" ry="1.04462" fill="#201F1F"/>
<path d="M121.915 79.7015C121.885 79.6656 121.862 79.6362 121.845 79.6143C121.862 79.5925 121.885 79.5631 121.915 79.5271C121.984 79.4423 122.086 79.3208 122.218 79.175C122.482 78.8831 122.864 78.4941 123.335 78.1053C124.281 77.3258 125.576 76.5555 127 76.5555C128.424 76.5555 129.719 77.3258 130.665 78.1053C131.136 78.4941 131.518 78.8831 131.782 79.175C131.914 79.3208 132.016 79.4423 132.085 79.5271C132.115 79.5631 132.138 79.5925 132.155 79.6143C132.138 79.6362 132.115 79.6656 132.085 79.7015C132.016 79.7864 131.914 79.9078 131.782 80.0537C131.518 80.3455 131.136 80.7345 130.665 81.1234C129.719 81.9028 128.424 82.6732 127 82.6732C125.576 82.6732 124.281 81.9028 123.335 81.1234C122.864 80.7345 122.482 80.3455 122.218 80.0537C122.086 79.9078 121.984 79.7864 121.915 79.7015Z" fill="white" stroke="black" stroke-width="0.15"/>
<ellipse cx="125.35" cy="79.6889" rx="2.1" ry="2.08923" fill="#6038D0"/>
<ellipse cx="125.351" cy="79.6891" rx="1.05" ry="1.04461" fill="#201F1F"/>
<path d="M83.6648 94.2523C83.6354 94.2163 83.612 94.187 83.5948 94.1651C83.612 94.1432 83.6354 94.1139 83.6648 94.0779C83.734 93.993 83.8363 93.8716 83.9682 93.7257C84.2321 93.4339 84.6139 93.0449 85.0854 92.656C86.0306 91.8766 87.3262 91.1063 88.75 91.1063C90.1738 91.1063 91.4694 91.8766 92.4146 92.656C92.8861 93.0449 93.2679 93.4339 93.5318 93.7257C93.6637 93.8716 93.766 93.993 93.8352 94.0779C93.8646 94.1139 93.888 94.1432 93.9052 94.1651C93.888 94.187 93.8646 94.2163 93.8352 94.2523C93.766 94.3372 93.6637 94.4586 93.5318 94.6045C93.2679 94.8963 92.8861 95.2853 92.4146 95.6742C91.4694 96.4536 90.1738 97.224 88.75 97.224C87.3262 97.224 86.0306 96.4536 85.0854 95.6742C84.6139 95.2853 84.2321 94.8963 83.9682 94.6045C83.8363 94.4586 83.734 94.3372 83.6648 94.2523Z" fill="white" stroke="black" stroke-width="0.15"/>
<ellipse cx="87.1" cy="94.2397" rx="2.1" ry="2.08923" fill="#6038D0"/>
<ellipse cx="87.1008" cy="94.2399" rx="1.05" ry="1.04462" fill="#201F1F"/>
<ellipse rx="4.49995" ry="4.47697" transform="matrix(0.998972 -0.0453318 0.0457993 0.998951 120.075 30.7917)" fill="#FFF3EC"/>
<path d="M118.125 32.4486L121.832 32.2803L122.722 29.551L118.916 29.7237C118.841 29.7271 118.125 32.4486 118.125 32.4486Z" fill="#401700"/>
<path fill-rule="evenodd" clip-rule="evenodd" d="M121.14 32.3114L120.833 33.3608C120.758 33.6183 120.446 33.7169 120.236 33.5494C119.919 33.2959 119.726 32.9186 119.706 32.5133L119.7 32.3767L117.449 32.4788C117.449 32.4788 118.274 29.7525 118.241 29.754L122.046 29.5813L121.157 32.3106L121.14 32.3114Z" fill="#FF8743"/>
<ellipse rx="10.6195" ry="12.2999" transform="matrix(0.906846 -0.421463 0.425035 0.905177 67.6082 46.6511)" fill="#FF8743"/>
<ellipse rx="10.6195" ry="12.3" transform="matrix(0.906846 -0.421463 0.425035 0.905177 70.1414 45.3903)" fill="#E1FC31"/>
<ellipse cx="79" cy="54.469" rx="3.75" ry="3.73077" fill="#19D992"/>
<path d="M81.25 52.9766L78.25 55.9612L76.75 54.4689" stroke="white" stroke-width="1.125" stroke-linejoin="round"/>
</svg>
