<svg width="18" height="18" viewBox="0 0 18 18" fill="none" xmlns="http://www.w3.org/2000/svg">
    <path d="M9 11.25C10.2426 11.25 11.25 10.2426 11.25 9C11.25 7.75736 10.2426 6.75 9 6.75C7.75736 6.75 6.75 7.75736 6.75 9C6.75 10.2426 7.75736 11.25 9 11.25Z" stroke="#201F1F" stroke-width="1.5" stroke-linecap="round" stroke-linejoin="round"/>
    <path d="M14.2977 11.1477C14.2024 11.3637 14.174 11.6032 14.2161 11.8354C14.2582 12.0677 14.3689 12.282 14.534 12.4507L14.5769 12.4936C14.7101 12.6266 14.8157 12.7845 14.8877 12.9583C14.9598 13.1322 14.9969 13.3185 14.9969 13.5066C14.9969 13.6948 14.9598 13.8811 14.8877 14.0549C14.8157 14.2288 14.7101 14.3867 14.5769 14.5197C14.444 14.6528 14.286 14.7584 14.1122 14.8304C13.9384 14.9025 13.7521 14.9396 13.5639 14.9396C13.3758 14.9396 13.1894 14.9025 13.0156 14.8304C12.8418 14.7584 12.6839 14.6528 12.5509 14.5197L12.508 14.4767C12.3392 14.3117 12.1249 14.2009 11.8927 14.1588C11.6605 14.1167 11.4209 14.1452 11.205 14.2405C10.9933 14.3312 10.8127 14.4819 10.6855 14.674C10.5583 14.866 10.49 15.0911 10.4891 15.3215V15.4432C10.4891 15.8229 10.3382 16.1871 10.0697 16.4556C9.8012 16.7241 9.43701 16.875 9.05727 16.875C8.67753 16.875 8.31334 16.7241 8.04482 16.4556C7.77631 16.1871 7.62545 15.8229 7.62545 15.4432V15.3787C7.61991 15.1418 7.54321 14.912 7.40532 14.7192C7.26743 14.5264 7.07473 14.3795 6.85227 14.2977C6.63634 14.2024 6.39682 14.174 6.16458 14.2161C5.93234 14.2582 5.71804 14.3689 5.54932 14.534L5.50636 14.5769C5.37339 14.7101 5.21547 14.8157 5.04165 14.8877C4.86783 14.9598 4.68152 14.9969 4.49335 14.9969C4.30519 14.9969 4.11887 14.9598 3.94505 14.8877C3.77123 14.8157 3.61332 14.7101 3.48034 14.5769C3.34722 14.444 3.24161 14.286 3.16955 14.1122C3.0975 13.9384 3.06041 13.7521 3.06041 13.5639C3.06041 13.3758 3.0975 13.1894 3.16955 13.0156C3.24161 12.8418 3.34722 12.6839 3.48034 12.5509L3.5233 12.508C3.68834 12.3392 3.79905 12.1249 3.84116 11.8927C3.88327 11.6605 3.85484 11.4209 3.75955 11.205C3.66879 10.9933 3.51811 10.8127 3.32604 10.6855C3.13397 10.5583 2.90889 10.49 2.67852 10.4891H2.55682C2.17708 10.4891 1.81289 10.3382 1.54437 10.0697C1.27585 9.8012 1.125 9.43701 1.125 9.05727C1.125 8.67753 1.27585 8.31334 1.54437 8.04482C1.81289 7.77631 2.17708 7.62545 2.55682 7.62545H2.62125C2.85821 7.61991 3.08803 7.54321 3.28082 7.40532C3.47361 7.26743 3.62046 7.07473 3.70227 6.85227C3.79757 6.63634 3.826 6.39682 3.78389 6.16458C3.74178 5.93234 3.63107 5.71804 3.46602 5.54932L3.42307 5.50636C3.28994 5.37339 3.18433 5.21547 3.11228 5.04165C3.04022 4.86783 3.00313 4.68152 3.00313 4.49335C3.00313 4.30519 3.04022 4.11887 3.11228 3.94505C3.18433 3.77123 3.28994 3.61332 3.42307 3.48034C3.55605 3.34722 3.71396 3.24161 3.88778 3.16955C4.0616 3.0975 4.24792 3.06041 4.43608 3.06041C4.62424 3.06041 4.81056 3.0975 4.98438 3.16955C5.1582 3.24161 5.31611 3.34722 5.44909 3.48034L5.49204 3.5233C5.66077 3.68834 5.87507 3.79905 6.10731 3.84116C6.33954 3.88327 6.57907 3.85484 6.795 3.75955H6.85227C7.06402 3.66879 7.2446 3.51811 7.3718 3.32604C7.499 3.13397 7.56726 2.90889 7.56818 2.67852V2.55682C7.56818 2.17708 7.71903 1.81289 7.98755 1.54437C8.25607 1.27585 8.62026 1.125 9 1.125C9.37974 1.125 9.74393 1.27585 10.0124 1.54437C10.281 1.81289 10.4318 2.17708 10.4318 2.55682V2.62125C10.4327 2.85162 10.501 3.07669 10.6282 3.26876C10.7554 3.46084 10.936 3.61152 11.1477 3.70227C11.3637 3.79757 11.6032 3.826 11.8354 3.78389C12.0677 3.74178 12.282 3.63107 12.4507 3.46602L12.4936 3.42307C12.6266 3.28994 12.7845 3.18433 12.9583 3.11228C13.1322 3.04022 13.3185 3.00313 13.5066 3.00313C13.6948 3.00313 13.8811 3.04022 14.0549 3.11228C14.2288 3.18433 14.3867 3.28994 14.5197 3.42307C14.6528 3.55605 14.7584 3.71396 14.8304 3.88778C14.9025 4.0616 14.9396 4.24792 14.9396 4.43608C14.9396 4.62424 14.9025 4.81056 14.8304 4.98438C14.7584 5.1582 14.6528 5.31611 14.5197 5.44909L14.4767 5.49204C14.3117 5.66077 14.2009 5.87507 14.1588 6.10731C14.1167 6.33954 14.1452 6.57907 14.2405 6.795V6.85227C14.3312 7.06402 14.4819 7.2446 14.674 7.3718C14.866 7.499 15.0911 7.56726 15.3215 7.56818H15.4432C15.8229 7.56818 16.1871 7.71903 16.4556 7.98755C16.7241 8.25607 16.875 8.62026 16.875 9C16.875 9.37974 16.7241 9.74393 16.4556 10.0124C16.1871 10.281 15.8229 10.4318 15.4432 10.4318H15.3787C15.1484 10.4327 14.9233 10.501 14.7312 10.6282C14.5392 10.7554 14.3885 10.936 14.2977 11.1477Z" stroke="#201F1F" stroke-width="1.5" stroke-linejoin="round"/>
</svg>
