<svg width="18" height="18" viewBox="0 0 18 18" fill="none" xmlns="http://www.w3.org/2000/svg">
    <path d="M3 3V15C3 15.3978 3.15804 15.7794 3.43934 16.0607C3.72064 16.342 4.10218 16.5 4.5 16.5H13.5C13.8978 16.5 14.2794 16.342 14.5607 16.0607C14.842 15.7794 15 15.3978 15 15V6.2565C15 6.05667 14.96 5.85886 14.8825 5.67468C14.805 5.49051 14.6914 5.32368 14.5485 5.184L11.2185 1.9275C10.9383 1.65349 10.5619 1.50005 10.17 1.5H4.5C4.10218 1.5 3.72064 1.65804 3.43934 1.93934C3.15804 2.22064 3 2.60218 3 3V3Z" stroke="#201F1F" stroke-width="1.5" stroke-linecap="round" stroke-linejoin="round"/>
    <path d="M10.5 1.5V4.5C10.5 4.89782 10.658 5.27936 10.9393 5.56066C11.2206 5.84196 11.6022 6 12 6H15" stroke="#201F1F" stroke-width="1.5" stroke-linejoin="round"/>
</svg>
