<svg width="24" height="24" viewBox="0 0 24 24" fill="none" xmlns="http://www.w3.org/2000/svg">
    <path d="M6 12.5L2.85673 11.7142C2.47968 11.6199 2.34963 11.1504 2.62444 10.8756L4.85355 8.64645C4.94732 8.55268 5.0745 8.5 5.20711 8.5H10M6 12.5L8 10.5M6 12.5L10 17M10 8.5L15.3222 3.66161C15.4391 3.55538 15.5794 3.47834 15.7318 3.43679L20.1558 2.23023C20.5291 2.12843 20.8716 2.47092 20.7698 2.84417L19.5699 7.24379C19.5241 7.41169 19.4353 7.56473 19.3122 7.68778L14 13M10 8.5L8 10.5M14 13L14.4764 17.7642C14.4913 17.9135 14.4385 18.0615 14.3325 18.1675L12.0491 20.4509C11.7919 20.7081 11.355 20.6134 11.2274 20.2729L10 17M14 13L12.25 14.75M10 17L12.25 14.75M12.25 14.75L8 10.5" stroke="#595959" stroke-width="1.3"/>
    <path d="M5.49982 15C3.61488 15.5548 2.75097 16.1901 2.97109 19.6107C2.98579 19.8392 3.15926 20.0276 3.38594 20.0597C6.09714 20.4435 7.14513 19.7935 7.99982 17.5" stroke="#595959" stroke-width="1.3" stroke-linecap="round"/>
</svg>
