<svg width="24" height="24" viewBox="0 0 24 24" fill="none" xmlns="http://www.w3.org/2000/svg">
    <circle cx="12" cy="12" r="10.25" fill="#6038D0" stroke="#6038D0" stroke-width="1.5"/>
    <path d="M8.89228 17.6662C8.73089 18.0477 8.9093 18.4877 9.29078 18.6491C9.67225 18.8105 10.1123 18.6321 10.2737 18.2506L8.89228 17.6662ZM15.3154 6.33398C15.4768 5.9525 15.2984 5.51242 14.9169 5.35102C14.5354 5.18963 14.0953 5.36804 13.9339 5.74952L15.3154 6.33398ZM10.2737 18.2506L15.3154 6.33398L13.9339 5.74952L8.89228 17.6662L10.2737 18.2506Z" fill="white"/>
    <path d="M8.28033 9.78033C8.57322 9.48744 8.57322 9.01256 8.28033 8.71967C7.98744 8.42678 7.51256 8.42678 7.21967 8.71967L8.28033 9.78033ZM5 12L4.46967 11.4697C4.17678 11.7626 4.17678 12.2374 4.46967 12.5303L5 12ZM7.21967 15.2803C7.51256 15.5732 7.98744 15.5732 8.28033 15.2803C8.57322 14.9874 8.57322 14.5126 8.28033 14.2197L7.21967 15.2803ZM7.21967 8.71967L4.46967 11.4697L5.53033 12.5303L8.28033 9.78033L7.21967 8.71967ZM4.46967 12.5303L7.21967 15.2803L8.28033 14.2197L5.53033 11.4697L4.46967 12.5303Z" fill="white"/>
    <path d="M15.4697 9.78033C15.1768 9.48744 15.1768 9.01256 15.4697 8.71967C15.7626 8.42678 16.2374 8.42678 16.5303 8.71967L15.4697 9.78033ZM18.75 12L19.2803 11.4697C19.5732 11.7626 19.5732 12.2374 19.2803 12.5303L18.75 12ZM16.5303 15.2803C16.2374 15.5732 15.7626 15.5732 15.4697 15.2803C15.1768 14.9874 15.1768 14.5126 15.4697 14.2197L16.5303 15.2803ZM16.5303 8.71967L19.2803 11.4697L18.2197 12.5303L15.4697 9.78033L16.5303 8.71967ZM19.2803 12.5303L16.5303 15.2803L15.4697 14.2197L18.2197 11.4697L19.2803 12.5303Z" fill="white"/>
</svg>
