<svg width="24" height="24" viewBox="0 0 24 24" fill="none" xmlns="http://www.w3.org/2000/svg">
    <path d="M7 18V17.35H6.70811L6.51418 17.5682L7 18ZM3.65 19.8698V5H2.35V19.8698H3.65ZM4 4.65H21V3.35H4V4.65ZM21.35 5V17H22.65V5H21.35ZM21 17.35H7V18.65H21V17.35ZM6.51418 17.5682L4.26159 20.1023L5.23323 20.966L7.48582 18.4318L6.51418 17.5682ZM21.35 17C21.35 17.1933 21.1933 17.35 21 17.35V18.65C21.9113 18.65 22.65 17.9113 22.65 17H21.35ZM21 4.65C21.1933 4.65 21.35 4.8067 21.35 5H22.65C22.65 4.08873 21.9113 3.35 21 3.35V4.65ZM3.65 5C3.65 4.8067 3.8067 4.65 4 4.65V3.35C3.08873 3.35 2.35 4.08873 2.35 5H3.65ZM2.35 19.8698C2.35 21.387 4.22525 22.1 5.23323 20.966L4.26159 20.1023C4.04778 20.3429 3.65 20.1916 3.65 19.8698H2.35Z" fill="#595959"/>
    <circle cx="12.5" cy="11" r="1" fill="#595959"/>
    <circle cx="7.5" cy="11" r="1" fill="#595959"/>
    <circle cx="17.5" cy="11" r="1" fill="#595959"/>
</svg>
