<svg width="24" height="24" viewBox="0 0 24 24" fill="none" xmlns="http://www.w3.org/2000/svg">
    <path d="M19.6522 9.58312L12.6521 3.56105C12.2772 3.23849 11.7227 3.23849 11.3478 3.56106L4.34783 9.58312C4.12701 9.77309 4 10.0499 4 10.3412V20C4 20.5523 4.44772 21 5 21H8.33338C8.88566 21 9.33338 20.5523 9.33338 20V14.5882C9.33338 14.036 9.78109 13.5882 10.3334 13.5882H11.9999H13.6668C14.219 13.5882 14.6668 14.036 14.6668 14.5882V20C14.6668 20.5523 15.1145 21 15.6668 21H19C19.5523 21 20 20.5523 20 20V10.3412C20 10.0499 19.873 9.77309 19.6522 9.58312Z" stroke="#201F1F" stroke-width="1.5" stroke-linejoin="round"/>
</svg>
