<svg width="24" height="24" viewBox="0 0 24 24" fill="none" xmlns="http://www.w3.org/2000/svg">
    <path d="M6.5 13L3.35673 12.2142C2.97968 12.1199 2.84963 11.6504 3.12444 11.3756L5.35355 9.14645C5.44732 9.05268 5.5745 9 5.70711 9H10.5L15.8222 4.16161C15.9391 4.05538 16.0794 3.97834 16.2318 3.93679L20.6558 2.73023C21.0291 2.62843 21.3716 2.97092 21.2698 3.34417L20.0699 7.74379C20.0241 7.91169 19.9353 8.06473 19.8122 8.18778L14.5 13.5L14.9764 18.2642C14.9913 18.4135 14.9385 18.5615 14.8325 18.6675L12.5491 20.9509C12.2919 21.2081 11.855 21.1134 11.7274 20.7729L10.5 17.5L6.5 13Z" fill="#6038D0"/>
    <path d="M3.47109 20.1107C3.27433 17.0531 3.94374 16.221 5.43434 15.6826C5.77859 15.5582 6.16086 15.661 6.41968 15.9199L8.04553 17.5457C8.32229 17.8225 8.4178 18.2385 8.25636 18.5951C7.43689 20.405 6.3462 20.908 3.88594 20.5597C3.65926 20.5276 3.48579 20.3392 3.47109 20.1107Z" fill="#6038D0"/>
</svg>
