<svg width="24" height="24" viewBox="0 0 24 24" fill="none" xmlns="http://www.w3.org/2000/svg">
    <circle cx="12" cy="12" r="10.285" stroke="#595959" stroke-width="1.43"/>
    <path d="M8.59151 17.6796C8.43765 18.0433 8.60773 18.4628 8.97141 18.6167C9.33508 18.7705 9.75463 18.6004 9.90849 18.2368L8.59151 17.6796ZM14.9502 6.3201C15.104 5.95642 14.9339 5.53687 14.5703 5.38301C14.2066 5.22915 13.787 5.39924 13.6332 5.76291L14.9502 6.3201ZM9.90849 18.2368L14.9502 6.3201L13.6332 5.76291L8.59151 17.6796L9.90849 18.2368Z" fill="#595959"/>
    <path d="M7.92242 9.75558C8.20165 9.47636 8.20165 9.02364 7.92242 8.74442C7.6432 8.46519 7.19048 8.46519 6.91126 8.74442L7.92242 9.75558ZM4.66684 12L4.16126 11.4944L3.65568 12L4.16126 12.5056L4.66684 12ZM6.91126 15.2556C7.19048 15.5348 7.6432 15.5348 7.92242 15.2556C8.20165 14.9764 8.20165 14.5236 7.92242 14.2444L6.91126 15.2556ZM6.91126 8.74442L4.16126 11.4944L5.17242 12.5056L7.92242 9.75558L6.91126 8.74442ZM4.16126 12.5056L6.91126 15.2556L7.92242 14.2444L5.17242 11.4944L4.16126 12.5056Z" fill="#595959"/>
    <path d="M15.1613 9.75558C14.882 9.47636 14.882 9.02364 15.1613 8.74442C15.4405 8.46519 15.8932 8.46519 16.1724 8.74442L15.1613 9.75558ZM18.4168 12L18.9224 11.4944L19.428 12L18.9224 12.5056L18.4168 12ZM16.1724 15.2556C15.8932 15.5348 15.4405 15.5348 15.1613 15.2556C14.882 14.9764 14.882 14.5236 15.1613 14.2444L16.1724 15.2556ZM16.1724 8.74442L18.9224 11.4944L17.9113 12.5056L15.1613 9.75558L16.1724 8.74442ZM18.9224 12.5056L16.1724 15.2556L15.1613 14.2444L17.9113 11.4944L18.9224 12.5056Z" fill="#595959"/>
</svg>
