<svg width="24" height="24" viewBox="0 0 24 24" fill="none" xmlns="http://www.w3.org/2000/svg">
  <path
    d="M24 4.36772C23.117 4.76969 22.168 5.0404 21.172 5.16243C22.189 4.53794 22.97 3.5484 23.337 2.36916C22.386 2.9475 21.332 3.36792 20.21 3.59454C19.313 2.61321 18.032 2 16.616 2C13.437 2 11.101 5.04143 11.819 8.19873C7.728 7.98851 4.1 5.97867 1.671 2.92391C0.381 5.19319 1.002 8.16181 3.194 9.66509C2.388 9.63843 1.628 9.41181 0.965 9.03343C0.911 11.3724 2.546 13.5607 4.914 14.0478C4.221 14.2406 3.462 14.2857 2.69 14.1339C3.316 16.1397 5.134 17.5988 7.29 17.6399C5.22 19.3041 2.612 20.0476 0 19.7317C2.179 21.1643 4.768 22 7.548 22C16.69 22 21.855 14.0826 21.543 6.98154C22.505 6.26887 23.34 5.37982 24 4.36772Z"
    fill="#6038D0"/>
</svg>
