<svg width="24" height="22" viewBox="0 0 24 22" fill="none" xmlns="http://www.w3.org/2000/svg">
<path d="M21.2693 5.00629C21.3807 4.99265 21.4915 4.97728 21.6018 4.96022C21.4287 5.10973 21.2502 5.25265 21.0668 5.38853C20.8531 5.54679 20.7321 5.80085 20.7438 6.06646C21.0405 12.8197 16.1337 20.2498 7.548 20.2498C5.99907 20.2498 4.51305 19.9744 3.13208 19.4695C4.81645 19.1506 6.41472 18.4199 7.79127 17.3131C8.0536 17.1022 8.15585 16.7497 8.04707 16.4311C7.93829 16.1126 7.64176 15.8962 7.30522 15.8898C5.93831 15.8638 4.72406 15.1513 3.98987 14.0623C4.38144 14.0364 4.76291 13.97 5.12841 13.8683C5.48434 13.7693 5.72618 13.4394 5.71353 13.0702C5.70089 12.701 5.43705 12.3884 5.07518 12.314C3.52416 11.995 2.33679 10.7908 1.92279 9.33231C2.3228 9.43779 2.73962 9.50031 3.16755 9.51446C3.52284 9.52621 3.84327 9.30211 3.95411 8.96435C4.06496 8.62659 3.93963 8.2562 3.64646 8.05514C2.14841 7.02777 1.51738 5.17353 1.92546 3.48368C4.44878 6.1362 7.91608 7.84904 11.7779 8.04748C12.0282 8.06034 12.27 7.95521 12.4313 7.76346C12.5925 7.5717 12.6546 7.31546 12.5991 7.07113C11.9888 4.3873 13.9779 1.8498 16.616 1.8498C17.7957 1.8498 18.866 2.35977 19.6195 3.18409C19.8089 3.39134 20.0932 3.4841 20.3684 3.42851C20.6425 3.37316 20.9127 3.30713 21.1788 3.23089C21.0434 3.33953 20.9013 3.43966 20.7534 3.5305C20.4328 3.72738 20.2927 4.12106 20.4168 4.47623C20.541 4.83139 20.8958 5.05205 21.2693 5.00629Z" stroke="#000000" stroke-width="1.6" stroke-linejoin="round"/>
</svg>
