<svg width="25" height="24" viewBox="0 0 25 24" fill="none" xmlns="http://www.w3.org/2000/svg">
<path d="M21.5566 6.77579C20.8944 7.07727 20.1826 7.2803 19.4356 7.37182C20.1984 6.90346 20.7841 6.1613 21.0594 5.27687C20.3461 5.71062 19.5556 6.02594 18.7141 6.19591C18.0414 5.45991 17.0806 5 16.0186 5C13.6344 5 11.8824 7.28107 12.4209 9.64905C9.35264 9.49139 6.63164 7.984 4.80989 5.69293C3.84239 7.39489 4.30814 9.62136 5.95214 10.7488C5.34764 10.7288 4.77764 10.5589 4.28039 10.2751C4.23989 12.0293 5.46614 13.6705 7.24214 14.0358C6.72239 14.1804 6.15314 14.2143 5.57414 14.1004C6.04364 15.6047 7.40714 16.6991 9.02414 16.7299C7.47164 17.9781 5.51564 18.5357 3.55664 18.2988C5.19089 19.3732 7.13264 20 9.21764 20C16.0741 20 19.9479 14.062 19.7139 8.73616C20.4354 8.20165 21.0616 7.53486 21.5566 6.77579Z" fill="#6038D0"/>
</svg>
