<svg width="24" height="24" viewBox="0 0 24 24" fill="none" xmlns="http://www.w3.org/2000/svg">
<path fill-rule="evenodd" clip-rule="evenodd" d="M23.9635 12.9424L22.468 12.8263C22.4892 12.5539 22.5 12.2784 22.5 12C22.5 11.7216 22.4892 11.4461 22.468 11.1737L23.9635 11.0576C23.9877 11.3685 24 11.6828 24 12C24 12.3172 23.9877 12.6315 23.9635 12.9424ZM23.671 9.19744C23.5234 8.5806 23.3282 7.98227 23.0894 7.40655L21.7038 7.98113C21.9125 8.48438 22.0832 9.00733 22.2121 9.54647L23.671 9.19744ZM22.2332 5.72928L20.955 6.51423C20.6665 6.04434 20.3418 5.59871 19.9849 5.18123L21.1251 4.20653C21.5326 4.68326 21.9035 5.1923 22.2332 5.72928ZM19.7935 2.87491L18.8188 4.01506C18.4013 3.65817 17.9557 3.33355 17.4858 3.045L18.2707 1.76677C18.8077 2.09653 19.3167 2.46736 19.7935 2.87491ZM16.5935 0.910566L16.0189 2.29615C15.5156 2.08746 14.9927 1.91685 14.4535 1.78785L14.8026 0.329027C15.4194 0.476608 16.0177 0.671823 16.5935 0.910566ZM12.9424 0.0364636L12.8263 1.53196C12.5539 1.5108 12.2784 1.5 12 1.5C11.7216 1.5 11.4461 1.5108 11.1737 1.53196L11.0576 0.0364637C11.3685 0.012305 11.6828 0 12 0C12.3172 0 12.6315 0.012305 12.9424 0.0364636ZM9.19744 0.329027L9.54647 1.78785C9.00733 1.91685 8.48438 2.08746 7.98113 2.29616L7.40655 0.910566C7.98227 0.671824 8.5806 0.476609 9.19744 0.329027ZM5.72928 1.76677L6.51423 3.045C6.04434 3.33355 5.59871 3.65817 5.18123 4.01506L4.20653 2.87491C4.68326 2.46736 5.1923 2.09653 5.72928 1.76677ZM2.87491 4.20654L4.01506 5.18124C3.65817 5.59871 3.33355 6.04434 3.045 6.51423L1.76677 5.72929C2.09653 5.1923 2.46736 4.68326 2.87491 4.20654ZM0.910566 7.40655L2.29615 7.98113C2.08746 8.48438 1.91685 9.00733 1.78785 9.54648L0.329027 9.19745C0.476608 8.58061 0.671823 7.98227 0.910566 7.40655ZM0.0364636 11.0576C0.012305 11.3685 0 11.6828 0 12C0 12.3172 0.012305 12.6315 0.0364637 12.9424L1.53196 12.8263C1.5108 12.5539 1.5 12.2784 1.5 12C1.5 11.7216 1.5108 11.4461 1.53196 11.1737L0.0364636 11.0576ZM0.329027 14.8026L1.78785 14.4535C1.91685 14.9927 2.08746 15.5156 2.29616 16.0189L0.910567 16.5935C0.671824 16.0177 0.476609 15.4194 0.329027 14.8026ZM1.76677 18.2707L3.045 17.4858C3.33355 17.9557 3.65817 18.4013 4.01506 18.8188L2.87491 19.7935C2.46736 19.3167 2.09653 18.8077 1.76677 18.2707ZM4.20654 21.1251L5.18124 19.9849C5.59871 20.3418 6.04434 20.6665 6.51423 20.955L5.72929 22.2332C5.1923 21.9035 4.68326 21.5326 4.20654 21.1251ZM7.40655 23.0894L7.98113 21.7038C8.48438 21.9125 9.00733 22.0832 9.54648 22.2121L9.19745 23.671C8.58061 23.5234 7.98227 23.3282 7.40655 23.0894ZM11.0576 23.9635L11.1737 22.468C11.4461 22.4892 11.7216 22.5 12 22.5C12.2784 22.5 12.5539 22.4892 12.8263 22.468L12.9424 23.9635C12.6315 23.9877 12.3172 24 12 24C11.6828 24 11.3685 23.9877 11.0576 23.9635ZM14.8026 23.671C15.4194 23.5234 16.0177 23.3282 16.5935 23.0894L16.0189 21.7038C15.5156 21.9125 14.9927 22.0832 14.4535 22.2121L14.8026 23.671ZM18.2707 22.2332L17.4858 20.955C17.9557 20.6665 18.4013 20.3418 18.8188 19.9849L19.7935 21.1251C19.3167 21.5326 18.8077 21.9035 18.2707 22.2332ZM21.1251 19.7935L19.9849 18.8188C20.3418 18.4013 20.6665 17.9557 20.955 17.4858L22.2332 18.2707C21.9035 18.8077 21.5326 19.3167 21.1251 19.7935ZM23.0894 16.5935L21.7038 16.0189C21.9125 15.5156 22.0832 14.9927 22.2121 14.4535L23.671 14.8026C23.5234 15.4194 23.3282 16.0177 23.0894 16.5935Z" fill="#6038D0"/>
</svg>
