<svg width="24" height="24" viewBox="0 0 24 24" fill="none" xmlns="http://www.w3.org/2000/svg">
  <path fill-rule="evenodd" clip-rule="evenodd"
        d="M17.1074 19.8233C17.365 20.0057 17.697 20.0513 17.993 19.9393C18.289 19.8265 18.5066 19.5737 18.5722 19.2673C19.2674 16.0001 20.9538 7.73052 21.5866 4.75852C21.6346 4.53452 21.5546 4.30172 21.3786 4.15212C21.2026 4.00252 20.9586 3.95932 20.741 4.04012C17.3866 5.28172 7.05623 9.15772 2.83382 10.7201C2.56582 10.8193 2.39142 11.0769 2.40022 11.3593C2.40982 11.6425 2.60022 11.8881 2.87462 11.9705C4.76822 12.5369 7.25383 13.3249 7.25383 13.3249C7.25383 13.3249 8.41543 16.8329 9.02103 18.6169C9.09703 18.8409 9.27223 19.0169 9.50343 19.0777C9.73383 19.1377 9.98023 19.0745 10.1522 18.9121C11.125 17.9937 12.629 16.5737 12.629 16.5737C12.629 16.5737 15.4866 18.6689 17.1074 19.8233ZM8.29943 12.8817L9.64263 17.3121L9.94103 14.5065C9.94103 14.5065 15.1306 9.82573 18.089 7.15772C18.1754 7.07932 18.1874 6.94812 18.1154 6.85612C18.0442 6.76412 17.913 6.74252 17.8146 6.80492C14.3858 8.99452 8.29943 12.8817 8.29943 12.8817Z"
        fill="#6038D0"/>
</svg>
