<svg width="16" height="16" viewBox="0 0 16 16" fill="none" xmlns="http://www.w3.org/2000/svg">
  <g opacity="0.8">
    <path fill-rule="evenodd" clip-rule="evenodd"
          d="M16 9.33366C15.2636 9.33366 14.6667 8.73671 14.6667 8.00033C14.6667 7.26394 15.2636 6.66699 16 6.66699V4.00033C16 3.26394 15.4031 2.66699 14.6667 2.66699L1.33333 2.66699C0.596944 2.66699 0 3.26394 0 4.00033L0 6.66699C0.736389 6.66699 1.33333 7.26394 1.33333 8.00033C1.33333 8.73671 0.736389 9.33366 0 9.33366L0 12.0003C0 12.7367 0.596944 13.3337 1.33333 13.3337L14.6667 13.3337C15.4031 13.3337 16 12.7367 16 12.0003V9.33366ZM3 5L13 5V7L3 7L3 5ZM8 8H3L3 10H8V8Z"
          fill="currentColor"/>
  </g>
</svg>
