<svg width="16" height="16" viewBox="0 0 16 16" fill="none" xmlns="http://www.w3.org/2000/svg">
  <g clip-path="url(#clip0)">
    <path fill-rule="evenodd" clip-rule="evenodd"
          d="M0.571429 15.9998H5.14286C5.45886 15.9998 5.71429 15.7437 5.71429 15.4283L5.71429 11.9996C5.71429 10.739 6.73943 9.71382 8 9.71382C9.26057 9.71382 10.2857 10.739 10.2857 11.9996V15.4283C10.2857 15.7437 10.5411 15.9998 10.8571 15.9998L15.4286 15.9998C15.7446 15.9998 16 15.7437 16 15.4283V6.28512C16 6.1074 15.9171 5.93997 15.7766 5.83254L8.348 0.118046C8.14286 -0.0396741 7.85714 -0.0396741 7.65143 0.118046L0.222857 5.83254C0.0828572 5.93997 0 6.1074 0 6.28512L0 15.4283C0 15.7437 0.255429 15.9998 0.571429 15.9998Z"
          fill="currentColor"/>
  </g>
  <defs>
    <clipPath id="clip0">
      <rect width="16" height="16" fill="white"/>
    </clipPath>
  </defs>
</svg>
