<svg width="16" height="16" viewBox="0 0 16 16" fill="none" xmlns="http://www.w3.org/2000/svg">
  <g opacity="0.8">
    <path
      d="M14.5828 9.41163L8.47614 9.41163L12.5431 13.4786C12.6985 13.634 12.9543 13.6466 13.1141 13.4961C14.1101 12.5577 14.7952 11.2929 14.9962 9.871C15.0306 9.62754 14.8286 9.41163 14.5828 9.41163ZM14.1755 7.74399C13.9634 4.66967 11.5067 2.21299 8.43238 2.00093C8.19768 1.98472 8.00003 2.18262 8.00003 2.41784V8.17634L13.7588 8.17634C13.994 8.17634 14.1917 7.97869 14.1755 7.74399ZM6.76474 9.41163L6.76474 3.30493C6.76474 3.05916 6.54882 2.85714 6.30563 2.89162C3.23876 3.325 0.894542 6.00429 1.00366 9.21527C1.11586 12.513 3.95523 15.2172 7.25448 15.1758C8.55154 15.1596 9.75003 14.7416 10.7354 14.0427C10.9387 13.8986 10.9521 13.5993 10.7758 13.423L6.76474 9.41163Z"
      fill="currentColor"/>
  </g>
</svg>
