<svg width="16" height="16" viewBox="0 0 16 16" fill="none" xmlns="http://www.w3.org/2000/svg">
  <g>
    <path
      d="M3.26005 3.42318L7.99979 1.90479L8 4.66942L9.26005 4.26576V3.42318L13.9998 1.90479V5.23545L12.7397 5.63911V6.4817L8 8.00009L8 10.6694L9.26005 10.2658L9.26005 9.42318L13.9998 7.90479V11.2355L12.7397 11.6391V12.4817L8 14.0001L7.99979 11.2355L6.73974 11.6391V12.4817L2 14.0001L2 10.6694L3.26005 10.2658L3.26005 9.42318L7.99979 7.90479V5.23545L6.73974 5.63911V6.4817L2 8.00009L2 4.66942L3.26005 4.26576L3.26005 3.42318Z"
      fill="currentValue"/>
  </g>
</svg>
