<svg width="16" height="16" viewBox="0 0 16 16" fill="none" xmlns="http://www.w3.org/2000/svg">
  <g opacity="0.8">
    <path opacity="0.8"
          d="M8 0C6.34176 0 4.82843 0.249329 3.61871 0.698545C3.51949 0.735121 3.42853 0.790701 3.351 0.862112C3.27346 0.933523 3.21089 1.01937 3.16685 1.11474C3.1228 1.21011 3.09815 1.31315 3.0943 1.41796C3.09045 1.52277 3.10747 1.62731 3.1444 1.7256C3.18132 1.8239 3.23743 1.91402 3.30952 1.99083C3.3816 2.06764 3.46825 2.12963 3.56451 2.17325C3.66078 2.21688 3.76477 2.24129 3.87056 2.2451C3.97634 2.2489 4.08185 2.23202 4.18106 2.19543C5.15686 1.83307 6.51149 1.59667 8 1.59667C9.61867 1.59667 11.0851 1.88128 12.0707 2.29522C12.5636 2.50219 12.9268 2.74381 13.1367 2.95218C13.3465 3.16055 13.3885 3.29646 13.3885 3.40125C13.3885 3.50606 13.3465 3.64194 13.1367 3.85031C12.9268 4.05868 12.5636 4.30031 12.0707 4.50728C11.0851 4.92121 9.61868 5.20582 8 5.20582C6.38132 5.20582 4.92317 4.92143 3.93765 4.50728C3.44489 4.3002 3.07317 4.05891 2.86331 3.85031C2.65345 3.64171 2.61151 3.49876 2.61151 3.39293C2.60852 3.18315 2.52231 2.98298 2.37152 2.83568C2.22074 2.68838 2.0175 2.6058 1.80576 2.6058C1.59401 2.6058 1.39077 2.68838 1.23999 2.83568C1.0892 2.98298 1.00299 3.18315 1 3.39293L1 13.0229C1 13.6277 1.34667 14.1313 1.77218 14.4865C2.1977 14.8417 2.72811 15.1094 3.35012 15.3264C4.59415 15.7604 6.21369 16 8 16C9.7863 16 11.4058 15.7604 12.6499 15.3264C13.2719 15.1094 13.8023 14.8417 14.2278 14.4865C14.6533 14.1313 15 13.6277 15 13.0229V7.03534C14.997 6.82557 14.9108 6.62539 14.76 6.47809C14.6092 6.33079 14.406 6.24822 14.1942 6.24822C13.9825 6.24822 13.7793 6.33079 13.6285 6.47809C13.4777 6.62539 13.3915 6.82557 13.3885 7.03534C13.3885 7.04439 13.397 7.11653 13.1954 7.28482C12.9939 7.45311 12.6119 7.65951 12.1127 7.83368C11.1143 8.18205 9.63562 8.4158 8 8.4158C6.5091 8.4158 5.15335 8.22131 4.16427 7.92516C3.17518 7.62903 2.637 7.1542 2.61151 7.09355V5.62162C2.83132 5.74712 3.05774 5.86567 3.30815 5.97089C4.56509 6.4991 6.19674 6.8025 8 6.8025C9.80325 6.8025 11.4434 6.49873 12.7002 5.97089C13.3287 5.70699 13.861 5.38723 14.2782 4.97297C14.6954 4.55872 15 4.01499 15 3.40125C15 2.7875 14.6954 2.23545 14.2782 1.82121C13.861 1.40696 13.3287 1.0872 12.7002 0.823285C11.4434 0.295459 9.80325 0 8 0ZM2.61151 9.01455C2.95463 9.17268 3.28608 9.3331 3.69424 9.4553C4.8834 9.81136 6.37175 10.0125 8 10.0125C9.7863 10.0125 11.4058 9.77296 12.6499 9.33888C12.916 9.246 13.1566 9.13591 13.3885 9.02287V10.3035C13.3901 10.295 13.3529 10.411 13.1199 10.578C12.8869 10.7449 12.4945 10.9324 11.9952 11.0936C10.9966 11.416 9.57141 11.6341 8 11.6341C6.42859 11.6341 5.00341 11.416 4.0048 11.0936C3.50549 10.9324 3.11312 10.7449 2.8801 10.578C2.64707 10.411 2.60992 10.295 2.61151 10.3035V9.01455ZM2.61151 12.2661C2.88407 12.3968 3.17843 12.5112 3.5012 12.6154C4.72077 13.0091 6.28382 13.2308 8 13.2308C9.71618 13.2308 11.2792 13.0091 12.4988 12.6154C12.8212 12.5113 13.1139 12.3966 13.3885 12.2661V13.0229C13.3885 13.0317 13.397 13.0958 13.1954 13.264C12.9939 13.4323 12.6119 13.6387 12.1127 13.8129C11.1143 14.1612 9.63562 14.4033 8 14.4033C6.36437 14.4033 4.88572 14.1612 3.88729 13.8129C3.38808 13.6387 3.01448 13.4323 2.81295 13.264C2.61142 13.0958 2.61151 13.0317 2.61151 13.0229V12.2661Z"
          fill="currentColor"/>
  </g>
</svg>
