<svg width="16" height="16" viewBox="0 0 16 16" fill="none" xmlns="http://www.w3.org/2000/svg">
    <path fill-rule="evenodd" clip-rule="evenodd" d="M11.5466 13.6549C11.7255 13.7816 11.956 13.8132 12.1616 13.7355C12.3671 13.6571 12.5182 13.4816 12.5638 13.2688C13.0465 11 14.2176 5.25733 14.6571 3.19349C14.6904 3.03793 14.6348 2.87627 14.5126 2.77238C14.3904 2.6685 14.221 2.6385 14.0699 2.69461C11.7405 3.55681 4.56673 6.24842 1.63458 7.33339C1.44847 7.40228 1.32736 7.58116 1.33347 7.77727C1.34014 7.97393 1.47236 8.14448 1.66291 8.2017C2.97788 8.59503 4.70395 9.14224 4.70395 9.14224C4.70395 9.14224 5.5106 11.5783 5.93115 12.8172C5.98392 12.9727 6.10559 13.0949 6.26614 13.1371C6.42614 13.1788 6.59724 13.1349 6.71668 13.0222C7.39222 12.3844 8.43665 11.3983 8.43665 11.3983C8.43665 11.3983 10.421 12.8533 11.5466 13.6549ZM5.43005 8.83447L6.3628 11.9111L6.57002 9.96278C6.57002 9.96278 10.1738 6.71229 12.2282 4.85956C12.2882 4.80512 12.2966 4.71401 12.2466 4.65012C12.1971 4.58623 12.106 4.57123 12.0377 4.61456C9.65662 6.13509 5.43005 8.83447 5.43005 8.83447Z" fill="#595959"/>
</svg>
