<svg width="20" height="20" viewBox="0 0 20 20" fill="none" xmlns="http://www.w3.org/2000/svg">
    <path d="M3 16.5C3 16.8978 3.15804 17.2794 3.43934 17.5607C3.72064 17.842 4.10218 18 4.5 18L8.5 18C8.89782 18 9.27936 17.842 9.56066 17.5607C9.84196 17.2794 10 16.8978 10 16.5L10 7.5C10 7.10218 9.84196 6.72064 9.56066 6.43934C9.27936 6.15804 8.89782 6 8.5 6L4.5 6C4.10217 6 3.72064 6.15804 3.43934 6.43934C3.15803 6.72064 3 7.10218 3 7.5L3 16.5ZM11 16.5C11 16.8978 11.158 17.2794 11.4393 17.5607C11.7206 17.842 12.1022 18 12.5 18L16.5 18C16.8978 18 17.2794 17.842 17.5607 17.5607C17.842 17.2794 18 16.8978 18 16.5L18 7.5C18 7.10218 17.842 6.72064 17.5607 6.43934C17.2794 6.15803 16.8978 6 16.5 6L12.5 6C12.1022 6 11.7206 6.15803 11.4393 6.43934C11.158 6.72064 11 7.10218 11 7.5L11 16.5ZM12.437 3C12.5127 3.29554 12.5199 3.60447 12.458 3.90321C12.3961 4.20196 12.2668 4.48262 12.08 4.72379C11.8931 4.96495 11.6537 5.16025 11.3798 5.29477C11.106 5.42929 10.8051 5.49949 10.5 5.5C10.0565 5.50011 9.62558 5.35282 9.27495 5.08129C8.92431 4.80976 8.67387 4.4294 8.563 4C8.47854 3.67202 8.47854 3.32798 8.563 3C8.6735 2.57024 8.92378 2.18943 9.27445 1.91751C9.62512 1.6456 10.0563 1.49803 10.5 1.49803C10.9437 1.49803 11.3749 1.6456 11.7255 1.91751C12.0762 2.18943 12.3265 2.57024 12.437 3ZM3 3.5C3 3.36739 3.05268 3.24021 3.14645 3.14645C3.24021 3.05268 3.36739 3 3.5 3L7.541 3C7.48543 3.33102 7.48543 3.66898 7.541 4L3.5 4C3.36739 4 3.24021 3.94732 3.14645 3.85355C3.05268 3.75979 3 3.63261 3 3.5ZM13.5 3.5C13.5 3.67 13.486 3.837 13.459 4L17.5 4C17.6326 4 17.7598 3.94732 17.8536 3.85355C17.9473 3.75978 18 3.63261 18 3.5C18 3.36739 17.9473 3.24021 17.8536 3.14645C17.7598 3.05268 17.6326 3 17.5 3L13.459 3C13.486 3.163 13.5 3.33 13.5 3.5Z" fill="#C1B0F1"/>
</svg>
