<svg width="700pt" height="700pt" version="1.1" viewBox="0 0 700 700" xmlns="http://www.w3.org/2000/svg">
    <g>
        <path d="m302.75 147.58-21 113.75h105.58c19.25 0 33.832 17.5 30.332 36.75l-28 144.08c-2.918 15.75-16.332 26.832-32.668 26.832l-115.5 0.003906c-9.918 0-19.25-5.25-25.082-13.418-5.25-8.168-14-12.832-23.918-12.832h-32.082v-170.33c0-14.582 8.168-28.582 21-35.582l1.75-1.168c29.75-16.918 53.082-42.582 66.5-74.082l9.918-23.332c4.082-9.332 12.832-15.168 22.75-15.168h0.58203c13.414-0.003907 22.75 12.246 19.832 24.496z"/>
        <path d="m117.25 238.58h-41.418v230.42h41.418c9.918 0 18.668-8.168 18.668-18.668v-193.66c0-9.918-8.168-18.086-18.668-18.086z"/>
        <path d="m582.75 304.5h41.418v-190.17h-41.418c-9.918 0-18.668 8.168-18.668 18.668v152.83c0 10.5 8.168 18.668 18.668 18.668z"/>
        <path d="m517.42 135.92c-7 0-14-1.75-18.082-6.418-5.25-6.418-12.832-10.5-21-10.5h-103.83c-12.832 0-24.5 7.582-26.832 19.832l-18.082 91c-1.168 5.25 2.918 9.918 8.168 9.918h63.582c27.418 0 47.832 25.082 42.582 51.918l-5.832 29.168-11.082 61.25c-2.918 9.918 5.25 22.168 15.168 22.168h0.58203c8.168 0 15.75-7 18.668-14.582l8.168-20.418c18.668-39.668 53.082-63 53.082-63 10.5-5.832 14-17.5 14-29.75v-140l-19.258-0.003906z"/>
    </g>
</svg>
