<svg width="32" height="32" viewBox="0 0 32 32" fill="none" xmlns="http://www.w3.org/2000/svg">
<path d="M25.6682 1.62495L18.9811 11.5556C18.8728 11.6989 18.8227 11.878 18.8409 12.0568C18.8591 12.2356 18.9443 12.4009 19.0794 12.5193C19.2145 12.6378 19.3893 12.7007 19.5689 12.6954C19.7484 12.6901 19.9193 12.617 20.0471 12.4907L26.6276 6.80183C26.6655 6.76701 26.7128 6.74411 26.7637 6.73595C26.8145 6.7278 26.8666 6.73475 26.9135 6.75596C26.9604 6.77716 27.0001 6.81167 27.0276 6.85522C27.0551 6.89877 27.0692 6.94944 27.0682 7.00094V24.8818C27.0676 24.9361 27.0506 24.9889 27.0192 25.0332C26.9879 25.0775 26.9438 25.1112 26.8928 25.1298C26.8418 25.1483 26.7864 25.1509 26.7339 25.137C26.6814 25.1232 26.6344 25.0937 26.5992 25.0525L6.70131 1.23029C6.38366 0.847843 5.98625 0.539557 5.53695 0.327042C5.08765 0.114527 4.59733 0.00292765 4.10038 6.6742e-05H3.40751C2.50378 6.6742e-05 1.63707 0.359309 0.998035 0.998765C0.359004 1.63822 0 2.50551 0 3.40984V28.5902C0 29.4946 0.359004 30.3618 0.998035 31.0013C1.63707 31.6408 2.50378 32 3.40751 32C3.98981 31.9999 4.56238 31.8505 5.07058 31.5661C5.57877 31.2816 6.00565 30.8716 6.31046 30.3751L12.9976 20.4445C13.1059 20.3011 13.156 20.1221 13.1378 19.9433C13.1196 19.7645 13.0343 19.5992 12.8993 19.4807C12.7642 19.3622 12.5893 19.2993 12.4098 19.3046C12.2303 19.31 12.0594 19.3831 11.9316 19.5094L5.3511 25.1982C5.31316 25.2331 5.26584 25.256 5.21501 25.2641C5.16419 25.2723 5.11208 25.2653 5.06517 25.2441C5.01825 25.2229 4.97859 25.1884 4.9511 25.1448C4.9236 25.1013 4.90949 25.0506 4.9105 24.9991V7.13605C4.91104 7.08176 4.92812 7.02893 4.95947 6.98462C4.99081 6.94031 5.03492 6.90662 5.08591 6.88807C5.1369 6.86952 5.19233 6.86698 5.2448 6.88079C5.29726 6.89461 5.34427 6.92412 5.37952 6.96538L25.2774 30.7876C25.5974 31.1666 25.9963 31.4711 26.4462 31.6799C26.896 31.8887 27.386 31.9967 27.8819 31.9964H28.5925C29.04 31.9964 29.4831 31.9082 29.8965 31.7369C30.3099 31.5655 30.6855 31.3144 31.002 30.9977C31.3184 30.6811 31.5694 30.3052 31.7406 29.8915C31.9119 29.4778 32 29.0345 32 28.5867V3.40984C32 2.96026 31.9112 2.51512 31.7386 2.10003C31.566 1.68494 31.3131 1.3081 30.9944 0.991191C30.6758 0.674285 30.2976 0.423569 29.8817 0.253472C29.4658 0.0833747 29.0204 -0.00274605 28.5712 6.6742e-05C27.9889 0.000136647 27.4163 0.149528 26.9081 0.433985C26.3999 0.718442 25.973 1.12847 25.6682 1.62495Z" fill="#201F1F"/>
</svg>
