<svg width="34" height="34" viewBox="0 0 34 34" fill="none" xmlns="http://www.w3.org/2000/svg">
    <circle cx="17" cy="17" r="17" fill="#201F1F"/>
    <path d="M22.8699 8.27076L18.8099 14.3001C18.7441 14.3871 18.7137 14.4958 18.7248 14.6044C18.7358 14.7129 18.7876 14.8133 18.8696 14.8852C18.9516 14.9571 19.0577 14.9953 19.1667 14.9921C19.2757 14.9889 19.3795 14.9445 19.4571 14.8678L23.4524 11.4139C23.4754 11.3927 23.5042 11.3788 23.535 11.3739C23.5659 11.3689 23.5975 11.3731 23.626 11.386C23.6545 11.3989 23.6786 11.4198 23.6952 11.4463C23.7119 11.4727 23.7205 11.5035 23.7199 11.5348V22.391C23.7196 22.4239 23.7092 22.456 23.6902 22.4829C23.6711 22.5098 23.6444 22.5303 23.6134 22.5415C23.5824 22.5528 23.5488 22.5543 23.5169 22.546C23.4851 22.5376 23.4565 22.5197 23.4351 22.4946L11.3543 8.03114C11.1614 7.79894 10.9202 7.61177 10.6474 7.48274C10.3746 7.35371 10.0769 7.28596 9.77516 7.28422H9.35449C8.8058 7.28422 8.27958 7.50233 7.89159 7.89057C7.50361 8.27881 7.28564 8.80538 7.28564 9.35444V24.6425C7.28564 25.1916 7.50361 25.7182 7.89159 26.1064C8.27958 26.4946 8.8058 26.7128 9.35449 26.7128C9.70803 26.7127 10.0557 26.622 10.3642 26.4493C10.6728 26.2766 10.9319 26.0276 11.117 25.7262L15.177 19.6969C15.2428 19.6099 15.2732 19.5011 15.2622 19.3926C15.2511 19.284 15.1993 19.1837 15.1174 19.1118C15.0354 19.0398 14.9292 19.0016 14.8202 19.0049C14.7112 19.0081 14.6074 19.0525 14.5298 19.1291L10.5345 22.5831C10.5115 22.6042 10.4828 22.6182 10.4519 22.6231C10.421 22.6281 10.3894 22.6238 10.3609 22.611C10.3324 22.5981 10.3084 22.5771 10.2917 22.5507C10.275 22.5243 10.2664 22.4935 10.267 22.4622V11.6168C10.2673 11.5838 10.2777 11.5517 10.2967 11.5248C10.3158 11.4979 10.3426 11.4775 10.3735 11.4662C10.4045 11.455 10.4381 11.4534 10.47 11.4618C10.5018 11.4702 10.5304 11.4881 10.5518 11.5132L22.6326 25.9766C22.827 26.2067 23.0691 26.3916 23.3422 26.5184C23.6154 26.6452 23.9128 26.7108 24.2139 26.7106H24.6454C24.9171 26.7106 25.1861 26.657 25.4371 26.553C25.6881 26.449 25.9162 26.2965 26.1083 26.1042C26.3004 25.912 26.4528 25.6838 26.5567 25.4326C26.6607 25.1814 26.7142 24.9122 26.7142 24.6404V9.35444C26.7142 9.08148 26.6603 8.81122 26.5555 8.5592C26.4507 8.30718 26.2972 8.07838 26.1037 7.88597C25.9102 7.69357 25.6806 7.54135 25.4281 7.43807C25.1756 7.3348 24.9052 7.28251 24.6324 7.28422C24.2789 7.28426 23.9313 7.37496 23.6227 7.54767C23.3142 7.72038 23.055 7.96932 22.8699 8.27076Z" fill="white"/>
</svg>
