<svg width="18" height="18" viewBox="0 0 18 18" fill="none" xmlns="http://www.w3.org/2000/svg">
  <path d="M2 4.8C2 4.05739 2.295 3.3452 2.8201 2.8201C3.3452 2.295 4.05739 2 4.8 2H13.2C13.9426 2 14.6548 2.295 15.1799 2.8201C15.705 3.3452 16 4.05739 16 4.8V13.2C16 13.9426 15.705 14.6548 15.1799 15.1799C14.6548 15.705 13.9426 16 13.2 16H4.8C4.05739 16 3.3452 15.705 2.8201 15.1799C2.295 14.6548 2 13.9426 2 13.2V4.8Z" stroke="black" stroke-width="1.4" stroke-linecap="round" stroke-linejoin="round"/>
  <path d="M6.54688 8.30005C7.51337 8.30005 8.29688 7.51655 8.29688 6.55005C8.29688 5.58355 7.51337 4.80005 6.54688 4.80005C5.58038 4.80005 4.79688 5.58355 4.79688 6.55005C4.79688 7.51655 5.58038 8.30005 6.54688 8.30005Z" stroke="black" stroke-width="1.4" stroke-linecap="round" stroke-linejoin="round"/>
  <path d="M10.7651 9.43471L4.79688 16H13.29C14.0079 16 14.6964 15.7148 15.204 15.2072C15.7117 14.6995 15.9969 14.011 15.9969 13.2931V13.2C15.9969 12.8738 15.8744 12.7485 15.6539 12.507L12.8329 9.43051C12.7014 9.28709 12.5415 9.17265 12.3633 9.09449C12.1851 9.01633 11.9926 8.97617 11.798 8.97657C11.6035 8.97696 11.4111 9.01791 11.2333 9.09679C11.0554 9.17567 10.896 9.29076 10.7651 9.43471V9.43471Z" stroke="black" stroke-width="1.4" stroke-linecap="round" stroke-linejoin="round"/>
</svg>
