<svg width="18" height="18" viewBox="0 0 18 18" fill="none" xmlns="http://www.w3.org/2000/svg">
  <path d="M10.125 12.625H7.5V10.375H10.125C10.4234 10.375 10.7095 10.4935 10.9205 10.7045C11.1315 10.9155 11.25 11.2016 11.25 11.5C11.25 11.7984 11.1315 12.0845 10.9205 12.2955C10.7095 12.5065 10.4234 12.625 10.125 12.625ZM7.5 5.875H9.75C10.0484 5.875 10.3345 5.99353 10.5455 6.2045C10.7565 6.41548 10.875 6.70163 10.875 7C10.875 7.29837 10.7565 7.58452 10.5455 7.7955C10.3345 8.00647 10.0484 8.125 9.75 8.125H7.5V5.875ZM11.7 9.0925C12.4275 8.5825 12.9375 7.75 12.9375 7C12.9375 5.305 11.625 4 9.9375 4H5.25V14.5H10.53C12.105 14.5 13.3125 13.225 13.3125 11.6575C13.3125 10.5175 12.6675 9.5425 11.7 9.0925Z" fill="black"/>
</svg>
