<svg width="165" height="84" viewBox="0 0 165 84" fill="none" xmlns="http://www.w3.org/2000/svg">
<g clip-path="url(#clip0_9711_118108)">
<rect x="7.31738" y="26.9637" width="144.509" height="33.067" rx="3.7" transform="rotate(-2.61159 7.31738 26.9637)" fill="#201F1F"/>
<line y1="-2.775" x2="122.156" y2="-2.775" transform="matrix(0.999414 -0.034231 0.0656687 0.997841 18.1143 45.7254)" stroke="white" stroke-width="5.55"/>
<line y1="-2.775" x2="78.4371" y2="-2.775" transform="matrix(0.999414 -0.0342311 0.0656686 0.997841 18.627 51.8156)" stroke="white" stroke-width="5.55"/>
<path d="M20.9996 26.2445C33.5501 19.9355 61.1984 19.551 91.9784 26.2383C132.219 34.9812 162.575 52.5005 159.779 65.3688C156.983 78.2371 105.28 79.577 50.2586 66.0173L42 63.5" stroke="#201F1F" stroke-width="0.2"/>
<ellipse cx="72.647" cy="69.647" rx="6.36363" ry="6.36364" transform="rotate(-2.61158 72.647 69.647)" fill="#CFF9EA"/>
<path d="M75.7637 68.153L70.5208 68.3922L69.2628 72.2717L74.6443 72.0262C74.7513 72.0214 75.7637 68.153 75.7637 68.153Z" fill="#0C422A"/>
<path fill-rule="evenodd" clip-rule="evenodd" d="M71.5211 68.3465L72.0251 66.612C72.1315 66.246 72.5758 66.1059 72.8729 66.3446C73.3197 66.7036 73.5914 67.2369 73.6191 67.8094L73.6405 68.2498L76.7175 68.1095C76.7175 68.1095 75.5519 71.9848 75.5981 71.9827L70.2166 72.2281L71.4746 68.3486L71.5211 68.3465Z" fill="#19D992"/>
<ellipse cx="48.647" cy="19.647" rx="6.36363" ry="6.36364" transform="rotate(-2.61158 48.647 19.647)" fill="#FFF3EC"/>
<path d="M45.8876 22.0024L51.1305 21.7633L52.3885 17.8837L47.0071 18.1292C46.9001 18.1341 45.8876 22.0024 45.8876 22.0024Z" fill="#401700"/>
<path fill-rule="evenodd" clip-rule="evenodd" d="M50.1533 21.8077L49.7202 23.2982C49.6138 23.6642 49.1695 23.8043 48.8725 23.5656C48.4256 23.2066 48.154 22.6734 48.1262 22.1009L48.1165 21.9006L44.9341 22.0458C44.9341 22.0458 46.0997 18.1705 46.0535 18.1726L51.435 17.9271L50.177 21.8066L50.1533 21.8077Z" fill="#FF8743"/>
<path d="M8.57951 53.8536C4.49934 58.2238 2.73042 61.9468 3.88596 64.5626C7.58895 72.945 39.9213 66.7834 76.1023 50.8002C112.283 34.8171 138.612 15.0649 134.909 6.68243C131.5 -1.03303 98.9958 5.97281 66.4018 19.2181L60.1014 21.6846" stroke="#201F1F" stroke-width="0.2"/>
<ellipse cx="76.9882" cy="14.9882" rx="3.81818" ry="3.81818" transform="rotate(-2.61159 76.9882 14.9882)" fill="#CFF9EA"/>
<path d="M78.8575 14.0918L75.7117 14.2353L74.9569 16.563L78.1858 16.4158C78.25 16.4128 78.8575 14.0918 78.8575 14.0918Z" fill="#0C422A"/>
<path fill-rule="evenodd" clip-rule="evenodd" d="M76.3123 14.2079L76.6147 13.1672C76.6785 12.9477 76.9451 12.8636 77.1233 13.0068C77.3914 13.2222 77.5544 13.5421 77.5711 13.8857L77.5839 14.1499L79.4297 14.0657C79.4297 14.0657 78.7304 16.3909 78.7581 16.3896L75.5292 16.5369L76.284 14.2092L76.3123 14.2079Z" fill="#19D992"/>
<ellipse cx="24.9882" cy="66.9882" rx="3.81818" ry="3.81818" transform="rotate(-2.61159 24.9882 66.9882)" fill="#FFF3EC"/>
<path d="M23.332 68.4014L26.4777 68.2579L27.2325 65.9302L24.0036 66.0775C23.9395 66.0804 23.332 68.4014 23.332 68.4014Z" fill="#401700"/>
<path fill-rule="evenodd" clip-rule="evenodd" d="M25.891 68.2846L25.6311 69.1789C25.5673 69.3985 25.3007 69.4825 25.1225 69.3393C24.8544 69.1239 24.6914 68.804 24.6747 68.4605L24.6689 68.3403L22.7595 68.4274C22.7595 68.4274 23.4588 66.1022 23.4311 66.1035L26.66 65.9562L25.9052 68.2839L25.891 68.2846Z" fill="#FF8743"/>
<ellipse cx="96.9882" cy="8.9882" rx="3.81818" ry="3.81818" transform="rotate(-2.61159 96.9882 8.9882)" fill="#FFF3EC"/>
<path d="M95.332 10.4015L98.4777 10.258L99.2325 7.93025L96.0036 8.07753C95.9395 8.08046 95.332 10.4015 95.332 10.4015Z" fill="#401700"/>
<path fill-rule="evenodd" clip-rule="evenodd" d="M97.891 10.2846L97.6311 11.1789C97.5673 11.3984 97.3007 11.4825 97.1225 11.3393C96.8544 11.1239 96.6914 10.8039 96.6747 10.4604L96.6689 10.3403L94.7595 10.4274C94.7595 10.4274 95.4588 8.10221 95.4311 8.10348L98.66 7.9562L97.9052 10.2839L97.891 10.2846Z" fill="#FF8743"/>
<mask id="mask0_9711_118108" style="mask-type:alpha" maskUnits="userSpaceOnUse" x="16" y="32" width="7" height="7">
<path fill-rule="evenodd" clip-rule="evenodd" d="M22.123 32.1156L17.6768 33.9369L17.7176 34.833L16.5354 35.3173L16.6969 38.8605L21.1432 37.0392L21.1023 36.1431L22.2845 35.6588L22.123 32.1156Z" fill="#ADD5E5"/>
</mask>
<g mask="url(#mask0_9711_118108)">
<path fill-rule="evenodd" clip-rule="evenodd" d="M22.123 32.1156L17.6768 33.9369L17.7176 34.833L16.5354 35.3173L16.6969 38.8605L21.1432 37.0392L21.1023 36.1431L22.2845 35.6588L22.123 32.1156Z" fill="white"/>
</g>
<ellipse cx="90.9882" cy="42.9882" rx="3.81818" ry="3.81818" transform="rotate(-2.61159 90.9882 42.9882)" fill="#CFF9EA"/>
<path d="M92.8575 42.0918L89.7117 42.2353L88.9569 44.563L92.1858 44.4157C92.25 44.4128 92.8575 42.0918 92.8575 42.0918Z" fill="#0C422A"/>
<path fill-rule="evenodd" clip-rule="evenodd" d="M90.3123 42.2079L90.6147 41.1672C90.6785 40.9477 90.9451 40.8636 91.1233 41.0068C91.3914 41.2222 91.5544 41.5421 91.5711 41.8857L91.5839 42.1499L93.4297 42.0657C93.4297 42.0657 92.7304 44.3909 92.7581 44.3896L89.5292 44.5369L90.284 42.2092L90.3123 42.2079Z" fill="#19D992"/>
</g>
<defs>
<clipPath id="clip0_9711_118108">
<rect width="165" height="84" fill="white"/>
</clipPath>
</defs>
</svg>
