<svg width="166" height="84" viewBox="0 0 166 84" fill="none" xmlns="http://www.w3.org/2000/svg">
    <mask id="path-1-inside-1_9711_117823" fill="white">
        <path fill-rule="evenodd" clip-rule="evenodd" d="M119.173 -6.10352e-05L74.4239 16.0372V24.9338L62.5254 29.198V64.3764L107.274 48.3392V39.4426L119.173 35.1784V-6.10352e-05Z"/>
    </mask>
    <path fill-rule="evenodd" clip-rule="evenodd" d="M119.173 -6.10352e-05L74.4239 16.0372V24.9338L62.5254 29.198V64.3764L107.274 48.3392V39.4426L119.173 35.1784V-6.10352e-05Z" fill="#201F1F"/>
    <path d="M74.4239 16.0372L74.3306 15.7769L74.1474 15.8426V16.0372H74.4239ZM119.173 -6.10352e-05H119.449V-0.392858L119.08 -0.26034L119.173 -6.10352e-05ZM74.4239 24.9338L74.5172 25.1941L74.7004 25.1284V24.9338H74.4239ZM62.5254 29.198L62.4321 28.9377L62.2489 29.0034V29.198H62.5254ZM62.5254 64.3764H62.2489V64.7692L62.6187 64.6367L62.5254 64.3764ZM107.274 48.3392L107.368 48.5995L107.551 48.5338V48.3392H107.274ZM107.274 39.4426L107.181 39.1823L106.998 39.248V39.4426H107.274ZM119.173 35.1784L119.266 35.4387L119.449 35.373V35.1784H119.173ZM74.5172 16.2975L119.266 0.260218L119.08 -0.26034L74.3306 15.7769L74.5172 16.2975ZM74.7004 24.9338V16.0372H74.1474V24.9338H74.7004ZM62.6187 29.4583L74.5172 25.1941L74.3306 24.6735L62.4321 28.9377L62.6187 29.4583ZM62.8019 64.3764V29.198H62.2489V64.3764H62.8019ZM107.181 48.0789L62.4321 64.1162L62.6187 64.6367L107.368 48.5995L107.181 48.0789ZM106.998 39.4426V48.3392H107.551V39.4426H106.998ZM119.08 34.9181L107.181 39.1823L107.368 39.7029L119.266 35.4387L119.08 34.9181ZM118.896 -6.10352e-05V35.1784H119.449V-6.10352e-05H118.896Z" fill="#201F1F" mask="url(#path-1-inside-1_9711_117823)"/>
    <path d="M96.2733 24.9873C131.278 22.9007 158.266 28.9168 159.609 40.1233C161.174 53.1808 127.332 68.3404 84.0191 73.9832C40.7065 79.626 4.32571 73.6152 2.76029 60.5576C1.54788 50.4446 21.575 39.0706 50.7913 31.8336C57.7563 30.0837 59.8273 29.6819 65 28.5" stroke="#201F1F" stroke-width="0.414734"/>
    <circle cx="24.801" cy="72.0564" r="6.7847" fill="#E1FC31" stroke="#201F1F" stroke-width="0.505177"/>
    <path d="M29.1999 72.0565C29.1999 74.4857 27.2307 76.4549 24.8016 76.4549C22.3725 76.4549 20.4033 74.4857 20.4033 72.0565" stroke="#201F1F" stroke-width="0.414734"/>
    <circle cx="137.037" cy="27.0373" r="6.7847" fill="#E1FC31" stroke="#201F1F" stroke-width="0.505177"/>
    <path d="M141.435 27.0375C141.435 29.4666 139.466 31.4358 137.037 31.4358C134.608 31.4358 132.639 29.4666 132.639 27.0375" stroke="#201F1F" stroke-width="0.414734"/>
    <circle cx="158.037" cy="46.0373" r="6.7847" fill="#E1FC31" stroke="#201F1F" stroke-width="0.505177"/>
    <path d="M162.435 46.0375C162.435 48.4666 160.466 50.4358 158.037 50.4358C155.608 50.4358 153.639 48.4666 153.639 46.0375" stroke="#201F1F" stroke-width="0.414734"/>
    <circle cx="99.9523" cy="71.7219" r="6.7847" fill="#E1FC31" stroke="#201F1F" stroke-width="0.505177"/>
    <path d="M104.35 71.722C104.35 74.1512 102.381 76.1204 99.952 76.1204C97.5229 76.1204 95.5537 74.1512 95.5537 71.722" stroke="#201F1F" stroke-width="0.414734"/>
    <circle cx="129.037" cy="64.0373" r="6.7847" fill="#E1FC31" stroke="#201F1F" stroke-width="0.505177"/>
    <path d="M133.436 64.0375C133.436 66.4666 131.467 68.4358 129.038 68.4358C126.609 68.4358 124.64 66.4666 124.64 64.0375" stroke="#201F1F" stroke-width="0.414734"/>
    <circle cx="31.7228" cy="36.7825" r="6.7847" fill="#E1FC31" stroke="#201F1F" stroke-width="0.505177"/>
    <path d="M36.1199 36.7826C36.1199 39.2117 34.1507 41.1809 31.7215 41.1809C29.2924 41.1809 27.3232 39.2117 27.3232 36.7826" stroke="#201F1F" stroke-width="0.414734"/>
    <circle cx="41.9035" cy="74.198" r="6.7847" fill="#E1FC31" stroke="#201F1F" stroke-width="0.505177"/>
    <path d="M46.3015 74.1982C46.3015 76.6273 44.3323 78.5965 41.9032 78.5965C39.4741 78.5965 37.5049 76.6273 37.5049 74.1982" stroke="#201F1F" stroke-width="0.414734"/>
</svg>
