<svg width="165" height="85" viewBox="0 0 165 85" fill="none" xmlns="http://www.w3.org/2000/svg">
    <circle cx="81.6587" cy="45.1156" r="30.6587" fill="#19D992"/>
    <path d="M130.597 45.7944C130.697 45.6948 130.697 45.5334 130.597 45.4338L128.975 43.811C128.875 43.7114 128.714 43.7114 128.614 43.811C128.514 43.9106 128.514 44.072 128.614 44.1716L130.057 45.6141L128.614 47.0566C128.514 47.1562 128.514 47.3176 128.614 47.4172C128.714 47.5168 128.875 47.5168 128.975 47.4172L130.597 45.7944ZM110.477 45.8691H130.417V45.3591H110.477V45.8691Z" fill="#201F1F"/>
    <path d="M32.3 45.7944C32.2004 45.6948 32.2004 45.5334 32.3 45.4338L33.9228 43.811C34.0224 43.7114 34.1838 43.7114 34.2834 43.811C34.383 43.9106 34.383 44.072 34.2834 44.1716L32.8409 45.6141L34.2834 47.0566C34.383 47.1562 34.383 47.3176 34.2834 47.4172C34.1838 47.5168 34.0224 47.5168 33.9228 47.4172L32.3 45.7944ZM52.4209 45.8691H32.4803V45.3591H52.4209V45.8691Z" fill="#201F1F"/>
    <path d="M27.0071 8.38095C26.871 8.4174 26.7903 8.55723 26.8268 8.69326L27.4207 10.9101C27.4572 11.0461 27.597 11.1268 27.7331 11.0904C27.8691 11.0539 27.9498 10.9141 27.9134 10.7781L27.3854 8.80758L29.3559 8.27959C29.4919 8.24314 29.5726 8.10331 29.5362 7.96728C29.4997 7.83124 29.3599 7.75051 29.2239 7.78696L27.0071 8.38095ZM58.7974 26.6489L27.2006 8.40643L26.9456 8.8481L58.5424 27.0906L58.7974 26.6489Z" fill="#201F1F"/>
    <path d="M24.9338 79.3559C24.7978 79.3194 24.7171 79.1796 24.7535 79.0436L25.3475 76.8268C25.384 76.6907 25.5238 76.61 25.6598 76.6465C25.7958 76.6829 25.8766 76.8227 25.8401 76.9588L25.3121 78.9293L27.2826 79.4573C27.4187 79.4937 27.4994 79.6335 27.4629 79.7696C27.4265 79.9056 27.2867 79.9863 27.1506 79.9499L24.9338 79.3559ZM56.7242 61.088L25.1273 79.3304L24.8723 78.8887L56.4692 60.6463L56.7242 61.088Z" fill="#201F1F"/>
    <path d="M136.915 79.8726C136.952 80.0087 136.871 80.1485 136.735 80.1849L134.518 80.7789C134.382 80.8154 134.242 80.7346 134.206 80.5986C134.17 80.4626 134.25 80.3227 134.386 80.2863L136.357 79.7583L135.829 77.7878C135.792 77.6518 135.873 77.512 136.009 77.4755C136.145 77.4391 136.285 77.5198 136.321 77.6558L136.915 79.8726ZM105.2 61.4753L136.797 79.7178L136.542 80.1595L104.945 61.917L105.2 61.4753Z" fill="#201F1F"/>
    <path d="M134.843 7.8642C134.88 7.72816 134.799 7.58834 134.663 7.55189L132.446 6.9579C132.31 6.92145 132.17 7.00217 132.134 7.13821C132.097 7.27424 132.178 7.41407 132.314 7.45052L134.285 7.97851L133.757 9.949C133.72 10.085 133.801 10.2249 133.937 10.2613C134.073 10.2978 134.213 10.217 134.249 10.081L134.843 7.8642ZM103.127 26.2615L134.724 8.01903L134.469 7.57736L102.873 25.8198L103.127 26.2615Z" fill="#201F1F"/>
    <path d="M80.8197 84.1803C80.9193 84.2799 81.0807 84.2799 81.1803 84.1803L82.8031 82.5575C82.9027 82.4579 82.9027 82.2965 82.8031 82.1969C82.7035 82.0973 82.5421 82.0973 82.4425 82.1969L81 83.6394L79.5575 82.1969C79.4579 82.0973 79.2965 82.0973 79.1969 82.1969C79.0973 82.2965 79.0973 82.4579 79.1969 82.5575L80.8197 84.1803ZM80.745 75.7745L80.745 84L81.255 84L81.255 75.7745L80.745 75.7745Z" fill="#201F1F"/>
    <rect x="51" y="45.6141" width="61.3174" height="30.1602" fill="#19D992"/>
    <path d="M71.6719 43.2706L86.0058 38.1336V49.4019L71.6719 54.5389V43.2706Z" fill="#201F1F"/>
    <path d="M75.4834 39.0549L89.8173 33.9179V45.1862L75.4834 50.3232V39.0549Z" fill="#201F1F"/>
    <line x1="72.4219" y1="43.3349" x2="72.4219" y2="60.0379" stroke="#201F1F" stroke-width="1.5"/>
    <path d="M82.2812 25.9228L70.9483 6.48072L93.614 6.48072L82.2812 25.9228Z" fill="#19D992"/>
    <path d="M14.2019 44.4927C14.2019 48.417 11.0757 51.5908 7.22847 51.5908C3.38122 51.5908 0.255 48.417 0.255 44.4927C0.255 40.5684 3.38122 37.3946 7.22847 37.3946C11.0757 37.3946 14.2019 40.5684 14.2019 44.4927Z" fill="#E1FC31" stroke="#201F1F" stroke-width="0.51"/>
    <circle cx="154.361" cy="71.8159" r="6.97347" fill="#E1FC31" stroke="#201F1F" stroke-width="0.51"/>
    <circle cx="7.22847" cy="36.1424" r="6.97347" fill="#E1FC31" stroke="#201F1F" stroke-width="0.51"/>
    <circle cx="154.361" cy="63.5905" r="6.97347" fill="#E1FC31" stroke="#201F1F" stroke-width="0.51"/>
    <circle cx="7.22847" cy="28.6646" r="6.97347" fill="#E1FC31" stroke="#201F1F" stroke-width="0.51"/>
    <circle cx="154.361" cy="56.1127" r="6.97347" fill="#E1FC31" stroke="#201F1F" stroke-width="0.51"/>
</svg>