<svg width="16" height="16" viewBox="0 0 16 16" fill="none" xmlns="http://www.w3.org/2000/svg">
<path d="M15.0667 3.42063C14.5369 3.66181 13.9675 3.82424 13.3699 3.89746C13.9801 3.52276 14.4487 2.92904 14.6689 2.22149C14.0983 2.5685 13.4659 2.82075 12.7927 2.95673C12.2545 2.36792 11.4859 2 10.6363 2C8.72895 2 7.32735 3.82486 7.75815 5.71924C5.30355 5.59311 3.12675 4.3872 1.66935 2.55435C0.895348 3.91591 1.26795 5.69709 2.58315 6.59906C2.09955 6.58306 1.64355 6.44709 1.24575 6.22006C1.21335 7.62346 2.19435 8.93642 3.61515 9.22867C3.19935 9.34434 2.74395 9.37141 2.28075 9.28035C2.65635 10.4838 3.74715 11.3593 5.04075 11.3839C3.79875 12.3825 2.23395 12.8285 0.666748 12.639C1.97415 13.4986 3.52755 14 5.19555 14C10.6807 14 13.7797 9.24959 13.5925 4.98892C14.1697 4.56132 14.6707 4.02789 15.0667 3.42063Z" fill="#595959"/>
</svg>
