<svg width="24" height="24" viewBox="0 0 24 24" fill="none" xmlns="http://www.w3.org/2000/svg">
    <path d="M12.2409 3.936C16.4769 3.936 19.9569 7.068 20.5449 11.136H23.0409L18.8409 15.936L14.6409 11.136H17.4249C17.1565 9.96133 16.4977 8.91238 15.5561 8.16044C14.6146 7.40851 13.4459 6.99802 12.2409 6.996C10.5009 6.996 8.96494 7.848 7.99294 9.132L5.94094 6.792C6.72635 5.89387 7.69495 5.1743 8.78162 4.68168C9.86829 4.18906 11.0478 3.9348 12.2409 3.936ZM11.7609 20.064C7.53694 20.064 4.04494 16.932 3.45694 12.864H0.960938L5.16094 8.064C6.56494 9.66 7.95694 11.268 9.36094 12.864H6.57694C6.8454 14.0387 7.5042 15.0876 8.44575 15.8396C9.3873 16.5915 10.556 17.002 11.7609 17.004C13.5009 17.004 15.0369 16.152 16.0089 14.868L18.0609 17.208C17.2763 18.107 16.3078 18.8272 15.221 19.3199C14.1342 19.8126 12.9542 20.0664 11.7609 20.064Z" fill="#201F1F"/>
</svg>
