<svg width="64" height="64" viewBox="0 0 64 64" fill="none" xmlns="http://www.w3.org/2000/svg">
    <path d="M53.8845 23.1111V22.5422C53.7632 17.7262 51.7416 13.1537 48.261 9.82299C44.7804 6.49223 40.1234 4.67373 35.3067 4.76447C31.7194 4.7352 28.2002 5.74317 25.1723 7.6671C22.1445 9.59102 19.7372 12.3489 18.24 15.6089C14.0245 16.0792 10.1283 18.0803 7.29046 21.2328C4.45261 24.3852 2.87056 28.4696 2.84445 32.7111C2.84911 34.9585 3.29668 37.183 4.16157 39.2573C5.02647 41.3316 6.29172 43.2151 7.88499 44.8001C9.47827 46.3852 11.3683 47.6406 13.4471 48.4947C15.5259 49.3488 17.7526 49.7848 20 49.7778H26.6667V46.2222H20C16.5638 46.0363 13.3259 44.5546 10.9388 42.0759C8.5518 39.5971 7.19317 36.3057 7.1368 32.8649C7.08043 29.4241 8.33051 26.0899 10.6351 23.5343C12.9396 20.9787 16.1273 19.3918 19.5556 19.0934H20.7467L21.1556 17.9734C22.2582 15.1096 24.2133 12.6533 26.7568 10.9365C29.3003 9.21963 32.3095 8.32496 35.3778 8.37336C39.2516 8.28234 43.0045 9.72618 45.8184 12.3902C48.6323 15.0543 50.2791 18.7225 50.4 22.5956C50.4245 23.0693 50.4245 23.544 50.4 24.0178L50.2578 25.2978L51.4133 25.8311C53.6483 26.838 55.4683 28.584 56.567 30.7752C57.6658 32.9665 57.9763 35.4693 57.4463 37.8627C56.9163 40.256 55.5782 42.3937 53.657 43.9162C51.7358 45.4387 49.3489 46.2531 46.8978 46.2222H37.3333V49.7778H46.8978C50.0595 49.8005 53.1387 48.7689 55.6486 46.8462C58.1586 44.9234 59.9563 42.2191 60.7577 39.1605C61.559 36.1019 61.3183 32.8635 60.0736 29.957C58.8289 27.0505 56.6511 24.6417 53.8845 23.1111V23.1111Z" fill="#C1B0F1"/>
    <path d="M39.6089 38.8442C39.9635 38.8498 40.3117 38.7493 40.6088 38.5554C40.9058 38.3616 41.1381 38.0834 41.2757 37.7565C41.4133 37.4296 41.45 37.069 41.3811 36.7211C41.3122 36.3732 41.1408 36.0539 40.8889 35.8042L32 26.9153L23.1111 35.8042C22.8199 36.1443 22.6677 36.5817 22.685 37.0292C22.7023 37.4766 22.8877 37.901 23.2044 38.2176C23.521 38.5342 23.9454 38.7197 24.3928 38.737C24.8402 38.7543 25.2777 38.6021 25.6178 38.3108L30.2222 33.7775V55.5553C30.2222 56.0268 30.4095 56.479 30.7429 56.8124C31.0763 57.1458 31.5285 57.3331 32 57.3331C32.4715 57.3331 32.9237 57.1458 33.2571 56.8124C33.5905 56.479 33.7778 56.0268 33.7778 55.5553V33.7775L38.3467 38.3464C38.6851 38.6727 39.1389 38.8516 39.6089 38.8442Z" fill="#C1B0F1"/>
</svg>
