<svg width="18" height="18" viewBox="0 0 18 18" fill="none" xmlns="http://www.w3.org/2000/svg">
<path d="M8.53476 10.3503C8.63667 10.3503 8.73221 10.3343 8.82138 10.3022C8.91055 10.2706 8.99336 10.2166 9.06979 10.1401L11.7832 7.42675C11.9233 7.28662 11.9934 7.10828 11.9934 6.89172C11.9934 6.67516 11.9233 6.49045 11.7832 6.33758C11.6303 6.19745 11.4456 6.12739 11.229 6.12739C11.0125 6.12739 10.8341 6.19745 10.694 6.33758L8.53476 8.49682L7.99973 7.96178C7.8596 7.82166 7.68126 7.75159 7.46469 7.75159C7.24813 7.75159 7.06979 7.82166 6.92966 7.96178C6.7768 8.11465 6.70036 8.29936 6.70036 8.51592C6.70036 8.73248 6.7768 8.91083 6.92966 9.05096L7.99973 10.1401C8.07616 10.2166 8.15896 10.2706 8.24813 10.3022C8.33731 10.3343 8.43285 10.3503 8.53476 10.3503ZM9.33731 15.2611C10.8914 13.8344 12.0443 12.5381 12.7959 11.3722C13.5475 10.2069 13.9233 9.17197 13.9233 8.26752C13.9233 6.87898 13.4805 5.74191 12.5949 4.85631C11.7098 3.97121 10.6239 3.52866 9.33731 3.52866C8.05068 3.52866 6.96457 3.97121 6.07896 4.85631C5.19387 5.74191 4.75132 6.87898 4.75132 8.26752C4.75132 9.17197 5.12711 10.2069 5.87871 11.3722C6.6303 12.5381 7.78317 13.8344 9.33731 15.2611ZM9.33731 17C9.23539 17 9.13348 16.9809 9.03157 16.9427C8.92966 16.9045 8.84049 16.8535 8.76406 16.7898C6.90418 15.1465 5.51565 13.6211 4.59845 12.2138C3.68126 10.8059 3.22266 9.49045 3.22266 8.26752C3.22266 6.35669 3.83743 4.83439 5.06699 3.70064C6.29603 2.56688 7.71947 2 9.33731 2C10.9551 2 12.3786 2.56688 13.6076 3.70064C14.8372 4.83439 15.452 6.35669 15.452 8.26752C15.452 9.49045 14.9934 10.8059 14.0762 12.2138C13.159 13.6211 11.7704 15.1465 9.91055 16.7898C9.83412 16.8535 9.74495 16.9045 9.64304 16.9427C9.54113 16.9809 9.43922 17 9.33731 17Z" fill="#8C8C8C"/>
</svg>
