<svg width="24" height="24" viewBox="0 0 24 24" fill="none" xmlns="http://www.w3.org/2000/svg">
<path d="M20.25 6H17.25V4.125C17.25 3.29766 16.5773 2.625 15.75 2.625H8.25C7.42266 2.625 6.75 3.29766 6.75 4.125V6H3.75C3.33516 6 3 6.33516 3 6.75V7.5C3 7.60313 3.08437 7.6875 3.1875 7.6875H4.60312L5.18203 19.9453C5.21953 20.7445 5.88047 21.375 6.67969 21.375H17.3203C18.1219 21.375 18.7805 20.7469 18.818 19.9453L19.3969 7.6875H20.8125C20.9156 7.6875 21 7.60313 21 7.5V6.75C21 6.33516 20.6648 6 20.25 6ZM15.5625 6H8.4375V4.3125H15.5625V6Z" fill="#C14600"/>
</svg>
