<svg width="301" height="48" viewBox="0 0 301 48" fill="none" xmlns="http://www.w3.org/2000/svg">
<mask id="mask0" mask-type="alpha" maskUnits="userSpaceOnUse" x="199" y="10" width="25" height="28">
<path fill-rule="evenodd" clip-rule="evenodd" d="M223.011 10.3999L204.052 17.1759V20.9349L199.01 22.7365V37.5999L217.97 30.8239V27.0649L223.011 25.2633V10.3999Z" fill="#ADD5E5"/>
</mask>
<g mask="url(#mask0)">
<path fill-rule="evenodd" clip-rule="evenodd" d="M223.011 10.3999L204.052 17.1759V20.9349L199.01 22.7365V37.5999L217.97 30.8239V27.0649L223.011 25.2633V10.3999Z" fill="white"/>
</g>
<path d="M238.411 30.5455L239.274 27.7969H243.793L244.656 30.5455H248.057L243.64 17.4546H239.427L235.01 30.5455H238.411ZM240.028 25.3935L241.479 20.7529H241.582L243.039 25.3935H240.028Z" fill="white"/>
<path d="M257.038 21.3793H260.068C260.042 18.9312 258.092 17.2756 255.05 17.2756C252.058 17.2756 249.904 18.9056 249.923 21.341C249.917 23.3289 251.311 24.4475 253.573 24.9653L254.941 25.2849C256.379 25.6173 257.025 26.0072 257.038 26.7423C257.025 27.5413 256.277 28.0974 255.005 28.0974C253.605 28.0974 252.685 27.4454 252.615 26.1861H249.585C249.623 29.2479 251.752 30.7117 255.043 30.7117C258.303 30.7117 260.234 29.2352 260.247 26.7486C260.234 24.6584 258.821 23.38 256.239 22.8111L255.114 22.5555C253.925 22.2998 253.171 21.9035 253.196 21.1236C253.203 20.4077 253.816 19.89 255.043 19.89C256.277 19.89 256.955 20.4461 257.038 21.3793Z" fill="white"/>
<path d="M262.316 20.0242H266.292V30.5455H269.412V20.0242H273.381V17.4546H262.316V20.0242Z" fill="white"/>
<path d="M275.826 30.5455H278.99V26.0647H280.614L283.005 30.5455H286.456L283.74 25.5597C285.178 24.9077 286.009 23.6229 286.009 21.814C286.009 19.1229 284.174 17.4546 281.234 17.4546H275.826V30.5455ZM278.99 23.5718V20.005H280.55C281.969 20.005 282.73 20.5995 282.73 21.814C282.73 23.0285 281.969 23.5718 280.55 23.5718H278.99Z" fill="white"/>
<path d="M301 24.0001C301 19.6727 298.264 17.2756 294.749 17.2756C291.22 17.2756 288.504 19.6727 288.504 24.0001C288.504 28.3083 291.22 30.7245 294.749 30.7245C298.264 30.7245 301 28.3275 301 24.0001ZM297.766 24.0001C297.766 26.5633 296.641 27.9504 294.749 27.9504C292.863 27.9504 291.732 26.5633 291.732 24.0001C291.732 21.4369 292.863 20.0498 294.749 20.0498C296.641 20.0498 297.766 21.4369 297.766 24.0001Z" fill="white"/>
</svg>
