<svg width="49" height="48" viewBox="0 0 49 48" fill="none" xmlns="http://www.w3.org/2000/svg">
<rect x="0.359863" width="48" height="48" fill="#19D992"/>
<path d="M34 23.0799V23.9999C33.9988 26.1563 33.3005 28.2545 32.0093 29.9817C30.7182 31.7088 28.9033 32.9723 26.8354 33.5838C24.7674 34.1952 22.5573 34.1218 20.5345 33.3744C18.5117 32.6271 16.7847 31.246 15.611 29.4369C14.4373 27.6279 13.8798 25.4879 14.0217 23.3362C14.1636 21.1844 14.9972 19.1362 16.3983 17.4969C17.7994 15.8577 19.6928 14.7152 21.7962 14.24C23.8996 13.7648 26.1003 13.9822 28.07 14.8599" stroke="white" stroke-width="2" stroke-linejoin="round"/>
<path d="M34 16L24 26.01L21 23.01" stroke="white" stroke-width="2" stroke-linejoin="round"/>
</svg>
